<?xml version="1.0" encoding="UTF-8"?>
<!DOCTYPE svg PUBLIC "-//W3C//DTD SVG 1.1//EN" "http://www.w3.org/Graphics/SVG/1.1/DTD/svg11.dtd">
<!-- Creator: CorelDRAW 2017 -->
<svg xmlns="http://www.w3.org/2000/svg" xml:space="preserve" width="54mm" height="28mm" version="1.1" style="shape-rendering:geometricPrecision; text-rendering:geometricPrecision; image-rendering:optimizeQuality; fill-rule:evenodd; clip-rule:evenodd"
viewBox="0 0 5400 2800"
 xmlns:xlink="http://www.w3.org/1999/xlink">
 <defs>
  <style type="text/css">
   <![CDATA[
    .fil1 {fill:#FEFEFE}
    .fil9 {fill:#2B2A29}
    .fil4 {fill:#FCFDFE}
    .fil2 {fill:#D12124}
    .fil3 {fill:#F9E908}
    .fil8 {fill:#F4E60A}
    .fil5 {fill:#888A89}
    .fil6 {fill:#1F1C20}
    .fil7 {fill:#1F1B20}
    .fil0 {fill:#1F1B20}
    .fil10 {fill:#2B2A29;fill-rule:nonzero}
   ]]>
  </style>
 </defs>
 <g id="Vrstva_x0020_1">
  <metadata id="CorelCorpID_0Corel-Layer"/>
  <g id="_2902129308448">
   <path class="fil0" d="M1661.72 1251.05c-181.16,45.7 -213.51,51.8 -409.74,51.8 -101.37,0 -213.52,-9.14 -312.7,-36.56 -23.73,-6.1 -71.18,-21.34 -90.59,-24.38 -6.46,152.34 32.37,396.11 69.02,542.36 88.4,359.55 554.23,390.03 670.68,6.1 32.37,-103.61 88.44,-457.06 73.33,-539.32z"/>
   <path class="fil1" d="M1141.79 2026.54c29.92,11.55 61.66,18.48 94.19,20.28 3.89,0.22 7.8,0.36 11.68,0.43l2.16 -354.08c-196.27,9.14 -166.06,-45.72 -209.2,-27.44 -17.24,6.1 -25.86,9.14 -45.29,3.06 -23.72,-6.1 -47.45,-30.48 -45.27,-57.9 0,-27.42 21.55,-51.8 43.11,-57.89 64.72,-24.38 181.15,63.99 256.65,39.61l2.16 -270.89c-36.09,0 -73,-1.1 -109.97,-3.67 0.11,21.63 2.32,150.19 -1.95,211.11l-69.23 -6.92c-53.62,-5.83 -168.33,-28.38 -187.72,-30.34 0.9,6.91 1.81,13.8 2.75,20.71 8.56,62.02 19.04,124.82 31.9,186.73 25.8,7 156.36,35.73 224.46,43.11 1.77,22.4 -0.55,235.31 -0.43,284.09z"/>
   <path class="fil0" d="M1719.42 982.52c-34.51,-24.38 -111.59,-69.69 -152.6,-87.97 -86.26,-45.72 -213.49,-59.05 -325.64,-55.99 -125.06,3.04 -217.8,13.33 -319.17,59.03 -45.29,21.32 -79.78,45.7 -120.77,70.09l-112.13 73.12c31.79,-9.9 85.36,-29.6 120.77,-39.6 43.12,-12.2 86.25,-24.38 133.72,-33.52 114.29,-18.29 172.52,-33.53 297.58,-33.53 163.92,0 340.75,33.53 498.19,82.27 33.24,11.03 52.92,21.37 81.94,30.48 -32.47,-22.94 -68.5,-42.16 -101.89,-64.38z"/>
   <path class="fil2" d="M883.11 1491.9c19.39,1.96 134.1,24.51 187.72,30.34l69.23 6.92c4.27,-60.92 2.06,-189.48 1.95,-211.11 -70.45,-4.91 -141.23,-15.18 -207.43,-33.48 -14.34,-3.69 -28.59,-8.05 -42.82,-12.15 -7.75,-2.25 -16.32,-4.86 -24.83,-7.16 -0.52,34.53 1.08,69.36 3.55,103.66 2.95,41.08 7.32,82.12 12.63,122.98z"/>
   <path class="fil3" d="M1379.15 1319.92l-6.2 210.29c63.19,-0.85 196.7,-26.26 252.74,-41.5 3.78,-13.99 14.25,-107.02 15.98,-127.39 1.84,-21.62 3.29,-43.45 3.62,-65.15 0.09,-6.44 0.18,-13.47 -0.09,-20.49 -4.73,0.83 -9.3,1.65 -13.75,2.5 -34.96,8.82 -70.32,17.49 -105.76,24.51 -18.53,4.1 -38.34,7.7 -63.01,10.4 -27.55,3.52 -55.49,5.61 -83.53,6.83z"/>
   <path class="fil0" d="M1021.22 851.89c166.06,-36.56 351.51,-33.52 476.62,6.08 -49.63,-124.92 -99.24,-164.52 -237.22,-164.52 -58.25,-3.05 -120.79,3.04 -161.78,33.52 -34.49,21.32 -62.52,73.12 -77.62,124.92z"/>
   <path class="fil2" d="M1141.79 2026.54c-0.12,-48.78 2.2,-261.69 0.43,-284.09 -68.1,-7.38 -198.66,-36.11 -224.46,-43.11 5.63,27.01 11.71,53.85 18.26,80.41 18.61,75.27 56.72,143.91 116.56,194.07 26.87,22.51 57,40.29 89.21,52.72z"/>
   <path class="fil3" d="M1372.73 1749.07l-2.12 274.56c21.66,-9.09 42.37,-20.69 61.75,-34.69 68.98,-49.83 113.43,-123.6 137.97,-204.08 5.74,-18.75 11.87,-43.56 16.21,-63.26 -71.34,11.21 -113.91,24.47 -213.81,27.47z"/>
   <path class="fil0" d="M667.55 1059.08l6.44 24.38c45.29,-12.18 94.9,-27.42 135.89,-39.6 155.27,-45.72 295.46,-67.04 463.67,-67.04 155.26,3.04 370.93,36.56 517.55,97.5 43.17,21.32 47.45,21.32 53.95,-3.04 0,0 -2.16,-3.06 -2.16,-3.06 0,0 -4.34,-6.08 -25.9,-15.22 -174.67,-70.08 -437.76,-109.71 -556.37,-109.71 -142.35,-12.18 -457.22,51.81 -593.07,115.79z"/>
   <path class="fil4" d="M1256.28 1598.71l0 103.6c125.11,18.28 293.3,-3.06 319.18,-152.37 -49.59,18.29 -40.97,24.39 -142.35,42.67 -62.52,9.14 -114.27,12.2 -176.83,6.1z"/>
   <path class="fil0" d="M891.29 816.28c-14.89,-11.15 -40.12,-11.46 -57.68,-4.01 -21.59,9.14 -41.78,28.5 -54.72,40.7 -25.89,24.38 -32.1,44.98 -77.57,66.68 -19.05,9.09 -33.05,8.82 -42.05,5.65 0.35,26.58 42.02,81.46 120.4,11.91 33.16,-31.21 37.73,-57.2 64.73,-76.86 9.77,-7.11 20.12,-14.58 37.32,-18.05 8.37,-1.67 17.74,-1.58 29.51,2.12 -5.78,-12.21 -8.74,-19.77 -19.94,-28.14z"/>
   <path class="fil0" d="M1603.49 845.79c71.16,6.1 88.44,48.76 120.79,88.36 15.09,15.24 34.49,36.57 64.7,42.67 36.63,6.1 56.07,-15.24 64.68,-42.67 -21.55,-3.04 -51.76,18.29 -116.45,-79.22 -10.77,-15.24 -34.51,-33.52 -64.72,-36.56 -28.01,-3.04 -60.38,9.14 -69,27.42z"/>
   <path class="fil0" d="M771.06 1519.18c-69.02,27.42 -28.05,121.88 38.82,100.56 60.38,-21.34 32.35,-131.03 -38.82,-100.56z"/>
   <path class="fil0" d="M1638 1781.23c-73.34,18.28 -43.13,121.88 23.72,103.6 66.88,-18.28 40.98,-118.84 -23.72,-103.6z"/>
   <path class="fil0" d="M1691.93 1519.18c-66.88,24.38 -25.88,124.94 38.79,97.5 60.38,-21.32 30.21,-124.92 -38.79,-97.5z"/>
   <path class="fil0" d="M1778.17 1787.33c-73.31,18.28 -40.96,118.82 28.05,100.54 62.54,-18.28 38.83,-118.83 -28.05,-100.54z"/>
   <path class="fil0" d="M1663.89 1970.13c-10.78,21.34 -17.27,48.76 -10.78,79.23 4.29,27.44 25.88,42.66 43.12,48.76 21.55,6.1 34.49,3.04 53.92,-3.04 -10.78,-24.38 -40.99,-30.48 -49.61,-88.37 -8.61,-48.76 15.1,-70.08 -17.25,-112.74 -2.14,21.32 -2.14,33.52 -19.4,76.16z"/>
   <path class="fil0" d="M1562.54 882.35c32.33,9.14 79.78,42.66 107.79,57.9 30.21,18.29 77.66,63.99 118.65,48.75 -107.83,-48.75 -88.44,-109.69 -155.28,-127.97 -23.75,-9.14 -51.77,0 -71.16,21.32z"/>
   <path class="fil0" d="M1523.71 770.99c-62.54,33.53 -15.1,118.83 45.29,91.41 60.38,-24.36 21.55,-124.93 -45.29,-91.41z"/>
   <path class="fil0" d="M956.52 764.89c-71.18,18.29 -43.13,115.79 23.71,100.57 23.74,-6.1 43.15,-27.42 36.67,-60.94 -4.3,-24.38 -32.35,-45.71 -60.38,-39.63z"/>
   <path class="fil0" d="M727.94 979.86c38.79,12.2 86.24,-39.61 148.78,-73.13 25.89,-15.24 47.45,-21.32 64.72,-30.46 -43.15,-42.66 -81.96,-27.44 -118.63,24.36 -25.87,33.52 -53.92,67.05 -94.87,79.23z"/>
   <path class="fil0" d="M1791.98 1901.89c22.17,47.46 -5.11,69.02 1.28,129.19 4.34,33.52 49.63,82.28 107.83,60.94 -8.6,6.1 -43.11,-18.28 -51.74,-48.74 -8.64,-36.57 2.14,-76.19 0,-100.57 -2.15,-21.32 -10.8,-39.6 -21.58,-51.8l-0.14 0.06c-5.22,3.41 -11.23,6.22 -18.12,8.22l-0.27 0.09c-5.99,1.58 -11.75,2.41 -17.26,2.61z"/>
   <path class="fil0" d="M1823.47 2095.08c-43.15,-36.58 -49.59,-79.23 -36.65,-124.95 5.87,-24.86 4.62,-52.25 -3.69,-68.48 -7.9,-0.75 -15.11,-2.88 -21.63,-6.08 -54.01,55.8 -29.86,187.43 61.97,199.51z"/>
   <path class="fil0" d="M1957.16 2061.56c-21.56,-3.06 -53.89,-6.1 -71.16,-79.23 -6.34,-35.89 -8.53,-80.61 -51.5,-96.64 -0.32,0.31 -0.66,0.61 -1.04,0.92 45.43,59.52 13.85,78.11 24.52,144.47 2.16,18.28 21.58,42.66 36.67,51.8 28.02,15.24 49.57,3.06 62.51,-21.32z"/>
   <path class="fil0" d="M645.96 861.03c-17.24,48.74 10.78,63.98 45.31,51.8 21.57,-6.1 47.44,-27.42 73.3,-57.9 17.27,-21.32 23.75,-24.38 47.45,-42.66 -69.01,-3.04 -81.94,67.04 -166.06,48.76z"/>
   <path class="fil0" d="M1868.76 870.17c-15.1,0 -32.37,18.28 -81.94,-18.28 -17.27,-12.2 -41.01,-33.52 -73.32,-30.48 19.38,12.2 53.89,60.94 73.32,79.22 23.71,24.38 86.24,45.71 81.94,-30.46z"/>
   <path class="fil0" d="M1057.89 998.14c-2.18,27.42 12.94,42.66 32.33,51.8 21.56,9.14 36.67,-3.04 60.39,21.34 2.18,-64 -25.88,-94.46 -92.72,-73.14z"/>
   <path class="fil0" d="M1364.11 1071.28c8.62,-9.14 28.05,-12.2 40.99,-12.2 4.3,0 8.62,-6.08 10.78,-6.08 12.93,-6.1 28.01,-30.48 28.01,-51.8 -51.73,-30.48 -81.94,18.28 -79.78,70.08z"/>
   <path class="fil0" d="M764.57 1388.17c-2.14,-57.9 -25.86,-60.94 -47.45,-76.18 -12.93,-9.14 -10.78,-12.18 -21.55,-21.34 -32.34,48.76 8.62,85.32 69,97.52z"/>
   <path class="fil0" d="M1144.15 1180.96c47.45,-63.98 4.3,-121.88 -38.81,-112.74 -8.64,51.8 15.09,33.52 34.49,94.46l4.32 18.28z"/>
   <path class="fil5" d="M1271.39 1613.95l0 73.12c10.76,-18.28 10.76,-27.42 12.94,-51.8 94.9,-3.04 219.95,-24.38 258.78,-57.9 -40.96,12.2 -40.96,18.28 -120.77,30.48 -62.53,9.14 -97.06,9.14 -150.95,6.1z"/>
   <path class="fil0" d="M1741.53 1391.21c17.24,-3.04 49.57,-18.28 60.37,-27.42 17.25,-15.24 17.25,-42.66 8.63,-70.08l-43.14 36.56c-17.24,15.24 -25.86,30.46 -25.86,60.94z"/>
   <path class="fil0" d="M796.94 1473.47c-2.16,-60.94 -25.88,-76.16 -77.66,-88.36 -6.44,33.52 10.8,51.8 30.21,63.98 15.08,6.1 32.35,9.14 47.45,24.38z"/>
   <path class="fil0" d="M1763.09 1318.09c12.92,-3.06 38.81,-30.48 45.29,-39.62 12.93,-27.42 -10.78,-57.89 -19.4,-70.09 -4.32,12.2 -2.16,12.2 -10.81,24.39 -17.24,30.46 -30.18,33.52 -15.08,85.32z"/>
   <path class="fil0" d="M743.01 1318.09c17.28,-39.62 4.32,-57.9 -19.39,-100.56 -40.99,15.24 -36.67,76.18 19.39,100.56z"/>
   <path class="fil0" d="M1754.45 1248.01c36.65,-33.53 30.21,-88.37 -25.85,-97.51 -2.16,48.74 -6.5,76.17 25.85,97.51z"/>
   <path class="fil0" d="M1726.44 1461.29c15.09,-9.14 34.49,-15.24 45.28,-15.24 15.1,-9.14 28.04,-36.56 23.72,-63.98l-49.63 18.28c-17.21,12.18 -21.53,33.52 -19.37,60.94z"/>
   <path class="fil6" d="M1525.87 1156.58c10.78,30.48 56.06,54.86 90.58,18.28 -17.28,-42.64 -56.07,-45.7 -90.58,-18.28z"/>
   <path class="fil0" d="M751.65 1248.01c34.51,-15.24 21.57,-57.91 21.57,-100.57 -47.44,15.24 -60.38,60.94 -21.57,100.57z"/>
   <path class="fil0" d="M1361.95 1159.64c15.1,-30.48 8.64,-24.38 30.21,-39.62 15.1,-12.18 19.4,-24.38 12.94,-48.74 -51.77,-6.1 -79.82,57.88 -43.15,88.36z"/>
   <path class="fil0" d="M1415.88 1214.48c0,-39.62 15.08,-60.94 -17.28,-85.32 -40.95,15.24 -38.79,82.28 17.28,85.32z"/>
   <path class="fil0" d="M833.61 1165.72c19.39,9.14 28.01,9.14 47.45,-3.04 4.28,-3.04 30.17,-21.32 34.49,-27.42 -25.88,-36.56 -79.78,-24.38 -81.94,30.46z"/>
   <path class="fil0" d="M889.67 1171.82c15.1,15.24 38.83,18.28 51.77,15.24 10.78,-12.2 19.4,-15.24 38.79,-27.42 -25.85,-30.48 -77.62,-21.34 -90.56,12.18z"/>
   <path class="fil0" d="M1597.03 1126.12c8.64,24.38 38.81,63.98 75.46,48.74 -6.44,-15.22 -10.77,-42.64 -21.55,-54.84 -17.24,-15.24 -38.83,0 -53.91,6.1z"/>
   <path class="fil0" d="M1079.45 1214.48c53.92,3.05 73.34,-42.66 38.82,-79.22 -34.51,9.14 -30.21,42.66 -38.82,79.22z"/>
   <path class="fil0" d="M1715.64 1199.24c8.64,-54.84 6.46,-85.32 -53.92,-79.22 17.27,33.52 15.11,76.18 53.92,79.22z"/>
   <path class="fil0" d="M947.88 1196.2c28.05,42.66 81.96,0 90.58,-21.34 -30.18,-24.36 -73.31,0 -90.58,21.34z"/>
   <path class="fil0" d="M1756.9 1521.86c12.84,-18.12 25.51,-33.36 14.82,-63.61 -35.14,0 -52.45,16.77 -65.2,44.97 21.16,-2.68 38.45,5.38 50.38,18.64z"/>
   <path class="fil0" d="M781.84 1199.24c23.72,-3.04 40.97,-18.28 43.11,-36.56 0,-12.18 4.32,-24.38 15.1,-39.6 -19.38,-3.06 -36.65,0 -47.45,12.18 -15.09,12.18 -10.76,39.6 -10.76,63.98z"/>
   <path class="fil0" d="M1426.67 1217.53c28.04,15.24 32.32,9.14 60.39,0 -8.64,-9.15 -15.12,-21.33 -19.43,-33.53 -8.64,-12.18 -15.08,-18.28 -36.67,-15.22 -6.46,21.32 -6.46,30.46 -4.29,48.75z"/>
   <path class="fil0" d="M1471.94 1171.82c12.94,33.52 38.83,60.95 79.78,27.42 -23.71,-12.18 -25.85,-24.38 -36.63,-30.46 -10.81,-6.1 -28.03,-3.06 -43.15,3.04z"/>
   <path class="fil6" d="M1767.39 1735.52c6.49,-42.66 -6.46,-60.94 -47.45,-63.98 -4.3,42.64 6.5,60.94 47.45,63.98z"/>
   <path class="fil6" d="M822.81 1738.56c32.35,-18.28 40.97,-51.8 21.58,-85.3 -34.51,30.46 -34.51,36.56 -21.58,85.3z"/>
   <path class="fil0" d="M1010.44 1217.53c19.4,21.33 64.69,15.24 69.01,-45.71 -32.34,0 -51.77,27.42 -69.01,45.71z"/>
   <path class="fil0" d="M1694.07 1665.44c-12.92,3.04 -30.18,12.18 -36.67,21.32 -6.46,6.1 -23.7,67.04 10.81,42.66 23.72,-12.18 28.02,-36.56 25.86,-63.98z"/>
   <path class="fil6" d="M807.52 1503.47c-8.75,-21.18 -30.25,-42.16 -62.35,-39.14 -4.24,23.92 -2.23,30.25 8.05,50.62 3.94,-2.45 8.34,-4.68 13.18,-6.6 13.5,-5.8 27.73,-7.92 41.12,-4.88z"/>
   <path class="fil0" d="M762.43 1744.66c15.08,-30.48 19.41,-45.7 -6.48,-73.12l-8.62 -6.1c-25.89,30.46 -6.48,63.98 15.1,79.22z"/>
   <path class="fil0" d="M749.85 1780.2c8.03,-23.79 -0.65,-38.85 -19.77,-56.86 -10.73,12.13 -19.31,21.23 -19.42,45.35 6.35,0.1 13.08,1.18 20.21,3.41 7.2,2.09 13.49,4.84 18.98,8.1z"/>
   <path class="fil0" d="M795.81 1634.49c5.43,14.38 5.57,28.76 7.59,43.13 10.78,-3.04 15.11,-6.08 25.87,-21.32 12.63,-14.84 10.89,-23.91 8.82,-41.27 -6.35,6.87 -14.47,12.36 -24.27,15.83l-0.35 0.11c-6.08,1.94 -11.98,3.07 -17.66,3.52z"/>
   <path class="fil0" d="M870.26 1771.1c-0.11,-11.54 -2.23,-17.55 -4.32,-26.44l-8.62 -21.32c0,0 0,0 0,-3.06 -20.35,17.28 -31.11,29.1 -28.61,53.46 11.74,-5.38 25.79,-6.91 41.55,-2.64z"/>
   <path class="fil7" d="M1792.85 1773.27c-6.68,-28.61 -21.77,-28.68 -51.32,-31.65 -2.1,14.74 -2.16,32.35 5.67,47.29 7.32,-5.63 16.55,-10.15 27.87,-12.97 6.23,-1.7 12.18,-2.56 17.78,-2.67z"/>
   <path class="fil0" d="M1713.07 1633.02c-9.83,26.57 9.43,35.43 37.08,32.42 1.87,-21.19 0.47,-35.48 -4.16,-42.86 -3.34,1.96 -7.01,3.67 -10.97,5.11 -7.25,3.03 -14.63,4.82 -21.95,5.33z"/>
   <path class="fil0" d="M775.38 1677.62l10.78 -15.22c6.46,-12.2 4.3,-12.2 4.3,-27.44l-1.73 -0.27c-13.31,-0.32 -25.19,-4.55 -35.06,-11.32 -6.14,27.1 6.73,45.18 21.71,54.25z"/>
   <path class="fil0" d="M1661.72 1665.44c21.24,-3 36.22,-11.93 40.79,-32.6 -10.44,-1.12 -20.57,-5.04 -29.68,-12.02 -1.63,-1.24 -3.18,-2.57 -4.69,-3.96 -6.42,24.18 -8.58,21.21 -6.42,48.58z"/>
   <path class="fil8" d="M1182.96 1626.13c-21.57,12.18 -4.3,42.66 19.41,33.52 21.58,-12.2 6.46,-48.76 -19.41,-33.52z"/>
   <path class="fil0" d="M1629.17 1896.47c-5.15,56.1 -40.78,80.52 -40.78,131.57 0,54.84 53.93,79.22 105.68,79.22 -34.51,-12.18 -60.37,-39.62 -51.75,-94.46 4.28,-36.35 29.87,-69.69 34.4,-120.97 -3.71,1.76 -7.68,3.22 -11.87,4.37 -13.19,3.62 -25.19,3.33 -35.68,0.27z"/>
   <path class="fil0" d="M1599.17 2088.98c-43.13,-67.04 -6.46,-112.75 15.1,-161.49 6.31,-13.35 6.85,-26.68 6.71,-34.1 -7.5,-3.5 -14.07,-8.52 -19.47,-14.59l-0.18 -0.07c-25.87,15.24 -49.61,57.9 -51.75,103.6 -2.14,42.66 23.74,94.45 49.59,106.65z"/>
   <path class="fil0" d="M1680.12 1775.36c5.31,-13.6 5.2,-22.71 3.17,-39.84 -22.67,5.83 -37.46,11.66 -44.39,33.45 14.43,-2.7 28.79,-0.7 41.22,6.39z"/>
   <polygon class="fil9" points="891.83,2082.88 889.67,2082.88 883.18,2088.98 "/>
   <path class="fil8" d="M1096.31 1611.77c-21.58,12.18 -4.34,42.64 19.37,33.5 21.58,-12.18 6.5,-48.74 -19.37,-33.5z"/>
   <path class="fil8" d="M1000.2 1594.93c-21.55,12.18 -4.31,42.66 19.4,33.52 21.57,-12.2 6.5,-48.76 -19.4,-33.52z"/>
   <path class="fil9" d="M867.88 1782.67c72.59,21.05 38.47,123.43 -27.63,102.63 -66.13,-20.82 -36.44,-120.3 27.63,-102.63z"/>
   <path class="fil9" d="M727.56 1783.44c72.58,21.05 36.43,120.3 -31.81,99.41 -61.81,-20.64 -34.28,-120.23 31.81,-99.41z"/>
   <path class="fil9" d="M834.83 1970.48c9.99,21.71 15.42,49.35 7.79,79.56 -5.36,27.24 -27.49,41.65 -44.94,47.09 -21.81,5.27 -34.6,1.73 -53.78,-5.09 11.71,-23.95 42.1,-28.9 52.93,-86.42 10.47,-48.4 -12.41,-70.61 21.52,-112.01 1.35,21.39 0.88,33.57 16.48,76.87z"/>
   <path class="fil9" d="M709.44 1897.39c-23.93,46.6 2.45,69.16 -6.21,129.06 -5.59,33.32 -52.7,80.32 -110.08,56.81 8.4,6.4 43.81,-16.65 53.6,-46.77 9.99,-36.2 0.72,-76.2 3.82,-100.47 2.96,-21.23 12.25,-39.17 23.51,-50.94l0.15 0.04c5.09,3.61 10.97,6.65 17.76,8.92l0.28 0.09c5.96,1.82 11.66,2.86 17.17,3.26z"/>
   <path class="fil9" d="M670.63 2089.25c44.49,-34.91 52.57,-77.28 41.38,-123.45 -4.93,-25.08 -2.64,-52.4 6.28,-68.3 7.9,-0.45 15.22,-2.31 21.84,-5.26 51.84,57.81 22.75,188.42 -69.5,197.01z"/>
   <path class="fil9" d="M538.31 2050.67c21.64,-2.23 54.08,-4.05 74.09,-76.45 7.74,-35.65 11.63,-80.23 55.15,-94.63 0.34,0.33 0.67,0.65 1.01,0.98 -47.66,57.73 -16.79,77.51 -30,143.42 -2.84,18.19 -23.13,41.81 -38.57,50.38 -28.61,14.16 -49.7,1.15 -61.68,-23.7z"/>
   <path class="fil9" d="M872.35 1898.16c3.02,56.27 37.67,82.01 35.71,133.02 -2.07,54.81 -56.87,77.12 -108.6,75.16 34.94,-10.87 61.84,-37.3 55.31,-92.43 -2.88,-36.49 -27.21,-70.77 -29.78,-122.19 3.63,1.89 7.56,3.51 11.7,4.82 13.04,4.11 25.04,4.29 35.66,1.62z"/>
   <path class="fil9" d="M895 2091.68c45.63,-65.35 10.74,-112.42 -8.96,-161.96 -5.79,-13.56 -5.83,-26.92 -5.4,-34.33 7.63,-3.22 14.36,-7.99 20.03,-13.82l0.14 -0.07c25.3,16.21 47.38,59.74 47.81,105.49 0.5,42.7 -27.3,93.48 -53.62,104.69z"/>
   <path class="fil10" d="M2294.45 793.79c-1.9,-1.08 -3.54,-1.35 -5.18,0l-30.69 20.66 -31.26 -20.66c-1.63,-1.35 -3.25,-1.08 -4.89,0l-10.33 5.17c-2.43,1.09 -2.72,2.71 -1.1,4.62l27.21 37.78c0.79,1.62 1.87,2.72 5.68,2.72l28.81 0c3.82,0 4.9,-1.1 5.99,-2.72l26.88 -37.78c1.64,-1.91 1.39,-3.53 -0.79,-4.62l-10.33 -5.17zm-29.61 58.98c-25.84,0 -52.99,1.08 -79.64,3.26 -3.25,0.27 -4.08,1.1 -4.08,3.81l0 203c0,3.54 0.83,4.35 4.08,4.35l42.12 0c3.28,0 4.07,-0.81 4.07,-4.35l0 -71.47 17.4 0 44.3 69.85c2.71,4.07 4.62,5.97 10.87,5.97l42.4 0c4.07,0 5.44,-2.44 3.26,-5.43l-46.2 -73.64c29.63,-6.54 40.23,-23.92 40.23,-63.88 0,-53.53 -20.14,-71.47 -78.81,-71.47zm-5.44 43.76c26.08,0 33.15,7.05 33.15,29.35 0,22.56 -7.07,27.99 -33.15,27.99l-28.01 0 0 -57.34 28.01 0zm140.51 -103.55c-1.64,0 -2.73,0.54 -3.27,1.64l-19.83 36.69c-0.83,1.35 -0.54,2.98 0.79,3.79l14.97 8.42c1.64,0.83 2.43,1.1 3.78,0l52.2 -42.66c0.54,-0.54 1.36,-1.9 1.36,-3.25l0 -1.91c0,-1.91 -1.08,-2.72 -2.71,-2.72l-47.29 0zm-22.02 61.43c-2.72,0 -4.09,1.62 -4.09,4.34l0 203.82c0,3.26 1.37,4.62 4.09,4.62l42.14 0c2.71,0 4.05,-1.36 4.05,-4.62l0 -203.82c0,-2.72 -1.34,-4.34 -4.05,-4.34l-42.14 0zm263.88 -0.29c-9.77,0 -13.87,2.18 -17.38,10.89l-46.22 121.74 -46.19 -121.47c-3.26,-8.71 -7.59,-10.87 -17.38,-10.87l-38.61 0c-2.72,0 -3.26,1.89 -3.51,4.34l-20.68 203.82c-0.25,3.26 1.35,4.62 4.07,4.62l42.12 0c2.72,0 3.83,-1.36 4.09,-4.62l11.98 -118.48 43.74 112.24c1.08,2.98 3.26,4.35 5.97,4.35l29.08 0c2.72,0 4.62,-1.37 5.97,-4.35l43.76 -112.24 11.7 118.48c0.25,3.26 1.35,4.62 4.06,4.62l42.13 0c2.71,0 4.35,-1.36 4.08,-4.62l-20.64 -203.82c-0.3,-2.72 -0.56,-4.63 -3.27,-4.63l-38.87 0zm163.05 -1.35c-53,0 -78.52,14.68 -78.52,54.36l0 5.97c0,36.96 12.47,51.37 35.59,59.52l47.02 17.11c13.04,4.63 19,8.71 19,19.04l0 2.72c0,9.23 -6.78,13.31 -19.29,13.31l-78.54 0c-4.06,0 -5.68,1.62 -5.68,5.71l0 24.45c0,4.08 1.33,5.99 5.14,6.8 26.92,4.89 48.39,6.8 67.67,6.8 51.36,0 81.55,-14.95 81.55,-54.62l0 -7.08c0,-36.68 -14.13,-48.09 -40.77,-58.15l-47.02 -17.4c-9.79,-3.79 -13.87,-9.52 -13.87,-17.13l0 -3.25c0,-9.5 7.07,-14.4 20.11,-14.4l66.04 0c3.79,0 5.43,-1.37 5.43,-5.43l0 -26.36c0,-3.01 -1.33,-4.36 -5.43,-5.72 -20.37,-4.34 -35.88,-6.25 -58.43,-6.25zm218.24 1.64c-2.46,0 -4.34,1.08 -5.72,2.72l-62.49 88.31 0 -86.69c0,-2.72 -1.37,-4.34 -4.08,-4.34l-42.14 0c-2.72,0 -4.05,1.62 -4.05,4.34l0 204.09c0,2.99 1.33,4.35 4.05,4.35l42.14 0c2.71,0 4.08,-1.36 4.08,-4.35l0 -99.46 67.92 100.83c1.1,1.9 3.26,2.98 5.98,2.98l46.47 0c7.36,0 7.07,-3.79 4.64,-7.34l-73.64 -107.88 65.75 -92.4c1.92,-3 2.46,-5.16 -2.43,-5.16l-46.48 0zm157.91 -1.64c-70.66,0 -90.53,24.72 -90.53,108.16 0,82.89 19.87,107.63 90.53,107.63 70.64,0 90.75,-24.74 90.75,-107.63 0,-83.44 -20.11,-108.16 -90.75,-108.16zm0 43.76c32.87,0 39.65,15.76 39.65,64.4 0,48.11 -6.78,63.87 -39.65,63.87 -32.62,0 -39.7,-15.76 -39.7,-63.87 0,-48.64 7.08,-64.4 39.7,-64.4zm238.6 -42.12c-2.46,0 -4.33,1.08 -5.72,2.72l-62.49 88.31 0 -86.69c0,-2.72 -1.37,-4.34 -4.08,-4.34l-42.14 0c-2.72,0 -4.05,1.62 -4.05,4.34l0 204.09c0,2.99 1.33,4.35 4.05,4.35l42.14 0c2.71,0 4.08,-1.36 4.08,-4.35l0 -99.46 67.92 100.83c1.1,1.9 3.26,2.98 5.98,2.98l46.47 0c7.36,0 7.07,-3.79 4.65,-7.34l-73.65 -107.88 65.75 -92.4c1.92,-3 2.46,-5.16 -2.43,-5.16l-46.48 0zm154.65 -1.64c-34.82,0 -40.79,2.45 -49.19,32.89l-48.65 177.18c-0.54,2.99 0.8,4.35 3.52,4.35l41.58 0c2.47,0 2.72,-1.36 3.55,-4.35l15.22 -54.9 68.21 0 14.65 54.9c0.84,2.99 1.38,4.35 3.81,4.35l41.58 0c2.72,0 4.09,-1.36 3.55,-4.35l-48.38 -177.18c-8.43,-30.17 -14.15,-32.89 -49.45,-32.89zm-0.29 41.85c3.55,0 3.8,0.81 4.9,4.36l18.48 67.94 -45.92 0 18.19 -67.94c1.08,-3.55 1.38,-4.36 4.35,-4.36zm107.62 -40.21c-2.72,0 -4.05,1.35 -4.05,4.07l0 35.6c0,2.72 1.33,4.07 4.05,4.07l54.37 0 0 164.69c0,2.99 1.35,4.35 4.07,4.35l42.14 0c2.7,0 4.07,-1.36 4.07,-4.35l0 -164.69 54.62 0c2.72,0 4.36,-1.35 4.36,-4.07l0 -35.6c0,-2.72 -1.64,-4.07 -4.36,-4.07l-159.27 0zm269.86 -1.64c-70.64,0 -90.49,24.72 -90.49,108.16 0,82.89 19.85,107.63 90.49,107.63 70.67,0 90.79,-24.74 90.79,-107.63 0,-83.44 -20.12,-108.16 -90.79,-108.16zm0 43.76c32.91,0 39.69,15.76 39.69,64.4 0,48.11 -6.78,63.87 -39.69,63.87 -32.59,0 -39.66,-15.76 -39.66,-63.87 0,-48.64 7.07,-64.4 39.66,-64.4zm124.2 -42.12c-2.72,0 -4.08,1.62 -4.08,4.34l0 204.09c0,2.99 1.36,4.35 4.08,4.35l130.72 0c2.72,0 4.07,-1.36 4.07,-4.08l0 -35.59c0,-2.72 -1.35,-4.08 -4.07,-4.08l-84.53 0 0 -164.69c0,-2.72 -1.33,-4.34 -4.05,-4.34l-42.14 0zm161.16 0c-2.71,0 -4.08,1.62 -4.08,4.34l0 203.82c0,3.26 1.37,4.62 4.08,4.62l42.14 0c2.72,0 4.05,-1.36 4.05,-4.62l0 -203.82c0,-2.72 -1.33,-4.34 -4.05,-4.34l-42.14 0zm165.23 -1.64c-70.92,0 -89.67,24.19 -89.67,107.62 0,83.43 18.75,108.17 89.67,108.17 26.63,0 41.59,-1.64 54.92,-4.89 4.59,-1.1 7.05,-2.99 7.05,-8.44l0 -26.36c0,-2.72 -1.37,-4.07 -4.08,-4.07l-57.89 0c-32.89,0 -38.86,-15.76 -38.86,-64.41 0,-48.64 5.97,-63.86 38.86,-63.86l57.89 0c2.71,0 4.08,-1.37 4.08,-4.08l0 -26.36c0,-5.44 -2.46,-7.07 -7.05,-8.42 -13.33,-2.99 -28.29,-4.9 -54.92,-4.9zm207.08 1.64c-2.42,0 -4.31,1.08 -5.68,2.72l-62.53 88.31 0 -86.69c0,-2.72 -1.35,-4.34 -4.06,-4.34l-42.12 0c-2.72,0 -4.09,1.62 -4.09,4.34l0 204.09c0,2.99 1.37,4.35 4.09,4.35l42.12 0c2.71,0 4.06,-1.36 4.06,-4.35l0 -99.46 67.96 100.83c1.1,1.9 3.26,2.98 5.98,2.98l46.47 0c7.33,0 7.07,-3.79 4.61,-7.34l-73.63 -107.88 65.77 -92.4c1.88,-3 2.42,-5.16 -2.47,-5.16l-46.48 0zm157.1 -61.43c-1.64,0 -2.72,0.54 -3.26,1.64l-19.82 36.69c-0.83,1.35 -0.54,2.98 0.79,3.79l14.97 8.42c1.35,0.83 2.43,1.1 3.78,0l52.18 -42.66c0.55,-0.54 1.38,-1.9 1.38,-3.25l0 -1.91c0,-1.91 -1.11,-2.72 -2.72,-2.72l-47.3 0zm-2.43 59.79c-34.8,0 -40.77,2.45 -49.21,32.89l-48.65 177.18c-0.54,2.99 0.84,4.35 3.56,4.35l41.56 0c2.47,0 2.72,-1.36 3.53,-4.35l15.22 -54.9 68.21 0 14.67 54.9c0.84,2.99 1.38,4.35 3.81,4.35l41.58 0c2.72,0 4.09,-1.36 3.55,-4.35l-48.38 -177.18c-8.42,-30.17 -14.15,-32.89 -49.45,-32.89zm-0.29 41.85c3.55,0 3.82,0.81 4.9,4.36l18.49 67.94 -45.93 0 18.19 -67.94c1.1,-3.55 1.39,-4.36 4.35,-4.36zm-2578.26 285.91c-2.72,0 -4.08,1.62 -4.08,4.34l0 204.09c0,2.99 1.36,4.36 4.08,4.36l42.12 0c2.72,0 4.07,-1.37 4.07,-4.36l0 -80.43 79.37 0c2.73,0 4.35,-1.36 4.35,-4.08l0 -33.43c0,-2.72 -1.62,-4.07 -4.35,-4.07l-79.37 0 0 -42.68 87.23 0c2.73,0 4.35,-1.35 4.35,-4.06l0 -35.61c0,-2.72 -1.62,-4.07 -4.35,-4.07l-133.42 0zm242.98 -1.64c-34.8,0 -40.79,2.45 -49.19,32.9l-48.66 177.17c-0.54,2.99 0.81,4.36 3.53,4.36l41.58 0c2.47,0 2.72,-1.37 3.55,-4.36l15.22 -54.89 68.19 0 14.67 54.89c0.84,2.99 1.38,4.36 3.81,4.36l41.58 0c2.72,0 4.09,-1.37 3.55,-4.36l-48.39 -177.17c-8.42,-30.18 -14.14,-32.9 -49.44,-32.9zm-0.29 41.86c3.55,0 3.8,0.81 4.89,4.35l18.48 67.94 -45.91 0 18.19 -67.94c1.08,-3.54 1.38,-4.35 4.35,-4.35zm200.86 -41.86c-25.82,0 -52.99,1.08 -79.66,3.26 -3.26,0.27 -4.05,1.1 -4.05,3.82l0 202.99c0,3.55 0.79,4.36 4.05,4.36l42.14 0c3.26,0 4.08,-0.81 4.08,-4.36l0 -71.47 17.4 0 44.3 69.85c2.72,4.07 4.59,5.98 10.87,5.98l42.37 0c4.11,0 5.44,-2.45 3.26,-5.44l-46.17 -73.64c29.62,-6.53 40.2,-23.92 40.2,-63.88 0,-53.53 -20.12,-71.47 -78.79,-71.47zm-5.46 43.76c26.11,0 33.18,7.06 33.18,29.35 0,22.56 -7.07,28 -33.18,28l-27.98 0 0 -57.35 27.98 0zm248.13 -42.12c-2.72,0 -4.07,1.62 -4.07,4.34l0 114.96 -76.9 -109.8c-4.63,-6.78 -6.25,-9.5 -17.67,-9.5l-30.98 0c-2.72,0 -4.07,1.62 -4.07,4.34l0 203.82c0,3.26 1.35,4.63 4.07,4.63l42.12 0c2.71,0 4.08,-1.37 4.08,-4.63l0 -118.21 80.16 114.96c4.08,5.7 7.9,7.88 15.76,7.88l29.62 0c2.71,0 4.1,-1.37 4.1,-4.63l0 -203.82c0,-2.72 -1.39,-4.34 -4.1,-4.34l-42.12 0zm166.05 -1.64c-70.64,0 -90.48,24.73 -90.48,108.16 0,82.89 19.84,107.63 90.48,107.63 70.68,0 90.8,-24.74 90.8,-107.63 0,-83.43 -20.12,-108.16 -90.8,-108.16zm0 43.76c32.91,0 39.7,15.77 39.7,64.4 0,48.11 -6.79,63.88 -39.7,63.88 -32.58,0 -39.65,-15.77 -39.65,-63.88 0,-48.63 7.07,-64.4 39.65,-64.4zm192.69 -43.76c-52.99,0 -78.54,14.69 -78.54,54.36l0 5.97c0,36.96 12.49,51.37 35.59,59.53l47.02 17.11c13.04,4.62 19.01,8.71 19.01,19.03l0 2.72c0,9.23 -6.76,13.32 -19.27,13.32l-78.55 0c-4.07,0 -5.69,1.61 -5.69,5.7l0 24.45c0,4.09 1.33,5.99 5.15,6.8 26.9,4.9 48.38,6.8 67.67,6.8 51.35,0 81.52,-14.95 81.52,-54.62l0 -7.07c0,-36.69 -14.1,-48.1 -40.75,-58.16l-47.01 -17.4c-9.78,-3.79 -13.88,-9.51 -13.88,-17.13l0 -3.25c0,-9.5 7.07,-14.4 20.12,-14.4l66.05 0c3.8,0 5.43,-1.36 5.43,-5.43l0 -26.36c0,-3 -1.34,-4.35 -5.43,-5.72 -20.39,-4.34 -35.9,-6.25 -58.44,-6.25zm90.22 1.64c-2.72,0 -4.05,1.35 -4.05,4.07l0 35.61c0,2.71 1.33,4.06 4.05,4.06l54.37 0 0 164.69c0,2.99 1.35,4.36 4.07,4.36l42.12 0c2.72,0 4.08,-1.37 4.08,-4.36l0 -164.69 54.63 0c2.72,0 4.35,-1.35 4.35,-4.06l0 -35.61c0,-2.72 -1.63,-4.07 -4.35,-4.07l-159.27 0zm-1054.79 326.66c-36.11,0 -42.32,2.54 -51.08,34.14l-50.49 183.9c-0.55,3.11 0.85,4.52 3.67,4.52l43.17 0c2.54,0 2.82,-1.41 3.65,-4.52l15.82 -56.98 70.78 0 15.24 56.98c0.85,3.11 1.41,4.52 3.94,4.52l43.17 0c2.82,0 4.24,-1.41 3.67,-4.52l-50.22 -183.9c-8.74,-31.31 -14.65,-34.14 -51.32,-34.14zm-0.28 43.44c3.67,0 3.94,0.84 5.07,4.51l19.18 70.52 -47.66 0 18.87 -70.52c1.15,-3.67 1.44,-4.51 4.54,-4.51zm208.44 -43.44c-26.8,0 -55.02,1.14 -82.65,3.39 -3.39,0.28 -4.23,1.13 -4.23,3.94l0 210.71c0,3.67 0.84,4.52 4.23,4.52l43.74 0c3.36,0 4.22,-0.85 4.22,-4.52l0 -74.18 18.05 0 45.97 72.49c2.81,4.23 4.79,6.21 11.3,6.21l43.98 0c4.23,0 5.65,-2.54 3.38,-5.65l-47.93 -76.44c30.73,-6.76 41.74,-24.83 41.74,-66.28 0,-55.56 -20.89,-74.19 -81.8,-74.19zm-5.63 45.42c27.08,0 34.41,7.32 34.41,30.46 0,23.41 -7.33,29.06 -34.41,29.06l-29.06 0 0 -59.52 29.06 0zm205.05 -45.42c-73.61,0 -93.08,25.1 -93.08,111.7 0,86.6 19.47,112.26 93.08,112.26 27.64,0 43.17,-1.69 56.98,-5.07 4.79,-1.14 7.33,-3.1 7.33,-8.75l0 -27.35c0,-2.82 -1.41,-4.24 -4.21,-4.24l-60.1 0c-34.11,0 -40.32,-16.36 -40.32,-66.85 0,-50.48 6.21,-66.28 40.32,-66.28l60.1 0c2.8,0 4.21,-1.42 4.21,-4.23l0 -27.37c0,-5.65 -2.54,-7.34 -7.33,-8.74 -13.81,-3.1 -29.34,-5.08 -56.98,-5.08zm96.19 1.7c-2.82,0 -4.21,1.69 -4.21,4.51l0 211.54c0,3.4 1.39,4.81 4.21,4.81l43.72 0c2.83,0 4.23,-1.41 4.23,-4.81l0 -211.54c0,-2.82 -1.4,-4.51 -4.23,-4.51l-43.72 0zm173.2 -1.7c-28.75,0 -56.14,1.14 -83.77,3.39 -3.39,0.28 -4.23,1.13 -4.23,3.94l0 209.87c0,2.53 0.84,3.11 4.23,3.38 27.63,2.27 55.02,3.38 83.77,3.38 67.69,0 93.37,-33 93.37,-111.41 0,-79.26 -25.68,-112.55 -93.37,-112.55zm-0.85 45.42c30.47,0 41.46,20.31 41.46,67.13 0,46.26 -10.69,66 -40.61,66l-35.81 0 0 -133.13 34.96 0zm235.24 -106.63c-1.96,-1.13 -3.63,-1.4 -5.34,0l-31.88 21.43 -32.43 -21.43c-1.71,-1.4 -3.38,-1.13 -5.09,0l-10.7 5.36c-2.56,1.14 -2.81,2.83 -1.14,4.79l28.22 39.21c0.82,1.69 1.97,2.82 5.92,2.82l29.9 0c3.94,0 5.06,-1.13 6.21,-2.82l27.9 -39.21c1.7,-1.96 1.44,-3.65 -0.82,-4.79l-10.75 -5.36zm-106.87 62.91c-2.83,0 -4.23,1.69 -4.23,4.51l0 211.83c0,3.11 1.4,4.52 4.23,4.52l146.12 0c2.79,0 4.5,-1.41 4.5,-4.23l0 -36.96c0,-2.82 -1.71,-4.23 -4.5,-4.23l-98.19 0 0 -42.59 89.98 0c2.83,0 4.54,-1.42 4.54,-4.22l0 -34.98c0,-2.83 -1.71,-4.23 -4.54,-4.23l-89.98 0 0 -44.01 98.19 0c2.79,0 4.5,-1.4 4.5,-4.23l0 -36.96c0,-2.82 -1.71,-4.22 -4.5,-4.22l-146.12 0zm304.62 0c-2.54,0 -4.5,1.13 -5.9,2.82l-64.89 91.67 0 -89.98c0,-2.82 -1.4,-4.51 -4.23,-4.51l-43.74 0c-2.82,0 -4.22,1.69 -4.22,4.51l0 211.83c0,3.11 1.4,4.52 4.22,4.52l43.74 0c2.83,0 4.23,-1.41 4.23,-4.52l0 -103.24 70.52 104.66c1.11,1.96 3.38,3.1 6.2,3.1l48.23 0c7.61,0 7.32,-3.94 4.78,-7.61l-76.41 -111.99 68.24 -95.9c1.96,-3.12 2.54,-5.36 -2.52,-5.36l-48.25 0zm160.49 -1.7c-36.11,0 -42.32,2.54 -51.06,34.14l-50.49 183.9c-0.54,3.11 0.87,4.52 3.69,4.52l43.13 0c2.57,0 2.82,-1.41 3.67,-4.52l15.8 -56.98 70.82 0 15.24 56.98c0.84,3.11 1.4,4.52 3.92,4.52l43.18 0c2.81,0 4.23,-1.41 3.64,-4.52l-50.2 -183.9c-8.73,-31.31 -14.67,-34.14 -51.34,-34.14zm-0.27 43.44c3.66,0 3.94,0.84 5.06,4.51l19.2 70.52 -47.66 0 18.87 -70.52c1.15,-3.67 1.42,-4.51 4.53,-4.51zm260.34 -41.74c-2.82,0 -4.21,1.69 -4.21,4.51l0 119.31 -79.83 -113.95c-4.79,-7.05 -6.51,-9.87 -18.35,-9.87l-32.14 0c-2.82,0 -4.23,1.69 -4.23,4.51l0 211.54c0,3.4 1.41,4.81 4.23,4.81l43.72 0c2.83,0 4.23,-1.41 4.23,-4.81l0 -122.69 83.2 119.31c4.23,5.94 8.17,8.19 16.37,8.19l30.74 0c2.82,0 4.23,-1.41 4.23,-4.81l0 -211.54c0,-2.82 -1.41,-4.51 -4.23,-4.51l-43.73 0zm160.5 -1.7c-54.99,0 -81.51,15.23 -81.51,56.41l0 6.21c0,38.36 12.99,53.31 36.96,61.77l48.8 17.78c13.55,4.8 19.75,9.03 19.75,19.73l0 2.83c0,9.59 -7.05,13.82 -20.02,13.82l-81.55 0c-4.21,0 -5.92,1.69 -5.92,5.94l0 25.38c0,4.23 1.43,6.19 5.37,7.04 27.94,5.09 50.21,7.05 70.24,7.05 53.31,0 84.64,-15.51 84.64,-56.69l0 -7.33c0,-38.09 -14.68,-49.93 -42.32,-60.36l-48.82 -18.07c-10.13,-3.94 -14.37,-9.86 -14.37,-17.76l0 -3.38c0,-9.88 7.32,-14.95 20.87,-14.95l68.55 0c3.94,0 5.65,-1.42 5.65,-5.65l0 -27.35c0,-3.11 -1.42,-4.52 -5.65,-5.94 -21.17,-4.5 -37.22,-6.48 -60.67,-6.48zm93.65 1.7c-2.82,0 -4.22,1.4 -4.22,4.22l0 36.96c0,2.83 1.4,4.23 4.22,4.23l56.41 0 0 170.93c0,3.11 1.42,4.52 4.25,4.52l43.7 0c2.83,0 4.25,-1.41 4.25,-4.52l0 -170.93 56.7 0c2.82,0 4.53,-1.4 4.53,-4.23l0 -36.96c0,-2.82 -1.71,-4.22 -4.53,-4.22l-165.31 0zm180.83 0c-2.82,0 -4.24,1.13 -3.67,4.51l47.11 183.62c7.88,31.32 14.66,34.13 50.49,34.13 36.67,0 43.43,-3.09 51.04,-34.13l46.55 -183.62c0.58,-3.38 -0.85,-4.51 -3.67,-4.51l-42.88 0c-2.82,0 -3.11,1.13 -3.94,4.51l-42.88 170.65c-0.84,3.67 -1.4,5.09 -4.53,5.09 -2.52,0 -3.08,-1.42 -3.92,-5.09l-42.88 -170.65c-0.86,-3.38 -1.15,-4.51 -3.96,-4.51l-42.86 0zm240.32 -63.75c-1.68,0 -2.83,0.55 -3.39,1.69l-20.58 38.07c-0.86,1.42 -0.56,3.11 0.85,3.96l15.49 8.74c1.71,0.85 2.53,1.14 3.97,0l54.15 -44.28c0.55,-0.57 1.4,-1.98 1.4,-3.4l0 -1.96c0,-1.98 -1.1,-2.82 -2.83,-2.82l-49.06 0zm-22.85 63.75c-2.83,0 -4.23,1.69 -4.23,4.51l0 211.54c0,3.4 1.4,4.81 4.23,4.81l43.72 0c2.82,0 4.25,-1.41 4.25,-4.81l0 -211.54c0,-2.82 -1.43,-4.51 -4.25,-4.51l-43.72 0zm-2179.04 336.79c-26.77,0 -54.99,1.13 -82.62,3.38 -3.4,0.29 -4.23,1.13 -4.23,3.94l0 210.72c0,3.67 0.83,4.51 4.23,4.51l43.7 0c3.39,0 4.23,-0.84 4.23,-4.51l0 -74.19 34.69 0c60.94,0 81.83,-13.53 81.83,-69.67 0,-55.56 -20.89,-74.18 -81.83,-74.18zm-5.63 45.41c27.08,0 34.4,7.32 34.4,30.46 0,23.41 -7.32,29.06 -34.4,29.06l-29.06 0 0 -59.52 29.06 0zm196.9 -45.41c-36.12,0 -42.32,2.53 -51.09,34.13l-50.48 183.91c-0.56,3.11 0.84,4.51 3.67,4.51l43.16 0c2.54,0 2.83,-1.4 3.65,-4.51l15.82 -56.99 70.78 0 15.24 56.99c0.85,3.11 1.41,4.51 3.94,4.51l43.17 0c2.82,0 4.25,-1.4 3.67,-4.51l-50.22 -183.91c-8.72,-31.31 -14.64,-34.13 -51.31,-34.13zm-0.29 43.43c3.67,0 3.94,0.85 5.07,4.52l19.18 70.51 -47.66 0 18.87 -70.51c1.16,-3.67 1.44,-4.52 4.54,-4.52zm208.45 -43.43c-26.81,0 -55.03,1.13 -82.66,3.38 -3.39,0.29 -4.23,1.13 -4.23,3.94l0 210.72c0,3.67 0.84,4.51 4.23,4.51l43.74 0c3.36,0 4.23,-0.84 4.23,-4.51l0 -74.19 18.04 0 45.97 72.49c2.81,4.23 4.79,6.21 11.3,6.21l43.98 0c4.23,0 5.65,-2.54 3.38,-5.65l-47.93 -76.43c30.73,-6.77 41.74,-24.83 41.74,-66.29 0,-55.56 -20.89,-74.18 -81.79,-74.18zm-5.64 45.41c27.08,0 34.41,7.32 34.41,30.46 0,23.41 -7.33,29.06 -34.41,29.06l-29.05 0 0 -59.52 29.05 0zm206.76 -45.41c-28.77,0 -56.15,1.13 -83.79,3.38 -3.37,0.29 -4.23,1.13 -4.23,3.94l0 209.87c0,2.54 0.86,3.11 4.23,3.38 27.64,2.27 55.02,3.38 83.79,3.38 67.69,0 93.37,-32.99 93.37,-111.41 0,-79.26 -25.68,-112.54 -93.37,-112.54zm-0.86 45.41c30.46,0 41.45,20.32 41.45,67.13 0,46.26 -10.68,66 -40.59,66l-35.82 0 0 -133.13 34.96 0zm257.84 -43.72c-2.83,0 -4.27,1.13 -4.27,4.23l0 106.33c0,53.05 -7.88,66.29 -39.46,66.29 -31.88,0 -39.8,-13.24 -39.8,-66.29l0 -106.33c0,-3.1 -1.4,-4.23 -4.23,-4.23l-43.72 0c-2.82,0 -4.21,1.13 -4.21,4.23l0 106.33c0,89.43 18.32,111.7 91.96,111.7 73.34,0 91.66,-22.27 91.66,-111.7l0 -106.33c0,-3.1 -1.12,-4.23 -4.23,-4.23l-43.7 0zm169.51 -1.69c-26.79,0 -54.45,1.13 -82.09,3.38 -3.38,0.29 -4.22,1.13 -4.22,3.94l0 209.31c0,2.83 0.84,3.67 4.22,3.94 27.64,2.27 60.93,3.38 87.47,3.38 57.25,0 79.54,-15.5 79.54,-60.92 0,-32.71 -9.89,-47.66 -39.8,-50.49l0 -0.84c25.68,-4.23 35,-18.05 35,-50.49 0,-44.86 -22.27,-61.21 -80.12,-61.21zm-5.63 45.41c23.67,0 32.71,5.92 32.71,24.54 0,18.9 -9.04,23.7 -35.27,23.7l-25.93 0 0 -48.24 28.49 0zm6.47 84.62c21.74,0 31.02,6.21 31.02,25.1 0,17.78 -8.72,23.41 -31.29,23.41l-34.69 0 0 -48.51 34.96 0zm117.07 -128.34c-2.83,0 -4.23,1.69 -4.23,4.51l0 211.55c0,3.4 1.4,4.8 4.23,4.8l43.74 0c2.82,0 4.22,-1.4 4.22,-4.8l0 -211.55c0,-2.82 -1.4,-4.51 -4.22,-4.51l-43.74 0zm171.5 -1.69c-73.6,0 -93.07,25.1 -93.07,111.7 0,86.6 19.47,112.25 93.07,112.25 27.64,0 43.17,-1.69 57.01,-5.07 4.78,-1.13 7.3,-3.09 7.3,-8.74l0 -27.35c0,-2.83 -1.4,-4.25 -4.23,-4.25l-60.08 0c-34.11,0 -40.34,-16.35 -40.34,-66.84 0,-50.49 6.23,-66.29 40.34,-66.29l60.08 0c2.83,0 4.23,-1.42 4.23,-4.23l0 -27.36c0,-5.65 -2.52,-7.35 -7.3,-8.75 -13.84,-3.09 -29.37,-5.07 -57.01,-5.07zm96.19 1.69c-2.82,0 -4.22,1.69 -4.22,4.51l0 211.84c0,3.11 1.4,4.51 4.22,4.51l146.13 0c2.82,0 4.49,-1.4 4.49,-4.23l0 -36.95c0,-2.83 -1.67,-4.23 -4.49,-4.23l-98.16 0 0 -42.59 89.99 0c2.82,0 4.49,-1.42 4.49,-4.23l0 -34.98c0,-2.82 -1.67,-4.23 -4.49,-4.23l-89.99 0 0 -44.01 98.16 0c2.82,0 4.49,-1.4 4.49,-4.23l0 -36.95c0,-2.83 -1.67,-4.23 -4.49,-4.23l-146.13 0z"/>
  </g>
 </g>
</svg>
