<?xml version="1.0" encoding="UTF-8"?>
<!DOCTYPE svg PUBLIC "-//W3C//DTD SVG 1.1//EN" "http://www.w3.org/Graphics/SVG/1.1/DTD/svg11.dtd">
<!-- Creator: CorelDRAW 2017 -->
<svg xmlns="http://www.w3.org/2000/svg" xml:space="preserve" width="20mm" height="20mm" version="1.1" style="shape-rendering:geometricPrecision; text-rendering:geometricPrecision; image-rendering:optimizeQuality; fill-rule:evenodd; clip-rule:evenodd"
viewBox="0 0 2000 2000"
 xmlns:xlink="http://www.w3.org/1999/xlink">
 <defs>
  <style type="text/css">
   <![CDATA[
    .fil2 {fill:#D9261C}
    .fil0 {fill:#ED1B24}
    .fil1 {fill:white}
    .fil3 {fill:#ED1B24;fill-rule:nonzero}
   ]]>
  </style>
 </defs>
 <g id="Vrstva_x0020_1">
  <metadata id="CorelCorpID_0Corel-Layer"/>
  <g id="_2239344133184">
   <path class="fil0" d="M1343.06 727.7c2.14,23.11 3.15,41.07 3.15,58.32 0,43.27 -6.73,81.53 -20.5,116.96 -17.32,44.46 -45.57,85.06 -86.39,124.17 -95.96,91.99 -228.51,148.01 -229.83,148.57l-1.77 0.73 -1.82 -0.73c-1.31,-0.56 -133.87,-56.58 -229.86,-148.57 -40.79,-39.11 -69.06,-79.71 -86.36,-124.17 -13.79,-35.43 -20.49,-73.69 -20.49,-116.96 0,-17.23 0.98,-35.21 3.14,-58.32 10.08,-106.77 44.37,-220.93 51.14,-242.74l1 -3.25 566.45 0 0.98 3.21c6.78,21.82 41.06,135.89 51.16,242.78z"/>
   <path class="fil1" d="M898.61 700.63c-0.06,0.3 -0.09,0.11 -0.21,0.64 -0.88,3.24 -1.5,6.76 -5.09,10.83 -3.15,3.52 -5.16,4.25 -8.25,3.61 -3.03,-0.61 -4.59,-3.25 -4.59,-3.25 0,0 0.46,-0.18 3.61,-2.73 3.18,-2.53 3.7,-6.32 3.7,-6.32 -2.42,3.64 -6.24,5.27 -9.13,4.95 -4.12,-0.4 -7.97,-2.05 -11.65,-7.77 -3.7,-5.7 -1.75,-10.46 -1.31,-11.75 0.48,-1.25 0.66,-2.11 -0.16,-2.36 -0.79,-0.27 -1.26,0.37 -1.26,0.37 0,0 -1.06,-1.37 -1.18,-5.07 -0.12,-4.29 1.06,-6.84 2.44,-9.21 1.08,-1.87 2.36,-2.88 3.79,-3.25 0.74,-0.12 1.69,-0.18 2.52,-0.1 0.12,0.04 0.24,0.04 0.4,0.1 2.72,0.52 5.25,1.68 9.42,4.59 4.16,2.9 6.76,6.42 6.76,6.42 0,0 -1.96,5.11 -0.4,10.44 0.68,2.3 2.85,5.11 4.29,6.39 2.02,1.83 4.37,2.88 6.3,3.47z"/>
   <path class="fil1" d="M896.16 696.8c-1.59,-0.92 -3.58,-2.56 -5.21,-6.4 -1.61,-3.8 -0.72,-7.47 -0.08,-9.07 0.55,-1.3 0.7,-1.46 0.33,-2.04 -0.33,-0.61 -0.95,-1.44 -1.53,-2.1 -3.91,-4.78 -9.91,-8.76 -14.16,-9.77 -2.39,-0.59 -4.41,-0.67 -6.27,-0.21 0,0 -0.96,0.21 -1.75,0.49 0.61,-1.26 2.47,-4.69 5.96,-6.13 1.1,-1.53 2.57,-4.03 3.24,-5.28 2.12,-3.9 4.23,-9.22 6.07,-15.31 1.86,-6.29 4.13,-12.11 6.7,-17.35 1.99,-4.04 5.36,-9.3 6.66,-10.74 1.96,-2.08 2.98,-5.04 2.7,-7.95l-0.06 -0.44c-0.24,-2.6 -0.43,-4.46 0.3,-7.58 0.71,-3.06 1.96,-5.63 6.34,-9.74 4.86,-4.59 8.23,-8.03 9.83,-10.98 1.22,-2.32 1.83,-3.34 3,-6.21 0,0 -9.83,1.65 -14.91,-4.07 -1.77,-1.99 -3.03,-4.93 -3.33,-9.02 -0.19,-2.64 0,-5.67 0.79,-8.39 0.7,-2.42 1.8,-4.65 3.06,-6.17 0,0 -3.64,11.53 4.14,14.95 5.68,2.51 11.68,-1.09 14.44,-4.1 1.19,-1.29 2.54,-3.06 4.13,-4.93 -0.1,-0.05 -0.12,-0.12 -0.22,-0.19l0 0.04c-0.52,-0.53 -6.36,-4.66 -7.34,-10.36 -0.98,-5.74 -0.89,-10.94 -1.32,-13.11 -0.46,-2.15 -1.93,-5.27 -2.48,-6.49 -0.55,-1.19 -0.48,-2.2 0.74,-3.09 1.28,-0.91 2.81,-1.53 5.6,0.18 2.75,1.69 5.17,4.74 7.25,6.95 2.08,2.21 5.23,4.22 7.9,6.03 4.74,3.22 8.13,5.05 9.39,5.63 -0.37,-2.39 -0.64,-5.26 -0.86,-7.38 -0.37,-4.01 -1,-9.7 -1.14,-10.52 -0.08,-0.79 -0.45,-2.06 -1.06,-3.34 -0.8,-1.58 -1.34,-3.26 -1.9,-4.71 -0.55,-1.46 -1.07,-3.58 0.8,-4.75 1.9,-1.19 4.5,-1.27 7.31,0.65 2.91,1.87 4.77,4.98 7.65,6.4 2.9,1.44 9.17,5.17 15.46,12.91 3.79,4.65 6.27,10.22 7.19,15.6 0.61,-0.08 1.52,-0.2 2.57,-0.39l-0.04 0c0,0 5.72,-1.68 9.37,-4.01 4.25,-2.69 7.74,-7.28 10.53,-11.2 2.78,-3.95 10.86,-15.05 24.94,-17.19 11.96,-1.81 13.86,0 18.45,-1.74 4.56,-1.75 5.1,-1.88 5.1,-1.88 0,0 -2.62,5.48 -6.61,8.15 -4,2.65 -10.7,4.09 -16.12,11.32 -1.99,2.66 -4.04,6.66 -4.04,6.66 0,0 9.09,-9.18 21.05,-12.46 11.94,-3.26 24.21,-1.19 31.77,0 7.43,1.21 14.96,3.23 22.7,0.32 5.88,-2.24 6.67,-2.24 6.67,-2.24 0,0 -3.24,4.05 -5.96,9.18 -2.73,5.15 -5.39,9.67 -12.92,12.89 -7.13,3.09 -9.15,3.39 -9.15,3.39 0,0 8.08,1.14 14.6,1.11 6.52,-0.09 12.42,-1.35 19.8,-2.45 7.34,-1.11 20.41,-3.13 29.16,0.23 8.75,3.4 12.79,6.96 12.79,6.96 0,0 -8.94,-0.7 -17.39,7.09 -5.47,5.14 -9.72,10.56 -13.36,12.51 -3.65,1.91 -7.31,3.44 -7.31,3.44 0,0 6.27,1.41 18.75,8.26 9.12,4.98 16.24,7.87 20.04,8.45 7.68,1.17 14.05,0.67 20.63,-2.49 3.51,-1.68 4.5,-1.68 4.5,-1.68 0,0 -6.68,5.6 -9.31,14.17 -1.19,3.76 -6.88,12.42 -14.26,16 -5.75,2.76 -12.67,1.99 -12.67,1.99 0,0 8.36,1.75 19.49,13.62 11.09,11.87 15.1,12.61 21.77,14.17 6.7,1.56 11.35,0.3 13.7,-0.39 0,0 -7.49,9.21 -12.33,14.03 -4.77,4.81 -12.36,12.41 -26.83,10.16 -8.23,-1.34 -9.58,-3.12 -14.17,-4.55 -4.59,-1.44 -7.1,-1.99 -11.26,-1.87 0,0 6.15,2.82 14.87,12.67 8.75,9.81 13.58,11.23 19.98,13.04 6.37,1.73 15.06,-0.62 19.06,-1.1 3.95,-0.5 8.02,0.17 8.02,0.17 0,0 -3.94,0.47 -9.24,7.41 -5.29,6.95 -13.06,19.41 -27.45,21.88 -13.12,2.32 -29.68,-5.29 -29.68,-5.29 0,0 7.44,9.64 13.71,12.91 6.27,3.28 15.64,4.01 20.93,3.15 4.07,-0.67 5.51,-0.67 5.51,-0.67 0,0 -2.79,0.67 -7.23,5.48 -4.37,4.83 -10.28,9.24 -18.2,10.31 -6.55,0.92 -14.79,0.36 -19.52,-2.71 -4.47,-2.98 -7.69,-6.57 -9.07,-11.74 -0.79,-2.99 -0.88,-5.84 -1.22,-8.62 -0.94,-6.89 -0.58,-20.34 -0.73,-24.6 -1.07,-38.45 -10.07,-56.68 -13.49,-64.42 -11.05,-24.97 -31.13,-44.58 -45.87,-55.17 -14.76,-10.6 -23.11,-14.38 -33.91,-18.21 -11.87,-4.2 -20.77,-5.88 -20.77,-5.88 0,0 8.56,3.29 20.49,8.98 21.7,10.31 33.21,21.68 45.79,33.56 12.54,11.84 22.03,26.46 27.84,39.53 8.78,19.72 10.31,40.89 10.78,48.05 0.42,7.12 0.7,31.85 1.49,42.32 0.82,10.49 5.57,16.55 10.65,22.74 5.11,6.15 14.69,11.16 14.69,11.16 -11.33,5.97 -26.41,13.87 -47.55,18.31 -34.09,7.12 -65.4,2.92 -96.16,-11.12 -13.09,-6 -23.53,-14.46 -23.53,-14.46 6.53,-9.38 13.44,-16.93 20.48,-28.28 10.56,-17.04 10.13,-28.28 8.17,-38.22 -1.99,-9.98 -11.6,-15.4 -11.6,-15.4 14.63,-10 23.17,-30.01 13.77,-50.49 -3.14,-6.88 -6.33,-8.23 -6.33,-8.23 3.33,7.41 5.99,12.73 4.95,23.28 -1.44,14.88 -9.45,30.43 -24.66,34.06 -6.09,1.48 -11.59,1.84 -18.66,0 -7.04,-1.76 -13.93,-5.05 -13.93,-5.05 0,0 1.25,1.36 5.78,4.63 6.12,4.4 11.6,5.54 11.6,5.54 -2.81,3.15 -5.35,5.04 -12.38,9.28 -7.08,4.25 -10.81,5.86 -14.39,6.78 -3.64,0.92 -2.42,5.84 -2.36,9.13 0.03,3.33 0.68,5.53 -0.55,8.96 -1.07,2.88 -1.31,2.57 -1.31,2.57 -1.93,-2.18 -7.04,-9.18 -7.04,-9.18 0.63,-1.09 1.59,-2.45 1.93,-4.46 0.7,-4.11 -0.2,-6.34 -1.02,-8.24 -0.86,-2.02 -2.78,-3.18 -3.58,-3.44 3.18,4.84 2.88,7.57 2.54,10.08 -0.34,2.5 -1.87,5.05 -3.55,6.58 0,0 12.18,16.83 19.38,25.55 7.16,8.72 15.51,17.5 28.79,28.24 13.28,10.74 49.27,33.85 102.11,31.25 21.24,-1.07 40.43,-7.32 55.05,-13.8 17.6,-7.83 53.92,-31.45 53.92,-31.45 13.43,-8.3 57.68,-34.78 80.14,-15.95 5.39,4.52 8.48,10.59 8.84,17.47 0.53,8.96 -3.61,16.7 -10.95,24.51 -7.28,7.77 -28.85,17.65 -48.02,19.42 0,0 -16.8,2.24 -32.12,0.59 -3.21,-3.49 -6.51,-7.86 -6.51,-7.86 2.44,0.33 7.18,0.49 7.18,0.49 7.04,0.39 19.68,-0.76 19.68,-0.76 9.91,-1.24 24.87,-3.12 38.73,-9.86 10.53,-5.11 18.45,-13.31 20.66,-21.36 1.32,-4.71 0.67,-9.28 -1.93,-13.22 -4.22,-6.51 -18.42,-9.71 -39.44,-1.25 -8.97,3.57 -14.04,5.97 -24.82,12.26 -4.74,2.7 -42.84,25.98 -60.62,34.13 -34.48,15.72 -66.21,22.45 -96.63,16.46 -30.39,-5.96 -50.4,-16.56 -67.47,-31.03 -17.11,-14.47 -25.61,-24.42 -37.03,-39.63 -7.68,-10.22 -12.43,-18.57 -13.83,-20.71 -0.58,-0.9 -2.7,-0.12 -5.14,-0.35 -2.24,-0.2 -4.07,-1.07 -6.03,-2.19z"/>
   <path class="fil1" d="M929.14 706.93c20.74,19.11 38.83,25.62 38.83,25.62 -0.93,1.53 -7.34,10.54 -7.34,10.54 0,0 -9.92,-7.52 -18.55,-16.27 -8.17,-8.26 -15.06,-17.25 -15.06,-17.25 1.38,-1.38 2.12,-2.64 2.12,-2.64z"/>
   <path class="fil1" d="M1272.47 887.51c-2.69,31.89 -12.67,55.69 -36.93,77.45 -20.85,18.7 -51.37,31.76 -90.49,34.76 -29.52,2.32 -56.3,-4.55 -64.99,-6.98 -8.69,-2.41 -15.24,-3.91 -20.78,-4.28 -2.96,-0.18 -6.12,0.65 -8.41,1.45 -0.24,-0.04 -0.52,-0.07 -0.76,-0.1l-3.34 0c-0.62,1.19 -1.22,2.26 -1.84,3.09 -4.35,5.81 -10.22,13.55 -26.04,13.37 -16.83,-0.18 -23.1,-1.44 -23.1,-1.44 0,0 -0.61,0.1 -2.42,0.83 -1.8,0.73 -11.75,5.7 -29.04,4.16 -17.29,-1.56 -32.19,-5.07 -43.51,-8.32 -11.35,-3.28 -14.75,-4.05 -18.24,-2.18 -1.41,0.74 -2.11,2.21 -1.47,4.23 2.97,9.54 5.75,16.68 9.74,24.73 3.54,7.15 8.59,14.26 14.58,18.9 5.97,4.59 11.08,7.99 12.31,16.47 0.79,5.7 -3.37,9.66 -3.37,9.66 0,0 3.16,2.61 6.52,2.61 3.34,0 10.31,-3.59 13.64,-4.47 3.37,-0.92 9.34,-2.26 13.72,7.41 0,0 5.41,2.6 8.29,4.77 2.87,2.17 5.51,6.43 5.08,15.3 -0.49,8.84 -1.47,20.16 -5.17,36.9 -0.28,1.25 -1.44,0.46 -2.09,0.1 -0.64,-0.38 -23.61,-16.56 -25.05,-17.57 -1.44,-0.98 -2.54,-1.77 -2.54,-1.77 0,0 -6.24,2.26 -11.75,-4.38 -5.54,-6.58 -9.15,-12.46 -14.48,-15.72 -5.32,-3.25 -16,-6.43 -20.53,-10.69 -4.59,-4.29 -7.17,-9.31 -10.67,-18.26 -3.53,-8.97 -10.5,-27.58 -13.38,-33.76 -2.91,-6.15 -8.45,-15.8 -13.22,-22.31 -5.08,-7 -5.73,-10.15 -5.54,-16.58 0.21,-6.43 3.18,-13.46 7.62,-18.73 0,0 0.43,-7.71 5.87,-12.58 5.42,-4.9 12.76,-7.49 30.48,-9.3 17.75,-1.83 29.13,-5.23 39.57,-10.96 1.01,-0.54 3.3,-2.04 3.91,-2.8 0.61,-0.8 -0.55,-0.87 -5.22,1.92 -1.48,0.95 -12.12,3.86 -23.6,1.96 -14.38,-2.33 -26.87,-9.22 -35.62,-17.99 -8.81,-8.75 -22,-23.33 -28.33,-36.35 -6.34,-13.04 -10.69,-29.27 -13.41,-36.54 -2.69,-7.34 -5.6,-15.58 -10.77,-20.29 -5.17,-4.71 -12.37,2.17 -14.57,3.91 -2.16,1.68 -11.46,9.39 -18.02,17.64 -1.68,2.13 -4.31,5.13 -4.4,7.02 -0.1,1.75 -1.36,10.35 -2.73,14.48 -1.35,4.16 -4.86,7.77 -8.93,7.87 -4.07,0.12 -6.82,-1.11 -6.82,-1.11 0,0 0.67,3.59 6.17,8.55 5.54,4.98 9.58,10.48 8.63,15.38 -1.01,4.84 -4.13,6.34 -5.65,7.32 0,0 -0.53,3.98 -0.62,5.97 -0.22,4.9 -3.61,8.84 -7.74,10.64 -4.16,1.8 -13.99,4.86 -34.48,8.6 -5.85,1.04 -8.06,0.61 -8.06,0.61 0,0 -0.51,-0.34 -0.27,-1.43 0.27,-1.07 6.39,-23.81 6.95,-26.2 0.54,-2.35 1.52,-3.64 1.52,-3.64 0,0 -5.71,-4.47 -2.68,-11.57 3.05,-7.21 6.3,-11.48 7.31,-18.17 1,-6.7 0.58,-13.4 4.06,-21.27 3.55,-7.86 9.16,-11.65 15.12,-16.92 5.97,-5.24 13.77,-11.94 19.34,-17.81 5.64,-5.88 12.58,-19.35 20.04,-25.68 7.38,-6.33 15.73,-8.08 22.96,-6.91 0,0 1.61,0.4 2.78,-0.33 1.2,-0.75 6.33,-5.27 14.04,-1.82 8.18,3.66 13.01,11.76 18.09,17.03 5.08,5.22 7.4,9.11 27.69,19.43 12.79,6.47 20.63,12.75 25.62,18.05 1.28,-2.06 4.53,-6.7 9.6,-10.19 4.01,-2.82 8.88,-3.99 9.49,-4.04 0.76,-0.12 0.76,1 0.76,1 0.74,7.87 2.64,16.89 3.34,18.4 0.33,0.71 1.99,2.15 1.99,2.15 -3.4,-18.61 -2.69,-28.62 -1.68,-37.58 1.28,-11.79 2.48,-17.35 5.1,-25.47 4.33,-13.39 10.6,-22.76 11.66,-24.17 11.57,10.86 27.7,23.08 45.93,29.93 26.96,10.13 58.06,10.13 86.88,1.07 23.92,-7.53 42.23,-14.99 61.11,-26.83l1.22 1.46c0,0 5.76,6.49 12.7,14.68 9.06,10.69 19.13,12.83 35.47,14.85 24.94,3.09 44.15,4.78 57.74,19.52 12.36,13.47 20.26,44.52 18.11,69.86z"/>
   <path class="fil1" d="M905.34 701.88c0.33,0.69 4.21,9.04 6.09,11.94 0,0 0.3,0.92 -2.49,1.02 -2.75,0.02 -5.44,-1.41 -6.15,-2.55 -0.45,-0.76 -0.98,-2.26 -0.98,-4.9 0,-2.62 0.98,-6.04 0.98,-6.04 0,0 0.67,0.12 1.72,0.05 0,0 0.45,-0.16 0.83,0.48z"/>
   <path class="fil2" d="M968.67 582.94c-0.37,0.25 -0.73,0.46 -0.98,0.25 -1.23,-0.89 -3.28,-2.36 -4.4,-3.32 -3.83,-3.14 -7.81,-6.04 -11.81,-8.9 -14.36,-10.15 -20.48,-7.92 -28.77,-6.08l-0.68 -0.09c7.9,-5.08 16.44,-5.66 32.47,5.85 2.11,1.51 11.7,8.8 12.92,9.76 0.34,0.24 0.52,0 0.86,-0.22 1.3,-0.74 2.99,-1.38 5.59,-1.43 2.02,-0.04 3.46,0.2 4.8,0.69 0.25,0.1 5.03,-7.92 7.17,-12.79 2.45,-5.44 4.1,-12.39 1.49,-18.36 0,0 4.66,5.12 1.66,14.82 -1.99,6.39 -5.45,13.65 -9.49,19.03 -0.09,0.09 -0.18,0.18 -0.37,0.13 0,0 -1.98,-1.11 -4.82,-1.02 -2.79,0.12 -4.66,1.07 -5.64,1.68z"/>
   <path class="fil2" d="M1077.24 527.2c0,0 -3.89,-1.01 -13.07,-0.5 -10.9,0.62 -17.01,3.52 -23.1,7.26 -6.25,3.76 -9.19,8.08 -12.92,10.52 -3.64,2.43 -7.61,4.2 -7.61,4.2 7.71,-0.95 12.48,-5.61 15.08,-7.62 9.88,-7.74 15.55,-10.13 21.73,-11.65 6.18,-1.51 19.89,-2.21 19.89,-2.21z"/>
   <path class="fil2" d="M1097.39 556.58c10.81,-0.35 16.58,-4.54 16.58,-4.54 -5.23,1.69 -12.76,2.82 -19.7,2.72 -4.9,-0.09 -11.66,-0.57 -20.38,3.03 -5.2,2.12 -9.51,5.54 -12.06,8.12 -1.74,1.77 -2.26,2.9 -2.26,2.9 0,0 2.14,-1.5 5.85,-4 2.48,-1.69 4.87,-3.13 8.07,-4.54 8.08,-3.64 13.1,-3.4 23.9,-3.69z"/>
   <path class="fil2" d="M1134.9 595.2c6.41,1.23 10.2,0.26 10.2,0.26 0,0 -4.71,0 -9.36,-1.02 -4.66,-1.04 -13.14,-5.51 -21.11,-5.39 -7.97,0.12 -14.26,2.91 -18.83,5.89 -4.5,2.94 -6.15,6.11 -6.15,6.11 0,0 3.55,-2.98 6.97,-4.68 6.74,-3.36 10.84,-4.47 18.43,-4.89 7.59,-0.42 13.46,2.5 19.85,3.72z"/>
   <path class="fil2" d="M1136.31 635.5c7.86,0.89 17.32,7.53 22.49,9.5 5.24,1.99 9.27,1.85 9.27,1.85 0,0 -5.22,-0.91 -10.06,-3.52 -4.84,-2.59 -10.56,-6.73 -18.18,-8.92 -7.61,-2.14 -14.69,-1.75 -20.31,0.15 -6.34,2.11 -8.76,4.13 -8.76,4.13 0,0 2.47,-0.46 6.22,-1.75 6.05,-2.04 11.41,-2.35 19.33,-1.44z"/>
   <path class="fil2" d="M1147.58 694.5c2.84,1.16 5.82,1.88 8.02,1.92 4.09,0.03 6.97,-1.34 6.97,-1.34 0,0 -1.68,-0.04 -3.6,-0.04 -3.06,0 -6.22,-0.54 -10.32,-1.99 -4.13,-1.43 -8.56,-4.52 -10.68,-6.69 -2.17,-2.17 -5.78,-5.39 -10.86,-6.45 -5.05,-1.11 -9.88,0.23 -9.88,0.23 0,0 4.77,-0.3 10.92,1.98 2.66,0.99 4.96,2.59 7.19,4.45 1.44,1.2 4.77,4.92 12.24,7.93z"/>
   <path class="fil2" d="M872.49 693.94c-0.37,3.89 3.88,6.61 6.76,6.61 2.94,0 5.27,-2.72 3.31,-7.95 -2.02,-5.27 -7.35,-7.59 -7.99,-7.8 -0.64,-0.19 -1.56,0.85 -1.56,0.85 0,0 -0.49,0.58 0.4,0.71 0.61,0.05 0.82,0.05 2.26,0.97 1.44,0.92 2.05,2.45 2.05,2.45 -1.49,-0.54 -4.86,0.28 -5.23,4.16z"/>
   <path class="fil2" d="M913.37 610.9c0,0 -0.15,0.7 0.37,2.66 0.55,1.93 3.33,6.09 8.63,6.67 3.37,0.34 6.76,-1.17 8.82,-3.55 2.56,-2.96 2.01,-7.19 2.01,-7.19 0.71,-0.03 2.94,0 4.41,-0.95 1.47,-0.92 2.57,-2.45 3.33,-4.25 0.64,-1.56 0.37,-3.55 0.37,-3.55 0,0 -0.43,1.07 -1.47,2.38 -0.85,1.05 -2.23,2.57 -4.5,2.97 -2.2,0.43 -5.01,-0.88 -5.13,-1.13 -0.12,-0.21 -0.38,-0.02 -0.84,0.13 -0.42,0.12 -0.52,0.36 -0.52,0.36 0,0 0.4,1.6 0.38,3.36 -0.07,1.79 -1.05,3.55 -2.89,4.82 -1.8,1.22 -3.14,1.22 -3.14,1.22 1.68,-3.86 1.68,-6.06 1.68,-7.72 -0.06,-1.83 -1.1,-2.48 -1.1,-2.48 0,0 -1.26,-0.85 -3.61,-0.66 -3.34,0.23 -4.93,2.8 -5.48,3.3 -0.55,0.48 -1.4,1.01 -3.61,0.88 -2.24,-0.09 -4.35,-0.74 -4.35,-0.74 0,0 0.46,0.65 1.97,1.88 1.49,1.22 4.67,1.59 4.67,1.59z"/>
   <path class="fil2" d="M919.94 596.97c-3.24,0.31 -5.41,2.4 -6.14,4.13 -0.71,1.74 -1.26,4.29 -1.26,4.29 -0.06,0.28 0.61,0.25 0.61,0.25 0,0 0.65,-1.45 2.11,-3.21 2.27,-2.8 5.67,-3.41 8.97,-2.8 2.44,0.46 4.59,1.26 4.59,1.26 0,0 0.55,0.46 0.67,0 0.03,-0.19 -0.33,-0.49 -0.33,-0.49 0,0 -0.62,-0.5 -1.75,-1.19 -1.86,-1.14 -4.22,-2.57 -7.47,-2.24z"/>
   <path class="fil2" d="M941.01 647.99c7.72,-9.99 14.94,-20.89 21.88,-31.45 2.02,-3.12 4.2,-6.36 6.18,-9.49 0,0 0.49,-0.92 1.07,-1.65 0.37,-0.45 2.28,-0.07 3.31,0.12 4.84,0.86 10.01,-2.01 12.25,-5.38 5.04,-7.43 1.28,-13.77 -0.26,-15.22 0,0 -0.02,-0.24 0,-0.36 0.1,-0.12 0.34,-0.48 0.34,-0.48 2.36,-3.1 4.04,-6.89 5.81,-10.81 2.27,-4.93 3.76,-10.15 3.83,-15.08 0.06,-4.31 -2.11,-10.1 -7.13,-13.34 0,0 5.94,5.71 4.92,15.18 -0.85,8.01 -5.74,18.11 -10.52,24.75l0.64 0.83c1.71,1.95 4.23,8.19 0.18,13.43 -4.28,5.57 -9.99,4.56 -11.87,4.13 -0.73,-0.18 -1.77,-0.64 -2.2,-0.86l-2.69 4.17c-2.02,3.21 -4.07,6.45 -6.15,9.67 -4.44,7 -9.19,13.76 -13.9,20.52 -4.1,5.86 -8.38,11.54 -12.78,17.12 -3.83,4.76 -11.63,14.16 -17.3,20.71 -2.72,3.1 -3.82,4.56 -3.82,4.56 0,0 1.5,0.12 4.01,-2.51 0,0 13.93,-15.18 24.2,-28.56z"/>
   <path class="fil2" d="M1115.67 979.46c15.54,2.36 45.19,3 76.86,-9.55 28.83,-11.48 45.25,-29.89 45.25,-29.89 -12.69,12.14 -43.04,27.57 -60.95,31.66 -27.39,6.27 -48.84,5.05 -75.09,2.18 -25.3,-2.75 -30.57,1.46 -30.57,1.46 12.09,-2.53 28.89,1.78 44.5,4.14z"/>
   <path class="fil2" d="M1097.2 911.07c12.94,-14.77 13.4,-34.73 13.4,-34.73 0,0 -1.87,4.59 -5.35,14.38 -3.5,9.79 -9.83,17.9 -15.43,23.6 -9.06,9.05 -23.44,16.66 -23.44,16.66 0,0 15,-1.8 30.82,-19.91z"/>
   <path class="fil2" d="M996.62 970.6c-4.89,4.53 -10.52,7.77 -26.71,10.03 -16.19,2.27 -34.92,0.65 -38,0.56 -2.27,-0.1 -3.59,0.88 -3.59,0.88 0,0 23.88,3.18 44.41,1.65 23.41,-1.73 29.1,-8.23 32.19,-12.88 3.09,-4.59 4.07,-10.34 -3.43,-15.09 -7.5,-4.67 -20.75,-4.25 -20.75,-4.25 1.14,1.63 2.76,1.34 2.76,1.34 5.14,0.65 10.31,2.3 14.38,5.73 4.07,3.43 3.61,7.53 -1.26,12.03z"/>
   <path class="fil2" d="M887.97 993.7c-0.46,0.61 -1.1,2.33 -1.66,3.4 -1.3,2.63 -3.36,4.89 -5.99,6.18 -1.38,0.7 -2.78,0.58 -4.56,0.51 0.09,-0.03 -0.21,0.65 -0.21,0.65 4.29,3.01 7.25,7.86 8.81,11.51 4.16,9.63 6.94,15.63 9.18,19.73 1.23,2.29 2.21,3.8 3.15,4.87 0.77,0.89 1.44,1.05 1.44,1.05 -10.32,-22.02 -10.68,-30.67 -11.23,-35.85 -0.79,-7.12 1.65,-12.12 1.65,-12.12 0,0 -0.52,0.07 -0.58,0.07z"/>
   <path class="fil2" d="M904.7 901.3c-5.9,0.55 -10.06,-3.25 -18.39,-13.3 -8.31,-10.05 -16.28,-23.6 -20.25,-30.58 -3.98,-6.98 -7.87,-12.92 -7.87,-12.92 0,0 3.01,7.14 7.35,16.48 4.31,9.26 8.47,17.43 13.71,26.21 5.26,8.79 14.26,21.43 23.1,21.52 8.84,0.12 13.89,-7.26 13.41,-17.26 -0.5,-9.15 -8.15,-19.74 -8.15,-19.74 3.34,7.81 5.06,13.73 4.87,18.9 -0.19,5.55 -2.48,10.2 -7.78,10.69z"/>
   <path class="fil2" d="M804.39 814.45l-0.95 0.12c-0.74,4.44 -2.54,6.52 -4.89,9.51 -2.36,3.04 -6.15,6.77 -9.37,10.19 -2.63,2.78 -12.79,13.41 -12.79,13.41 0,0 11.78,-9.95 14.69,-12.7 7.96,-7.46 13.03,-10.51 17.05,-12.15 3.73,-1.5 7.43,-1.14 7.43,-1.14l0.4 -1.12c-1.75,0.27 -4.66,0.4 -7.59,-1.04 -2.88,-1.44 -3.98,-5.08 -3.98,-5.08z"/>
   <path class="fil2" d="M914.78 838.54c-1.17,0.84 -2.54,3.2 -2.54,3.2 0,0 6.58,6.03 13.09,17.54 5.27,9.34 7.13,17.07 7.13,17.07 -0.6,-6.49 -2.51,-12.39 -4.74,-17.54 -2.57,-5.87 -5.54,-12.56 -12.94,-20.27z"/>
   <path class="fil2" d="M1106.28 815.24c6.95,7 12.28,18.69 12.52,20.62 0.24,1.93 1.07,1.93 1.07,1.93 0,-0.43 -0.31,-5.18 -2.75,-10.95 -2.39,-5.64 -6.68,-12.25 -12.09,-16.32 -10.93,-8.25 -18.82,-8.99 -18.82,-8.99 1.07,1.28 2.2,1.53 2.2,1.53 6.79,2.47 12,6.21 17.87,12.18z"/>
   <path class="fil2" d="M964.71 541.91c-2.6,-0.52 -5.5,-2.56 -8.01,-6.88 -2.36,-3.95 -3.99,-10.19 -4.73,-13.68 -0.63,-2.84 -1.92,-4.07 -1.92,-4.07 0,0 0.56,1.9 0.74,2.76 0.46,2.23 0.76,5.63 1.34,9.63 0.62,4.05 1.17,5.73 4.01,9.83 2.84,4.09 8.15,5.47 10.47,4.4 2.39,-1.1 2.32,-3.14 2.32,-3.14 -0.37,0.42 -1.62,1.61 -4.22,1.15z"/>
   <path class="fil2" d="M912.89 671.04c1.41,-1.57 4.66,-5.13 6.92,-7.72 6.03,-7 11.79,-14.22 17.44,-21.48 10.01,-12.81 19.83,-28.73 28.74,-42.28 0,0 -0.74,-1.07 -1.65,-2.73 -0.98,-1.81 -1.05,-4.84 -0.62,-7.07 0.18,-0.85 0.76,-2.13 0.76,-2.13 0.5,-1.11 -1.19,-2.46 -1.92,-3.17 -0.76,-0.69 -2.88,-2.41 -4.04,-3.42 -10.56,-9.61 -21.6,-15.63 -32.83,-15.82 0,0 14.62,2.7 29.58,15.58 0,0 5.48,4.92 5.91,5.35 0.24,0.27 0.28,0.22 0.74,0.71 0.18,0.15 0.27,0.61 0.06,1.22 -0.06,0.25 -0.76,1.62 -0.83,4.87 -0.12,4.01 2.02,6.18 2.02,6.18 0,0 0.19,0.62 -0.15,1.1 -0.31,0.48 -19.77,31.13 -30.51,44.89 -5.42,6.95 -10.95,13.8 -16.71,20.46 -2.05,2.4 -4.19,4.76 -6.3,7.11 0,0 -0.46,0.49 -0.8,0.25 -0.76,-0.52 -2.68,-1.35 -5.93,-1.67 -2.78,-0.23 -5.18,0.5 -5.94,0.87 -0.19,0.09 -0.46,-0.19 -0.46,-0.19 0,0 -3.95,-4.46 -7.46,-7.15 -5.33,-3.98 -8.69,-4.6 -9.67,-4.74 -0.92,-0.13 -1.35,0.48 -1.35,0.48 -0.98,0.92 -0.58,1.08 -0.03,1.2 0.88,0.18 1.5,0.06 4.22,1.35 4.23,1.95 6,3.66 8.01,5.54 3.43,3.17 5.24,5.11 5.67,5.59 0.73,0.79 1.31,0.73 1.71,0.56 0.61,-0.28 1.14,-0.56 3.4,-0.9 2.23,-0.33 4.47,0.32 4.99,0.44 1.1,0.3 2.1,0.73 2.38,0.88 0.12,0.05 0.46,0.24 0.7,0.09 1.05,-0.64 2.79,-2.99 3.95,-4.25z"/>
   <path class="fil2" d="M949.89 546c3.15,2.42 5.29,2.68 7.19,2.68 3.22,0 4.71,-1.19 4.71,-1.19 -3.49,0.69 -10.06,-1.56 -13.28,-7.2 -1.16,-2 -1.93,-3.77 -2.45,-6.55 -0.46,-0.21 -2.85,-1.5 -2.85,-1.5 0,0.22 1.05,4.83 1.11,5.05 0.88,3.3 3.67,7.17 5.57,8.71z"/>
   <path class="fil2" d="M985.49 744.79c-0.42,0.49 -0.52,0.74 -0.24,0.91 0.31,0.17 0.58,0.07 0.58,0.07 0,0 10.71,-11.13 18.88,-22.9 17.75,-25.47 30.72,-50.11 23.5,-79.95 -7.22,-29.87 -31.88,-50.63 -31.88,-50.63 -0.28,0.45 1.4,2.14 1.4,2.14 0,0 10.53,12.72 18.49,27.75 12.3,23.13 11.65,41.03 6.11,61.51 -5.93,21.84 -30.23,53.55 -36.84,61.1z"/>
   <path class="fil2" d="M1050 995.53c3.79,-5.69 6.46,-21.16 7.18,-26.75 0.74,-5.58 2.24,-7.99 6.01,-15.49 4.15,-8.37 3.24,-15.73 3.24,-15.73 -2.6,9.4 -4.38,12.46 -7.74,17.49 -3.43,5.01 -5.36,9.63 -6.46,14.06 -1.16,4.41 -1.84,11.41 -5.56,21.03l3.33 5.39z"/>
   <path class="fil2" d="M951.43 1112.17c0.27,-0.05 0.91,-0.24 1.28,-0.55 2.45,-2.02 6.94,-7.18 10.13,-12.69 3.7,-6.28 5.85,-11.15 6.3,-12.39 1.16,-3.01 1.84,-4.63 1.99,-6.31 0.1,-1.38 -2.99,-2.82 -2.87,-1.53 0.12,1.23 -0.96,4.49 -1.44,5.81 -0.46,1.26 -2.97,7.41 -6.12,13.92 -3.25,6.58 -7.4,12.16 -9.48,13.74l0.21 0z"/>
   <path class="fil2" d="M743.07 909.36c1.01,0.05 1.41,0 3.83,0.05 4.74,0.19 13.34,0.8 22.51,3.03 3.95,0.9 9.74,3.1 12.04,4.66l-0.04 -1.96 0.09 -0.8c-11.59,-6.42 -28.03,-6.31 -35.16,-5.93 -2.2,0.12 -2.41,0.19 -3.51,0.27 -1.08,0.12 -0.74,0.64 0.24,0.68z"/>
   <path class="fil2" d="M979.29 894.84c-17.53,6.97 -25.46,15.72 -30.47,21.94 -6.52,-17.73 -3.28,-35.04 -1.68,-42.18 5.31,-23.95 19.06,-40.18 27.6,-47.73 13.92,-12.42 30.07,-18.94 30.07,-18.94 -19.39,4.99 -32.62,15.85 -44.73,29.22 -12.12,13.4 -16.96,25.94 -20.47,38.81 -3.53,12.85 -3.25,21.71 -0.64,34.99 0.67,3.34 1.68,6.31 2.81,8.94 0.03,0.22 0,0.3 0.03,0.53 3.27,12.5 -2.82,22.82 -2.82,22.82l2.21 -0.39c0,0 2.57,-0.99 4.12,-2.97 1.14,-1.44 2.64,-6.16 3.37,-8.72l0.07 0.08c5.51,-15.53 19.18,-24.05 23.06,-26.68 12.28,-8.3 27.18,-12.27 45.05,-8.68 13.56,2.72 22.98,9.11 22.98,9.11 -19.88,-16.71 -42.99,-17.14 -60.56,-10.15z"/>
   <path class="fil2" d="M984.75 537.25c-0.89,0.4 -2.91,1.22 -5.29,1.31 0.64,4.47 -0.44,8.29 -2.12,11.35 -1.99,3.71 -5.41,5.34 -8.44,5.7 -2.98,0.37 -5.51,-0.66 -4.78,0.1 0.7,0.76 2.33,1.37 3.95,1.58 5.96,0.77 9.45,-2.04 11.17,-3.98 2.85,-3.14 4.16,-6.97 4.83,-9.41 0.56,-2.06 0.77,-4.29 0.68,-6.65z"/>
   <path class="fil3" d="M434.49 1316.17c23.22,0 36.95,12.43 36.95,35.98 0,20.61 -14.71,35.65 -37.93,35.65l-18.32 0c-6.54,0 -9.81,-2.62 -9.81,-9.81l0 -52.01c0,-7.19 2.94,-9.81 9.81,-9.81l19.3 0zm-60.19 -37.29c-5.56,0 -8.5,2.29 -8.5,8.5l0 219.15c0,6.21 3.27,8.5 8.5,8.5l22.57 0c5.56,0 8.51,-2.61 8.51,-8.5l0 -71.63c0,-6.87 2.94,-9.81 9.81,-9.81l17.99 0c47.75,0 77.84,-29.76 77.84,-73.27 0,-47.1 -30.42,-72.94 -76.2,-72.94l-60.52 0zm262.65 236.15c5.89,0 8.51,-2.61 8.51,-8.5l0 -95.51c0,-40.23 -13.42,-67.05 -57.57,-67.05 -22.9,0 -44.49,7.52 -61.82,16.68 -4.58,2.29 -5.24,7.2 -3.6,10.8l6.55 14.06c2.28,5.56 6.86,6.87 11.12,4.58 13.08,-6.87 28.45,-12.1 42.84,-12.1 17.99,0 24.53,10.46 24.53,26.82l0 4.9c0,3.27 -1.63,4.91 -4.9,4.91l-13.41 0c-51.03,0 -75.56,15.37 -75.56,53.97 0,29.11 19.95,49.71 46.44,49.71 17.34,0 31.08,-6.21 42.53,-13.73 2.94,-2.29 5.88,-1.31 7.19,1.96l0.98 3.27c1.31,3.6 3.93,5.23 8.18,5.23l17.99 0zm-35 -69.34c3.93,0 5.56,1.64 5.56,5.56l0 10.79c0,4.59 -1.63,10.15 -5.56,13.41 -6.54,6.55 -17.33,11.78 -28.13,11.78 -15.37,0 -22.24,-8.83 -22.24,-20.6 0,-13.74 10.47,-20.94 27.15,-20.94l23.22 0zm78.17 60.84c0,5.23 2.29,8.5 8.51,8.5l20.93 0c5.56,0 8.5,-2.61 8.5,-8.5l0 -80.46c0,-24.21 18.97,-44.16 40.89,-44.16l5.24 0c5.56,0 7.52,-2.94 7.52,-7.52l0 -23.88c0,-3.92 -2.62,-6.54 -6.22,-6.54 -18.31,0 -31.4,9.81 -40.56,22.9 -1.63,2.61 -5.56,2.29 -6.21,-1.31l-0.98 -9.49c-0.98,-5.56 -3.6,-8.83 -9.49,-8.83l-19.62 0c-5.56,0 -8.51,2.95 -8.51,8.83l0 150.46zm146.86 -103.36c0,-17.33 8.18,-25.84 22.9,-25.84 8.5,0 20.93,4.58 27.15,10.47 3.92,3.27 5.56,7.53 5.56,12.76l0 61.16c0,5.24 -1.64,9.48 -5.56,13.08 -6.22,5.89 -18.65,10.47 -27.15,10.47 -14.72,0 -22.9,-8.83 -22.9,-26.17l0 -55.93zm-37.94 67.05c0,28.13 19.63,48.08 47.1,48.08 16.36,0 32.38,-7.52 41.54,-13.73 2.94,-2.29 5.88,-1.31 7.19,1.96l0.99 3.27c1.3,3.6 3.92,5.23 8.17,5.23l17.99 0c6.54,0 8.51,-3.6 8.51,-8.5l0 -219.15c0,-4.9 -1.97,-8.5 -8.51,-8.5l-20.93 0c-6.22,0 -8.5,3.27 -8.5,8.5l0 66.08c0,5.23 -4.91,4.58 -6.88,3.27 -7.19,-4.91 -23.21,-12.76 -39.57,-12.76 -27.47,0 -47.1,19.95 -47.1,48.08l0 78.17zm297.64 -114.15c0,-5.56 -2.29,-8.83 -8.5,-8.83l-20.93 0c-6.22,0 -8.51,3.27 -8.51,8.83l0 105.65c0,5.24 -1.64,9.48 -5.56,13.08 -6.21,5.89 -18.64,10.47 -27.14,10.47 -14.72,0 -22.9,-8.83 -22.9,-26.17l0 -103.03c0,-5.56 -2.29,-8.83 -8.51,-8.83l-20.93 0c-6.21,0 -8.5,3.27 -8.5,8.83l0 114.15c0,28.13 19.62,48.08 47.1,48.08 16.35,0 32.38,-7.52 41.54,-13.73 2.94,-2.29 5.89,-1.31 7.19,1.96l0.98 3.27c1.31,3.6 3.93,5.23 8.18,5.23l17.99 0c6.54,0 8.5,-3.6 8.5,-8.5l0 -150.46zm128.22 103.03c0,17.34 -8.18,26.17 -22.9,26.17 -8.5,0 -20.93,-4.58 -27.15,-10.47 -3.92,-3.6 -5.56,-7.84 -5.56,-13.08l0 -61.16c0,-5.23 1.64,-9.49 5.56,-12.76 6.22,-5.89 18.65,-10.47 27.15,-10.47 14.72,0 22.9,8.51 22.9,25.84l0 55.93zm-67.05 55.93c4.24,0 6.87,-1.63 8.17,-5.23l0.99 -3.27c1.3,-3.27 4.24,-4.25 7.19,-1.96 9.49,6.21 25.18,13.73 41.54,13.73 27.47,0 47.1,-19.95 47.1,-48.08l0 -78.17c0,-28.13 -19.63,-48.08 -47.1,-48.08 -16.36,0 -32.05,7.85 -39.58,12.76 -1.96,1.31 -6.87,1.96 -6.87,-3.27l0 -66.08c0,-5.23 -2.28,-8.5 -8.5,-8.5l-20.94 0c-6.21,0 -8.5,3.6 -8.5,8.5l0 219.15c0,4.9 2.29,8.5 8.5,8.5l18 0zm174.33 -158.96c0,-5.56 -2.29,-8.83 -8.51,-8.83l-20.93 0c-6.21,0 -8.5,3.27 -8.5,8.83l0 150.46c0,5.23 2.29,8.5 8.5,8.5l20.93 0c6.22,0 8.51,-3.27 8.51,-8.5l0 -150.46zm-42.85 -53.31c0,14.71 9.16,23.87 23.88,23.87 14.72,0 23.87,-9.16 23.87,-23.87 0,-14.72 -9.15,-23.88 -23.87,-23.88 -14.72,0 -23.88,9.16 -23.88,23.88zm70.98 128.54c0,54.62 19.63,87 69.67,87 37.61,0 59.2,-22.24 61.81,-56.26 0.33,-5.23 -2.28,-8.82 -8.17,-8.82l-19.95 0c-6.22,0 -8.51,1.96 -9.16,5.88 -2.94,17.34 -11.78,26.17 -24.53,26.17 -21.91,0 -31.73,-17.66 -31.73,-53.97 0,-36.63 9.82,-54.29 31.73,-54.29 12.75,0 21.59,9.16 24.53,26.16 0.65,3.93 2.94,5.89 9.16,5.89l19.95 0c5.89,0 8.5,-3.27 8.17,-8.83 -2.61,-34.02 -24.2,-56.26 -61.81,-56.26 -50.04,0 -69.67,32.38 -69.67,87.33l0 0zm275.73 16.36c4.58,0 8.17,-2.95 8.17,-7.86l0 -12.42c0,-53.32 -19.62,-83.41 -62.47,-83.41 -41.54,0 -69.99,25.19 -69.99,88.64 0,60.84 30.74,85.69 70.32,85.69 21.91,0 38.59,-8.83 52,-16.02 5.24,-2.62 6.88,-6.55 4.91,-11.45l-6.21 -14.06c-2.3,-4.91 -6.22,-6.88 -11.12,-4.58 -11.12,5.56 -23.23,12.1 -36.96,12.1 -15.37,0 -29.77,-10.8 -32.71,-29.11 -0.66,-5.23 1.63,-7.52 5.56,-7.52l78.5 0zm-84.72 -37.95c0,-18.64 10.47,-32.7 27.48,-32.7 15.7,0 26.17,12.1 26.17,32.7 0,4.59 -1.97,6.87 -6.87,6.87l-40.23 0c-4.59,0 -6.55,-2.28 -6.55,-6.87z"/>
  </g>
 </g>
</svg>
