<?xml version="1.0" encoding="UTF-8" standalone="no"?>
<!-- Created with Inkscape (http://www.inkscape.org/) -->

<svg
   width="1213.1932"
   height="493.96463"
   viewBox="0 0 320.9907 130.69481"
   version="1.1"
   id="svg8"
   inkscape:version="1.2.2 (732a01da63, 2022-12-09)"
   sodipodi:docname="logo_kraj.svg"
   xmlns:inkscape="http://www.inkscape.org/namespaces/inkscape"
   xmlns:sodipodi="http://sodipodi.sourceforge.net/DTD/sodipodi-0.dtd"
   xmlns="http://www.w3.org/2000/svg"
   xmlns:svg="http://www.w3.org/2000/svg"
   xmlns:rdf="http://www.w3.org/1999/02/22-rdf-syntax-ns#"
   xmlns:cc="http://creativecommons.org/ns#"
   xmlns:dc="http://purl.org/dc/elements/1.1/">
  <defs
     id="defs2">
    <clipPath
       clipPathUnits="userSpaceOnUse"
       id="clipPath1190">
      <path
         d="M 0,0 H 765.354 V 1048.819 H 0 Z"
         id="path1188"
         inkscape:connector-curvature="0" />
    </clipPath>
    <clipPath
       clipPathUnits="userSpaceOnUse"
       id="clipPath1164">
      <path
         d="M 0,0 H 765.354 V 1048.819 H 0 Z"
         id="path1162"
         inkscape:connector-curvature="0" />
    </clipPath>
    <clipPath
       clipPathUnits="userSpaceOnUse"
       id="clipPath1108">
      <path
         d="M 0,0 H 765.354 V 1048.819 H 0 Z"
         id="path1106"
         inkscape:connector-curvature="0" />
    </clipPath>
    <clipPath
       clipPathUnits="userSpaceOnUse"
       id="clipPath1074">
      <path
         d="M 0,0 H 765.354 V 1048.819 H 0 Z"
         id="path1072"
         inkscape:connector-curvature="0" />
    </clipPath>
    <clipPath
       clipPathUnits="userSpaceOnUse"
       id="clipPath1040">
      <path
         d="M 0,0 H 765.354 V 1048.819 H 0 Z"
         id="path1038"
         inkscape:connector-curvature="0" />
    </clipPath>
    <clipPath
       clipPathUnits="userSpaceOnUse"
       id="clipPath1020">
      <path
         d="M 0,0 H 765.354 V 1048.819 H 0 Z"
         id="path1018"
         inkscape:connector-curvature="0" />
    </clipPath>
    <clipPath
       clipPathUnits="userSpaceOnUse"
       id="clipPath1002">
      <path
         d="M 0,0 H 765.354 V 1048.819 H 0 Z"
         id="path1000"
         inkscape:connector-curvature="0" />
    </clipPath>
    <clipPath
       clipPathUnits="userSpaceOnUse"
       id="clipPath988">
      <path
         d="M 0,0 H 765.354 V 1048.819 H 0 Z"
         id="path986"
         inkscape:connector-curvature="0" />
    </clipPath>
    <clipPath
       clipPathUnits="userSpaceOnUse"
       id="clipPath956">
      <path
         d="M 0,0 H 765.354 V 1048.819 H 0 Z"
         id="path954"
         inkscape:connector-curvature="0" />
    </clipPath>
    <clipPath
       clipPathUnits="userSpaceOnUse"
       id="clipPath928">
      <path
         d="M 0,0 H 765.354 V 1048.819 H 0 Z"
         id="path926"
         inkscape:connector-curvature="0" />
    </clipPath>
    <clipPath
       clipPathUnits="userSpaceOnUse"
       id="clipPath910">
      <path
         d="M 0,0 H 765.354 V 1048.819 H 0 Z"
         id="path908"
         inkscape:connector-curvature="0" />
    </clipPath>
    <clipPath
       clipPathUnits="userSpaceOnUse"
       id="clipPath896">
      <path
         d="M 0,0 H 765.354 V 1048.819 H 0 Z"
         id="path894"
         inkscape:connector-curvature="0" />
    </clipPath>
    <clipPath
       clipPathUnits="userSpaceOnUse"
       id="clipPath882">
      <path
         d="M 0,0 H 765.354 V 1048.819 H 0 Z"
         id="path880"
         inkscape:connector-curvature="0" />
    </clipPath>
    <clipPath
       clipPathUnits="userSpaceOnUse"
       id="clipPath858">
      <path
         d="M 0,0 H 765.354 V 1048.819 H 0 Z"
         id="path856"
         inkscape:connector-curvature="0" />
    </clipPath>
    <clipPath
       clipPathUnits="userSpaceOnUse"
       id="clipPath258">
      <path
         d="M 0,0 H 765.354 V 1048.819 H 0 Z"
         id="path256"
         inkscape:connector-curvature="0" />
    </clipPath>
    <clipPath
       clipPathUnits="userSpaceOnUse"
       id="clipPath242">
      <path
         d="M 0,0 H 765.354 V 1048.819 H 0 Z"
         id="path240"
         inkscape:connector-curvature="0" />
    </clipPath>
    <clipPath
       clipPathUnits="userSpaceOnUse"
       id="clipPath218">
      <path
         d="M 0,0 H 765.354 V 1048.819 H 0 Z"
         id="path216"
         inkscape:connector-curvature="0" />
    </clipPath>
    <clipPath
       clipPathUnits="userSpaceOnUse"
       id="clipPath192">
      <path
         d="M 0,0 H 765.354 V 1048.819 H 0 Z"
         id="path190"
         inkscape:connector-curvature="0" />
    </clipPath>
    <clipPath
       clipPathUnits="userSpaceOnUse"
       id="clipPath176">
      <path
         d="M 0,0 H 765.354 V 1048.819 H 0 Z"
         id="path174"
         inkscape:connector-curvature="0" />
    </clipPath>
    <clipPath
       clipPathUnits="userSpaceOnUse"
       id="clipPath1730">
      <path
         d="M 0,0 H 765.354 V 1048.819 H 0 Z"
         id="path1728"
         inkscape:connector-curvature="0" />
    </clipPath>
    <clipPath
       clipPathUnits="userSpaceOnUse"
       id="clipPath1714">
      <path
         d="M 0,0 H 765.354 V 1048.819 H 0 Z"
         id="path1712"
         inkscape:connector-curvature="0" />
    </clipPath>
    <clipPath
       clipPathUnits="userSpaceOnUse"
       id="clipPath1698">
      <path
         d="M 0,0 H 765.354 V 1048.819 H 0 Z"
         id="path1696"
         inkscape:connector-curvature="0" />
    </clipPath>
    <clipPath
       clipPathUnits="userSpaceOnUse"
       id="clipPath1652">
      <path
         d="M 0,0 H 765.354 V 1048.819 H 0 Z"
         id="path1650"
         inkscape:connector-curvature="0" />
    </clipPath>
    <clipPath
       clipPathUnits="userSpaceOnUse"
       id="clipPath20147">
      <path
         d="M 0,0 H 765.354 V 1048.819 H 0 Z"
         id="path20145"
         inkscape:connector-curvature="0" />
    </clipPath>
    <clipPath
       clipPathUnits="userSpaceOnUse"
       id="clipPath20131">
      <path
         d="M 0,0 H 765.354 V 1048.819 H 0 Z"
         id="path20129"
         inkscape:connector-curvature="0" />
    </clipPath>
    <clipPath
       clipPathUnits="userSpaceOnUse"
       id="clipPath20115">
      <path
         d="M 0,0 H 765.354 V 1048.819 H 0 Z"
         id="path20113"
         inkscape:connector-curvature="0" />
    </clipPath>
    <clipPath
       clipPathUnits="userSpaceOnUse"
       id="clipPath20081">
      <path
         d="M 0,0 H 765.354 V 1048.819 H 0 Z"
         id="path20079"
         inkscape:connector-curvature="0" />
    </clipPath>
    <clipPath
       clipPathUnits="userSpaceOnUse"
       id="clipPath20057">
      <path
         d="M 0,0 H 765.354 V 1048.819 H 0 Z"
         id="path20055"
         inkscape:connector-curvature="0" />
    </clipPath>
    <clipPath
       clipPathUnits="userSpaceOnUse"
       id="clipPath20624">
      <path
         d="M 0,0 H 765.354 V 1048.819 H 0 Z"
         id="path20622"
         inkscape:connector-curvature="0" />
    </clipPath>
    <clipPath
       clipPathUnits="userSpaceOnUse"
       id="clipPath20608">
      <path
         d="M 0,0 H 765.354 V 1048.819 H 0 Z"
         id="path20606"
         inkscape:connector-curvature="0" />
    </clipPath>
    <clipPath
       clipPathUnits="userSpaceOnUse"
       id="clipPath20592">
      <path
         d="M 0,0 H 765.354 V 1048.819 H 0 Z"
         id="path20590"
         inkscape:connector-curvature="0" />
    </clipPath>
  </defs>
  <sodipodi:namedview
     id="base"
     pagecolor="#ffffff"
     bordercolor="#666666"
     borderopacity="1.0"
     inkscape:pageopacity="0.82352941"
     inkscape:pageshadow="2"
     inkscape:zoom="0.98994949"
     inkscape:cx="452.04326"
     inkscape:cy="144.45181"
     inkscape:document-units="px"
     inkscape:current-layer="layer1"
     showgrid="false"
     units="px"
     inkscape:window-width="2560"
     inkscape:window-height="1369"
     inkscape:window-x="-8"
     inkscape:window-y="-8"
     inkscape:window-maximized="1"
     inkscape:pagecheckerboard="true"
     fit-margin-top="0"
     fit-margin-left="0"
     fit-margin-right="0"
     fit-margin-bottom="0"
     inkscape:showpageshadow="2"
     inkscape:deskcolor="#d1d1d1" />
  <metadata
     id="metadata5">
    <rdf:RDF>
      <cc:Work
         rdf:about="">
        <dc:format>image/svg+xml</dc:format>
        <dc:type
           rdf:resource="http://purl.org/dc/dcmitype/StillImage" />
        <dc:title />
      </cc:Work>
    </rdf:RDF>
  </metadata>
  <g
     inkscape:label="Layer 1"
     inkscape:groupmode="layer"
     id="layer1"
     transform="translate(131.8044,-127.61579)">
    <g
       id="g470"
       transform="translate(11.63296,8.2786759)">
      <path
         inkscape:connector-curvature="0"
         id="path20562"
         style="fill:#000000;fill-opacity:1;fill-rule:nonzero;stroke:none;stroke-width:0.837343"
         d="m -3.2098903,158.87027 c -0.7452296,-0.35 -1.7676209,-0.52501 -3.0655125,-0.52501 h -6.7071142 v 8.62128 h 6.7071142 c 1.5130794,0 2.7406183,-0.32237 3.6834713,-0.96545 0.942853,-0.64392 1.4142677,-1.77851 1.4142677,-3.40464 0,-1.82874 -0.6774168,-3.07052 -2.0322265,-3.72618 m -13.1429287,-3.42055 h 11.1952725 c 2.2130925,0 3.9966401,0.62382 5.35144982,1.87147 1.35483348,1.24764 2.03222648,3.00019 2.03222648,5.25852 0,1.9418 -0.6037174,3.63323 -1.8120067,5.07261 -1.20828929,1.4394 -3.0655125,2.15952 -5.5716696,2.15952 h -7.8249705 v 10.51702 h -3.370302 z" />
      <path
         inkscape:connector-curvature="0"
         id="path20566"
         style="fill:#000000;fill-opacity:1;fill-rule:nonzero;stroke:none;stroke-width:0.837343"
         d="m 13.265649,169.33705 c 0.700037,-0.0895 1.168105,-0.3835 1.405913,-0.88005 0.134818,-0.2713 0.202703,-0.66066 0.202703,-1.16891 0,-1.03915 -0.369257,-1.79276 -1.109478,-2.26082 -0.739367,-0.46893 -1.797765,-0.70339 -3.175195,-0.70339 -1.5917871,0 -2.7213688,0.42957 -3.3870601,1.28783 -0.3726267,0.47395 -0.6154429,1.17983 -0.7284722,2.11682 H 3.628767 c 0.056016,-2.23571 0.7820674,-3.79066 2.1762309,-4.66568 1.3941873,-0.87587 3.011941,-1.31296 4.8524071,-1.31296 2.133554,0 3.866853,0.40612 5.199066,1.21918 1.321319,0.81307 1.981978,2.07745 1.981978,3.79399 v 10.45004 c 0,0.31569 0.06456,0.57023 0.195108,0.76199 0.129834,0.19178 0.403602,0.28803 0.82059,0.28803 0.135768,0 0.288057,-0.009 0.458028,-0.0259 0.169235,-0.0166 0.350006,-0.0418 0.541767,-0.0762 v 2.25244 c -0.47393,0.13577 -0.835662,0.22027 -1.084365,0.25454 -0.247848,0.0335 -0.586984,0.051 -1.015698,0.051 -1.05002,0 -1.812007,-0.37261 -2.286768,-1.11786 -0.247848,-0.39522 -0.422875,-0.95455 -0.52501,-1.67719 -0.620475,0.81307 -1.513079,1.51894 -2.676152,2.1168 -1.162242,0.59871 -2.4442069,0.89764 -3.8442331,0.89764 -1.6822437,0 -3.0571576,-0.5108 -4.1239346,-1.53233 -1.0667534,-1.02156 -1.6001419,-2.30018 -1.6001419,-3.83588 0,-1.68222 0.5250098,-2.98681 1.5750295,-3.9129 1.0500197,-0.92527 2.4274733,-1.49549 4.1322896,-1.70985 z m -6.4190576,8.24868 c 0.6439257,0.50742 1.4059127,0.76196 2.2867918,0.76196 1.0726158,0 2.1109338,-0.24868 3.1157368,-0.74523 1.693946,-0.82394 2.540503,-2.17374 2.540503,-4.04772 v -2.45591 c -0.372603,0.23689 -0.85242,0.43458 -1.43938,0.59283 -0.586984,0.15831 -1.163073,0.27046 -1.72746,0.3383 l -1.8463286,0.23781 c -1.1061309,0.14645 -1.9359308,0.37763 -2.4894234,0.69415 -0.9369903,0.53087 -1.405889,1.37743 -1.405889,2.5405 0,0.88088 0.3215475,1.57503 0.9654494,2.08331" />
      <path
         inkscape:connector-curvature="0"
         id="path20570"
         style="fill:#000000;fill-opacity:1;fill-rule:nonzero;stroke:none;stroke-width:0.837343"
         d="m 22.919383,162.19033 h 2.896372 v 3.13335 c 0.236883,-0.60958 0.818075,-1.35232 1.74417,-2.22734 0.92612,-0.87501 1.992897,-1.31296 3.201162,-1.31296 0.05602,0 0.152384,0.005 0.287226,0.0166 0.135531,0.0119 0.367571,0.0335 0.694981,0.0679 v 3.21789 c -0.180866,-0.0344 -0.34749,-0.057 -0.499897,-0.0679 -0.152383,-0.0119 -0.319008,-0.0166 -0.499874,-0.0166 -1.534869,0 -2.715506,0.49403 -3.539467,1.4821 -0.823937,0.98805 -1.235917,2.12601 -1.235917,3.413 v 10.43246 h -3.048756 z" />
      <path
         inkscape:connector-curvature="0"
         id="path20574"
         style="fill:#000000;fill-opacity:1;fill-rule:nonzero;stroke:none;stroke-width:0.837343"
         d="m 44.394705,162.74885 c 0.541767,0.33911 1.15721,0.93196 1.846352,1.77852 v -9.16222 h 2.929839 v 24.96371 h -2.743965 v -2.52291 c -0.710908,1.11785 -1.552433,1.92503 -2.523745,2.42158 -0.970482,0.49655 -2.083306,0.74523 -3.335981,0.74523 -2.021332,0 -3.771388,-0.8499 -5.250122,-2.54885 -1.479588,-1.69981 -2.218955,-3.96064 -2.218955,-6.78333 0,-2.64181 0.6749,-4.93109 2.023847,-6.86788 1.348971,-1.93593 3.277354,-2.9039 5.783535,-2.9039 1.389131,0 2.552204,0.29307 3.489195,0.88005 m -6.842764,13.60011 c 0.824792,1.30961 2.14528,1.96441 3.963149,1.96441 1.411752,0 2.571478,-0.60623 3.480816,-1.82039 0.908531,-1.21415 1.363212,-2.95497 1.363212,-5.22501 0,-2.2918 -0.468068,-3.98826 -1.405913,-5.08936 -0.93699,-1.10112 -2.094176,-1.65124 -3.471606,-1.65124 -1.5357,0 -2.780827,0.58696 -3.734551,1.76176 -0.953747,1.17396 -1.431025,2.9014 -1.431025,5.18231 0,1.94181 0.411981,3.56792 1.235918,4.87752" />
      <path
         inkscape:connector-curvature="0"
         id="path20578"
         style="fill:#000000;fill-opacity:1;fill-rule:nonzero;stroke:none;stroke-width:0.837343"
         d="m 56.724567,162.19033 v 12.04183 c 0,0.92609 0.14645,1.68222 0.440464,2.2692 0.541743,1.08437 1.552433,1.62611 3.031167,1.62611 2.122659,0 3.567926,-0.94869 4.335752,-2.84527 0.417843,-1.01655 0.626337,-2.41071 0.626337,-4.18337 v -8.9085 h 3.048755 v 18.13853 h -2.878784 l 0.03347,-2.67532 c -0.395247,0.68831 -0.885911,1.27026 -1.473726,1.74419 -1.162242,0.94872 -2.573994,1.42265 -4.233617,1.42265 -2.585719,0 -4.347477,-0.86415 -5.284468,-2.59158 -0.508252,-0.92527 -0.761963,-2.16201 -0.761963,-3.70859 v -12.32988 z" />
      <path
         inkscape:connector-curvature="0"
         id="path20582"
         style="fill:#000000;fill-opacity:1;fill-rule:nonzero;stroke:none;stroke-width:0.837343"
         d="m 84.35605,176.24765 c 0.818905,-1.30962 1.227538,-3.03788 1.227538,-5.18316 0,-1.90745 -0.408633,-3.48837 -1.227538,-4.74187 -0.818929,-1.25351 -2.023872,-1.87982 -3.615659,-1.87982 -1.389131,0 -2.605799,0.51411 -3.649956,1.54154 -1.044181,1.02742 -1.566675,2.72053 -1.566675,5.08015 0,1.70567 0.214333,3.08813 0.643902,4.14988 0.801341,1.99873 2.297686,2.99767 4.488159,2.99767 1.647898,0 2.8813,-0.6548 3.700229,-1.96439 m -11.626503,-20.8825 h 2.963354 v 9.02657 c 0.666522,-0.86918 1.462,-1.53235 2.388095,-1.98953 0.926096,-0.45719 1.930923,-0.68579 3.014434,-0.68579 2.258309,0 4.090419,0.77623 5.496308,2.32866 1.405913,1.55243 2.108442,3.84172 2.108442,6.86704 0,2.86789 -0.69415,5.25098 -2.083306,7.14756 -1.388324,1.89657 -3.31336,2.84529 -5.775155,2.84529 -1.37743,0 -2.540503,-0.33327 -3.489219,-0.99896 -0.564363,-0.39523 -1.168081,-1.0274 -1.812006,-1.89741 v 2.32028 h -2.810947 z" />
      <path
         d="m 92.257449,155.44982 h 3.099027 v 3.45487 h -3.099027 z m 0,6.82517 h 3.099027 v 18.05394 h -3.099027 z"
         style="fill:#000000;fill-opacity:1;fill-rule:nonzero;stroke:none;stroke-width:0.837343"
         id="path20584"
         inkscape:connector-curvature="0" />
      <g
         id="g20586"
         transform="matrix(0.83734256,0,0,-0.83734256,-303.79384,413.5464)">
        <g
           id="g20588"
           clip-path="url(#clipPath20592)">
          <g
             id="g20594"
             transform="translate(496.4987,299.0302)">
            <path
               d="m 0,0 c 1.53,-1.186 2.451,-3.229 2.761,-6.128 h -3.54 c -0.216,1.335 -0.708,2.444 -1.476,3.327 -0.769,0.883 -2.003,1.325 -3.702,1.325 -2.319,0 -3.978,-1.133 -4.976,-3.398 -0.647,-1.47 -0.97,-3.284 -0.97,-5.441 0,-2.171 0.458,-3.998 1.375,-5.482 0.917,-1.483 2.36,-2.224 4.328,-2.224 1.511,0 2.707,0.461 3.591,1.385 0.883,0.924 1.493,2.188 1.83,3.792 h 3.54 c -0.405,-2.872 -1.416,-4.972 -3.034,-6.3 -1.618,-1.328 -3.688,-1.992 -6.21,-1.992 -2.831,0 -5.09,1.035 -6.776,3.104 -1.685,2.07 -2.528,4.656 -2.528,7.757 0,3.803 0.924,6.763 2.771,8.88 1.847,2.117 4.2,3.175 7.059,3.175 C -3.516,1.78 -1.531,1.187 0,0"
               style="fill:#000000;fill-opacity:1;fill-rule:nonzero;stroke:none"
               id="path20596"
               inkscape:connector-curvature="0" />
          </g>
        </g>
      </g>
      <g
         id="g20598"
         transform="matrix(0.83734256,0,0,-0.83734256,117.23848,155.44965)">
        <path
           d="m 0,0 h 3.499 v -17.253 l 9.344,9.203 h 4.652 l -8.292,-8.111 8.758,-13.551 H 13.308 L 6.553,-18.79 3.499,-21.581 v -8.131 H 0 Z"
           style="fill:#000000;fill-opacity:1;fill-rule:nonzero;stroke:none"
           id="path20600"
           inkscape:connector-curvature="0" />
      </g>
      <g
         id="g20602"
         transform="matrix(0.83734256,0,0,-0.83734256,-303.79384,413.5464)">
        <g
           id="g20604"
           clip-path="url(#clipPath20608)">
          <g
             id="g20610"
             transform="translate(536.4156,308.8201)">
            <path
               d="M 0,0 -5.401,-5.846 H -8.192 L -4.491,0 Z m 0.728,-8.637 h 4.025 c -0.513,-1.389 -1.652,-4.558 -3.419,-9.506 -1.321,-3.722 -2.427,-6.756 -3.317,-9.102 -2.103,-5.529 -3.586,-8.9 -4.449,-10.113 -0.863,-1.214 -2.347,-1.821 -4.45,-1.821 -0.513,0 -0.907,0.021 -1.184,0.061 -0.276,0.04 -0.616,0.115 -1.021,0.222 v 3.318 c 0.634,-0.176 1.092,-0.284 1.375,-0.324 0.284,-0.04 0.533,-0.061 0.749,-0.061 0.674,0 1.17,0.112 1.486,0.334 0.317,0.223 0.584,0.496 0.799,0.819 0.068,0.108 0.311,0.661 0.729,1.659 0.418,0.998 0.721,1.739 0.91,2.225 l -8.01,22.289 h 4.126 l 5.805,-17.637 z"
               style="fill:#000000;fill-opacity:1;fill-rule:nonzero;stroke:none"
               id="path20612"
               inkscape:connector-curvature="0" />
          </g>
        </g>
      </g>
      <g
         id="g20614"
         transform="matrix(0.83734256,0,0,-0.83734256,-16.382133,190.0998)">
        <path
           d="m 0,0 h 3.499 v -17.253 l 9.345,9.203 h 4.652 l -8.293,-8.111 8.758,-13.552 h -4.652 l -6.756,10.922 -3.054,-2.791 v -8.131 H 0 Z"
           style="fill:#000000;fill-opacity:1;fill-rule:nonzero;stroke:none"
           id="path20616"
           inkscape:connector-curvature="0" />
      </g>
      <g
         id="g20618"
         transform="matrix(0.83734256,0,0,-0.83734256,-303.79384,413.5464)">
        <g
           id="g20620"
           clip-path="url(#clipPath20624)">
          <g
             id="g20626"
             transform="translate(364.1367,258.8021)">
            <path
               d="m 0,0 h 3.459 v -3.742 c 0.283,0.728 0.977,1.614 2.083,2.659 1.106,1.045 2.38,1.568 3.823,1.568 0.067,0 0.182,-0.007 0.344,-0.02 0.161,-0.014 0.438,-0.041 0.829,-0.081 v -3.843 c -0.216,0.04 -0.415,0.067 -0.597,0.081 -0.182,0.013 -0.381,0.02 -0.597,0.02 -1.833,0 -3.243,-0.59 -4.227,-1.77 -0.984,-1.18 -1.476,-2.538 -1.476,-4.075 v -12.46 H 0 Z"
               style="fill:#000000;fill-opacity:1;fill-rule:nonzero;stroke:none"
               id="path20628"
               inkscape:connector-curvature="0" />
          </g>
          <g
             id="g20630"
             transform="translate(389.4397,250.2661)">
            <path
               d="m 0,0 c 0.836,0.108 1.396,0.458 1.679,1.052 0.162,0.323 0.243,0.789 0.243,1.395 0,1.241 -0.442,2.141 -1.325,2.701 -0.883,0.559 -2.148,0.839 -3.793,0.839 -1.901,0 -3.249,-0.512 -4.045,-1.537 -0.445,-0.567 -0.735,-1.409 -0.87,-2.528 h -3.398 c 0.068,2.669 0.934,4.527 2.599,5.572 1.666,1.045 3.597,1.567 5.795,1.567 2.549,0 4.619,-0.485 6.21,-1.456 C 4.672,6.634 5.461,5.124 5.461,3.074 V -9.405 c 0,-0.378 0.078,-0.681 0.233,-0.91 0.155,-0.23 0.482,-0.344 0.981,-0.344 0.162,0 0.344,0.01 0.546,0.03 0.202,0.02 0.418,0.051 0.647,0.091 v -2.69 C 7.302,-13.39 6.87,-13.491 6.574,-13.531 6.277,-13.572 5.872,-13.592 5.36,-13.592 c -1.254,0 -2.164,0.445 -2.73,1.335 -0.297,0.472 -0.506,1.139 -0.628,2.002 -0.741,-0.971 -1.806,-1.813 -3.195,-2.528 -1.389,-0.715 -2.92,-1.072 -4.592,-1.072 -2.009,0 -3.651,0.61 -4.925,1.83 -1.274,1.221 -1.911,2.748 -1.911,4.582 0,2.009 0.627,3.566 1.881,4.672 1.254,1.106 2.899,1.787 4.935,2.043 z m -7.666,-9.85 c 0.769,-0.607 1.679,-0.91 2.731,-0.91 1.281,0 2.521,0.296 3.721,0.89 2.023,0.984 3.034,2.595 3.034,4.834 v 2.932 C 1.375,-2.387 0.802,-2.623 0.101,-2.811 -0.6,-3 -1.288,-3.135 -1.962,-3.216 l -2.205,-0.283 c -1.321,-0.175 -2.312,-0.452 -2.973,-0.829 -1.119,-0.634 -1.679,-1.645 -1.679,-3.034 0,-1.052 0.385,-1.881 1.153,-2.488"
               style="fill:#000000;fill-opacity:1;fill-rule:nonzero;stroke:none"
               id="path20632"
               inkscape:connector-curvature="0" />
          </g>
          <g
             id="g20634"
             transform="translate(397.4287,231.6581)">
            <path
               d="M 0,0 C 1.632,0.054 2.613,0.199 2.943,0.435 3.274,0.671 3.439,1.409 3.439,2.649 V 27.042 H 7.08 V 2.265 C 7.08,0.687 6.824,-0.492 6.311,-1.275 5.462,-2.596 3.85,-3.257 1.477,-3.257 1.302,-3.257 1.116,-3.25 0.921,-3.236 0.725,-3.223 0.419,-3.196 0,-3.156 Z M 7.08,30.987 H 3.439 v 4.207 H 7.08 Z"
               style="fill:#000000;fill-opacity:1;fill-rule:nonzero;stroke:none"
               id="path20636"
               inkscape:connector-curvature="0" />
          </g>
          <g
             id="g20638"
             transform="translate(322.2808,260.9891)">
            <path
               d="M 0,0 C -4.461,-17.332 -18.107,-30.977 -35.439,-35.439 V 0 Z M -35.439,60.1 C -18.107,55.64 -4.461,41.993 0,24.66 H -35.439 Z M -95.538,24.66 c 4.46,17.332 18.106,30.98 35.437,35.44 V 24.66 Z m 35.437,-60.099 C -77.432,-30.977 -91.078,-17.332 -95.538,0 h 35.437 z"
               style="fill:#0061ad;fill-opacity:1;fill-rule:nonzero;stroke:none"
               id="path20640"
               inkscape:connector-curvature="0" />
          </g>
          <g
             id="g20642"
             transform="translate(286.8419,273.3188)">
            <path
               d="m 0,0 h 36.993 c 0,-4.257 -0.54,-8.39 -1.554,-12.33 H 0 Z m -61.653,0 h 49.323 v -12.33 -36.992 c -4.258,0 -8.39,0.541 -12.33,1.553 v 35.439 h -35.439 c -1.014,3.94 -1.554,8.073 -1.554,12.33 M 0.001,47.77 V 12.33 H -24.66 v 35.44 c 3.94,1.013 8.072,1.553 12.33,1.553 4.258,0 8.389,-0.539 12.331,-1.553"
               style="fill:#ffdf00;fill-opacity:1;fill-rule:nonzero;stroke:none"
               id="path20644"
               inkscape:connector-curvature="0" />
          </g>
          <g
             id="g20646"
             transform="translate(225.1888,273.3188)">
            <path
               d="m 0,0 h 49.323 v -49.322 c 4.257,0 8.389,0.541 12.33,1.553 V 0 h 36.993 v 0.001 c 0,4.257 -0.541,8.389 -1.554,12.329 H 1.554 C 0.541,8.39 0,4.258 0,0.001 Z"
               style="fill:#e30520;fill-opacity:1;fill-rule:nonzero;stroke:none"
               id="path20648"
               inkscape:connector-curvature="0" />
          </g>
        </g>
      </g>
    </g>
  </g>
</svg>
