<?xml version="1.0" encoding="UTF-8" standalone="no"?>
<!-- Creator: CorelDRAW 2017 -->

<svg
   xml:space="preserve"
   width="32.987858mm"
   height="32.087601mm"
   version="1.1"
   style="clip-rule:evenodd;fill-rule:evenodd;image-rendering:optimizeQuality;shape-rendering:geometricPrecision;text-rendering:geometricPrecision"
   viewBox="0 0 3298.7858 3208.7601"
   id="svg275"
   sodipodi:docname="logo_skm.svg"
   inkscape:version="1.2.2 (732a01da63, 2022-12-09)"
   xmlns:inkscape="http://www.inkscape.org/namespaces/inkscape"
   xmlns:sodipodi="http://sodipodi.sourceforge.net/DTD/sodipodi-0.dtd"
   xmlns="http://www.w3.org/2000/svg"
   xmlns:svg="http://www.w3.org/2000/svg"><sodipodi:namedview
   id="namedview277"
   pagecolor="#ffffff"
   bordercolor="#000000"
   borderopacity="0.25"
   inkscape:showpageshadow="2"
   inkscape:pageopacity="0.0"
   inkscape:pagecheckerboard="0"
   inkscape:deskcolor="#d1d1d1"
   inkscape:document-units="mm"
   showgrid="false"
   inkscape:zoom="1.4821566"
   inkscape:cx="-160.91417"
   inkscape:cy="-16.867313"
   inkscape:window-width="1920"
   inkscape:window-height="1009"
   inkscape:window-x="-8"
   inkscape:window-y="1016"
   inkscape:window-maximized="1"
   inkscape:current-layer="Vrstva_x0020_1" />
 <defs
   id="defs256">
  <style
   type="text/css"
   id="style254">
   <![CDATA[
    .fil1 {fill:#FEFEFE}
    .fil0 {fill:#B42322}
    .fil2 {fill:#2B2A29;fill-rule:nonzero}
   ]]>
  </style>
 </defs>
 <g
   id="Vrstva_x0020_1"
   inkscape:label="Vrstva 1"
   inkscape:groupmode="layer"
   transform="translate(-4056.6941,-1106.7769)">
  <metadata
   id="CorelCorpID_0Corel-Layer" />
  <g
   id="_2901479565456"
   transform="translate(3006.102,1311.1569)">
   <path
   class="fil0"
   d="m 2699.99,428.54 c 536.5,0 971.44,434.93 971.44,971.46 0,536.51 -434.94,971.46 -971.44,971.46 -536.53,0 -971.45,-434.95 -971.45,-971.46 0,-536.53 434.92,-971.46 971.45,-971.46 z"
   id="path259" />
   <path
   class="fil1"
   d="m 2699.99,494.42 c 500.14,0 905.57,405.43 905.57,905.58 0,500.13 -405.43,905.57 -905.57,905.57 -500.16,0 -905.6,-405.44 -905.6,-905.57 0,-500.15 405.44,-905.58 905.6,-905.58 z"
   id="path261" />
   <path
   class="fil0"
   d="m 2699.99,745.63 c -211.48,189.54 -124.88,111.94 -416.96,373.75 -22.42,20.08 -24.35,54.88 -4.23,77.28 v 0 c 20.08,22.42 54.86,24.33 77.28,4.23 l 59.5,-53.31 v 247.58 c 0,39.28 52.36,89.44 87.07,98.44 15.11,3.92 26.84,-12.06 26.84,-22.49 V 1045.47 L 2645.26,941.7 v 553.57 c 0,30.11 24.63,54.74 54.73,54.74 v 0 c 30.09,0 54.74,-24.63 54.74,-54.74 V 941.7 l 115.73,103.77 v 425.64 c 0,10.43 11.73,26.41 26.85,22.49 34.72,-9 87.06,-59.16 87.06,-98.44 v -247.58 l 59.52,53.31 c 22.4,20.1 57.2,18.19 77.27,-4.23 v 0 c 20.11,-22.4 18.19,-57.2 -4.22,-77.28 C 2824.87,857.59 2911.45,935.17 2699.99,745.63 Z"
   id="path263" />
   <path
   class="fil0"
   d="m 2699.99,572.09 c 41.86,0 75.79,33.95 75.79,75.82 0,41.87 -33.93,75.83 -75.79,75.83 -41.88,0 -75.82,-33.96 -75.82,-75.83 0,-41.87 33.94,-75.82 75.82,-75.82 z"
   id="path265" />
   <path
   class="fil0"
   d="m 2970.52,771.09 c 41.85,0 75.8,33.94 75.8,75.83 0,41.87 -33.95,75.8 -75.8,75.8 -41.87,0 -75.82,-33.93 -75.82,-75.8 0,-41.89 33.95,-75.83 75.82,-75.83 z"
   id="path267" />
   <path
   class="fil0"
   d="m 2429.43,771.09 c 41.89,0 75.83,33.94 75.83,75.83 0,41.87 -33.94,75.8 -75.83,75.8 -41.85,0 -75.78,-33.93 -75.78,-75.8 0,-41.89 33.93,-75.83 75.78,-75.83 z"
   id="path269" />
   <path
   class="fil2"
   d="m 2167.03,1791.42 c 6.87,2.18 21.34,5.42 37.42,5.42 28.21,0 39.06,-9.22 39.06,-36.15 0,-22.42 -11.21,-30.57 -29.67,-38.53 l -8.47,-3.43 c -9.05,-3.8 -14.67,-7.42 -14.67,-18.09 0,-9.39 5.96,-13.18 16.63,-13.18 4.34,0 8.49,0.72 12.68,1.44 v 13.2 h 18.63 v -30.01 c -7.06,-2.18 -19.9,-4.53 -32.93,-4.53 -22.58,0 -38.52,8.87 -38.52,34.18 0,21.32 10.67,29.11 28.23,36.71 l 9.39,3.79 c 12.11,4.88 15.2,11.03 15.2,19.17 0,11.57 -4.53,15.54 -18.1,15.54 -5.97,0 -11.37,-0.9 -16.26,-1.98 v -13.74 h -18.62 z m 187.84,3.8 v -17.37 h -10.11 l -23.32,-108.66 h -36.34 l -23.5,108.66 h -10.31 v 17.37 h 30.37 l 5.23,-27.48 h 31.65 l 5.44,27.48 z m -52.43,-106.86 h 1.08 l 12.51,61.84 h -26.22 z m 109.04,-1.8 v -17.37 h -50.27 v 17.37 h 13.02 v 91.29 h -13.02 v 17.37 h 83.18 v -35.09 h -19.72 v 15.2 h -26.38 v -88.77 z m 126.74,16.44 v -33.81 h -83.7 v 17.37 h 12.99 v 91.29 h -12.99 v 17.37 h 84.6 v -33.81 h -18.62 v 13.92 h -28.94 v -35.98 h 34.01 v -19.16 h -34.01 v -31.11 h 28.06 V 1703 Z m 16.64,88.42 c 6.88,2.18 21.34,5.42 37.43,5.42 28.19,0 39.06,-9.22 39.06,-36.15 0,-22.42 -11.21,-30.57 -29.67,-38.53 l -8.49,-3.43 c -9.05,-3.8 -14.63,-7.42 -14.63,-18.09 0,-9.39 5.94,-13.18 16.61,-13.18 4.33,0 8.49,0.72 12.68,1.44 v 13.2 h 18.63 v -30.01 c -7.08,-2.18 -19.92,-4.53 -32.93,-4.53 -22.58,0 -38.52,8.87 -38.52,34.18 0,21.32 10.68,29.11 28.23,36.71 l 9.37,3.79 c 12.15,4.88 15.22,11.03 15.22,19.17 0,11.57 -4.55,15.54 -18.08,15.54 -5.97,0 -11.39,-0.9 -16.28,-1.98 v -13.74 h -18.63 z m 147.35,3.8 v -17.37 h -16.97 v -91.29 h 16.97 v -17.37 h -58.01 v 17.37 h 16.98 v 91.29 h -16.98 v 17.37 z m 109.03,0 v -17.37 h -10.11 l -23.32,-108.66 h -36.34 l -23.5,108.66 h -10.33 v 17.37 h 30.39 l 5.24,-27.48 h 31.65 l 5.41,27.48 z m -52.43,-106.86 h 1.08 l 12.51,61.84 h -26.24 z m 25.14,-56.23 h -20.8 l -12.45,27.83 h 16.61 z m 78.3,163.09 v -17.37 h -9.59 v -39.96 c 0,-18.62 -1.07,-40.12 -1.07,-40.12 h 0.7 c 0,0 5.43,18.06 9.59,29.47 l 24.97,67.98 h 30.55 v -108.66 h 12.11 v -17.37 h -43.76 v 17.37 h 9.59 v 41.94 c 0,17.9 1.08,38.68 1.08,38.68 h -0.73 c 0,0 -5.58,-18.62 -9.77,-29.83 l -24.94,-68.16 h -43.4 v 17.37 h 13.03 v 91.29 h -13.03 v 17.37 z m 80.81,-3.8 c 6.89,2.18 21.36,5.42 37.43,5.42 28.23,0 39.06,-9.22 39.06,-36.15 0,-22.42 -11.21,-30.57 -29.64,-38.53 l -8.49,-3.43 c -9.05,-3.8 -14.66,-7.42 -14.66,-18.09 0,-9.39 5.95,-13.18 16.62,-13.18 4.36,0 8.5,0.72 12.67,1.44 v 13.2 h 18.64 v -30.01 c -7.05,-2.18 -19.9,-4.53 -32.93,-4.53 -22.6,0 -38.52,8.87 -38.52,34.18 0,21.32 10.67,29.11 28.21,36.71 l 9.41,3.79 c 12.11,4.88 15.19,11.03 15.19,19.17 0,11.57 -4.52,15.54 -18.08,15.54 -5.98,0 -11.37,-0.9 -16.27,-1.98 v -13.74 h -18.64 z m 188.78,-104.86 v -17.37 h -28.01 l -23.7,53.87 c -2.72,-0.36 -7.59,-1.08 -9.77,-1.26 v -35.24 h 10.13 v -17.37 h -47.18 v 17.37 h 12.99 v 91.29 h -12.99 v 17.37 h 47.18 v -17.37 h -10.13 v -36.34 c 9.43,0.37 14.85,2.17 21.18,16.46 l 16.62,37.25 h 28.94 v -17.37 h -11.05 l -12.29,-26.57 c -4.89,-10.67 -8.31,-15.55 -13.19,-20.43 l 20.24,-44.29 z m 101.07,0 v -17.37 h -40.3 v 17.37 h 5.97 l -6.71,14.08 c -2.52,5.26 -4.88,10.85 -6.32,14.65 h -0.54 c -1.28,-3.62 -3.07,-8.13 -6.15,-15.01 l -6.5,-13.72 h 6.14 v -17.37 h -13.93 v 0.36 l -0.16,-0.36 h -26.79 v 17.37 h 9.23 l 26.21,53.15 v 38.14 h -13 v 17.37 h 50.09 v -17.37 h -13.05 v -37.96 l 26.44,-53.33 z m -23.3,-54.43 h -20.8 l -12.49,27.83 h 16.65 z m -935.38,225.32 v -6.17 h -14.88 l -34.8,51.41 c -2.36,-0.94 -6.96,-1.73 -9.95,-1.89 v -43.35 h 10.88 v -6.17 h -30.03 v 6.17 h 11.86 v 97.92 h -11.86 v 6.17 h 30.03 v -6.17 h -10.88 v -48.09 c 9.3,0.48 13.91,2.86 21.34,13.76 l 21.21,29.58 c 5.99,8.71 9.16,11.39 15.98,11.39 4.08,0 7.58,-1.58 7.58,-1.58 l -1.26,-5.69 c 0,0 -2.38,1.1 -4.59,1.1 -3.8,0 -6.17,-0.78 -12.04,-9.48 l -20.71,-28.49 c -5.38,-7.59 -7.59,-9.8 -11.39,-12.65 l 32.28,-47.77 z m 43.65,0 v -6.17 h -30.82 v 6.17 h 11.85 v 97.92 h -11.85 v 6.17 h 63.42 v -20.1 h -6.49 v 13.62 h -37.79 v -97.61 z m 66.91,0 v -6.17 h -28.28 v 6.17 h 11.07 v 76.89 c 0,20.08 11.22,29.11 32.74,29.11 21.18,0 32.75,-9.03 32.75,-29.11 v -76.89 h 11.05 v -6.17 h -18.32 v 1.26 l -0.18,-1.26 h -9.95 v 6.17 h 10.13 v 76.56 c 0,15.68 -8.1,22.94 -25.48,22.94 -17.58,0 -25.46,-7.26 -25.46,-22.94 v -76.56 z m 110.77,104.09 c 20.69,0 34.17,-7.91 34.17,-30.21 0,-18.19 -9.34,-26.11 -21.99,-27.85 11.37,-2.05 17.69,-9.48 17.69,-24.2 0,-17.72 -8.06,-28 -32.89,-28 h -36.69 v 6.17 h 11.86 v 97.92 h -11.86 v 6.17 z m -20.57,-6.48 v -47.62 h 21.02 c 19,0 26.43,7.28 26.43,23.89 0,18.82 -11.55,23.73 -27.06,23.73 z m 0,-54.1 v -43.2 h 17.22 c 19.79,0 25.97,7.12 25.97,21.36 0,15.97 -6.82,21.84 -24.69,21.84 z m 134.28,60.58 v -6.17 h -11.39 l 4.29,-68.8 c 1.11,-17.26 1.11,-28.65 1.11,-28.65 h 0.63 c 0,0 3.78,11.08 7.11,19.94 l 24.83,64.23 h 7.59 l 24.83,-64.39 c 3.49,-9.81 6.84,-19.78 6.84,-19.78 h 0.63 c 0,0 0.14,11.71 1.1,28.65 l 3.94,68.8 h -11.07 v 6.17 h 29.89 v -6.17 h -11.68 l -5.72,-97.92 h 11.73 v -6.17 h -23.41 l -24.23,64.07 c -3.3,9.02 -6.32,18.83 -6.32,18.83 h -0.47 c 0,0 -2.53,-9.18 -6.31,-18.99 l -24.87,-63.91 h -23.08 v 6.17 h 11.53 l -5.99,97.92 h -11.72 v 6.17 z m 133.85,-104.09 v -6.17 h -30.85 v 6.17 h 11.85 v 97.92 h -11.85 v 6.17 h 63.42 v -20.1 h -6.46 v 13.62 h -37.82 v -97.61 z m 127.5,104.09 v -6.17 h -9.32 l -29.6,-104.09 h -10.9 l -29.13,104.09 h -9.3 v 6.17 h 14.84 l 8.06,-29.9 h 41.92 l 8.23,29.9 z m -44.6,-103.92 h 0.32 l 19.15,67.85 h -38.47 z m 13.11,-35.13 h -7.57 l -9.02,20.73 h 6.79 z m 65.03,139.05 c 36.69,0 50.15,-5.7 50.15,-55.36 0,-49.05 -12.99,-54.9 -49.05,-54.9 h -27.35 v 6.17 h 11.86 v 97.92 h -11.86 v 6.17 z m -7.11,-6.48 v -97.3 h 8.21 c 30.86,0 41.78,2.7 41.78,48.72 0,45.09 -11.55,48.58 -42.56,48.58 z m 140.17,-83.68 v -20.1 h -66.92 v 6.17 h 11.86 v 97.92 h -11.86 v 6.17 h 68.34 v -20.1 H 3032 v 13.62 h -42.55 v -47.62 h 34.96 v -6.48 h -34.96 v -43.2 h 41.27 v 13.62 z m 26.39,0 v -13.62 h 39.41 l -49.84,100.62 v 3.16 h 60.58 v -20.1 h -6.64 v 13.62 h -44.42 l 49.64,-100.61 v -3.17 h -55.37 v 20.1 z m 19.78,-28.16 h 3.81 l 18.68,-20.73 h -7.29 l -13.13,14.7 -13.14,-14.7 h -7.43 z m 111.86,28.16 v -20.1 h -66.92 v 6.17 h 11.86 v 97.92 h -11.86 v 6.17 h 68.32 v -20.1 h -6.62 v 13.62 h -42.55 v -47.62 h 34.94 v -6.48 h -34.94 v -43.2 h 41.26 v 13.62 z m -836.78,250.89 v -6.17 h -11.87 v -40.64 h 19.79 c 23.55,0 33.84,-13.46 33.84,-32.12 0,-24.06 -10.13,-31.33 -32.92,-31.33 h -39.86 v 6.17 h 11.86 v 97.92 h -11.86 v 6.17 z m -11.87,-53.31 v -50.47 h 20.71 c 18.19,0 25.65,5.24 25.65,24.69 0,18.66 -9.68,25.78 -26.57,25.78 z m 143.96,53.31 v -6.17 h -9.34 l -29.58,-104.09 h -10.91 l -29.13,104.09 h -9.3 v 6.17 h 14.85 l 8.06,-29.9 h 41.94 l 8.2,29.9 z m -44.61,-103.92 h 0.33 l 19.14,67.85 h -38.47 z m 81.94,103.92 v -6.17 h -10.9 v -41.29 h 20.24 c 12.63,0 15.98,5.7 19.45,17.88 l 4.73,15.82 c 3.17,10.76 6.01,14.23 13.61,14.23 4.3,0 7.61,-1.58 7.61,-1.58 l -1.28,-5.85 c 0,0 -2.66,1.12 -4.91,1.12 -4.41,0 -5.85,-2.22 -8.06,-9.97 l -4.74,-16.14 c -2.86,-9.5 -6.65,-16.3 -13.29,-18.52 11.85,-2.05 20.24,-10.76 20.24,-28.95 0,-23.87 -9.95,-30.84 -32.73,-30.84 h -40.02 v 6.17 h 11.86 v 97.92 h -11.86 v 6.17 z m -10.9,-53.94 v -49.84 h 20.69 c 18.19,0 25.66,4.91 25.66,24.22 0,18.33 -8.39,25.62 -25.16,25.62 z m 100.13,53.94 c 36.69,0 50.15,-5.7 50.15,-55.36 0,-49.05 -12.98,-54.9 -49.05,-54.9 h -27.35 v 6.17 h 11.85 v 97.92 h -11.85 v 6.17 z m -7.11,-6.47 v -97.31 h 8.21 c 30.85,0 41.78,2.7 41.78,48.72 0,45.1 -11.56,48.59 -42.56,48.59 z m 99.63,-97.62 v -6.17 h -28.3 v 6.17 h 11.08 v 76.89 c 0,20.08 11.21,29.11 32.75,29.11 21.19,0 32.74,-9.03 32.74,-29.11 v -76.89 h 11.07 v -6.17 h -18.35 v 1.26 l -0.15,-1.26 h -9.97 v 6.17 h 10.12 v 76.56 c 0,15.68 -8.06,22.95 -25.46,22.95 -17.56,0 -25.46,-7.27 -25.46,-22.95 v -76.56 z m 110.75,104.09 c 20.71,0 34.16,-7.91 34.16,-30.21 0,-18.19 -9.33,-26.1 -21.98,-27.85 11.4,-2.05 17.72,-9.48 17.72,-24.2 0,-17.72 -8.06,-28 -32.91,-28 h -36.71 v 6.17 h 11.86 v 97.92 h -11.86 v 6.17 z m -20.57,-6.47 v -47.63 h 21.03 c 19,0 26.42,7.29 26.42,23.89 0,18.82 -11.54,23.74 -27.03,23.74 z m 0,-54.11 v -43.2 h 17.25 c 19.76,0 25.95,7.13 25.95,21.36 0,15.98 -6.82,21.84 -24.7,21.84 z m 106.45,60.58 v -6.17 h -15.96 v -97.92 h 15.96 v -6.17 h -39.07 v 6.17 h 15.84 v 97.92 h -15.84 v 6.17 z m 73.28,-89.69 v -19.15 c -3.35,-0.95 -12.18,-2.84 -22.63,-2.84 -21.67,0 -35.59,8.06 -35.59,57.42 0,46.04 12.18,55.68 35.59,55.68 10.58,0 21.17,-2.68 23.1,-3.32 v -18.82 h -6.64 v 13.92 c -4.59,0.79 -10.78,1.75 -16.46,1.75 -19.15,0 -28.31,-8.39 -28.31,-50.01 0,-44.28 10.73,-50.14 28.31,-50.14 5.86,0 11.22,0.63 15.96,1.58 v 13.93 z m 83.69,-0.47 v -20.1 h -66.92 v 6.17 h 11.86 v 97.92 h -11.86 v 6.17 h 68.34 v -20.09 h -6.64 v 13.62 h -42.56 v -47.63 h 34.95 v -6.48 h -34.95 v -43.2 h 41.26 v 13.62 z"
   id="path271" />
  </g>
 </g>
</svg>
