<?xml version="1.0" encoding="UTF-8"?>
<!DOCTYPE svg PUBLIC "-//W3C//DTD SVG 1.1//EN" "http://www.w3.org/Graphics/SVG/1.1/DTD/svg11.dtd">
<!-- Creator: CorelDRAW 2017 -->
<svg xmlns="http://www.w3.org/2000/svg" xml:space="preserve" width="20mm" height="20mm" version="1.1" style="shape-rendering:geometricPrecision; text-rendering:geometricPrecision; image-rendering:optimizeQuality; fill-rule:evenodd; clip-rule:evenodd"
viewBox="0 0 2000 2000"
 xmlns:xlink="http://www.w3.org/1999/xlink">
 <defs>
  <style type="text/css">
   <![CDATA[
    .fil1 {fill:#FEFEFE}
    .fil0 {fill:#DB0016}
    .fil2 {fill:#2B2A29;fill-rule:nonzero}
   ]]>
  </style>
 </defs>
 <g id="Vrstva_x0020_1">
  <metadata id="CorelCorpID_0Corel-Layer"/>
  <g id="_2239341122096">
   <g>
    <path class="fil0" d="M563.54 312.96l872.91 0c21.17,0 38.5,17.33 38.5,38.51l0 872.9c0,21.18 -17.33,38.51 -38.5,38.51l-872.91 0c-21.18,0 -38.5,-17.33 -38.5,-38.51l0 -872.9c0,-21.18 17.32,-38.51 38.5,-38.51z"/>
    <path class="fil1" d="M1042.71 745.7l0 379.02 -85.44 0 0 -379.01 -72.17 72.17 0 306.84 -85.44 0 0 -221.4 -63.4 63.39 -60.41 -60.41c255.56,-255.55 193.77,-193.77 324.14,-324.14 130.37,130.37 68.59,68.59 324.14,324.14l-60.41 60.41 -63.4 -63.39 0 221.4 -85.43 0 0 -306.84 -72.18 -72.18zm-43.8 -294.58c33.17,0 60.06,26.89 60.06,60.06 0,33.17 -26.89,60.06 -60.06,60.06 -33.17,0 -60.06,-26.89 -60.06,-60.06 0,-33.17 26.89,-60.06 60.06,-60.06zm-193.87 166.78c33.18,0 60.07,26.89 60.07,60.07 0,33.17 -26.89,60.06 -60.07,60.06 -33.17,0 -60.06,-26.89 -60.06,-60.06 0,-33.18 26.89,-60.07 60.06,-60.07zm389.9 0c33.17,0 60.06,26.89 60.06,60.07 0,33.17 -26.89,60.06 -60.06,60.06 -33.17,0 -60.06,-26.89 -60.06,-60.06 0,-33.18 26.89,-60.07 60.06,-60.07z"/>
   </g>
   <path class="fil2" d="M580.2 1391.64c-29.86,0 -48.2,14.75 -48.2,37.95 0,16.9 9.89,28.05 36.51,37.4l15.65 5.22c7.01,2.33 12.58,6.11 12.58,12.4 0,6.48 -6.47,10.79 -17.44,10.79 -11.87,0 -26.26,-5.21 -38.85,-14.2l-12.94 25.36c12.4,9.17 31.65,14.92 51.61,14.92 31.83,0 51.44,-14.2 51.44,-38.3 0,-21.04 -15.11,-31.11 -37.59,-38.67l-15.47 -5.21c-7.37,-2.52 -11.87,-5.94 -11.87,-11.69 0,-6.3 5.4,-9.89 16.01,-9.89 10.61,0 24.27,3.59 33.63,8.99l11.5 -23.74c-12.94,-7.01 -30.2,-11.33 -46.57,-11.33zm131.46 1.98l-30.58 0 -48.91 125.88 34.89 0 9.89 -26.43 38.84 0 10.07 26.43 35.79 0 -49.99 -125.88zm-15.11 37.76l13.31 35.25 -27.33 0 14.02 -35.25zm110.6 -37.76l-33.63 0 0 125.88 84.17 0 0 -28.77 -50.54 0 0 -97.11zm159.88 0l-94.6 0 0 125.88 94.6 0 0 -28.77 -60.97 0 0 -20.86 56.47 0 0 -25.9 -56.47 0 0 -21.58 60.97 0 0 -28.77zm64.2 -1.98c-29.86,0 -48.2,14.75 -48.2,37.95 0,16.9 9.89,28.05 36.51,37.4l15.64 5.22c7.02,2.33 12.59,6.11 12.59,12.4 0,6.48 -6.47,10.79 -17.44,10.79 -11.87,0 -26.26,-5.21 -38.85,-14.2l-12.94 25.36c12.4,9.17 31.65,14.92 51.61,14.92 31.83,0 51.44,-14.2 51.44,-38.3 0,-21.04 -15.11,-31.11 -37.59,-38.67l-15.47 -5.21c-7.37,-2.52 -11.87,-5.94 -11.87,-11.69 0,-6.3 5.4,-9.89 16,-9.89 10.62,0 24.28,3.59 33.63,8.99l11.52 -23.74c-12.95,-7.01 -30.22,-11.33 -46.58,-11.33zm100.53 1.98l-33.63 0 0 125.88 33.63 0 0 -125.88zm110.96 -39.2l-33.45 0 -15.83 30.57 10.07 0 39.21 -28.6 0 -1.97zm-19.06 39.2l-30.58 0 -48.91 125.88 34.89 0 9.89 -26.43 38.84 0 10.07 26.43 35.79 0 -49.99 -125.88zm-15.11 37.76l13.31 35.25 -27.33 0 14.02 -35.25zm184.33 -37.76l-33.63 0 0 66 -47.47 -66 -26.26 0 0 125.88 33.63 0 0 -67.07 47.66 67.07 26.07 0 0 -125.88zm57.73 0l-33.63 0 0 125.88 33.63 0 0 -125.88zm-925.29 189.09l0 102.71 30.67 0c31.54,0 52.82,-20.83 52.82,-51.36 0,-30.51 -21.28,-51.35 -52.82,-51.35l-30.67 0zm30.67 8.66c25.23,0 42.4,17.32 42.4,42.69 0,25.39 -17.17,42.71 -42.4,42.71l-20.4 0 0 -85.4 20.4 0zm121.19 -10.27c-29.34,0 -53.26,23.77 -53.26,52.96 0,29.21 23.92,52.98 53.26,52.98 29.35,0 53.26,-23.77 53.26,-52.98 0,-29.19 -23.91,-52.96 -53.26,-52.96zm0 9.39c23.48,0 42.7,19.07 42.7,43.57 0,24.51 -19.22,43.59 -42.7,43.59 -23.32,0 -42.7,-19.08 -42.7,-43.59 0,-24.5 19.38,-43.57 42.7,-43.57zm156.12 -7.78l-10.26 0 0 83.93 -61.93 -83.93 -8.07 0 0 102.71 10.28 0 0 -84.22 62.21 84.22 7.77 0 0 -102.71zm70.43 0l-12.47 0 -40.64 102.71 10.85 0 11.59 -30.08 48.87 0 11.88 30.08 10.71 0 -40.79 -102.71zm-6.16 9.98l20.98 54.14 -42.11 0 21.13 -54.14zm98.31 -9.98l0 102.71 43.43 0c19.67,0 33.03,-10.42 33.03,-26.12 0,-13.64 -10.28,-24.2 -25.98,-26.26 12.62,-3.08 20.69,-12.91 20.69,-24.5 0,-15.85 -13.35,-25.83 -32.58,-25.83l-38.59 0zm38.59 8.66c12.92,0 22.01,6.75 22.01,17.75 0,12.18 -10.71,20.55 -27.87,20.55l-22.46 0 0 -38.3 28.32 0zm-2.64 46.51c18.2,0 29.94,8.66 29.94,21.13 0,10.86 -9.1,17.76 -22.46,17.76l-33.16 0 0 -38.89 25.68 0zm108.59 -56.78c-29.35,0 -53.26,23.77 -53.26,52.96 0,29.21 23.91,52.98 53.26,52.98 29.34,0 53.26,-23.77 53.26,-52.98 0,-29.19 -23.92,-52.96 -53.26,-52.96zm0 9.39c23.47,0 42.7,19.07 42.7,43.57 0,24.51 -19.23,43.59 -42.7,43.59 -23.33,0 -42.7,-19.08 -42.7,-43.59 0,-24.5 19.37,-43.57 42.7,-43.57zm104.03 -9.39c-20.69,0 -35.07,10.12 -35.07,27.44 0,13.06 8.66,21.71 24.94,26.56l18.2 5.43c10.27,3.08 18.78,7.62 18.78,18.48 0,11.45 -9.83,18.49 -25.68,18.49 -11.89,0 -24.8,-3.82 -33.75,-9.39l-5.14 7.92c10.42,6.46 24.95,11.01 39.04,11.01 21.86,0 36.09,-10.86 36.09,-28.47 0,-15.7 -11.3,-22.45 -26.41,-27.14l-18.34 -5.73c-11,-3.52 -17.17,-8.07 -17.17,-17.16 0,-11.74 10.12,-17.91 24.51,-17.91 10.12,0 20.1,2.8 28.61,7.34l4.4 -8.51c-9.54,-4.99 -21.13,-8.36 -33.01,-8.36zm126.48 1.61l-11.59 0 -45.64 58.25 0 -58.25 -10.42 0 0 102.71 10.42 0 0 -30.96 16.29 -19.66 36.54 50.62 12.17 0 0 -0.87 -42.11 -57.38 34.34 -43.58 0 -0.88zm62.94 0l-12.47 0 -40.64 102.71 10.85 0 11.59 -30.08 48.86 0 11.89 30.08 10.71 0 -40.79 -102.71zm-6.16 9.98l20.98 54.14 -42.11 0 21.13 -54.14z"/>
  </g>
 </g>
</svg>
