<?xml version="1.0" encoding="UTF-8"?>
<svg id="Layer_1" data-name="Layer 1" xmlns="http://www.w3.org/2000/svg" viewBox="0 0 500 500">
  <defs>
    <style>
      .cls-1 {
        fill: #516ba8;
      }

      .cls-1, .cls-2 {
        stroke-width: 0px;
      }

      .cls-2 {
        fill: #eb8fc2;
      }
    </style>
  </defs>
  <rect class="cls-2" x="-13.45" y="-16.95" width="526.98" height="534.64"/>
  <path class="cls-1" d="M78.5,218.44s7.5-6.43,11.79-16.08,21.44-12.86,43.95-13.93c22.51-1.07,35.37-37.52,35.37-37.52,0,0,27.87-81.46,36.44-86.82,8.57-5.36,32.16-35.37,138.27-27.87,0,0-78.51,63.78-86.02,87.36-7.5,23.58-23.31,68.33-23.31,68.33l186.5,20.1s-31.08,38.59-34.3,54.66c-3.22,16.08-9.65,70.74-9.65,70.74l-163.46-73.15s-19.83,77.98-20.9,100.49c-1.07,22.51,6.43,100.22,6.43,100.22,0,0-47.16,1.07-73.96-38.59-26.8-39.66-9.65-102.9-2.14-138.27,7.5-35.37-7.5-46.8-7.5-46.8l-23.58-22.15-13.93-.71Z"/>
</svg>