<?xml version="1.0" encoding="UTF-8" standalone="no"?>
<svg
   id="Layer_1"
   data-name="Layer 1"
   viewBox="0 0 500 500"
   version="1.1"
   sodipodi:docname="icon.svg"
   width="500"
   height="500"
   inkscape:version="1.2.2 (732a01da63, 2022-12-09)"
   xmlns:inkscape="http://www.inkscape.org/namespaces/inkscape"
   xmlns:sodipodi="http://sodipodi.sourceforge.net/DTD/sodipodi-0.dtd"
   xmlns="http://www.w3.org/2000/svg"
   xmlns:svg="http://www.w3.org/2000/svg">
  <sodipodi:namedview
     id="namedview11"
     pagecolor="#ffffff"
     bordercolor="#000000"
     borderopacity="0.25"
     inkscape:showpageshadow="2"
     inkscape:pageopacity="0.0"
     inkscape:pagecheckerboard="0"
     inkscape:deskcolor="#d1d1d1"
     showgrid="false"
     inkscape:zoom="1.4523973"
     inkscape:cx="305.35722"
     inkscape:cy="254.75123"
     inkscape:window-width="2560"
     inkscape:window-height="1369"
     inkscape:window-x="-8"
     inkscape:window-y="-8"
     inkscape:window-maximized="1"
     inkscape:current-layer="Layer_1" />
  <defs
     id="defs4">
    <style
       id="style2">
      .cls-1 {
        fill: #516ba8;
      }

      .cls-1, .cls-2 {
        stroke-width: 0px;
      }

      .cls-2 {
        fill: #eb8fc2;
      }
    </style>
  </defs>
  <g
     id="g291"
     transform="matrix(0.92,0,0,0.92,20,20)">
    <rect
       class="cls-2"
       x="0"
       y="0"
       width="500"
       height="500"
       id="rect6" />
    <path
       class="cls-1"
       d="m 90.061362,220.56824 c 0,0 6.994605,-5.99671 10.995528,-14.99643 4.00091,-8.99973 19.99524,-11.99342 40.98838,-12.99131 20.99314,-0.9979 32.98656,-34.99168 32.98656,-34.99168 0,0 25.99195,-75.970727 33.98445,-80.969538 7.9925,-4.998811 29.99287,-32.986556 128.95254,-25.991952 0,0 -73.21953,59.48211 -80.22346,81.47315 -6.9946,21.99104 -21.73923,63.72551 -21.73923,63.72551 l 173.93251,18.74554 c 0,0 -28.98565,35.98958 -31.98866,50.97668 -3.00302,14.99644 -8.99973,65.97312 -8.99973,65.97312 L 216.50517,263.30061 c 0,0 -18.49373,72.72524 -19.49163,93.71838 -0.9979,20.99314 5.99671,93.46658 5.99671,93.46658 0,0 -43.98208,0.99789 -68.97613,-35.98958 -24.99406,-36.98747 -8.99973,-95.96598 -1.9958,-128.95253 6.99461,-32.98656 -6.9946,-43.64634 -6.9946,-43.64634 l -21.99104,-20.6574 -12.991318,-0.66215 z"
       id="path8" />
  </g>
</svg>
