<?xml version="1.0" encoding="UTF-8"?>
<svg id="Layer_2" data-name="Layer 2" xmlns="http://www.w3.org/2000/svg" viewBox="0 0 88.47 185.22">
  <defs>
    <style>
      .cls-1 {
        fill: #ebe0c6;
      }

      .cls-1, .cls-2, .cls-3 {
        stroke-width: 0px;
      }

      .cls-2 {
        fill: #e88fbc;
      }

      .cls-3 {
        fill: #f7e347;
      }
    </style>
  </defs>
  <g id="Layer_1-2" data-name="Layer 1">
    <g>
      <path class="cls-2" d="M15.33,160.35l7.38-102.69S-7.17,40.67,4.2,29.57c2.63-2.57,4.95.48,11.13,9.65,6.73,9.98,10.65,6.23,15.33.24,4.68-5.99,12.12-4.1,17.31-18.1,5.24-14.12,4.49-19.67,10.14-19.3,5.65.37,1.3,14.9-3.05,26.22,0,0,13.93-21.56,17.39-22.04,5.46-.76,5.19,2.17-13.1,28.63,0,0,16.57-17.13,20.03-18.9,2.24-1.15,12.37-3.62.17,9.77-16.16,17.73-18.3,18.3-18.3,18.3,0,0,23.24-15.68,26.54-14.56,2.44.83-1.61,6.46-10.47,14.48-8.86,8.02-27.49,20.49-28.6,22.76s-4.2,106.41-4.2,106.41l-29.18-12.79Z"/>
      <polygon class="cls-1" points="11.26 1.55 50.82 0 60.18 76.96 12.52 76.75 11.26 1.55"/>
      <path class="cls-3" d="M57.53,183.52c-2.47-12.55,2.8-69.72,2.8-69.72l-56.37-6.27L0,185.22l57.53-1.7Z"/>
    </g>
  </g>
</svg>