<?xml version="1.0" encoding="UTF-8" standalone="no"?>
<svg
   id="Layer_1"
   viewBox="0 0 638 1011"
   version="1.1"
   sodipodi:docname="ulice_karticky_V1-01-print.svg"
   inkscape:version="1.2.2 (732a01da63, 2022-12-09)"
   xmlns:inkscape="http://www.inkscape.org/namespaces/inkscape"
   xmlns:sodipodi="http://sodipodi.sourceforge.net/DTD/sodipodi-0.dtd"
   xmlns="http://www.w3.org/2000/svg"
   xmlns:svg="http://www.w3.org/2000/svg">
  <sodipodi:namedview
     id="namedview374"
     pagecolor="#ffffff"
     bordercolor="#000000"
     borderopacity="0.25"
     inkscape:showpageshadow="2"
     inkscape:pageopacity="0.0"
     inkscape:pagecheckerboard="0"
     inkscape:deskcolor="#d1d1d1"
     showgrid="false"
     inkscape:zoom="0.14495339"
     inkscape:cx="1286.6204"
     inkscape:cy="1448.7415"
     inkscape:window-width="1920"
     inkscape:window-height="1009"
     inkscape:window-x="-8"
     inkscape:window-y="1016"
     inkscape:window-maximized="1"
     inkscape:current-layer="Layer_1" />
  <defs
     id="defs297">
    <style
       id="style295">
      .cls-1 {
        fill: #ece1c8;
      }

      .cls-2 {
        fill: #5a0c3e;
      }

      .cls-3 {
        fill: #e991bd;
      }

      .cls-4 {
        fill: #ea4856;
      }

      .cls-5 {
        fill: #516ba8;
      }
    </style>
  </defs>
  <path
     id="rect299"
     class="cls-1"
     d="M 0 0 L 0 1011 L 638 1011 L 638 0 L 0 0 z " />
  <path
     class="cls-3"
     d="M400.58,148.9s4.16-3.57,6.54-8.92c2.38-5.35,11.9-7.14,24.39-7.73s19.63-20.82,19.63-20.82c0,0,15.47-45.21,20.22-48.18s17.84-19.63,76.73-15.47c0,0-43.57,35.39-47.74,48.48-4.16,13.09-12.94,37.92-12.94,37.92l103.5,11.15s-17.25,21.41-19.03,30.34c-1.78,8.92-5.35,39.26-5.35,39.26l-90.71-40.6s-11,43.27-11.6,55.77c-.59,12.49,3.57,55.62,3.57,55.62,0,0-26.17.59-41.04-21.41-14.87-22.01-5.35-57.1-1.19-76.73,4.16-19.63-4.16-25.97-4.16-25.97l-13.09-12.29-7.73-.4Z"
     id="path301" />
  <g
     id="g367">
    <g
       id="g333">
      <path
         class="cls-2"
         d="M57.46,932.35c6.57,0,9.11,3.3,9.11,7.89s-2.54,7.89-9.11,7.89c-1.29,0-2.78-.07-4.07-.28v8.24c0,1.49-.17,1.63-1.74,1.63-1.29,0-1.36-.17-1.36-1.74v-21.79c0-1.39,4.2-1.84,7.16-1.84ZM53.4,944.69v.45l.03-.03c.94.28,2.57.52,4.17.52,4.45,0,5.66-2.5,5.66-5.39s-1.22-5.42-5.66-5.42c-1.6,0-3.23.28-4.17.56l-.03,9.31Z"
         id="path303" />
      <path
         class="cls-2"
         d="M75.11,947.16c2.36,0,4.38.8,5.46,2.5v-3.65c0-3.82-2.88-4.38-4.66-4.38s-3.79.56-4.41.73c-.56.21-.9.14-1.15-.52l-.24-.66c-.28-.73.07-1.01.63-1.22,1.04-.38,3.27-.9,5.66-.9,2.71,0,7.16.66,7.16,6.64v10.22c0,1.7-.1,1.81-1.67,1.81-1.22,0-1.32-.1-1.32-1.81v-.21c-1.08,1.67-3.16,2.36-5.53,2.36-3.79,0-6.15-1.98-6.15-5.39s2.5-5.53,6.22-5.53ZM72.09,952.65c0,2.12,1.39,3.58,4.07,3.58s4.41-1.42,4.41-3.58-1.67-3.68-4.38-3.68-4.1,1.53-4.1,3.68Z"
         id="path305" />
      <path
         class="cls-2"
         d="M91.72,943.65c1.11-3.09,3.54-4.59,5.98-4.59.73,0,1.39.1,1.7.21.45.14.59.45.45.94l-.21,1.04c-.14.52-.38.63-.94.52-.35-.07-1.04-.17-1.53-.17-2.22,0-5.49,1.36-5.53,9.76v4.55c0,1.67-.1,1.81-1.67,1.81-1.25,0-1.32-.17-1.32-1.81v-4c0-2.47-.1-10.15-.1-11.43,0-1.01.03-1.08,1.77-1.08,1.36,0,1.39.03,1.39,1.53v2.71Z"
         id="path307" />
      <path
         class="cls-2"
         d="M109.13,939.06c3.06,0,5,1.56,5.98,4.45-.03-3.02-.1-9.42-.1-10.6,0-1.01.07-1.08,1.77-1.08,1.36,0,1.42.03,1.42,1.53,0,3.47-.07,7.44-.07,10.98v11.57c0,1.7-.14,1.81-1.67,1.81-1.25,0-1.36-.1-1.36-1.81v-2.4c-.97,2.85-2.92,4.55-5.98,4.55-4.03,0-7.02-2.61-7.02-9.49s3.06-9.52,7.02-9.52ZM115.08,948.65c0-4.8-2.19-7.02-5.18-7.02-2.75,0-4.66,2.19-4.66,7.05s1.95,7.02,4.66,7.02c3.02,0,5.18-2.78,5.18-7.05Z"
         id="path309" />
      <path
         class="cls-2"
         d="M138.36,953.41v2.5c0,1.7-.14,1.81-1.7,1.81-1.22,0-1.32-.1-1.32-1.81v-2.22c-1.22,2.99-4.07,4.38-6.64,4.38-2.78,0-5.35-.94-5.35-6.19,0-1.01,0-2.02.03-3.06-.03-3.16-.14-6.36-.14-7.89s0-1.53,1.74-1.53c1.46,0,1.43.07,1.43,1.77v10.6c0,2.54.97,3.93,3.34,3.93,2.71,0,5.28-2.29,5.56-7.54-.04-2.61-.07-4.86-.07-6.99,0-1.7.07-1.77,1.77-1.77,1.36,0,1.42.07,1.42,1.77,0,3.41-.07,7.26-.07,12.23Z"
         id="path311" />
      <path
         class="cls-2"
         d="M143.64,932.91c0-1.01.07-1.08,1.77-1.08,1.36,0,1.42.03,1.42,1.53,0,3.13-.07,6.6-.07,9.83,1.04-2.68,3.06-4.14,5.98-4.14,3.96,0,7.02,2.61,7.02,9.52s-2.99,9.49-7.02,9.49c-2.92,0-4.93-1.56-5.98-4.21v2.05c0,1.67-.1,1.81-1.7,1.81-1.22,0-1.32-.17-1.32-1.81v-11.57c0-2.47-.1-10.15-.1-11.43ZM156.6,948.69c0-4.86-1.88-7.05-4.62-7.05-2.99,0-5.18,2.22-5.18,7.02,0,4.27,2.15,7.05,5.18,7.05,2.71,0,4.62-2.15,4.62-7.02Z"
         id="path313" />
      <path
         class="cls-2"
         d="M164.07,936.14c0-1.7.63-1.88,1.84-1.88,1.53,0,1.7.17,1.7,1.22v.45c0,1.7-.66,1.84-1.88,1.84-1.49,0-1.67-.14-1.67-1.22v-.42ZM164.17,940.48c0-1.01.07-1.08,1.77-1.08,1.36,0,1.42.03,1.42,1.53,0,3.47-.07,7.44-.07,10.98v4c0,1.7-.14,1.81-1.67,1.81-1.25,0-1.36-.1-1.36-1.81v-4c0-2.47-.1-10.15-.1-11.43Z"
         id="path315" />
      <path
         class="cls-2"
         d="M180.33,955.67c1.25,0,2.71-.45,3.41-.66.63-.14.87,0,.97.45l.17.83c.14.49.03.76-.56.97-.87.35-2.64.8-4.55.8-5.25,0-8.03-3.09-8.03-9.52s2.85-9.49,8.03-9.49c1.91,0,3.72.49,4.48.8.63.21.8.49.66.97l-.21.97c-.17.52-.49.56-1.04.42-.69-.21-2.02-.59-3.34-.59-3.58,0-5.49,2.36-5.49,6.99s1.91,7.05,5.49,7.05Z"
         id="path317" />
      <path
         class="cls-2"
         d="M191.38,949.45c.31,5.39,3.09,6.29,5.7,6.29,2.19,0,3.65-.76,4.73-1.25.59-.21.83-.14,1.04.38l.31.76c.17.45.07.63-.52.94-1.08.56-3.02,1.49-5.84,1.49-4.73,0-8.51-2.29-8.51-9.73s3.68-9.28,7.92-9.28,7.37,1.77,7.37,8.62c0,1.08-.49,1.77-1.74,1.77h-10.46ZM191.35,947.4h9.49c-.03-4.97-2.08-6.05-4.62-6.05s-4.62,1.18-4.87,6.05Z"
         id="path319" />
      <path
         class="cls-2"
         d="M220.92,947.16c2.36,0,4.38.8,5.46,2.5v-3.65c0-3.82-2.88-4.38-4.66-4.38s-3.79.56-4.41.73c-.56.21-.9.14-1.15-.52l-.24-.66c-.28-.73.07-1.01.63-1.22,1.04-.38,3.27-.9,5.66-.9,2.71,0,7.16.66,7.16,6.64v10.22c0,1.7-.1,1.81-1.67,1.81-1.22,0-1.32-.1-1.32-1.81v-.21c-1.08,1.67-3.16,2.36-5.53,2.36-3.79,0-6.15-1.98-6.15-5.39s2.5-5.53,6.22-5.53ZM217.9,952.65c0,2.12,1.39,3.58,4.07,3.58s4.41-1.42,4.41-3.58-1.67-3.68-4.38-3.68-4.1,1.53-4.1,3.68Z"
         id="path321" />
      <path
         class="cls-2"
         d="M241.66,948.41c0-7.4,3.72-9.35,8.17-9.35s8.2,1.95,8.2,9.35-3.72,9.66-8.2,9.66-8.17-2.47-8.17-9.66ZM254.83,948.55c0-5.63-2.22-7.02-5-7.02s-5,1.39-5,7.02,2.26,7.23,5,7.23,5-1.77,5-7.23Z"
         id="path323" />
      <path
         class="cls-2"
         d="M265.57,944.34v3.3l7.02-7.33c.49-.87.66-.9,2.78-.9.66,0,.97.03.97.31,0,.21-.21.59-.66,1.18l-7.33,7.19,7.19,8.06c.45.59.69.97.69,1.22,0,.28-.31.35-.97.35-2.12,0-2.26-.03-2.81-.97l-6.88-8.03v7.19c0,1.67-.1,1.81-1.7,1.81-1.22,0-1.32-.17-1.32-1.81v-11.57c0-2.47-.1-10.15-.1-11.43,0-1.01.07-1.08,1.77-1.08,1.36,0,1.42.03,1.42,1.53,0,3.47-.07,7.44-.07,10.98Z"
         id="path325" />
      <path
         class="cls-2"
         d="M279.4,948.41c0-7.4,3.72-9.35,8.17-9.35s8.2,1.95,8.2,9.35-3.72,9.66-8.2,9.66-8.17-2.47-8.17-9.66ZM292.57,948.55c0-5.63-2.22-7.02-5-7.02s-5,1.39-5,7.02,2.26,7.23,5,7.23,5-1.77,5-7.23Z"
         id="path327" />
      <path
         class="cls-2"
         d="M303.31,944.34v11.57c0,1.7-.14,1.81-1.7,1.81-1.22,0-1.32-.1-1.32-1.81v-11.57c0-2.47-.1-10.15-.1-11.43,0-1.01.07-1.08,1.77-1.08,1.36,0,1.42.03,1.42,1.53,0,3.47-.07,7.44-.07,10.98Z"
         id="path329" />
      <path
         class="cls-2"
         d="M311.75,951.92v4c0,1.7-.14,1.81-1.67,1.81-1.25,0-1.36-.1-1.36-1.81v-4c0-2.47-.1-10.15-.1-11.43,0-1.01.07-1.08,1.77-1.08,1.36,0,1.42.03,1.42,1.53,0,3.47-.07,7.44-.07,10.98ZM312.69,933.15c.38-.52,1.04-.73,1.63-.07.63.69.45,1.22.03,1.46l-3.72,3.06c-.66.38-1.08-.07-.66-.56l2.71-3.89Z"
         id="path331" />
    </g>
    <g
       id="g365">
      <path
         class="cls-2"
         d="M61.39,910.6l-.24-.21-.1-.07c-.14-.1-.31-.21-.42-.35l-.35-.42-.63-.87-.35-.28-.49-.63-.87-.9-.69-.66-.28-.31-.45-.59-.76-.42-.42.21-.03.38.03.28.03.83-.03.45.07.73.07.31.07.8v1.15l-.1.45-.07.8c.1.24.14.56.1.83l-.03.35-.1.49v.83l.03.35-.03.83.14.52-.03.87-.07.49.07.83s-.42.59-.76.73c-.1.03-.21,0-.31,0l-.76-.03-.42-.04-.83.1c-.07,0-.21.03-.28.03l-.69-.03-.1.03c-.14.03-.31.03-.45,0l-.21-.03c-.21-.28-.31-.56-.24-.76l-.1-.94v-.45l.04-.83.07-.42-.03-.94v-.35l-.03-.69v-.52l.07-.83.03-.38-.03-.73v-.42l-.07-.59c-.04-.17,0-.31,0-.45v-.21l-.04-.56c0-.17,0-.28.04-.42l.03-.24.07-.9v-.35l-.03-.94v-.35l.1-.87-.07-.49-.07-.87-.03-.14c-.04-.17-.04-.24-.04-.42l.04-.56-.04-.17c-.03-.24,0-.38.04-.63l.07-.52.07-.38v-.8l-.03-.49v-.83l.03-.42-.07-.87v-.38l.07-.83.04-.35-.04-.59v-.28l.07-.35c.03-.21.14-.38.28-.42l.35.21.14.07c.1.07.21.17.28.24l.28.28c.1.1.21.21.28.35l.17.24.45.63.28.28.52.59.38.38.42.31c.21.17.38.35.49.56l.59.52.59.59.38.35.24.28.59.59.24.35.52.52.31.24.52.49c.1.1.17.24.24.35l.07.1.87.76.63.63.24.28.63.63.28.21.31.38.63-.1.35-.21.69-.66.31-.35.59-.52.24-.31.35-.49c.14-.17.28-.35.45-.49l.07-.03.28-.45c.1-.17.24-.31.38-.45l.1-.07.63-.59.28-.35.63-.56.42-.28.45-.42c.07-.07.14-.1.21-.17l.24-.14.31-.45c.1-.17.28-.31.42-.42h.04l.59-.66.38-.35.63-.63.14-.21.59-.73.24-.21c.07-.07.14-.1.21-.17l.66-.49c.24-.24.49-.28.69-.21l-.1.45.07.7c0,.14.03.24,0,.42l-.04.28.07.87v.28l-.07.83.04.38.03.94.03.49.03.38c.03.31.03.56-.07.83v.87l.07.38v1.18l.07.8v.35l-.04.24-.1.87v.83c0,.14,0,.17-.03.31l-.04.24.14.8.03.38.07.76v.45c0,.17,0,.35-.03.52l-.14.52.03.38-.03.8-.03.45-.04.76.07.45.14.83.03.45-.03.9-.07,1.11.07.45-.07.97c0,.14-.03.24-.1.38-.1.17-.21.28-.35.35-.24.14-.52.17-.76.14l-.59-.07-.38.07h-.66l-.49-.03-.66-.04h-.42s-.28-.21-.49-.38c-.21-.24-.17-.49-.21-.73l.07-.87-.14-.9v-.52l-.07-.8-.04-.35c0-.07.04-.17.04-.24l.07-.69v-1.18l-.03-.42.1-.87.04-.52-.04-.52c0-.14,0-.35.04-.49l.03-.17-.03-.87-.07-.38-.03-.49c-.03-.28,0-.45.1-.69l-.07-.83-.1-.42-.24-.35-.63.52-.69.7-.31.28-.04.03c-.1.17-.28.35-.45.49l-.56.66-.38.38-.49.66c-.07.1-.14.17-.21.24l-.52.49-.28.21-.56.49-.1.14c-.1.14-.21.21-.35.31l-.45.35c-.17.21-.38.31-.63.31-.21,0-.52-.17-.83-.49Z"
         id="path335" />
      <path
         class="cls-2"
         d="M79.63,904.17c0-.14.03-.28.07-.42l.24-.66.03-.35.24-.73.1-.38.31-.69.17-.42.38-.83.21-.42.42-.66.17-.24.56-.66.56-.66c.07-.1.1-.14.17-.21l.21-.21.83-.8c.07-.07.17-.17.28-.24l1.32-.8.49-.21.73-.38.38-.21.76-.35.07-.03c.17-.07.38-.14.56-.14l.42-.03.38-.07.83-.1c.07,0,.21-.03.28-.03h.28l1.15-.1c.17-.03.31-.03.45,0l.17.03h.38l.94.03h.14c.17-.03.38,0,.56.04l.49.1.49.07.76.17,1.08.38.45.14.49.17c.14.07.31.14.45.24l.17.14,1.11.66.52.38.35.35.56.59.28.31.69.66.17.21.31.35c.17.21.28.45.35.66l.49.69.14.24.42.69.1.24c.03.07.07.21.1.28l.17.66.1.28.14.8.17.38.17.8.07.45.03.66c0,.14-.03.24-.03.35l-.03.21.03.07c.07.28.03.49,0,.76v.1l.03.35.03.38c0,.28-.03.56-.17.76l-.14.8-.07.38-.17.83-.07.31c0,.07-.03.14-.07.21l-.28.69-.17.31s-.07.03-.07.07l-.42.63-.14.35-.28.52c-.07.1-.17.24-.24.35l-.03.07-.59.76-.21.28-.56.56-.38.38-.35.42c-.14.17-.31.31-.49.42l-.56.28-.38.21-.63.35c-.07.03-.17.07-.28.1l-.21.07-.35.24-.38.17-.35.17-.63.28-.49.17-1.08.38-.8.21-.14.03c-.14.04-.31.04-.45.04h-1.6l-.21-.04c-.1,0-.21-.03-.28-.07l-.38-.07-.73-.07h-.38l-.97-.17c-.1-.03-.24-.07-.38-.14l-.56-.21-.31-.1-.73-.21-.45-.14-.35-.1c-.21-.07-.42-.14-.63-.31l-.07-.03-.63-.28c-.07-.03-.1-.07-.21-.14l-.28-.17-.63-.45-.35-.31s-.07-.07-.1-.1l-.52-.59c-.17-.1-.38-.21-.52-.42l-.28-.42-.28-.28-.38-.69c-.21-.14-.38-.31-.52-.59l-.14-.28-.07-.1c-.14-.17-.24-.31-.31-.56l-.14-.52-.24-.35-.24-.76-.17-.35-.28-.76c-.07-.17-.14-.38-.14-.63v-.56l-.03-.42v-.76l-.07-.35v-.52l-.03-.31-.03-.28v-.42l.07-.66.04-.17ZM85.23,908.24l.24.76.07.42.28.69.17.28.49.52c.07.07.14.17.21.24l.14.21.35.31c.17.14.35.28.45.49v.03l.63.59.42.24.69.42.49.14.17.03c.14.03.31.07.45.14l.07.03h.45l.8.17.42.03.83.03.52-.07,1.18-.17.59-.28c.1-.07.24-.07.35-.1l.1-.04.87-.49.35-.21.59-.49.24-.21.66-.45.28-.38.38-.56.24-.42.1-.35.38-.63v-.35l.17-.73.07-.35.07-.94v-1.08c0-.17.03-.24.07-.42l.07-.17-.17-.83-.03-.45-.28-.83-.21-.31-.31-.8-.21-.24-.35-.69-.31-.38-.66-.56-.28-.24-.69-.49-1.01-.8-.45-.17-.69-.28-.49.03-.76-.07h-.14c-.14,0-.31.03-.45,0l-.14-.03-.24.03c-.14.03-.28.03-.42.03h-.17l-.76.03-.45.1-.59.21c-.1.03-.21.07-.31.1l-.24.03-.9.52-.28.17-.69.52-.31.21-.45.59-.31.49-.21.49c-.07.17-.17.31-.28.45l-.07.07-.35.69-.1.31-.24.83-.1.45-.03.8-.1.45.1.49-.03.35s-.03.14-.03.17l-.04.31v.76l.17.52Z"
         id="path337" />
      <path
         class="cls-2"
         d="M117.16,918.59l-.17.03h-.28l-.73-.03-.31-.03-.76.03h-.38l-.35.03-.66-.03c-.1,0-.21,0-.31-.03l-.42-.1h-.8c-.1,0-.24-.03-.38-.1-.24-.1-.42-.28-.52-.49-.1-.21-.1-.38-.1-.63v-.45l.04-.42.03-.9-.1-.31-.07-.59c-.03-.21,0-.35.03-.56l.03-.24v-.76l.07-.49-.04-.9-.03-.87.03-.42-.03-.42.07-.66-.04-.49-.1-.73.03-.45.03-.8-.03-.45-.03-.45c0-.14,0-.35.03-.49l.03-.17-.03-.87.07-.38.1-.8.03-.38.03-.87-.03-.42-.07-.63c0-.14,0-.28.03-.42l.03-.24-.07-.69v-.28l.03-.24-.07-.45c-.04-.24-.04-.45,0-.66l.03-.03-.03-.8-.04-.42v-.63c0-.1,0-.21.04-.35l.03-.31.14-.8v-.28s.35-.45.63-.66c.14-.14.38-.14.56-.14l.56.07.52-.1.87.03h.38l.94-.03.42-.03.73.03h.42l.66-.03c.1,0,.24,0,.35.03l.24.03.42.07.17-.07c.17-.03.31-.07.52-.03l.17.03.87.1.38.1.87.03h.38l.35.04c.24.03.49.14.69.28l.04.03h.38l.87.38.83.31.38.17.8.28.35.17s.07.07.1.1l.56.35c.14.1.21.14.31.28l.07.1.59.42.42.35.38.35c.1.1.24.17.31.28l.17.24.49.45c.07.07.14.14.17.21l.21.28.31.38c.1.14.21.31.28.45l.07.14.38.69.14.35s.03.1.03.17l.21.66.07.42.21.76.14.35.14.59c.04.14.04.24.04.35v.24l.1.76v.35l-.03.21.07.35-.03.49.1.45-.03.8v.21c0,.17-.04.28-.07.42l-.1.31c-.04.14-.1.31-.21.45l-.03.03-.31.87-.07.38-.31.76-.07.24-.31.66-.24.42-.14.24-.49.83-.52.76-.21.24c-.04.07-.07.07-.14.14l-.56.52-.35.28-.56.35c-.1.07-.24.14-.35.17l-.17.07-.69.35-.38.21-.59.31c-.1.03-.21.1-.31.14l-.07.04-.87.38-.42.17-.56.17c-.14.03-.31.1-.49.1h-.21l-.35.04-.42.14-.1.04c-.17.07-.31.1-.52.14l-.49.04-.52-.04-.31.07-.52.03-.24.03c-.07,0-.24-.03-.31-.03l-.24-.03h-.42c-.21.07-.42.1-.63.1h-.56l-.31.07ZM117.09,897.99h-.21l-.45.56-.14.42v.76l.03.45.03.73.07.38v.1c0,.21,0,.38-.03.59l-.03.14.1.42v.66c0,.14-.04.28-.07.38l-.03.14-.07.83-.04.45.04.7c0,.1.03.21,0,.35l-.07.31.03.8.04,1.01.07.28.03.87v.42l.1.73c0,.1.03.17.03.24v.17l-.1.49.1.35v1.29l-.03.28v.45l.45.28,1.18.1c.28-.07.56-.07.83,0l.49-.1.38.03.8-.1.42-.17.9-.1.9-.24.35-.21.73-.35.21-.24.66-.59.42-.31.38-.45c.1-.1.17-.17.31-.28l.17-.1.38-.83.38-.9.1-.28.21-.8.1-.42-.03-.69.03-.49.07-.49-.1-.38.03-.42.03-.94-.17-.9-.07-.52-.31-.73-.17-.35-.49-.56-.31-.35-.63-.59-.21-.24-.59-.56-.28-.14-.76-.42-.35-.21-.9-.24-.45-.17-.9-.28-.87-.1-.52.03-.42-.03-.73-.03-.73.14c-.1.04-.24,0-.35,0Z"
         id="path339" />
      <path
         class="cls-2"
         d="M152.22,918.56h-.66c-.14,0-.31,0-.45-.04l-.1-.03-.69.03c-.1,0-.24,0-.35-.03l-.21-.07-.83-.03-.49.07h-.42c-.17.1-.45.1-.73.07l-.56.04c-.17,0-.35,0-.49-.04l-.28-.07-.8.03-.83.1c-.24.03-.49,0-.73-.1l-.35.03-.42-.03h-.07c-.24.07-.45.07-.66.03l-.42-.07-.49.1-.9-.07-.49.07h-.9l-.28-.07c-.17-.17-.31-.38-.42-.59-.03-.17-.03-.35-.03-.49l.03-.66v-.45l.07-.87-.1-.45.03-.38v-.04l.03-.42-.03-.42-.1-.76v-1.29l-.03-.45v-1.67c0-.14,0-.31.03-.42l.1-.35-.03-.76-.1-.28v-.69c0-.14.03-.28.07-.45l.03-.14-.03-.69c0-.17,0-.38.03-.56l.07-.14-.14-.83v-.14c-.03-.14-.03-.21-.03-.31v-.63l-.03-.49.07-.76v-.45l.04-1.04-.07-.87-.03-.45.03-.83v-.42l-.07-.59v-.28l.03-.38.14-.8v-.45l.03-1.01c0-.24.1-.49.24-.76l.1-.17.38.03h.73c.17-.03.31-.03.45,0l.17.03.87.07.42.04,1.01-.04c.28.04.56.17.83.42l.07.07-.07.42.1.94.03.42v.35c0,.24-.07.49-.17.69l.04.83.1.38.07.59c0,.14.03.28.03.38l-.03.21-.07.83.03.42-.03.56c0,.1,0,.21-.03.35l-.03.1.03.8.03.45.03.63c0,.14,0,.35-.03.49l-.07.24v1.84l.03.35v.73l-.03.38.03.49c.03.28-.03.49-.1.73v.03l.07.8.1.49.04.66v.31l-.04.24.04.52c0,.17.03.24,0,.42l-.07.21-.03.69c0,.07-.03.17-.03.24l-.03.24.42.42.49.07.83.03h1.11l.49-.03h.8l.28-.03,1.15.07h.9l.03-.03c.21-.07.45-.1.66-.07l.56.07h.35l.8.14c.21.03.49.17.76.45l.07.07.03.45v.97l.04.42-.04.87-.03.42c-.03.21-.14.35-.31.49-.17.17-.38.24-.59.31Z"
         id="path341" />
      <path
         class="cls-2"
         d="M162.44,918.49c-.21.03-.38.03-.56,0l-.49-.07-.42.03-.66.1h-.21c-.17,0-.38,0-.56-.07v-.03l-.56.07h-.56l-.07-.07c-.17-.21-.28-.42-.38-.63-.03-.14-.03-.28-.03-.42l-.03-.63-.1-.45v-.49c0-.28.04-.52.14-.76l-.07-.9-.07-.31-.03-.9.07-.42-.04-.63v-.31l.04-.21.1-.76-.07-.52.03-.73-.14-.42-.03-.49c-.03-.31,0-.56.1-.76l.07-.76.07-.45v-1.39l-.07-.87-.07-.42-.07-.49c-.03-.17-.03-.35,0-.52v-.17l.03-.59c0-.14,0-.21.04-.31l.07-.35-.07-.52c-.04-.21,0-.38.03-.59l.03-.03-.03-.38c-.03-.31,0-.56.1-.8l-.03-.76-.07-.45.07-.87-.03-.42-.14-1.08-.03-.66c0-.14-.03-.31,0-.45l.03-.14v-.35c.1-.1.21-.21.35-.28.28-.14.56-.1.8-.03l.69.03.42.03.59-.07c.1,0,.28-.04.38-.04l.31.04.76-.07c.24-.03.49-.03.73.03.24.31.38.63.38.9v.03l-.03.9.07.45.03.66v.31l-.03.17v.83l.07.35-.04.63c0,.14-.03.31-.07.45l-.07.21.1.76v.42l.03.97v.1c0,.14.04.24,0,.42l-.07.63.07.42-.03.8v.38l-.1.83-.04.35.04.94-.04.42.14.9.03.8c0,.14-.03.21-.03.31v.14l-.07.49-.03.63-.1.42.1.52c.03.21,0,.31-.04.52l-.03.24.07.8v.42l-.04.76.07.49.03.8-.03.42v.76l-.03.45.03.66c0,.21-.03.31-.07.49l-.07.24-.17.17c-.07.07-.21.14-.42.17Z"
         id="path343" />
      <path
         class="cls-2"
         d="M186.06,897.99l-.97-.03h-1.32l-.42-.07h-1.22l-.31-.03-.83.07-.42.03-.49.38-.04.49.04.76c0,.14,0,.21-.04.35l-.07.24.03.76-.07.42-.03.73.07.49v.8l.03.38-.03.87.03.42v.76l.03.35.04.87-.04.73c0,.17-.03.28-.07.42l-.1.31-.07.8.07.38.04,1.01.07.97.1.35v.97l-.04.38-.07.9-.07.94.1.38v1.22l-.1.73s-.38.73-.63.97c-.07.07-.17.07-.28.07l-.83-.04-.35.04h-1.32l-.8-.07c-.31-.03-.66-.14-.94-.38l-.03-.03-.03-.42-.03-.45c-.03-.35,0-.56.07-.76v-.8l-.03-.17c-.07-.24-.1-.45-.07-.66l.07-.45-.07-.31.03-.69-.14-.42-.03-.69c0-.14,0-.21.03-.35l.07-.28.07-.66.07-.45.07-.73-.04-.45-.14-.76-.07-.31v-.83c0-.17.03-.28.07-.42l.03-.1.1-.83-.07-.45.03-.83-.07-.28.03-.73-.03-.35-.07-.83-.03-.21v-.31l.07-.66.1-.31.03-.9-.1-.45.03-.83-.03-.45-.52-.49-.42.03-.69.04c-.1,0-.21.03-.31,0l-.24-.04-.38-.03h-.07c-.24.07-.49.1-.73.03l-.1.04c-.21.03-.45.03-.66,0l-.42-.1h-1.36l-.35.03s-.66-.42-.76-.73c-.03-.03-.03-.07-.03-.14v-.24l-.04-.59c0-.14-.03-.24,0-.38l.07-.24.07-.94-.1-.31c0-.17.17-.49.38-.76l.45-.1.76-.03c.1,0,.17,0,.28.03l.17.03.9.04.31-.07.83-.03h.35l.8.03.42-.07.69.03c.14,0,.24,0,.38.03l.14.03h1.11l.8.07.42-.14.87.03.56-.07h.52c.21,0,.42.03.59.1l.07.04h1.11l.83.07.31-.03.76-.03.52-.14.69-.07h.31l.83.1.38.03.83.07s.42.21.66.45c.17.17.17.38.17.63v.03l.1.83.03.45.03.45c.03.17.03.35,0,.52l-.03.1-.1.42-.21.24c-.14.17-.35.24-.63.28Z"
         id="path345" />
      <path
         class="cls-2"
         d="M206.43,905.88l.38.14.56.38.35.31.35.28c.14.1.24.24.35.38l.1.14.35.45c.1.14.17.24.24.38l.07.14.14.73.1.45.21.73c.03.1.07.17.07.31v.21l-.03.38v.38l.03.21c.03.24.03.42,0,.66l-.07.35v.14c0,.21-.07.42-.14.59l-.1.24c-.03.14-.07.17-.14.28l-.14.21-.17.31c-.1.21-.28.42-.49.56l-.87,1.15-.52.52-.03.03c-.17.17-.38.28-.63.35l-.49.14-.38.17-.8.21-.42.1-.83.24-1.01.24c-.07.03-.17.07-.28.07h-.97l-.38-.03-.45.07-.49-.03-.42.03-.83.03h-.42l-.76-.07-.45.03-.8.03-.45.04-.83.03-.31.03-.9-.07-.42.03-.9-.03c-.17-.04-.38-.14-.59-.31-.21-.21-.31-.45-.38-.69l-.03-.1.07-.8-.07-.35v-.87l.07-.45v-.63c0-.1,0-.21.03-.31l.07-.21-.07-.52c0-.14,0-.35.03-.49l.03-.21-.03-.76v-.35l-.1-.83v-.31l.04-.24-.07-.9-.03-.35v-.66c0-.14.03-.24.07-.38l.04-.14.07-.83-.03-.45v-1.25l-.07-.63v-.35l.04-.31v-.59c0-.1,0-.21.03-.35l.03-.28.03-.66v-.03c-.07-.24-.14-.45-.1-.73l.03-.42-.07-.45v-.83l-.03-.45-.03-.66c0-.14,0-.31.03-.42l.07-.17-.04-.76c0-.1,0-.24.04-.35l.03-.21-.03-.83.03-.35-.03-.83c0-.07,0-.17.03-.28.17-.52.56-.73.8-.76l.73-.07.35-.03h.21l.76.07.38.03h.52c.1,0,.17-.03.31,0l.24.03h.83l.38.07h.52l.42.07.8-.1h1.25l.07-.03c.24-.07.45-.07.66-.03l.56.1.94.17.52.14.49.1c.17.03.38.1.52.17l.1.07.69.28.52.1.52.17c.17.07.31.14.49.28l.1.1.45.28c.14.1.21.14.31.28l.59.69c.03.07.14.14.17.21l.07.14.45.83.03.03c.07.14.14.31.17.45l.14.52.03.31.07.45c.04.28.04.52-.03.76l-.03.38.07.8-.03.8c-.03.31-.14.56-.31.8l-.14.21-.21.28-.38.45-.24.24-.21.14-.52.52-.59.52.03.31.35.31ZM197.5,903.86l.35.03.97.17.35-.14h.31c.14,0,.28,0,.42.03l.21.07.38-.07.8-.17.42-.24.35-.14.31-.21.66-.56.07-.83.1-.35-.03-.45.07-.38-.04-.45-.1-.73-.35-.28-.14-.35-.69-.52-.35-.24-.8-.24-.45.04h-.14c-.17,0-.35-.07-.49-.14l-.1-.03h-.45l-.97.03-.87.1-.24.1-.49.42.07.49-.1.8-.03.28.03.73v.52l-.03.8.07.28.07.35c.03.24,0,.49-.07.76v.03l.52.42.42.07ZM196.63,908.31l-.1.35v1.18l.03.69c0,.07-.03.21-.03.28l-.03.35.07.83v1.25l.1.38.42.59.42.1.8.07.31-.03.14-.07c.14-.04.28-.07.42-.07l.59-.03.42-.03.52.03c.14,0,.31,0,.42.03l.21.07.87-.21.76-.56.17-.14.56-.56.21-.35.17-.83.04-.45v-.07c-.04-.24.03-.49.1-.73v-.03l-.03-.52-.31-.76-.28-.42-.63-.59-.42-.14-.83-.21-.52-.07-.35-.03-.45-.14-.52.07-.83.03h-.52l-.83-.03-.45.03-.56.31-.03.42Z"
         id="path347" />
      <path
         class="cls-2"
         d="M212.75,893.47h.9c.14,0,.28-.03.42,0l.73.1,1.36-.07.83.03c.21.04.45.07.66.21l.17.1c.07.07.17.1.28.21l.17.14.38.8.17.28.42.87.17.31.31.66c.03.1.03.17.07.31l.07.28.45.63.35.42.35.66.21.38.38.8.24.38.52.83.42.76.17.42.35.35.42-.04.1-.42.24-.31.28-.69.07-.14c.03-.1.1-.21.17-.31l.31-.45.24-.42.38-.69.24-.35.42-.69.14-.31.28-.35.52-.97.31-.73c.04-.1.07-.21.14-.28l.38-.59.21-.42.45-.69.24-.42c.07-.17.24-.31.49-.49l.17-.1,1.25.1.31.03.83-.03.35-.07.59-.07c.14,0,.31,0,.45.03h.14l.56.03c.1,0,.24,0,.35.03l.24.07.03.1c.07.21.1.42.07.69v.04l-.31.69c-.03.1-.14.21-.21.28l-.14.21-.35.49c-.07.1-.14.17-.24.28l-.21.17-.45.73-.14.49-.35.52c-.07.07-.14.21-.21.28l-.17.17-.42.76-.14.31-.45.66-.14.31-.24.56c-.07.14-.17.28-.28.42l-.14.14-.38.76-.03.14c-.04.14-.14.28-.21.42l-.24.35c-.07.14-.17.21-.28.31l-.14.1-.45.73-.17.45-.21.28-.24.45-.14.31-.45.76-.07.24-.45.7c-.04.07-.14.14-.17.21l-.17.21-.24.87v.38l-.07.83.1.45v.76l.04.28-.04.76.07.52.03.8v.31l-.03.87-.07.45v.66c0,.07-.03.17-.03.24l-.07.31.03.69s-.38.66-.66.9c-.1.07-.24.1-.35.1l-.42.03c-.17,0-.38.03-.59-.03l-.28-.1-.63.03h-.35l-.17-.03h-.69l-.45-.07s-.35-.24-.56-.45c-.14-.17-.17-.35-.17-.56v-1.49c0-.24,0-.45.07-.66l.04-.03-.1-.59v-1.67l-.03-.8-.07-.38.04-.66c0-.17.03-.28.07-.42l.1-.28-.14-.8v-.42l-.21-.73-.17-.45-.45-.73-.21-.31-.49-.73c-.03-.07-.1-.1-.14-.21l-.1-.24-.31-.42c-.07-.1-.14-.28-.17-.42l-.07-.14-.49-.83-.49-.83-.28-.28-.38-.83-.31-.42-.38-.76-.17-.31-.35-.69-.28-.28-.49-.73-.21-.31-.14-.21c-.03-.1-.07-.21-.1-.28l-.1-.31-.21-.28-.45-.76-.24-.28-.45-.73-.21-.42-.35-.8c-.1-.31-.14-.52-.07-.66.03-.1.24-.24.56-.31Z"
         id="path349" />
      <path
         class="cls-2"
         d="M244.58,917.83l.24-.42.28-.63.17-.35.31-.56c.07-.1.17-.24.28-.35l.1-.1.45-.63.21-.28.38-.73.21-.35.38-.76.21-.38.42-.69.24-.38.38-.63.17-.38c.04-.07.1-.17.14-.24l.38-.52.1-.38.42-.76.59-.9.31-.38.52-.73.14-.35.42-.8.49-.87.14-.24.28-.66c.07-.14.14-.31.24-.45l.1-.14.49-.73.24-.35.45-.69.21-.42.38-.8.42-.73.21-.35.14-.38-.14-.31-.45-.14-.9-.03-.07.03c-.21.07-.45.1-.69.07l-.66-.03-.52.03c-.24.03-.49-.03-.73-.1h-.73l-.14.03c-.21.07-.45.07-.66.03l-.49-.07-.38.07-.9.03-.66.07c-.21.03-.45,0-.66-.07h-.03l-.7-.03c-.21.03-.42,0-.62-.07-.35-.17-.52-.45-.59-.73-.03-.14,0-.28,0-.42l.07-.59.07-.35-.04-.38.14-.83c0-.07.49-.69.83-.9.1-.07.24-.07.35-.07l.76-.1h.69c.17,0,.35.03.52.1l.1.03.8.03.42-.17.28-.03c.07,0,.1-.03.17-.03h.8l.66.03h.28l.35.07.8.03.52-.07.52-.07c.17-.04.38,0,.56.03l.14.03.38-.03.38.03.52.03h.73l1.35.03h.17c.24-.03.42,0,.66.07h.87l.14-.03c.24-.07.45-.04.66,0h.07l.35-.04.9-.07.49-.07h.8s.35.52.35.83c0,.07-.07.14-.1.24l-.24.59-.07.28-.21.49c-.07.17-.21.31-.35.45l-.04.04-.17.31-.38.73-.21.42-.35.63-.21.31-.24.52c-.07.14-.14.21-.21.31l-.17.21-.45.8-.17.35-.45.63-.28.35-.24.63c-.04.1-.07.21-.14.31l-.17.24-.24.35c-.07.14-.14.21-.24.28l-.17.17-.38.76-.17.31-.28.63c-.04.07-.1.17-.14.24l-.14.24-.52.73-.14.24-.42.73-.21.42-.31.52c-.07.1-.14.17-.21.24l-.14.14-.52.8-.21.45-.45.73-.28.66c-.07.21-.17.28-.31.45l-.07.1-.35.59c-.03.1-.1.17-.14.24l-.14.21-.07.38.17.28.49.07.76-.03h.28l.35.03h.97l.31-.07.87.03.28.03h.9l.38.07.59-.1c.21-.03.42,0,.63.03h.87l.56-.07.73.03h.38l.66.07c.14.04.24.07.35.1l.1.03h.45c.17.31.24.59.21.9l.07.94.14.52v.73l-.03.38c0,.1-.04.17-.07.28-.24.45-.66.56-.94.59l-.59.03c-.17.03-.38,0-.56-.03l-.17-.04h-1.18l-.8-.1-.49.03-.73-.03-.38.07-.52.1c-.14.03-.31,0-.45,0l-.17-.03-.63.03c-.14,0-.28,0-.42-.03l-.24-.04-.52.04c-.17.03-.28.03-.42,0l-.24-.04-.69-.03c-.1,0-.21,0-.31-.03h-.1l-.76-.1-.49.04-.35.03-.21.03c-.17.03-.38.03-.56,0h-.07l-.83-.03h-.31l-.69.1h-.66l-.73-.03-.24.03c-.1,0-.28,0-.38-.03l-.52-.1-.52.03h-.8l-.31.03c-.24,0-.45-.03-.52-.17-.07-.1-.04-.28.1-.45Z"
         id="path351" />
      <path
         class="cls-2"
         d="M266.89,917.76l.17-.31.21-.69.1-.28c.04-.07.07-.14.1-.24l.17-.28c.1-.21.21-.38.42-.56l.45-.73.07-.31.35-.83.17-.35.31-.63.28-.35.35-.76.14-.49.38-.73.07-.35.17-.49c.07-.21.21-.38.35-.56l.03-.03.14-.42c.07-.21.17-.35.28-.49l.07-.07.35-.76.1-.45.21-.49c.07-.14.17-.31.28-.45l.17-.17.38-.66.17-.28.31-.76.07-.38.21-.56c.03-.14.1-.28.17-.38l.17-.24.38-.66.21-.42.35-.66.17-.28.42-.69.14-.42.21-.63c.04-.1.07-.21.14-.35l.1-.17.35-.8.14-.35.38-.73.03-.14c.04-.21.14-.45.24-.63l.21-.38.1-.31.42-.66c.07-.21.21-.45.38-.63l.1-.07.21.35.21.38.31.8.28.35.31.69.28.35.31.69.14.38.24.76.21.38.42.73c.17.17.35.35.45.63l.1.24.21.42.28.73.17.38.31.76.1.38.42.66.21.42.28.42c.1.14.17.28.21.49l.04.1.35.73.21.35.35.8.14.38.31.83.1.38.31.49c.07.14.1.24.14.42l.04.14.35.69.24.49.42.8.45.73.52,1.04.24.49.24.45c.07.17.14.31.17.45l.04.21.35.66.24.42.38.73.14.35.24.69.1.17c.07.14.1.31.14.49v.1l-.24.35-.38-.07h-1.01l-.42-.03-.94.07-.35.03c-.14.03-.28.03-.42.03l-.56-.03c-.17.03-.42,0-.69-.14-.31-.21-.52-.45-.63-.69,0-.03-.03-.07-.03-.07l-.35-.9-.31-.8-.14-.31-.31-.66-.24-.45-.59-.31-.38-.1-.52-.03h-.76l-.94-.07h-.97l-.49.17-.9.03-.69-.03c-.14,0-.28-.03-.42-.07l-.14-.03-.69-.04-.38.04h-.66c-.1,0-.21,0-.31-.04l-.42-.1-.59.42-.21.38-.14.56c-.07.24-.14.42-.28.59l-.07.49c-.03.17-.1.35-.21.56l-.04.04-.24.76-.04.1c-.1.21-.28.42-.45.59l-.21.17-.24-.03c-.1-.03-.17,0-.28,0h-.35l-.73-.07-.49-.03-.94.07h-1.6c-.24,0-.45-.07-.52-.21-.04-.1,0-.35.1-.59ZM276.72,910.25l.87.1.35-.07h.94l.8.04.38-.1.9.07.45.04.21-.42-.07-.38-.42-.76-.24-.49-.31-.63c-.04-.1-.07-.21-.1-.31l-.04-.28-.21-.66-.1-.38-.31-.52c-.03-.1-.1-.17-.14-.31l-.07-.21-.28-.45c-.07-.14-.14-.31-.17-.45l-.04-.14-.14-.31h-.31l-.24.35-.35.87-.17.45-.42.76-.14.42-.31.69-.1.31-.24.8-.17.45-.31.83-.21.42.24.38.49-.1Z"
         id="path353" />
      <path
         class="cls-2"
         d="M323.18,894.48v1.01l-.03.97.03.42-.03.9.03.45v.8l-.03.42v.76l-.07.45-.07.76.14.42-.04.87.04.24-.04.73c0,.07-.03.14-.03.24l-.04.24.04.8.07.42v.8l.07.38v.9l-.04.42-.07.87.04.38.03.38-.03.38-.07.38-.04.56c0,.1,0,.17-.04.28l-.07.31-.07.56c0,.14-.07.24-.1.38l-.07.24-.28.83-.07.17c-.04.17-.1.38-.21.52l-.35.49-.21.31-.49.56-.28.31-.31.38c-.14.17-.38.35-.59.45l-.73.56-.28.21-.45.28c-.17.1-.38.17-.59.21h-.03l-.76.28-.35.14-.8.35-.31.1c-.07.03-.21.07-.31.1l-.76.1-.35.03h-1.08c-.21.04-.42.04-.59,0l-.17-.03-.42-.03-.9-.03-.35-.04-.94-.14-.35-.07-.56-.1c-.17-.04-.38-.07-.56-.17l-.03-.04-.73-.31c-.14-.07-.21-.1-.31-.17l-.14-.1-.8-.49-.24-.14-.56-.42-.8-.59c-.1-.1-.21-.21-.31-.31l-.21-.24-.24-.28c-.24-.24-.42-.49-.49-.8l-.24-.38c-.1-.17-.17-.38-.21-.56l-.03-.07-.28-.52c-.04-.1-.1-.17-.14-.31l-.07-.24-.14-.87-.04-.21c-.03-.1-.03-.24-.03-.38l.03-.69-.07-.42v-.73l.04-.49-.1-.66c0-.07-.04-.24-.04-.31l.04-.24-.04-.76.04-.38.07-.8v-.38l.07-.87-.14-.42v-.59c0-.1,0-.28.04-.38l.03-.28.04-.87v-.38l-.04-.76-.03-.24c-.04-.17-.04-.35-.04-.52l.07-.66v-1.01l-.1-.35.04-.69c0-.14.04-.21.07-.35l.04-.14.03-.87-.14-.49-.07-.83c0-.1.03-.24.14-.35,0,0,0-.03.04-.03.1-.17.76-.38.94-.31l.76-.1.45-.14.49-.03c.14,0,.31,0,.45.03l.24.07.9-.03c.14,0,.28.03.45.1.21.14.35.28.45.45.1.24.14.45.14.69v.42l-.03.45-.04.76.04.52.1.76v.17c.04.14.04.28.04.42l-.07.66.07.94.04.28v.38l-.07.59-.03.38-.1.73.1.38.03.83.04.21v.38l-.07.59.07.35-.04.8.04.42-.07.8.03.38.07.63c0,.14.03.24,0,.42l-.04.24.04.35v.42l-.04.35.1.83.03.31.35.83.14.21.42.66.35.31.76.52.87.31.38.17h.83l.31.04.45-.04.49.07.31-.1.9.07.35-.14.66-.21.38-.21.63-.52.24-.17.52-.69.1-.49.35-.87.1-.8.03-.45v-.83l-.07-.24c-.03-.14-.03-.35-.03-.52l.03-.66.14-.87.03-.42.07-.87-.03-.28-.04-.45-.03-.38v-.31l.03-.8-.03-.35-.04-.83-.07-.49-.07-.9v-1.08c0-.14-.04-.17,0-.31l.14-.76.1-.28.03-.8-.03-.31c0-.14-.04-.24,0-.38l.03-.21-.07-.38v-1.36s.45-.66.76-.76c.07-.03.14-.03.17-.03l.45-.03c.21,0,.45.03.66.1l.07.03h.8l.52-.03h.87c.21-.07.45-.07.73,0l.14.24c.1.17.17.42.21.66Z"
         id="path355" />
      <path
         class="cls-2"
         d="M343.61,918.56h-.66c-.14,0-.31,0-.45-.04l-.1-.03-.69.03c-.1,0-.24,0-.35-.03l-.21-.07-.83-.03-.49.07h-.42c-.17.1-.45.1-.73.07l-.56.04c-.17,0-.35,0-.49-.04l-.28-.07-.8.03-.83.1c-.24.03-.49,0-.73-.1l-.35.03-.42-.03h-.07c-.24.07-.45.07-.66.03l-.42-.07-.49.1-.9-.07-.49.07h-.9l-.28-.07c-.17-.17-.31-.38-.42-.59-.03-.17-.03-.35-.03-.49l.03-.66v-.45l.07-.87-.1-.45.03-.38v-.04l.04-.42-.04-.42-.1-.76v-1.29l-.03-.45v-1.67c0-.14,0-.31.03-.42l.1-.35-.03-.76-.1-.28v-.69c0-.14.03-.28.07-.45l.04-.14-.04-.69c0-.17,0-.38.04-.56l.07-.14-.14-.83v-.14c-.03-.14-.03-.21-.03-.31v-.63l-.04-.49.07-.76v-.45l.04-1.04-.07-.87-.04-.45.04-.83v-.42l-.07-.59v-.28l.03-.38.14-.8v-.45l.03-1.01c0-.24.1-.49.24-.76l.1-.17.38.03h.73c.17-.03.31-.03.45,0l.17.03.87.07.42.04,1.01-.04c.28.04.56.17.83.42l.07.07-.07.42.1.94.04.42v.35c0,.24-.07.49-.17.69l.04.83.1.38.07.59c0,.14.03.28.03.38l-.03.21-.07.83.04.42-.04.56c0,.1,0,.21-.03.35l-.04.1.04.8.03.45.04.63c0,.14,0,.35-.04.49l-.07.24v1.84l.04.35v.73l-.04.38.04.49c.03.28-.04.49-.1.73v.03l.07.8.1.49.04.66v.31l-.04.24.04.52c0,.17.03.24,0,.42l-.07.21-.03.69c0,.07-.04.17-.04.24l-.03.24.42.42.49.07.83.03h1.11l.49-.03h.8l.28-.03,1.15.07h.9l.04-.03c.21-.07.45-.1.66-.07l.56.07h.35l.8.14c.21.03.49.17.76.45l.07.07.04.45v.97l.04.42-.04.87-.04.42c-.03.21-.14.35-.31.49-.17.17-.38.24-.59.31Z"
         id="path357" />
      <path
         class="cls-2"
         d="M353.83,918.49c-.21.03-.38.03-.56,0l-.49-.07-.42.03-.66.1h-.21c-.17,0-.38,0-.56-.07v-.03l-.56.07h-.56l-.07-.07c-.17-.21-.28-.42-.38-.63-.03-.14-.03-.28-.03-.42l-.04-.63-.1-.45v-.49c0-.28.04-.52.14-.76l-.07-.9-.07-.31-.03-.9.07-.42-.04-.63v-.31l.04-.21.1-.76-.07-.52.03-.73-.14-.42-.04-.49c-.03-.31,0-.56.1-.76l.07-.76.07-.45v-1.39l-.07-.87-.07-.42-.07-.49c-.04-.17-.04-.35,0-.52v-.17l.03-.59c0-.14,0-.21.04-.31l.07-.35-.07-.52c-.04-.21,0-.38.04-.59l.03-.03-.03-.38c-.04-.31,0-.56.1-.8l-.03-.76-.07-.45.07-.87-.04-.42-.14-1.08-.04-.66c0-.14-.03-.31,0-.45l.04-.14v-.35c.1-.1.21-.21.35-.28.28-.14.56-.1.8-.03l.69.03.42.03.59-.07c.1,0,.28-.04.38-.04l.31.04.76-.07c.24-.03.49-.03.73.03.24.31.38.63.38.9v.03l-.04.9.07.45.04.66v.31l-.04.17v.83l.07.35-.04.63c0,.14-.04.31-.07.45l-.07.21.1.76v.42l.04.97v.1c0,.14.04.24,0,.42l-.07.63.07.42-.04.8v.38l-.1.83-.04.35.04.94-.04.42.14.9.04.8c0,.14-.04.21-.04.31v.14l-.07.49-.03.63-.1.42.1.52c.03.21,0,.31-.04.52l-.04.24.07.8v.42l-.04.76.07.49.04.8-.04.42v.76l-.03.45.03.66c0,.21-.03.31-.07.49l-.07.24-.17.17c-.07.07-.21.14-.42.17Z"
         id="path359" />
      <path
         class="cls-2"
         d="M380.41,895.66l-.04.69.07.38.04.59c0,.17.03.24,0,.42l-.04.24-.03.63c0,.14-.04.21-.07.35l-.03.17c-.1.07-.21.14-.31.21-.35.14-.73-.07-1.04-.28l-.24-.14-.31-.17-.69-.21h-.42l-.76-.28-.31-.1-.9-.1-.35-.07-.9-.1-.42.07-.42-.07-.45.1-.9.04-.31.17-.56.17c-.17.03-.35.03-.52.03h-.1l-.8.21-.31.24-.56.38-.38.28v.04c-.14.17-.28.28-.49.42l-.07.07-.24.21-.62.63-.21.35-.21.45c-.1.24-.28.38-.45.56l-.04.03-.28.66-.21.42-.17.59-.07.42.04.76-.04.49-.03.42.03.31.04.52.04.76.07.31.14.87.17.31.45.83.45.76.21.24.59.59.31.35.35.24c.17.14.35.28.45.45l.07.07.73.42.76.31c.1.04.21.07.28.14l.17.1.83.17.45.03.87.21.35-.07.45.07h1.35l.45-.1,1.08-.14.59-.21c.14-.07.31-.1.45-.1l.17-.03.73-.17.21-.1c.14-.07.31-.14.49-.17l.59-.14s.63.24.83.49c.07.1.07.21.07.28l.1.52v.59l-.03.59v.28l-.14.87c.04.21-.1.59-.42,1.01l-.04.04-.38.17-.45.17c-.21.07-.42.14-.63.14h-.1l-.42.21-.35.03-.38.17-.97.17-.35.07-.73.17c-.14.03-.28.07-.42.07h-.17l-.83.07-.28.07c-.1.03-.28.03-.38.03l-.59-.03-.52-.07h-.56c-.1,0-.24,0-.35-.03l-.24-.03-.66-.14c-.1,0-.24-.03-.31-.07l-.21-.07-.76-.28h-.35l-.73-.24-.45-.1-.63-.24c-.14-.07-.21-.1-.31-.17l-.21-.14-.63-.52-.31-.24-.69-.45-.28-.17c-.07-.07-.1-.14-.17-.17l-.42-.38-.14-.1c-.14-.1-.24-.21-.35-.35l-.31-.42-.8-1.08-.21-.28-.42-.69-.14-.31-.38-.76-.1-.31-.28-.87-.17-.31-.21-.63c-.04-.1-.07-.21-.07-.31l-.07-.35-.14-.73-.04-.35-.07-.76v-.24c0-.07.04-.17.04-.24l.03-.31-.03-.24c0-.17,0-.35.03-.49l.07-.24-.04-.38c0-.24.04-.49.1-.69l.03-.07.07-.87v-.03c-.04-.24,0-.49.07-.76l.07-.28.21-.49.31-.69.28-.49.14-.42c.07-.14.14-.31.24-.45l.1-.1.42-.66.07-.1c.07-.17.17-.35.31-.52l.38-.35.21-.31.56-.56.03-.03c.14-.24.31-.42.52-.56l.14-.1c.07-.07.21-.1.28-.14l.24-.14.73-.59.35-.28.66-.42c.07-.07.17-.14.28-.17l.69-.28.45-.24.69-.24.49-.1.73-.24.17-.07c.1-.03.21-.07.31-.07l.59-.07.45-.07h.66c.14,0,.31,0,.42.03l.17.03h.52c.21-.03.45-.03.66.03l.17.03.45-.03c.14,0,.31,0,.45.03l.21.07.76.17.42.03.87.14.38.14,1.95.66c.1.04.21.07.31.14l.24.14.17.28c.1.17.17.42.21.69Z"
         id="path361" />
      <path
         class="cls-2"
         d="M401.33,918.49l-.38.07c-.31.07-.59.03-.8-.04l-.63.04h-.31l-.31-.04-.52.07c-.28.03-.49,0-.69-.1l-.94-.07-.45.14-.83-.04-.45.04-.9-.14-.38-.03h-.83l-.45.03-.35.14-.45.07h-.59l-.69-.07-.35-.07-.83.03-.42.07-.69.03-.31.03c-.1,0-.24-.03-.35-.03l-.73-.1s-.42-.35-.66-.66c-.14-.17-.14-.42-.17-.66l-.03-.49-.1-.42-.04-.73-.07-.49v-.76l.04-.45-.04-.8-.03-.24c0-.07.03-.17.03-.24l.1-.8-.07-.45-.04-.83v-.31l-.03-.87v-.66l.1-.73-.1-.38.03-.76v-.38l.1-.76.04-.42.07-.66-.17-.49-.04-.83v-.38l.07-.9-.03-.35.03-.94.04-.38-.04-.8v-.42l-.03-.87-.04-.42v-.69c0-.14.04-.21.04-.31l.03-.24-.07-.8c0-.1.04-.24.04-.35l.1-.73.07-.35s.35-.38.66-.59c.14-.07.35-.07.52-.1l.42-.03.45-.07.69-.03c.1,0,.17.03.28.03l.35.03.8-.1h.31l.83.03.38-.03h.56c.1,0,.28.03.38.07l.17.03.9-.1.52-.03h.49c.24,0,.45,0,.66.1l1.18-.07.49-.07c.17-.03.35,0,.52.04l.14.03.76.07,1.25.03.45.04h1.04c.24-.04.52.03.73.24v.1c.04.17.04.31.04.49v.14l-.04.56c0,.17-.04.28-.07.42l-.04.17-.03.45.14.8c.04.28-.1.63-.31.97l-.04.03-.45.1h-.69c-.17,0-.35,0-.49-.03l-.1-.04-.87-.03-.31-.07-.9-.07c-.24.07-.52.1-.76.07l-.45.07-.9.07-.42-.04-.9.07h-.07c-.17.03-.35.03-.49,0l-.69-.14-1.39.07-.45.38-.04.45-.07.45.07.76-.03.35.07.76.1.42v.35l.03.83v.42l.45.42.42.07.56-.04h.38l.17.04.35-.07.52-.03c.1,0,.24,0,.35.03l.28.03.8.07.38-.07h.42c.17,0,.38.04.52.07l.21.03.83-.03h1.11c.1,0,.21-.03.31,0l.42.07c.31.28.45.63.45.97l.03.69v.28l-.03.42v.83c0,.1,0,.21-.04.28-.07.42-.42.59-.66.66-.07.04-.21.04-.28.04h-.31l-.49-.04-.35.04-.83.03-.45.14h-.38c-.21,0-.42-.04-.59-.1l-.1-.03h-1.18l-.31.14-.59.07c-.14,0-.31,0-.45-.03l-.14-.03-.8-.04-.52.04-.49.35-.04.42-.1.8v.38l-.03.76-.04.35-.04.76.07.42v.73l.03.38.49.56.45-.03.87.03h.42l1.22-.07.56.07c.1,0,.24.03.35.07l.21.07,1.35-.03h.9l1.25-.1h.31l1.01.1h.73c.1,0,.21,0,.31.03l.24.07c.35.31.52.59.56.94l.04.83.07.56-.03.83c-.04.35-.14.66-.31.8-.21.17-.42.24-.66.31Z"
         id="path363" />
    </g>
  </g>
  <path
     id="path369"
     class="cls-5"
     d="M 60.291016 0 C 57.633226 13.427832 56.166357 27.027314 57.099609 39.189453 C 59.429607 69.479423 85.780155 117.35949 84.410156 155.18945 C 83.490157 180.62943 46.569609 228.44026 46.599609 254.24023 C 46.629609 280.03021 77.929688 354.42969 77.929688 354.42969 L 78.789062 327.67969 L 104.00977 336.89062 C 104.00977 336.89062 91.39944 319.84908 78.189453 261.36914 C 64.979466 202.8892 138.72942 178.97937 103.43945 96.439453 C 88.414781 61.290306 86.163655 27.396478 88.494141 0 L 60.291016 0 z " />
  <path
     id="path371"
     class="cls-4"
     d="M 162.35156 0 C 151.98562 23.362818 137.64878 49.5236 138.2207 66.109375 C 139.1207 91.899349 172.90039 165.19922 172.90039 165.19922 L 172.85938 138.43945 L 198.36914 146.78906 C 198.36914 146.78906 185.20905 130.17963 170.03906 72.179688 C 162.66198 43.962785 176.1065 23.205677 187.50195 0 L 162.35156 0 z " />
</svg>
