<?xml version="1.0" encoding="UTF-8" standalone="no"?>
<svg
   id="Layer_1"
   viewBox="0 0 638 1011"
   version="1.1"
   sodipodi:docname="ulice_karticky_V1-02-print.svg"
   inkscape:version="1.2.2 (732a01da63, 2022-12-09)"
   xmlns:inkscape="http://www.inkscape.org/namespaces/inkscape"
   xmlns:sodipodi="http://sodipodi.sourceforge.net/DTD/sodipodi-0.dtd"
   xmlns="http://www.w3.org/2000/svg"
   xmlns:svg="http://www.w3.org/2000/svg">
  <sodipodi:namedview
     id="namedview243"
     pagecolor="#ffffff"
     bordercolor="#000000"
     borderopacity="0.25"
     inkscape:showpageshadow="2"
     inkscape:pageopacity="0.0"
     inkscape:pagecheckerboard="0"
     inkscape:deskcolor="#d1d1d1"
     showgrid="false"
     inkscape:zoom="0.7182974"
     inkscape:cx="229.01378"
     inkscape:cy="517.89134"
     inkscape:window-width="1920"
     inkscape:window-height="1009"
     inkscape:window-x="-8"
     inkscape:window-y="1016"
     inkscape:window-maximized="1"
     inkscape:current-layer="Layer_1" />
  <defs
     id="defs4">
    <rect
       x="42.330088"
       y="897.79163"
       width="319.93671"
       height="27.563778"
       id="rect634" />
    <style
       id="style2">
      .cls-1 {
        fill: #799d3e;
      }

      .cls-2 {
        fill: #516ba8;
      }
    </style>
  </defs>
  <g
     id="g176">
    <path
       class="cls-2"
       d="m 74.41,147.03 c 0,4.03 -1.92,6.58 -5.09,7.39 5.18,0.53 7.87,3.94 7.87,8.93 0,5.38 -3.12,10.03 -13.54,10.03 -3.36,0 -10.47,-0.48 -10.47,-2.54 v -16.61 c 0,-3.17 -0.14,-12.05 -0.14,-13.44 0,-2.11 6.14,-2.93 9.84,-2.93 7.49,0 11.52,3.31 11.52,9.17 z m -17.14,6.1 h 6.05 c 5.14,0 6.87,-2.69 6.87,-6.14 0,-3.22 -1.49,-5.76 -7.34,-5.76 -2.11,0 -4.18,0.34 -5.52,0.82 0,3.84 -0.05,7.34 -0.05,11.09 z m 15.51,9.93 c 0,-3.17 -1.44,-6.67 -8.35,-6.67 h -7.15 v 12.91 c 1.78,0.43 4.61,0.77 6.77,0.77 6.67,0 8.74,-3.17 8.74,-7.01 z"
       id="path6" />
    <path
       class="cls-2"
       d="m 81.85,160.04 c 0,-10.22 5.14,-12.91 11.28,-12.91 6.14,0 11.33,2.69 11.33,12.91 0,10.22 -5.14,13.35 -11.33,13.35 -6.19,0 -11.28,-3.41 -11.28,-13.35 z m 18.19,0.19 c 0,-7.78 -3.07,-9.7 -6.91,-9.7 -3.84,0 -6.91,1.92 -6.91,9.7 0,7.78 3.12,9.99 6.91,9.99 3.79,0 6.91,-2.45 6.91,-9.99 z"
       id="path8" />
    <path
       class="cls-2"
       d="m 113.19,169.78 c 1.34,0.1 3.12,0.14 5.04,0.14 2.83,0 5.62,-0.1 7.2,-0.24 1.01,-0.05 1.34,0.14 1.49,2.26 0.1,0.62 -0.05,1.01 -0.96,1.15 -1.49,0.24 -4.66,0.29 -8.59,0.29 -3.93,0 -6.53,-0.05 -8.06,-0.29 -0.86,-0.14 -1.1,-0.48 -1.01,-1.15 0.05,-0.86 0.91,-2.88 1.63,-3.89 l 11.95,-17.33 c -1.34,-0.1 -3.17,-0.14 -5.04,-0.14 -2.69,0 -5.18,0.1 -6.67,0.24 -1.2,0.05 -1.3,-0.1 -1.49,-2.26 -0.1,-0.67 0.14,-1.06 0.96,-1.15 1.44,-0.19 5.04,-0.29 8.02,-0.29 2.98,0 6.77,0.1 8.16,0.29 0.77,0.1 1.06,0.48 0.96,1.2 -0.05,0.43 -0.29,1.87 -2.3,4.9 l -11.28,16.27 z m 4.51,-26.54 4.22,-2.59 c 0.91,-0.62 1.1,-0.62 1.54,-0.1 0.48,0.58 0.43,0.86 -0.38,1.44 l -4.94,3.98 c -0.19,0.14 -0.34,0.19 -0.43,0.19 -0.14,0 -0.29,-0.05 -0.48,-0.19 l -4.99,-3.98 c -0.77,-0.58 -0.82,-0.86 -0.34,-1.44 0.38,-0.53 0.58,-0.48 1.54,0.1 l 4.27,2.59 z"
       id="path10" />
    <path
       class="cls-2"
       d="m 134.98,161.48 c 0.43,7.44 4.27,8.69 7.87,8.69 3.02,0 5.04,-1.06 6.53,-1.73 0.82,-0.29 1.15,-0.19 1.44,0.53 l 0.43,1.06 c 0.24,0.62 0.1,0.86 -0.72,1.3 -1.49,0.77 -4.18,2.06 -8.07,2.06 -6.53,0 -11.76,-3.17 -11.76,-13.44 0,-10.27 5.09,-12.82 10.95,-12.82 5.86,0 10.18,2.45 10.18,11.91 0,1.49 -0.67,2.45 -2.4,2.45 h -14.45 z m -0.05,-2.83 h 13.11 c -0.05,-6.86 -2.88,-8.35 -6.38,-8.35 -3.5,0 -6.38,1.63 -6.72,8.35 z"
       id="path12" />
    <path
       class="cls-2"
       d="m 158.55,171.18 c 0.58,-2.21 1.01,-2.88 3.26,-2.88 1.2,0 1.92,0.29 1.92,1.06 0,0.53 -0.38,1.34 -1.15,2.4 l -3.98,5.47 c -0.48,0.62 -0.96,0.77 -1.49,0.62 -0.58,-0.19 -0.62,-0.58 -0.43,-1.25 z"
       id="path14" />
    <path
       class="cls-2"
       d="m 187.45,158.31 c 3.26,0 6.05,1.1 7.54,3.46 v -5.04 c 0,-5.28 -3.98,-6.05 -6.43,-6.05 -2.45,0 -5.23,0.77 -6.1,1.01 -0.77,0.29 -1.25,0.19 -1.58,-0.72 l -0.34,-0.91 c -0.38,-1.01 0.1,-1.39 0.86,-1.68 1.44,-0.53 4.51,-1.25 7.83,-1.25 3.74,0 9.89,0.91 9.89,9.17 v 14.11 c 0,2.35 -0.14,2.5 -2.3,2.5 -1.68,0 -1.82,-0.14 -1.82,-2.5 v -0.29 c -1.49,2.3 -4.37,3.26 -7.63,3.26 -5.23,0 -8.5,-2.74 -8.5,-7.44 0,-4.7 3.46,-7.63 8.59,-7.63 z m -4.18,7.58 c 0,2.93 1.92,4.94 5.62,4.94 3.7,0 6.1,-1.97 6.1,-4.94 0,-2.97 -2.3,-5.09 -6.05,-5.09 -3.75,0 -5.67,2.11 -5.67,5.09 z"
       id="path16" />
    <path
       class="cls-2"
       d="m 206.84,147.61 v -2.45 c 0,-4.18 1.58,-4.51 3.02,-4.51 1.25,0 1.2,0.14 1.2,2.59 v 4.37 h 5.9 c 0.72,0 1.44,0.14 1.44,1.34 v 0.82 c 0,1.15 -0.77,1.3 -1.44,1.3 h -5.95 v 14.83 c 0,2.74 1.06,4.13 3.31,4.13 1.44,0 2.64,-0.62 3.26,-0.91 0.62,-0.19 1.01,-0.19 1.39,0.72 l 0.24,0.96 c 0.34,0.82 0.05,1.1 -0.77,1.44 -0.82,0.38 -2.74,1.15 -5.04,1.15 -4.51,0 -6.48,-2.35 -6.48,-6.72 0,-5.95 -0.1,-10.85 -0.1,-15.6 h -2.26 c -0.72,0 -1.44,-0.14 -1.44,-1.3 v -0.82 c 0,-1.2 0.67,-1.34 1.44,-1.34 h 2.26 z m 8.73,-8.02 c 0.53,-1.73 0.91,-2.21 2.78,-2.21 0.96,0 1.54,0.24 1.54,0.82 0,0.43 -0.29,1.01 -0.96,1.82 l -3.55,4.7 c -0.43,0.48 -0.82,0.62 -1.3,0.48 -0.43,-0.1 -0.43,-0.43 -0.29,-0.96 l 1.78,-4.66 z"
       id="path18" />
    <path
       class="cls-2"
       d="m 247.4,141.8 c -0.05,4.22 -0.1,8.31 -0.1,12.63 v 16.18 c 0,2.16 -0.24,2.3 -2.5,2.3 -1.73,0 -1.82,-0.29 -1.82,-2.45 v -16.03 c 0,-2.64 -0.1,-9.17 -0.14,-12.63 h -9.31 c -0.67,0 -1.25,-0.14 -1.39,-1.15 l -0.1,-0.86 c -0.1,-1.15 0.24,-1.44 1.25,-1.44 h 23.62 c 1.01,0 1.39,0.29 1.25,1.44 l -0.1,0.86 c -0.14,1.01 -0.72,1.15 -1.39,1.15 h -9.26 z"
       id="path20" />
    <path
       class="cls-2"
       d="m 270.1,149.33 c 0,-1.68 0.05,-1.73 1.87,-1.73 2.11,0 2.3,0.1 2.3,1.97 0,10.46 -4.46,17.91 -7.73,22.13 -0.77,1.1 -1.2,1.2 -2.54,1.2 -1.25,0 -1.63,-0.1 -2.4,-1.15 -3.26,-4.27 -7.73,-11.71 -7.73,-22.18 0,-1.87 0.19,-1.97 2.02,-1.97 2.02,0 2.16,0.05 2.16,1.73 0,11.04 5.76,19.59 6,19.59 0.19,0 6.05,-8.59 6.05,-19.59 z"
       id="path22" />
    <path
       class="cls-2"
       d="m 287.19,158.31 c 3.26,0 6.05,1.1 7.54,3.46 v -5.04 c 0,-5.28 -3.98,-6.05 -6.43,-6.05 -2.45,0 -5.23,0.77 -6.1,1.01 -0.77,0.29 -1.25,0.19 -1.58,-0.72 l -0.34,-0.91 c -0.38,-1.01 0.1,-1.39 0.86,-1.68 1.44,-0.53 4.51,-1.25 7.82,-1.25 3.74,0 9.89,0.91 9.89,9.17 v 14.11 c 0,2.35 -0.14,2.5 -2.3,2.5 -1.68,0 -1.82,-0.14 -1.82,-2.5 v -0.29 c -1.49,2.3 -4.37,3.26 -7.63,3.26 -5.23,0 -8.5,-2.74 -8.5,-7.44 0,-4.7 3.46,-7.63 8.59,-7.63 z m -4.18,7.58 c 0,2.93 1.92,4.94 5.62,4.94 3.7,0 6.1,-1.97 6.1,-4.94 0,-2.97 -2.3,-5.09 -6.05,-5.09 -3.75,0 -5.66,2.11 -5.66,5.09 z m 9.27,-26.83 c 0.53,-0.72 1.44,-1.01 2.26,-0.1 0.86,0.96 0.62,1.68 0.05,2.02 l -5.14,4.22 c -0.91,0.53 -1.49,-0.1 -0.91,-0.77 l 3.74,-5.38 z"
       id="path24" />
    <path
       class="cls-2"
       d="m 321.27,154.42 v 15.99 c 0,2.35 -0.19,2.5 -2.35,2.5 -1.68,0 -1.82,-0.14 -1.82,-2.5 v -15.99 c 0,-3.41 -0.14,-14.02 -0.14,-15.79 0,-1.39 0.1,-1.49 2.45,-1.49 1.87,0 1.97,0.05 1.97,2.11 0,4.8 -0.1,10.27 -0.1,15.17 z"
       id="path26" />
    <path
       class="cls-2"
       d="m 335.48,158.31 c 3.26,0 6.05,1.1 7.54,3.46 v -5.04 c 0,-5.28 -3.98,-6.05 -6.43,-6.05 -2.45,0 -5.23,0.77 -6.1,1.01 -0.77,0.29 -1.25,0.19 -1.58,-0.72 l -0.34,-0.91 c -0.38,-1.01 0.1,-1.39 0.86,-1.68 1.44,-0.53 4.51,-1.25 7.82,-1.25 3.74,0 9.89,0.91 9.89,9.17 v 14.11 c 0,2.35 -0.14,2.5 -2.3,2.5 -1.68,0 -1.82,-0.14 -1.82,-2.5 v -0.29 c -1.49,2.3 -4.37,3.26 -7.63,3.26 -5.23,0 -8.5,-2.74 -8.5,-7.44 0,-4.7 3.46,-7.63 8.59,-7.63 z m -4.18,7.58 c 0,2.93 1.92,4.94 5.62,4.94 3.7,0 6.1,-1.97 6.1,-4.94 0,-2.97 -2.3,-5.09 -6.05,-5.09 -3.75,0 -5.66,2.11 -5.66,5.09 z m 9.27,-26.83 c 0.53,-0.72 1.44,-1.01 2.26,-0.1 0.86,0.96 0.62,1.68 0.05,2.02 l -5.14,4.22 c -0.91,0.53 -1.49,-0.1 -0.91,-0.77 l 3.74,-5.38 z"
       id="path28" />
    <path
       class="cls-2"
       d="m 365.96,166.18 c 0,-6.48 -13.06,-2.54 -13.06,-11.95 0,-5.86 5.09,-7.1 9.12,-7.1 3.02,0 5.86,0.62 6.87,1.01 0.96,0.34 1.2,0.67 0.91,1.49 l -0.38,1.01 c -0.24,0.82 -0.86,0.72 -1.63,0.48 -1.01,-0.24 -3.02,-0.82 -5.57,-0.82 -2.74,0 -5.33,0.77 -5.33,3.74 0,6.38 13.11,2.21 13.11,11.95 0,6.29 -5.38,7.39 -9.41,7.39 -2.74,0 -6.72,-0.53 -7.63,-0.82 -0.82,-0.24 -1.15,-0.53 -0.86,-1.49 l 0.19,-0.82 c 0.24,-0.91 0.58,-1.01 1.44,-0.86 0.62,0.1 4.03,0.82 6.67,0.82 2.98,0 5.57,-0.96 5.57,-4.03 z"
       id="path30" />
    <path
       class="cls-2"
       d="m 379.78,154.42 v 4.56 l 9.7,-10.13 c 0.67,-1.2 0.91,-1.25 3.84,-1.25 0.91,0 1.34,0.05 1.34,0.43 0,0.29 -0.29,0.82 -0.91,1.63 l -10.13,9.94 9.94,11.14 c 0.62,0.82 0.96,1.34 0.96,1.68 0,0.38 -0.43,0.48 -1.34,0.48 -2.93,0 -3.12,-0.05 -3.89,-1.34 l -9.5,-11.09 v 9.94 c 0,2.3 -0.14,2.5 -2.35,2.5 -1.68,0 -1.82,-0.24 -1.82,-2.5 v -15.99 c 0,-3.41 -0.14,-14.02 -0.14,-15.79 0,-1.39 0.1,-1.49 2.45,-1.49 1.87,0 1.97,0.05 1.97,2.11 0,4.8 -0.1,10.27 -0.1,15.17 z"
       id="path32" />
    <path
       class="cls-2"
       d="m 406.85,158.31 c 3.26,0 6.05,1.1 7.54,3.46 v -5.04 c 0,-5.28 -3.98,-6.05 -6.43,-6.05 -2.45,0 -5.23,0.77 -6.1,1.01 -0.77,0.29 -1.25,0.19 -1.58,-0.72 l -0.34,-0.91 c -0.38,-1.01 0.1,-1.39 0.86,-1.68 1.44,-0.53 4.51,-1.25 7.83,-1.25 3.74,0 9.89,0.91 9.89,9.17 v 14.11 c 0,2.35 -0.14,2.5 -2.3,2.5 -1.68,0 -1.82,-0.14 -1.82,-2.5 v -0.29 c -1.49,2.3 -4.37,3.26 -7.63,3.26 -5.23,0 -8.5,-2.74 -8.5,-7.44 0,-4.7 3.46,-7.63 8.59,-7.63 z m -4.18,7.58 c 0,2.93 1.92,4.94 5.62,4.94 3.7,0 6.1,-1.97 6.1,-4.94 0,-2.97 -2.3,-5.09 -6.05,-5.09 -3.75,0 -5.67,2.11 -5.67,5.09 z"
       id="path34" />
    <path
       class="cls-2"
       d="m 426.24,171.18 c 0.58,-2.21 1.01,-2.88 3.26,-2.88 1.2,0 1.92,0.29 1.92,1.06 0,0.53 -0.38,1.34 -1.15,2.4 l -3.98,5.47 c -0.48,0.62 -0.96,0.77 -1.49,0.62 -0.58,-0.19 -0.62,-0.58 -0.43,-1.25 z"
       id="path36" />
    <path
       class="cls-2"
       d="m 52.95,206.69 c 0,-1.39 0.1,-1.49 2.45,-1.49 1.87,0 1.97,0.05 1.97,2.11 v 3.36 c 1.34,-3.84 4.08,-5.95 8.16,-5.95 5.47,0 9.7,3.6 9.7,13.15 0,9.55 -4.13,13.1 -9.7,13.1 -4.22,0 -6.96,-2.35 -8.26,-6.29 v 13.39 c 0,2.3 -0.14,2.5 -2.35,2.5 -1.68,0 -1.82,-0.24 -1.82,-2.5 v -15.6 c 0,-3.41 -0.14,-14.02 -0.14,-15.79 z m 17.91,11.33 c 0,-6.72 -2.59,-9.75 -6.38,-9.75 -4.13,0 -7.15,3.07 -7.15,9.7 0,5.9 2.98,9.75 7.15,9.75 3.74,0 6.38,-2.98 6.38,-9.7 z"
       id="path38" />
    <path
       class="cls-2"
       d="m 80.17,217.64 c 0,-10.22 5.14,-12.91 11.28,-12.91 6.14,0 11.33,2.69 11.33,12.91 0,10.22 -5.14,13.35 -11.33,13.35 -6.19,0 -11.28,-3.41 -11.28,-13.35 z m 18.19,0.19 c 0,-7.78 -3.07,-9.7 -6.91,-9.7 -3.84,0 -6.91,1.92 -6.91,9.7 0,7.78 3.12,9.98 6.91,9.98 3.79,0 6.91,-2.45 6.91,-9.98 z"
       id="path40" />
    <path
       class="cls-2"
       d="m 113.19,212.02 v 4.56 l 9.7,-10.13 c 0.67,-1.2 0.91,-1.25 3.84,-1.25 0.91,0 1.34,0.05 1.34,0.43 0,0.29 -0.29,0.82 -0.91,1.63 l -10.13,9.94 9.94,11.14 c 0.62,0.82 0.96,1.34 0.96,1.68 0,0.38 -0.43,0.48 -1.34,0.48 -2.93,0 -3.12,-0.05 -3.89,-1.34 l -9.5,-11.09 v 9.94 c 0,2.3 -0.14,2.5 -2.35,2.5 -1.68,0 -1.82,-0.24 -1.82,-2.5 v -15.99 c 0,-3.41 -0.14,-14.02 -0.14,-15.79 0,-1.39 0.1,-1.49 2.45,-1.49 1.87,0 1.97,0.05 1.97,2.11 0,4.8 -0.1,10.27 -0.1,15.17 z"
       id="path42" />
    <path
       class="cls-2"
       d="m 132.29,217.64 c 0,-10.22 5.14,-12.91 11.28,-12.91 6.14,0 11.33,2.69 11.33,12.91 0,10.22 -5.14,13.35 -11.33,13.35 -6.19,0 -11.28,-3.41 -11.28,-13.35 z m 18.2,0.19 c 0,-7.78 -3.07,-9.7 -6.91,-9.7 -3.84,0 -6.91,1.92 -6.91,9.7 0,7.78 3.12,9.98 6.91,9.98 3.79,0 6.91,-2.45 6.91,-9.98 z"
       id="path44" />
    <path
       class="cls-2"
       d="m 165.13,222.49 v 7.1 c 0,9.07 -2.06,11.76 -6.86,11.76 -1.68,0 -3.55,-0.48 -4.46,-0.86 -0.58,-0.19 -0.77,-0.62 -0.53,-1.34 l 0.34,-1.06 c 0.24,-0.77 0.62,-0.91 1.1,-0.77 0.58,0.19 1.63,0.48 2.74,0.48 3.22,0 3.5,-2.4 3.5,-8.21 v -7.1 c 0,-3.41 -0.14,-14.02 -0.14,-15.79 0,-1.39 0.1,-1.49 2.45,-1.49 1.87,0 1.97,0.05 1.97,2.11 0,4.8 -0.1,10.27 -0.1,15.17 z m -4.42,-21.8 c 0,-2.35 0.86,-2.54 2.54,-2.54 2.06,0 2.3,0.19 2.3,1.63 v 0.62 c 0,2.35 -0.86,2.59 -2.54,2.59 -2.06,0 -2.3,-0.24 -2.3,-1.68 z"
       id="path46" />
    <path
       class="cls-2"
       d="m 190.37,215.91 c 3.26,0 6.05,1.1 7.54,3.46 v -5.04 c 0,-5.28 -3.98,-6.05 -6.43,-6.05 -2.45,0 -5.23,0.77 -6.1,1.01 -0.77,0.29 -1.25,0.19 -1.58,-0.72 l -0.34,-0.91 c -0.38,-1.01 0.1,-1.39 0.86,-1.68 1.44,-0.53 4.51,-1.25 7.83,-1.25 3.74,0 9.89,0.91 9.89,9.17 v 14.11 c 0,2.35 -0.14,2.5 -2.3,2.5 -1.68,0 -1.82,-0.14 -1.82,-2.5 v -0.29 c -1.49,2.3 -4.37,3.26 -7.63,3.26 -5.23,0 -8.5,-2.74 -8.5,-7.44 0,-4.7 3.46,-7.63 8.59,-7.63 z m -4.17,7.59 c 0,2.93 1.92,4.94 5.62,4.94 3.7,0 6.1,-1.97 6.1,-4.94 0,-2.97 -2.3,-5.09 -6.05,-5.09 -3.75,0 -5.67,2.11 -5.67,5.09 z"
       id="path48" />
    <path
       class="cls-2"
       d="m 220.13,206.69 c 0,-1.39 0.1,-1.49 2.45,-1.49 1.87,0 1.97,0.05 1.97,2.11 v 3.36 c 1.34,-3.84 4.08,-5.95 8.16,-5.95 5.47,0 9.7,3.6 9.7,13.15 0,9.55 -4.13,13.1 -9.7,13.1 -4.22,0 -6.96,-2.35 -8.26,-6.29 v 13.39 c 0,2.3 -0.14,2.5 -2.35,2.5 -1.68,0 -1.82,-0.24 -1.82,-2.5 v -15.6 c 0,-3.41 -0.14,-14.02 -0.14,-15.79 z m 17.91,11.33 c 0,-6.72 -2.59,-9.75 -6.38,-9.75 -4.13,0 -7.15,3.07 -7.15,9.7 0,5.9 2.98,9.75 7.15,9.75 3.74,0 6.38,-2.98 6.38,-9.7 z"
       id="path50" />
    <path
       class="cls-2"
       d="m 247.35,217.64 c 0,-10.22 5.14,-12.91 11.28,-12.91 6.14,0 11.33,2.69 11.33,12.91 0,10.22 -5.14,13.35 -11.33,13.35 -6.19,0 -11.28,-3.41 -11.28,-13.35 z m 18.19,0.19 c 0,-7.78 -3.07,-9.7 -6.91,-9.7 -3.84,0 -6.91,1.92 -6.91,9.7 0,7.78 3.12,9.98 6.91,9.98 3.79,0 6.91,-2.45 6.91,-9.98 z"
       id="path52" />
    <path
       class="cls-2"
       d="m 278.69,227.38 c 1.34,0.1 3.12,0.14 5.04,0.14 2.83,0 5.62,-0.1 7.2,-0.24 1.01,-0.05 1.34,0.14 1.49,2.26 0.1,0.62 -0.05,1.01 -0.96,1.15 -1.49,0.24 -4.66,0.29 -8.59,0.29 -3.93,0 -6.53,-0.05 -8.06,-0.29 -0.86,-0.14 -1.1,-0.48 -1.01,-1.15 0.05,-0.86 0.91,-2.88 1.63,-3.89 l 11.95,-17.33 c -1.34,-0.1 -3.17,-0.14 -5.04,-0.14 -2.69,0 -5.18,0.1 -6.67,0.24 -1.2,0.05 -1.3,-0.1 -1.49,-2.26 -0.1,-0.67 0.14,-1.06 0.96,-1.15 1.44,-0.19 5.04,-0.29 8.02,-0.29 2.98,0 6.77,0.1 8.16,0.29 0.77,0.1 1.06,0.48 0.96,1.2 -0.05,0.43 -0.29,1.87 -2.3,4.9 l -11.28,16.27 z m 4.52,-26.54 4.22,-2.59 c 0.91,-0.62 1.1,-0.62 1.54,-0.1 0.48,0.58 0.43,0.86 -0.38,1.44 l -4.94,3.98 c -0.19,0.14 -0.34,0.19 -0.43,0.19 -0.14,0 -0.29,-0.05 -0.48,-0.19 l -4.99,-3.98 c -0.77,-0.58 -0.82,-0.86 -0.34,-1.44 0.38,-0.53 0.58,-0.48 1.54,0.1 l 4.27,2.59 z"
       id="path54" />
    <path
       class="cls-2"
       d="m 300.48,219.08 c 0.43,7.44 4.27,8.69 7.87,8.69 3.02,0 5.04,-1.06 6.53,-1.73 0.82,-0.29 1.15,-0.19 1.44,0.53 l 0.43,1.06 c 0.24,0.62 0.1,0.86 -0.72,1.3 -1.49,0.77 -4.18,2.06 -8.07,2.06 -6.53,0 -11.76,-3.17 -11.76,-13.44 0,-10.27 5.09,-12.82 10.95,-12.82 5.86,0 10.18,2.45 10.18,11.91 0,1.49 -0.67,2.45 -2.4,2.45 h -14.45 z m -0.04,-2.83 h 13.11 c -0.05,-6.86 -2.88,-8.35 -6.38,-8.35 -3.5,0 -6.38,1.63 -6.72,8.35 z"
       id="path56" />
    <path
       class="cls-2"
       d="m 335.67,208.61 c -4.03,0 -7.78,3.31 -7.97,10.94 V 228 c 0,2.3 -0.14,2.5 -2.35,2.5 -1.68,0 -1.82,-0.24 -1.82,-2.5 v -15.99 c 0,-3.41 -0.14,-14.02 -0.14,-15.79 0,-1.39 0.1,-1.49 2.45,-1.49 1.87,0 1.97,0.05 1.97,2.11 0,4.8 -0.1,10.27 -0.1,15.17 v 1.3 c 1.15,-5.86 5.66,-8.59 9.98,-8.59 4.32,0 6.53,2.26 6.53,8.54 0,3.41 -0.1,6.91 -0.1,10.32 V 228 c 0,2.35 -0.19,2.5 -2.3,2.5 -1.73,0 -1.87,-0.14 -1.87,-2.5 v -13.97 c 0,-3.55 -1.15,-5.42 -4.27,-5.42 z"
       id="path58" />
    <path
       class="cls-2"
       d="m 369.56,230.5 c -1.68,0 -1.82,-0.14 -1.82,-2.5 v -13.97 c 0,-3.41 -1.06,-5.33 -4.27,-5.33 -3.89,0 -7.44,2.93 -7.97,9.7 v 9.6 c 0,2.35 -0.19,2.5 -2.35,2.5 -1.68,0 -1.82,-0.14 -1.82,-2.5 v -5.52 c 0,-3.41 -0.14,-14.02 -0.14,-15.79 0,-1.39 0.1,-1.49 2.4,-1.49 1.92,0 2.02,0.05 2.02,2.11 0,1.54 0,3.17 -0.05,4.9 1.54,-5.09 5.81,-7.49 9.89,-7.49 4.08,0 6.53,2.26 6.53,8.54 0,3.41 -0.1,6.91 -0.1,10.32 V 228 c 0,2.35 -0.14,2.5 -2.3,2.5 z"
       id="path60" />
    <path
       class="cls-2"
       d="m 385.92,215.91 c 3.26,0 6.05,1.1 7.54,3.46 v -5.04 c 0,-5.28 -3.98,-6.05 -6.43,-6.05 -2.45,0 -5.23,0.77 -6.1,1.01 -0.77,0.29 -1.25,0.19 -1.58,-0.72 l -0.34,-0.91 c -0.38,-1.01 0.1,-1.39 0.86,-1.68 1.44,-0.53 4.51,-1.25 7.82,-1.25 3.74,0 9.89,0.91 9.89,9.17 v 14.11 c 0,2.35 -0.14,2.5 -2.3,2.5 -1.68,0 -1.82,-0.14 -1.82,-2.5 v -0.29 c -1.49,2.3 -4.37,3.26 -7.63,3.26 -5.23,0 -8.5,-2.74 -8.5,-7.44 0,-4.7 3.46,-7.63 8.59,-7.63 z m -4.17,7.59 c 0,2.93 1.92,4.94 5.62,4.94 3.7,0 6.1,-1.97 6.1,-4.94 0,-2.97 -2.3,-5.09 -6.05,-5.09 -3.75,0 -5.66,2.11 -5.66,5.09 z m 9.26,-26.84 c 0.53,-0.72 1.44,-1.01 2.26,-0.1 0.86,0.96 0.62,1.68 0.05,2.02 l -5.14,4.22 c -0.91,0.53 -1.49,-0.1 -0.91,-0.77 l 3.74,-5.38 z"
       id="path62" />
    <path
       class="cls-2"
       d="m 423.03,230.5 c -1.68,0 -1.82,-0.14 -1.82,-2.5 v -13.97 c 0,-3.41 -1.06,-5.33 -4.27,-5.33 -3.89,0 -7.44,2.93 -7.97,9.7 v 9.6 c 0,2.35 -0.19,2.5 -2.35,2.5 -1.68,0 -1.82,-0.14 -1.82,-2.5 v -5.52 c 0,-3.41 -0.14,-14.02 -0.14,-15.79 0,-1.39 0.1,-1.49 2.4,-1.49 1.92,0 2.02,0.05 2.02,2.11 0,1.54 0,3.17 -0.05,4.9 1.54,-5.09 5.81,-7.49 9.89,-7.49 4.08,0 6.53,2.26 6.53,8.54 0,3.41 -0.1,6.91 -0.1,10.32 V 228 c 0,2.35 -0.14,2.5 -2.3,2.5 z"
       id="path64" />
    <path
       class="cls-2"
       d="m 436.85,222.49 v 5.52 c 0,2.35 -0.19,2.5 -2.3,2.5 -1.73,0 -1.87,-0.14 -1.87,-2.5 v -5.52 c 0,-3.41 -0.14,-14.02 -0.14,-15.79 0,-1.39 0.1,-1.49 2.45,-1.49 1.87,0 1.97,0.05 1.97,2.11 0,4.8 -0.1,10.27 -0.1,15.17 z m 1.3,-25.93 c 0.53,-0.72 1.44,-1.01 2.26,-0.1 0.86,0.96 0.62,1.68 0.05,2.02 l -5.14,4.22 c -0.91,0.53 -1.49,-0.1 -0.91,-0.77 l 3.74,-5.38 z"
       id="path66" />
    <path
       class="cls-2"
       d="m 444.96,228.78 c 0.58,-2.21 1.01,-2.88 3.26,-2.88 1.2,0 1.92,0.29 1.92,1.06 0,0.53 -0.38,1.34 -1.15,2.4 l -3.98,5.47 c -0.48,0.62 -0.96,0.77 -1.49,0.62 -0.58,-0.19 -0.62,-0.58 -0.43,-1.25 z"
       id="path68" />
    <path
       class="cls-2"
       d="m 53.62,262.81 v -2.45 c 0,-4.18 1.58,-4.51 3.02,-4.51 1.25,0 1.2,0.14 1.2,2.59 v 4.37 h 5.9 c 0.72,0 1.44,0.14 1.44,1.34 v 0.82 c 0,1.15 -0.77,1.3 -1.44,1.3 h -5.95 v 14.83 c 0,2.74 1.06,4.13 3.31,4.13 1.44,0 2.64,-0.62 3.26,-0.91 0.62,-0.19 1.01,-0.19 1.39,0.72 l 0.24,0.96 c 0.34,0.82 0.05,1.1 -0.77,1.44 -0.82,0.38 -2.74,1.15 -5.04,1.15 -4.51,0 -6.48,-2.35 -6.48,-6.72 0,-5.95 -0.1,-10.85 -0.1,-15.6 h -2.26 c -0.72,0 -1.44,-0.14 -1.44,-1.3 v -0.82 c 0,-1.2 0.67,-1.34 1.44,-1.34 h 2.26 z"
       id="path70" />
    <path
       class="cls-2"
       d="m 85.26,265.21 c 0,-2.35 0.1,-2.4 2.02,-2.4 2.21,0 2.21,0.1 2.21,2.06 0,5.18 -0.1,9.98 -0.67,14.26 -1.73,12.48 -6.91,19.63 -16.71,19.63 -1.25,0 -2.26,-0.14 -3.12,-0.34 -0.77,-0.14 -1.1,-0.34 -0.96,-1.15 l 0.24,-1.3 c 0.19,-0.86 0.58,-0.91 1.2,-0.82 0.48,0 1.49,0.14 2.3,0.14 7.2,0 10.66,-4.37 12.53,-14.02 -2.21,6.34 -4.8,7.3 -6.67,7.3 -8.26,0 -8.3,-15.27 -8.3,-23.67 0,-2.02 0,-2.11 2.26,-2.11 1.92,0 1.97,0.05 1.97,2.4 v 4.03 c 0,4.51 0.77,15.75 5.62,15.75 4.85,0 6.1,-11.14 6.1,-15.75 v -4.03 z"
       id="path72" />
    <path
       class="cls-2"
       d="m 96.82,286.38 c 0.58,-2.21 1.01,-2.88 3.26,-2.88 1.2,0 1.92,0.29 1.92,1.06 0,0.53 -0.38,1.34 -1.15,2.4 l -3.98,5.47 c -0.48,0.62 -0.96,0.77 -1.49,0.62 -0.58,-0.19 -0.62,-0.58 -0.43,-1.25 z"
       id="path74" />
    <path
       class="cls-2"
       d="m 123.17,269.62 v 4.56 l 9.7,-10.13 c 0.67,-1.2 0.91,-1.25 3.84,-1.25 0.91,0 1.34,0.05 1.34,0.43 0,0.29 -0.29,0.82 -0.91,1.63 l -10.13,9.94 9.94,11.14 c 0.62,0.82 0.96,1.34 0.96,1.68 0,0.38 -0.43,0.48 -1.34,0.48 -2.93,0 -3.12,-0.05 -3.89,-1.34 l -9.5,-11.09 v 9.94 c 0,2.3 -0.14,2.5 -2.35,2.5 -1.68,0 -1.82,-0.24 -1.82,-2.5 v -15.99 c 0,-3.41 -0.14,-14.02 -0.14,-15.79 0,-1.39 0.1,-1.49 2.45,-1.49 1.87,0 1.97,0.05 1.97,2.11 0,4.8 -0.1,10.27 -0.1,15.17 z"
       id="path76" />
    <path
       class="cls-2"
       d="m 151.93,262.33 c 4.22,0 6.91,2.16 8.26,6.14 -0.05,-4.18 -0.14,-13.01 -0.14,-14.64 0,-1.39 0.1,-1.49 2.45,-1.49 1.87,0 1.97,0.05 1.97,2.11 0,4.8 -0.1,10.27 -0.1,15.17 v 15.99 c 0,2.35 -0.19,2.5 -2.3,2.5 -1.73,0 -1.87,-0.14 -1.87,-2.5 v -3.31 c -1.34,3.94 -4.03,6.29 -8.26,6.29 -5.57,0 -9.7,-3.6 -9.7,-13.1 0,-9.5 4.22,-13.15 9.7,-13.15 z m 8.2,13.24 c 0,-6.62 -3.02,-9.7 -7.15,-9.7 -3.79,0 -6.43,3.02 -6.43,9.75 0,6.73 2.69,9.7 6.43,9.7 4.18,0 7.15,-3.84 7.15,-9.75 z"
       id="path78" />
    <path
       class="cls-2"
       d="m 170.55,275.24 c 0,-10.22 5.14,-12.91 11.28,-12.91 6.14,0 11.33,2.69 11.33,12.91 0,10.22 -5.14,13.35 -11.33,13.35 -6.19,0 -11.28,-3.41 -11.28,-13.35 z m 18.19,0.19 c 0,-7.78 -3.07,-9.7 -6.91,-9.7 -3.84,0 -6.91,1.92 -6.91,9.7 0,7.78 3.12,9.99 6.91,9.99 3.79,0 6.91,-2.45 6.91,-9.99 z"
       id="path80" />
    <path
       class="cls-2"
       d="m 212.93,284.98 c 1.34,0.1 3.12,0.14 5.04,0.14 2.83,0 5.62,-0.1 7.2,-0.24 1.01,-0.05 1.34,0.14 1.49,2.26 0.1,0.62 -0.05,1.01 -0.96,1.15 -1.49,0.24 -4.66,0.29 -8.59,0.29 -3.93,0 -6.53,-0.05 -8.06,-0.29 -0.86,-0.14 -1.1,-0.48 -1.01,-1.15 0.05,-0.86 0.91,-2.88 1.63,-3.89 l 11.95,-17.33 c -1.34,-0.1 -3.17,-0.14 -5.04,-0.14 -2.69,0 -5.18,0.1 -6.67,0.24 -1.2,0.05 -1.3,-0.1 -1.49,-2.26 -0.1,-0.67 0.14,-1.06 0.96,-1.15 1.44,-0.19 5.04,-0.29 8.02,-0.29 2.98,0 6.77,0.1 8.16,0.29 0.77,0.1 1.06,0.48 0.96,1.2 -0.05,0.43 -0.29,1.87 -2.3,4.9 l -11.28,16.27 z"
       id="path82" />
    <path
       class="cls-2"
       d="m 240.1,262.33 c 4.22,0 6.91,2.16 8.26,6.14 -0.05,-4.18 -0.14,-13.01 -0.14,-14.64 0,-1.39 0.1,-1.49 2.45,-1.49 1.87,0 1.97,0.05 1.97,2.11 0,4.8 -0.1,10.27 -0.1,15.17 v 15.99 c 0,2.35 -0.19,2.5 -2.3,2.5 -1.73,0 -1.87,-0.14 -1.87,-2.5 v -3.31 c -1.34,3.94 -4.03,6.29 -8.26,6.29 -5.57,0 -9.7,-3.6 -9.7,-13.1 0,-9.5 4.22,-13.15 9.7,-13.15 z m 8.21,13.24 c 0,-6.62 -3.02,-9.7 -7.15,-9.7 -3.79,0 -6.43,3.02 -6.43,9.75 0,6.73 2.69,9.7 6.43,9.7 4.18,0 7.15,-3.84 7.15,-9.75 z"
       id="path84" />
    <path
       class="cls-2"
       d="m 263,276.68 c 0.43,7.44 4.27,8.69 7.87,8.69 3.02,0 5.04,-1.06 6.53,-1.73 0.82,-0.29 1.15,-0.19 1.44,0.53 l 0.43,1.06 c 0.24,0.62 0.1,0.86 -0.72,1.3 -1.49,0.77 -4.18,2.06 -8.07,2.06 -6.53,0 -11.76,-3.17 -11.76,-13.44 0,-10.27 5.09,-12.82 10.95,-12.82 5.86,0 10.18,2.45 10.18,11.91 0,1.49 -0.67,2.45 -2.4,2.45 H 263 Z m -0.05,-2.83 h 13.11 c -0.05,-6.86 -2.88,-8.35 -6.38,-8.35 -3.5,0 -6.38,1.63 -6.72,8.35 z"
       id="path86" />
    <path
       class="cls-2"
       d="m 296.93,264.29 c 0,-1.39 0.1,-1.49 2.45,-1.49 1.87,0 1.97,0.05 1.97,2.11 v 3.36 c 1.34,-3.84 4.08,-5.95 8.16,-5.95 5.47,0 9.7,3.6 9.7,13.15 0,9.55 -4.13,13.1 -9.7,13.1 -4.22,0 -6.96,-2.35 -8.26,-6.29 v 13.39 c 0,2.3 -0.14,2.5 -2.35,2.5 -1.68,0 -1.82,-0.24 -1.82,-2.5 v -15.6 c 0,-3.41 -0.14,-14.02 -0.14,-15.79 z m 17.91,11.33 c 0,-6.72 -2.59,-9.75 -6.38,-9.75 -4.13,0 -7.15,3.07 -7.15,9.7 0,5.9 2.98,9.75 7.15,9.75 3.74,0 6.38,-2.98 6.38,-9.7 z"
       id="path88" />
    <path
       class="cls-2"
       d="m 329.48,268.66 c 1.54,-4.27 4.9,-6.34 8.26,-6.34 1.01,0 1.92,0.14 2.35,0.29 0.62,0.19 0.82,0.62 0.62,1.3 l -0.29,1.44 c -0.19,0.72 -0.53,0.86 -1.3,0.72 -0.48,-0.1 -1.44,-0.24 -2.11,-0.24 -3.07,0 -7.58,1.87 -7.63,13.49 v 6.29 c 0,2.3 -0.14,2.5 -2.3,2.5 -1.73,0 -1.82,-0.24 -1.82,-2.5 v -5.52 c 0,-3.41 -0.14,-14.02 -0.14,-15.79 0,-1.39 0.05,-1.49 2.45,-1.49 1.87,0 1.92,0.05 1.92,2.11 v 3.74 z"
       id="path90" />
    <path
       class="cls-2"
       d="m 351.84,273.51 c 3.26,0 6.05,1.1 7.54,3.46 v -5.04 c 0,-5.28 -3.98,-6.05 -6.43,-6.05 -2.45,0 -5.23,0.77 -6.1,1.01 -0.77,0.29 -1.25,0.19 -1.58,-0.72 l -0.34,-0.91 c -0.38,-1.01 0.1,-1.39 0.86,-1.68 1.44,-0.53 4.51,-1.25 7.83,-1.25 3.74,0 9.89,0.91 9.89,9.17 v 14.11 c 0,2.35 -0.14,2.5 -2.3,2.5 -1.68,0 -1.82,-0.14 -1.82,-2.5 v -0.29 c -1.49,2.3 -4.37,3.26 -7.63,3.26 -5.23,0 -8.5,-2.74 -8.5,-7.44 0,-4.7 3.46,-7.63 8.59,-7.63 z m -4.17,7.59 c 0,2.93 1.92,4.94 5.62,4.94 3.7,0 6.1,-1.97 6.1,-4.94 0,-2.97 -2.3,-5.09 -6.05,-5.09 -3.75,0 -5.67,2.11 -5.67,5.09 z"
       id="path92" />
    <path
       class="cls-2"
       d="m 381.12,285.27 c 1.73,0 3.74,-0.62 4.7,-0.91 0.86,-0.19 1.2,0 1.34,0.62 l 0.24,1.15 c 0.19,0.67 0.05,1.06 -0.77,1.34 -1.2,0.48 -3.65,1.1 -6.29,1.1 -7.25,0 -11.09,-4.27 -11.09,-13.15 0,-8.88 3.94,-13.1 11.09,-13.1 2.64,0 5.14,0.67 6.19,1.1 0.86,0.29 1.1,0.67 0.91,1.34 l -0.29,1.34 c -0.24,0.72 -0.67,0.77 -1.44,0.58 -0.96,-0.29 -2.78,-0.82 -4.61,-0.82 -4.94,0 -7.58,3.26 -7.58,9.65 0,6.39 2.64,9.75 7.58,9.75 z"
       id="path94" />
    <path
       class="cls-2"
       d="m 413.86,282.15 v 3.46 c 0,2.35 -0.19,2.5 -2.35,2.5 -1.68,0 -1.82,-0.14 -1.82,-2.5 v -3.07 c -1.68,4.13 -5.62,6.05 -9.17,6.05 -3.84,0 -7.39,-1.3 -7.39,-8.54 0,-1.39 0,-2.78 0.05,-4.22 -0.05,-4.37 -0.19,-8.78 -0.19,-10.9 0,-2.12 0,-2.11 2.4,-2.11 2.02,0 1.97,0.1 1.97,2.45 v 14.64 c 0,3.5 1.34,5.42 4.61,5.42 3.74,0 7.3,-3.17 7.68,-10.42 -0.05,-3.6 -0.1,-6.72 -0.1,-9.65 0,-2.35 0.1,-2.45 2.45,-2.45 1.87,0 1.97,0.1 1.97,2.45 0,4.7 -0.1,10.03 -0.1,16.9 z"
       id="path96" />
    <path
       class="cls-2"
       d="m 425.28,280.09 v 7.1 c 0,9.07 -2.06,11.76 -6.86,11.76 -1.68,0 -3.55,-0.48 -4.46,-0.86 -0.58,-0.19 -0.77,-0.62 -0.53,-1.34 l 0.34,-1.06 c 0.24,-0.77 0.62,-0.91 1.1,-0.77 0.58,0.19 1.63,0.48 2.74,0.48 3.22,0 3.5,-2.4 3.5,-8.21 v -7.1 c 0,-3.41 -0.14,-14.02 -0.14,-15.79 0,-1.39 0.1,-1.49 2.45,-1.49 1.87,0 1.97,0.05 1.97,2.11 0,4.8 -0.1,10.27 -0.1,15.17 z m -4.41,-21.8 c 0,-2.35 0.86,-2.54 2.54,-2.54 2.06,0 2.3,0.19 2.3,1.63 V 258 c 0,2.35 -0.86,2.59 -2.54,2.59 -2.06,0 -2.3,-0.24 -2.3,-1.68 z"
       id="path98" />
    <path
       class="cls-2"
       d="m 436.99,280.09 v 5.52 c 0,2.35 -0.19,2.5 -2.3,2.5 -1.73,0 -1.87,-0.14 -1.87,-2.5 v -5.52 c 0,-3.41 -0.14,-14.02 -0.14,-15.79 0,-1.39 0.1,-1.49 2.45,-1.49 1.87,0 1.97,0.05 1.97,2.11 0,4.8 -0.1,10.27 -0.1,15.17 z m 1.3,-25.93 c 0.53,-0.72 1.44,-1.01 2.26,-0.1 0.86,0.96 0.62,1.68 0.05,2.02 l -5.14,4.22 c -0.91,0.53 -1.49,-0.1 -0.91,-0.77 l 3.74,-5.38 z"
       id="path100" />
    <path
       class="cls-2"
       d="m 445.1,286.38 c 0.58,-2.21 1.01,-2.88 3.26,-2.88 1.2,0 1.92,0.29 1.92,1.06 0,0.53 -0.38,1.34 -1.15,2.4 l -3.98,5.47 c -0.48,0.62 -0.96,0.77 -1.49,0.62 -0.58,-0.19 -0.62,-0.58 -0.43,-1.25 z"
       id="path102" />
    <path
       class="cls-2"
       d="m 55.59,342.58 c 1.34,0.1 3.12,0.14 5.04,0.14 2.83,0 5.62,-0.1 7.2,-0.24 1.01,-0.05 1.34,0.14 1.49,2.26 0.1,0.62 -0.05,1.01 -0.96,1.15 -1.49,0.24 -4.66,0.29 -8.59,0.29 -3.93,0 -6.53,-0.05 -8.06,-0.29 -0.86,-0.14 -1.1,-0.48 -1.01,-1.15 0.05,-0.86 0.91,-2.88 1.63,-3.89 l 11.95,-17.33 c -1.34,-0.1 -3.17,-0.14 -5.04,-0.14 -2.69,0 -5.18,0.1 -6.67,0.24 -1.2,0.05 -1.3,-0.1 -1.49,-2.26 -0.1,-0.67 0.14,-1.06 0.96,-1.15 1.44,-0.19 5.04,-0.29 8.02,-0.29 2.98,0 6.77,0.1 8.16,0.29 0.77,0.1 1.06,0.48 0.96,1.2 -0.05,0.43 -0.29,1.87 -2.3,4.9 L 55.6,342.58 Z m 4.51,-26.54 4.22,-2.59 c 0.91,-0.62 1.1,-0.62 1.54,-0.1 0.48,0.58 0.43,0.86 -0.38,1.44 l -4.94,3.98 c -0.19,0.14 -0.34,0.19 -0.43,0.19 -0.14,0 -0.29,-0.05 -0.48,-0.19 l -4.99,-3.98 c -0.77,-0.58 -0.82,-0.86 -0.34,-1.44 0.38,-0.53 0.58,-0.48 1.54,0.1 l 4.27,2.59 z"
       id="path104" />
    <path
       class="cls-2"
       d="m 74.12,315.89 c 0,-2.35 0.86,-2.59 2.54,-2.59 2.11,0 2.35,0.24 2.35,1.68 v 0.62 c 0,2.35 -0.91,2.54 -2.59,2.54 -2.06,0 -2.3,-0.19 -2.3,-1.68 v -0.58 z m 0.14,6 c 0,-1.39 0.1,-1.49 2.45,-1.49 1.87,0 1.97,0.05 1.97,2.11 0,4.8 -0.1,10.27 -0.1,15.17 v 5.52 c 0,2.35 -0.19,2.5 -2.3,2.5 -1.73,0 -1.87,-0.14 -1.87,-2.5 v -5.52 c 0,-3.41 -0.14,-14.02 -0.14,-15.79 z"
       id="path106" />
    <path
       class="cls-2"
       d="m 90.15,337.69 v 7.1 c 0,9.07 -2.06,11.76 -6.86,11.76 -1.68,0 -3.55,-0.48 -4.46,-0.86 -0.58,-0.19 -0.77,-0.62 -0.53,-1.34 l 0.34,-1.06 c 0.24,-0.77 0.62,-0.91 1.1,-0.77 0.58,0.19 1.63,0.48 2.74,0.48 3.22,0 3.5,-2.4 3.5,-8.21 v -7.1 c 0,-3.41 -0.14,-14.02 -0.14,-15.79 0,-1.39 0.1,-1.49 2.45,-1.49 1.87,0 1.97,0.05 1.97,2.11 0,4.8 -0.1,10.27 -0.1,15.17 z m -4.42,-21.8 c 0,-2.35 0.86,-2.54 2.54,-2.54 2.06,0 2.3,0.19 2.3,1.63 v 0.62 c 0,2.35 -0.86,2.59 -2.54,2.59 -2.06,0 -2.3,-0.24 -2.3,-1.68 z"
       id="path108" />
    <path
       class="cls-2"
       d="m 101.86,337.69 v 5.52 c 0,2.35 -0.19,2.5 -2.3,2.5 -1.73,0 -1.87,-0.14 -1.87,-2.5 v -5.52 c 0,-3.41 -0.14,-14.02 -0.14,-15.79 0,-1.39 0.1,-1.49 2.45,-1.49 1.87,0 1.97,0.05 1.97,2.11 0,4.8 -0.1,10.27 -0.1,15.17 z m 1.3,-25.93 c 0.53,-0.72 1.44,-1.01 2.26,-0.1 0.86,0.96 0.62,1.68 0.05,2.02 l -5.14,4.22 c -0.91,0.53 -1.49,-0.1 -0.91,-0.77 l 3.74,-5.38 z"
       id="path110" />
    <path
       class="cls-2"
       d="m 127.21,331.11 c 3.26,0 6.05,1.1 7.54,3.46 v -5.04 c 0,-5.28 -3.98,-6.05 -6.43,-6.05 -2.45,0 -5.23,0.77 -6.1,1.01 -0.77,0.29 -1.25,0.19 -1.58,-0.72 l -0.34,-0.91 c -0.38,-1.01 0.1,-1.39 0.86,-1.68 1.44,-0.53 4.51,-1.25 7.83,-1.25 3.74,0 9.89,0.91 9.89,9.17 v 14.11 c 0,2.35 -0.14,2.5 -2.3,2.5 -1.68,0 -1.82,-0.14 -1.82,-2.5 v -0.29 c -1.49,2.3 -4.37,3.26 -7.63,3.26 -5.23,0 -8.5,-2.74 -8.5,-7.44 0,-4.7 3.46,-7.63 8.59,-7.63 z m -4.18,7.58 c 0,2.93 1.92,4.94 5.62,4.94 3.7,0 6.1,-1.97 6.1,-4.94 0,-2.97 -2.3,-5.09 -6.05,-5.09 -3.75,0 -5.67,2.11 -5.67,5.09 z"
       id="path112" />
    <path
       class="cls-2"
       d="m 157.64,320.41 v -2.45 c 0,-4.18 1.58,-4.51 3.02,-4.51 1.25,0 1.2,0.14 1.2,2.59 v 4.37 h 5.9 c 0.72,0 1.44,0.14 1.44,1.34 v 0.82 c 0,1.15 -0.77,1.3 -1.44,1.3 h -5.95 v 14.83 c 0,2.74 1.06,4.13 3.31,4.13 1.44,0 2.64,-0.62 3.26,-0.91 0.62,-0.19 1.01,-0.19 1.39,0.72 l 0.24,0.96 c 0.34,0.82 0.05,1.1 -0.77,1.44 -0.82,0.38 -2.74,1.15 -5.04,1.15 -4.51,0 -6.48,-2.35 -6.48,-6.72 0,-5.95 -0.1,-10.85 -0.1,-15.6 h -2.26 c -0.72,0 -1.44,-0.14 -1.44,-1.3 v -0.82 c 0,-1.2 0.67,-1.34 1.44,-1.34 h 2.26 z"
       id="path114" />
    <path
       class="cls-2"
       d="m 194.6,339.75 v 3.46 c 0,2.35 -0.19,2.5 -2.35,2.5 -1.68,0 -1.82,-0.14 -1.82,-2.5 v -3.07 c -1.68,4.13 -5.62,6.05 -9.17,6.05 -3.84,0 -7.39,-1.3 -7.39,-8.54 0,-1.39 0,-2.78 0.05,-4.22 -0.05,-4.37 -0.19,-8.78 -0.19,-10.9 0,-2.12 0,-2.11 2.4,-2.11 2.02,0 1.97,0.1 1.97,2.45 v 14.64 c 0,3.5 1.34,5.42 4.61,5.42 3.74,0 7.3,-3.17 7.68,-10.42 -0.05,-3.6 -0.1,-6.72 -0.1,-9.65 0,-2.35 0.1,-2.45 2.45,-2.45 1.87,0 1.97,0.1 1.97,2.45 0,4.7 -0.1,10.03 -0.1,16.9 z"
       id="path116" />
    <path
       class="cls-2"
       d="m 210.44,319.93 c 4.22,0 6.91,2.16 8.26,6.14 -0.05,-4.18 -0.14,-13.01 -0.14,-14.64 0,-1.39 0.1,-1.49 2.45,-1.49 1.87,0 1.97,0.05 1.97,2.11 0,4.8 -0.1,10.27 -0.1,15.17 v 15.99 c 0,2.35 -0.19,2.5 -2.3,2.5 -1.73,0 -1.87,-0.14 -1.87,-2.5 v -3.31 c -1.34,3.94 -4.03,6.29 -8.26,6.29 -5.57,0 -9.7,-3.6 -9.7,-13.1 0,-9.5 4.22,-13.15 9.7,-13.15 z m 8.21,13.24 c 0,-6.62 -3.02,-9.7 -7.15,-9.7 -3.79,0 -6.43,3.02 -6.43,9.75 0,6.73 2.69,9.7 6.43,9.7 4.18,0 7.15,-3.84 7.15,-9.75 z"
       id="path118" />
    <path
       class="cls-2"
       d="m 245.48,322.81 c 0,-2.35 0.1,-2.4 2.02,-2.4 2.21,0 2.21,0.1 2.21,2.06 0,5.18 -0.1,9.98 -0.67,14.26 -1.73,12.48 -6.91,19.63 -16.71,19.63 -1.25,0 -2.26,-0.14 -3.12,-0.34 -0.77,-0.14 -1.1,-0.34 -0.96,-1.15 l 0.24,-1.3 c 0.19,-0.86 0.58,-0.91 1.2,-0.82 0.48,0 1.49,0.14 2.3,0.14 7.2,0 10.66,-4.37 12.53,-14.02 -2.21,6.34 -4.8,7.3 -6.67,7.3 -8.26,0 -8.3,-15.27 -8.3,-23.67 0,-2.02 0,-2.11 2.26,-2.11 1.92,0 1.97,0.05 1.97,2.4 v 4.03 c 0,4.51 0.77,15.75 5.62,15.75 4.85,0 6.1,-11.14 6.1,-15.75 v -4.03 z"
       id="path120" />
    <path
       class="cls-2"
       d="m 267.41,321.89 c 0,-1.39 0.1,-1.49 2.45,-1.49 1.87,0 1.97,0.05 1.97,2.11 v 3.36 c 1.34,-3.84 4.08,-5.95 8.16,-5.95 5.47,0 9.7,3.6 9.7,13.15 0,9.55 -4.13,13.1 -9.7,13.1 -4.22,0 -6.96,-2.35 -8.26,-6.29 v 13.39 c 0,2.3 -0.14,2.5 -2.35,2.5 -1.68,0 -1.82,-0.24 -1.82,-2.5 v -15.6 c 0,-3.41 -0.14,-14.02 -0.14,-15.79 z m 17.91,11.33 c 0,-6.72 -2.59,-9.75 -6.38,-9.75 -4.13,0 -7.15,3.07 -7.15,9.7 0,5.9 2.98,9.75 7.15,9.75 3.74,0 6.38,-2.98 6.38,-9.7 z"
       id="path122" />
    <path
       class="cls-2"
       d="m 316.37,339.75 v 3.46 c 0,2.35 -0.19,2.5 -2.35,2.5 -1.68,0 -1.82,-0.14 -1.82,-2.5 v -3.07 c -1.68,4.13 -5.62,6.05 -9.17,6.05 -3.84,0 -7.39,-1.3 -7.39,-8.54 0,-1.39 0,-2.78 0.05,-4.22 -0.05,-4.37 -0.19,-8.78 -0.19,-10.9 0,-2.12 0,-2.11 2.4,-2.11 2.02,0 1.97,0.1 1.97,2.45 v 14.64 c 0,3.5 1.34,5.42 4.61,5.42 3.74,0 7.3,-3.17 7.68,-10.42 -0.05,-3.6 -0.1,-6.72 -0.1,-9.65 0,-2.35 0.1,-2.45 2.45,-2.45 1.87,0 1.97,0.1 1.97,2.45 0,4.7 -0.1,10.03 -0.1,16.9 z m -15.65,-25.54 c 0,-2.54 2.02,-4.46 5.14,-4.46 3.12,0 5.18,1.92 5.18,4.51 0,2.59 -2.02,4.27 -5.18,4.27 -3.16,0 -5.14,-1.78 -5.14,-4.32 z m 7.49,0 c 0,-1.34 -0.91,-2.35 -2.3,-2.35 -1.39,0 -2.35,1.01 -2.35,2.35 0,1.34 0.91,2.21 2.35,2.21 1.44,0 2.3,-0.91 2.3,-2.21 z"
       id="path124" />
    <path
       class="cls-2"
       d="m 327.79,337.69 v 7.1 c 0,9.07 -2.06,11.76 -6.86,11.76 -1.68,0 -3.55,-0.48 -4.46,-0.86 -0.58,-0.19 -0.77,-0.62 -0.53,-1.34 l 0.34,-1.06 c 0.24,-0.77 0.62,-0.91 1.1,-0.77 0.58,0.19 1.63,0.48 2.74,0.48 3.22,0 3.5,-2.4 3.5,-8.21 v -7.1 c 0,-3.41 -0.14,-14.02 -0.14,-15.79 0,-1.39 0.1,-1.49 2.45,-1.49 1.87,0 1.97,0.05 1.97,2.11 0,4.8 -0.1,10.27 -0.1,15.17 z m -4.41,-21.8 c 0,-2.35 0.86,-2.54 2.54,-2.54 2.06,0 2.3,0.19 2.3,1.63 v 0.62 c 0,2.35 -0.86,2.59 -2.54,2.59 -2.06,0 -2.3,-0.24 -2.3,-1.68 z"
       id="path126" />
    <path
       class="cls-2"
       d="m 343.68,319.93 c 4.22,0 6.91,2.16 8.26,6.14 -0.05,-4.18 -0.14,-13.01 -0.14,-14.64 0,-1.39 0.1,-1.49 2.45,-1.49 1.87,0 1.97,0.05 1.97,2.11 0,4.8 -0.1,10.27 -0.1,15.17 v 15.99 c 0,2.35 -0.19,2.5 -2.3,2.5 -1.73,0 -1.87,-0.14 -1.87,-2.5 v -3.31 c -1.34,3.94 -4.03,6.29 -8.26,6.29 -5.57,0 -9.7,-3.6 -9.7,-13.1 0,-9.5 4.22,-13.15 9.7,-13.15 z m 8.21,13.24 c 0,-6.62 -3.02,-9.7 -7.15,-9.7 -3.79,0 -6.43,3.02 -6.43,9.75 0,6.73 2.69,9.7 6.43,9.7 4.18,0 7.15,-3.84 7.15,-9.75 z"
       id="path128" />
    <path
       class="cls-2"
       d="m 362.3,332.84 c 0,-10.22 5.14,-12.91 11.28,-12.91 6.14,0 11.33,2.69 11.33,12.91 0,10.22 -5.14,13.35 -11.33,13.35 -6.19,0 -11.28,-3.41 -11.28,-13.35 z m 18.2,0.19 c 0,-7.78 -3.07,-9.7 -6.91,-9.7 -3.84,0 -6.91,1.92 -6.91,9.7 0,7.78 3.12,9.99 6.91,9.99 3.79,0 6.91,-2.45 6.91,-9.99 z"
       id="path130" />
    <path
       class="cls-2"
       d="m 411.65,339.75 v 3.46 c 0,2.35 -0.19,2.5 -2.35,2.5 -1.68,0 -1.82,-0.14 -1.82,-2.5 v -3.07 c -1.68,4.13 -5.62,6.05 -9.17,6.05 -3.84,0 -7.39,-1.3 -7.39,-8.54 0,-1.39 0,-2.78 0.05,-4.22 -0.05,-4.37 -0.19,-8.78 -0.19,-10.9 0,-2.12 0,-2.11 2.4,-2.11 2.02,0 1.97,0.1 1.97,2.45 v 14.64 c 0,3.5 1.34,5.42 4.61,5.42 3.74,0 7.3,-3.17 7.68,-10.42 -0.05,-3.6 -0.1,-6.72 -0.1,-9.65 0,-2.35 0.1,-2.45 2.45,-2.45 1.87,0 1.97,0.1 1.97,2.45 0,4.7 -0.1,10.03 -0.1,16.9 z"
       id="path132" />
    <path
       class="cls-2"
       d="m 419.62,343.98 c 0.58,-2.21 1.01,-2.88 3.26,-2.88 1.2,0 1.92,0.29 1.92,1.06 0,0.53 -0.38,1.34 -1.15,2.4 l -3.98,5.47 c -0.48,0.62 -0.96,0.77 -1.49,0.62 -0.58,-0.19 -0.62,-0.58 -0.43,-1.25 z"
       id="path134" />
    <path
       class="cls-2"
       d="m 52.95,379.49 c 0,-1.39 0.1,-1.49 2.45,-1.49 1.87,0 1.97,0.05 1.97,2.11 v 3.36 c 1.34,-3.84 4.08,-5.95 8.16,-5.95 5.47,0 9.7,3.6 9.7,13.15 0,9.55 -4.13,13.1 -9.7,13.1 -4.22,0 -6.96,-2.35 -8.26,-6.29 v 13.39 c 0,2.3 -0.14,2.5 -2.35,2.5 -1.68,0 -1.82,-0.24 -1.82,-2.5 v -15.6 c 0,-3.41 -0.14,-14.02 -0.14,-15.79 z m 17.91,11.33 c 0,-6.72 -2.59,-9.75 -6.38,-9.75 -4.13,0 -7.15,3.07 -7.15,9.7 0,5.9 2.98,9.75 7.15,9.75 3.74,0 6.38,-2.98 6.38,-9.7 z"
       id="path136" />
    <path
       class="cls-2"
       d="m 85.5,383.86 c 1.54,-4.27 4.9,-6.34 8.26,-6.34 1.01,0 1.92,0.14 2.35,0.29 0.62,0.19 0.82,0.62 0.62,1.3 l -0.29,1.44 c -0.19,0.72 -0.53,0.86 -1.3,0.72 -0.48,-0.1 -1.44,-0.24 -2.11,-0.24 -3.07,0 -7.58,1.87 -7.63,13.49 v 6.29 c 0,2.3 -0.14,2.5 -2.3,2.5 -1.73,0 -1.82,-0.24 -1.82,-2.5 v -5.52 c 0,-3.41 -0.14,-14.02 -0.14,-15.79 0,-1.39 0.05,-1.49 2.45,-1.49 1.87,0 1.92,0.05 1.92,2.11 v 3.74 z"
       id="path138" />
    <path
       class="cls-2"
       d="m 99.89,390.44 c 0,-10.22 5.14,-12.91 11.28,-12.91 6.14,0 11.33,2.69 11.33,12.91 0,10.22 -5.14,13.35 -11.33,13.35 -6.19,0 -11.28,-3.41 -11.28,-13.35 z m 18.2,0.19 c 0,-7.78 -3.07,-9.7 -6.91,-9.7 -3.84,0 -6.91,1.92 -6.91,9.7 0,7.78 3.12,9.98 6.91,9.98 3.79,0 6.91,-2.45 6.91,-9.98 z"
       id="path140" />
    <path
       class="cls-2"
       d="m 128.6,379.49 c 0,-1.39 0.1,-1.49 2.45,-1.49 1.87,0 1.97,0.05 1.97,2.11 v 4.42 c 1.3,-4.75 4.9,-7.01 8.3,-7.01 2.98,0 5.67,1.44 6,6.86 1.3,-4.66 4.94,-6.86 8.35,-6.86 3.22,0 6.05,1.63 6.05,8.06 0,3.46 -0.1,7.1 -0.1,11.76 v 3.46 c 0,2.35 -0.14,2.5 -2.3,2.5 -1.68,0 -1.82,-0.14 -1.82,-2.5 v -14.59 c 0,-3.02 -1.1,-4.8 -3.65,-4.8 -3.31,0 -6.14,3.07 -6.53,9.46 -0.05,1.97 -0.05,4.08 -0.05,6.48 v 3.46 c 0,2.3 -0.14,2.5 -2.3,2.5 -1.73,0 -1.87,-0.24 -1.87,-2.5 v -14.59 c 0,-3.12 -1.25,-4.8 -3.65,-4.8 -3.22,0 -6.05,3.02 -6.53,9.26 v 10.13 c 0,2.3 -0.14,2.5 -2.3,2.5 -1.73,0 -1.87,-0.24 -1.87,-2.5 v -5.52 c 0,-3.41 -0.14,-14.02 -0.14,-15.79 z"
       id="path142" />
    <path
       class="cls-2"
       d="m 172.23,391.88 c 0.43,7.44 4.27,8.69 7.87,8.69 3.02,0 5.04,-1.06 6.53,-1.73 0.82,-0.29 1.15,-0.19 1.44,0.53 l 0.43,1.06 c 0.24,0.62 0.1,0.86 -0.72,1.3 -1.49,0.77 -4.18,2.06 -8.06,2.06 -6.53,0 -11.76,-3.17 -11.76,-13.44 0,-10.27 5.09,-12.82 10.95,-12.82 5.86,0 10.18,2.45 10.18,11.91 0,1.49 -0.67,2.45 -2.4,2.45 h -14.45 z m -0.05,-2.83 h 13.1 c -0.05,-6.86 -2.88,-8.35 -6.38,-8.35 -3.5,0 -6.38,1.63 -6.72,8.35 z m 6.34,-16.09 4.22,-2.59 c 0.91,-0.62 1.1,-0.62 1.54,-0.1 0.48,0.58 0.43,0.86 -0.38,1.44 l -4.94,3.98 c -0.19,0.14 -0.34,0.19 -0.43,0.19 -0.14,0 -0.29,-0.05 -0.48,-0.19 l -4.99,-3.98 c -0.77,-0.58 -0.82,-0.86 -0.34,-1.44 0.38,-0.53 0.58,-0.48 1.54,0.1 l 4.27,2.59 z"
       id="path144" />
    <path
       class="cls-2"
       d="m 212.74,403.3 c -1.68,0 -1.82,-0.14 -1.82,-2.5 v -13.97 c 0,-3.41 -1.06,-5.33 -4.27,-5.33 -3.89,0 -7.44,2.93 -7.97,9.7 v 9.6 c 0,2.35 -0.19,2.5 -2.35,2.5 -1.68,0 -1.82,-0.14 -1.82,-2.5 v -5.52 c 0,-3.41 -0.14,-14.02 -0.14,-15.79 0,-1.39 0.1,-1.49 2.4,-1.49 1.92,0 2.02,0.05 2.02,2.11 0,1.54 0,3.17 -0.05,4.9 1.54,-5.09 5.81,-7.49 9.89,-7.49 4.08,0 6.53,2.26 6.53,8.54 0,3.41 -0.1,6.91 -0.1,10.32 v 4.42 c 0,2.35 -0.14,2.5 -2.3,2.5 z"
       id="path146" />
    <path
       class="cls-2"
       d="m 226.57,395.29 v 5.52 c 0,2.35 -0.19,2.5 -2.3,2.5 -1.73,0 -1.87,-0.14 -1.87,-2.5 v -5.52 c 0,-3.41 -0.14,-14.02 -0.14,-15.79 0,-1.39 0.1,-1.49 2.45,-1.49 1.87,0 1.97,0.05 1.97,2.11 0,4.8 -0.1,10.27 -0.1,15.17 z m 1.29,-25.93 c 0.53,-0.72 1.44,-1.01 2.26,-0.1 0.86,0.96 0.62,1.68 0.05,2.02 l -5.14,4.22 c -0.91,0.53 -1.49,-0.1 -0.91,-0.77 l 3.74,-5.38 z"
       id="path148" />
    <path
       class="cls-2"
       d="m 251.91,388.71 c 3.26,0 6.05,1.1 7.54,3.46 v -5.04 c 0,-5.28 -3.98,-6.05 -6.43,-6.05 -2.45,0 -5.23,0.77 -6.1,1.01 -0.77,0.29 -1.25,0.19 -1.58,-0.72 L 245,380.46 c -0.38,-1.01 0.1,-1.39 0.86,-1.68 1.44,-0.53 4.51,-1.25 7.83,-1.25 3.74,0 9.89,0.91 9.89,9.17 v 14.11 c 0,2.35 -0.14,2.5 -2.3,2.5 -1.68,0 -1.82,-0.14 -1.82,-2.5 v -0.29 c -1.49,2.3 -4.37,3.26 -7.63,3.26 -5.23,0 -8.5,-2.74 -8.5,-7.44 0,-4.7 3.46,-7.63 8.59,-7.63 z m -4.18,7.58 c 0,2.93 1.92,4.94 5.62,4.94 3.7,0 6.1,-1.97 6.1,-4.94 0,-2.97 -2.3,-5.09 -6.05,-5.09 -3.75,0 -5.67,2.11 -5.67,5.09 z"
       id="path150" />
    <path
       class="cls-2"
       d="m 292.23,400.47 c 1.73,0 3.74,-0.62 4.7,-0.91 0.86,-0.19 1.2,0 1.34,0.62 l 0.24,1.15 c 0.19,0.67 0.05,1.06 -0.77,1.34 -1.2,0.48 -3.65,1.1 -6.29,1.1 -7.25,0 -11.09,-4.27 -11.09,-13.15 0,-8.88 3.94,-13.11 11.09,-13.11 2.64,0 5.14,0.67 6.19,1.1 0.86,0.29 1.1,0.67 0.91,1.34 l -0.29,1.34 c -0.24,0.72 -0.67,0.77 -1.44,0.58 -0.96,-0.29 -2.78,-0.82 -4.61,-0.82 -4.94,0 -7.58,3.26 -7.58,9.65 0,6.39 2.64,9.75 7.58,9.75 z"
       id="path152" />
    <path
       class="cls-2"
       d="m 316.61,381.41 c -4.03,0 -7.78,3.31 -7.97,10.94 v 8.45 c 0,2.3 -0.14,2.5 -2.35,2.5 -1.68,0 -1.82,-0.24 -1.82,-2.5 v -15.99 c 0,-3.41 -0.14,-14.02 -0.14,-15.79 0,-1.39 0.1,-1.49 2.45,-1.49 1.87,0 1.97,0.05 1.97,2.11 0,4.8 -0.1,10.27 -0.1,15.17 v 1.3 c 1.15,-5.86 5.66,-8.59 9.98,-8.59 4.32,0 6.53,2.26 6.53,8.54 0,3.41 -0.1,6.91 -0.1,10.32 v 4.42 c 0,2.35 -0.19,2.5 -2.3,2.5 -1.73,0 -1.87,-0.14 -1.87,-2.5 v -13.97 c 0,-3.55 -1.15,-5.42 -4.27,-5.42 z"
       id="path154" />
    <path
       class="cls-2"
       d="m 336.34,383.86 c 1.54,-4.27 4.9,-6.34 8.26,-6.34 1.01,0 1.92,0.14 2.35,0.29 0.62,0.19 0.82,0.62 0.62,1.3 l -0.29,1.44 c -0.19,0.72 -0.53,0.86 -1.3,0.72 -0.48,-0.1 -1.44,-0.24 -2.11,-0.24 -3.07,0 -7.58,1.87 -7.63,13.49 v 6.29 c 0,2.3 -0.14,2.5 -2.3,2.5 -1.73,0 -1.82,-0.24 -1.82,-2.5 v -5.52 c 0,-3.41 -0.14,-14.02 -0.14,-15.79 0,-1.39 0.05,-1.49 2.45,-1.49 1.87,0 1.92,0.05 1.92,2.11 v 3.74 z"
       id="path156" />
    <path
       class="cls-2"
       d="m 358.76,388.71 c 3.26,0 6.05,1.1 7.54,3.46 v -5.04 c 0,-5.28 -3.98,-6.05 -6.43,-6.05 -2.45,0 -5.23,0.77 -6.1,1.01 -0.77,0.29 -1.25,0.19 -1.58,-0.72 l -0.34,-0.91 c -0.38,-1.01 0.1,-1.39 0.86,-1.68 1.44,-0.53 4.51,-1.25 7.82,-1.25 3.74,0 9.89,0.91 9.89,9.17 v 14.11 c 0,2.35 -0.14,2.5 -2.3,2.5 -1.68,0 -1.82,-0.14 -1.82,-2.5 v -0.29 c -1.49,2.3 -4.37,3.26 -7.63,3.26 -5.23,0 -8.5,-2.74 -8.5,-7.44 0,-4.7 3.46,-7.63 8.59,-7.63 z m -4.18,7.58 c 0,2.93 1.92,4.94 5.62,4.94 3.7,0 6.1,-1.97 6.1,-4.94 0,-2.97 -2.3,-5.09 -6.05,-5.09 -3.75,0 -5.66,2.11 -5.66,5.09 z m 9.26,-26.83 c 0.53,-0.72 1.44,-1.01 2.26,-0.1 0.86,0.96 0.62,1.68 0.05,2.02 l -5.14,4.22 c -0.91,0.53 -1.49,-0.1 -0.91,-0.77 l 3.74,-5.38 z"
       id="path158" />
    <path
       class="cls-2"
       d="m 395.86,403.3 c -1.68,0 -1.82,-0.14 -1.82,-2.5 v -13.97 c 0,-3.41 -1.06,-5.33 -4.27,-5.33 -3.89,0 -7.44,2.93 -7.97,9.7 v 9.6 c 0,2.35 -0.19,2.5 -2.35,2.5 -1.68,0 -1.82,-0.14 -1.82,-2.5 v -5.52 c 0,-3.41 -0.14,-14.02 -0.14,-15.79 0,-1.39 0.1,-1.49 2.4,-1.49 1.92,0 2.02,0.05 2.02,2.11 0,1.54 0,3.17 -0.05,4.9 1.54,-5.09 5.81,-7.49 9.89,-7.49 4.08,0 6.53,2.26 6.53,8.54 0,3.41 -0.1,6.91 -0.1,10.32 v 4.42 c 0,2.35 -0.14,2.5 -2.3,2.5 z"
       id="path160" />
    <path
       class="cls-2"
       d="m 409.68,395.29 v 5.52 c 0,2.35 -0.19,2.5 -2.3,2.5 -1.73,0 -1.87,-0.14 -1.87,-2.5 v -5.52 c 0,-3.41 -0.14,-14.02 -0.14,-15.79 0,-1.39 0.1,-1.49 2.45,-1.49 1.87,0 1.97,0.05 1.97,2.11 0,4.8 -0.1,10.27 -0.1,15.17 z m 1.3,-25.93 c 0.53,-0.72 1.44,-1.01 2.26,-0.1 0.86,0.96 0.62,1.68 0.05,2.02 l -5.14,4.22 c -0.91,0.53 -1.49,-0.1 -0.91,-0.77 l 3.74,-5.38 z"
       id="path162" />
    <path
       class="cls-2"
       d="m 415.92,401.19 c 0,-2.35 0.86,-2.59 2.54,-2.59 2.11,0 2.35,0.24 2.35,1.68 v 0.62 c 0,2.35 -0.91,2.54 -2.59,2.54 -2.06,0 -2.3,-0.19 -2.3,-1.68 v -0.58 z"
       id="path164" />
    <path
       class="cls-2"
       d="M 72.97,507.94 H 56.79 c -0.48,2.64 -0.72,5.42 -0.72,8.4 0,2.02 -0.1,2.16 -2.26,2.16 -1.82,0 -2.06,-0.1 -2.06,-2.26 0,-15.02 5.95,-25.25 10.56,-31.15 0.86,-1.01 1.25,-1.15 2.54,-1.15 1.29,0 1.73,0.1 2.59,1.2 4.61,5.9 10.61,16.13 10.61,31.11 0,2.16 -0.24,2.26 -2.35,2.26 -1.92,0 -1.92,-0.1 -1.97,-2.16 0,-2.98 -0.29,-5.76 -0.77,-8.4 z M 57.51,504.58 H 72.3 c -2.45,-9.94 -7.1,-16.22 -7.39,-16.22 -0.29,0 -4.99,6.24 -7.39,16.22 z"
       id="path166" />
    <path
       class="cls-2"
       d="m 84.54,494.69 c 0,-1.39 0.1,-1.49 2.45,-1.49 1.87,0 1.97,0.05 1.97,2.11 v 4.42 c 1.3,-4.75 4.9,-7.01 8.3,-7.01 2.98,0 5.67,1.44 6,6.86 1.3,-4.66 4.94,-6.86 8.35,-6.86 3.22,0 6.05,1.63 6.05,8.06 0,3.46 -0.1,7.1 -0.1,11.76 V 516 c 0,2.35 -0.14,2.5 -2.3,2.5 -1.68,0 -1.82,-0.14 -1.82,-2.5 v -14.59 c 0,-3.02 -1.1,-4.8 -3.65,-4.8 -3.31,0 -6.14,3.07 -6.53,9.46 -0.05,1.97 -0.05,4.08 -0.05,6.48 v 3.46 c 0,2.3 -0.14,2.5 -2.3,2.5 -1.73,0 -1.87,-0.24 -1.87,-2.5 v -14.59 c 0,-3.12 -1.25,-4.8 -3.65,-4.8 -3.22,0 -6.05,3.02 -6.53,9.26 v 10.13 c 0,2.3 -0.14,2.5 -2.3,2.5 -1.73,0 -1.87,-0.24 -1.87,-2.5 v -5.52 c 0,-3.41 -0.14,-14.02 -0.14,-15.79 z"
       id="path168" />
    <path
       class="cls-2"
       d="m 127.93,507.08 c 0.43,7.44 4.27,8.69 7.87,8.69 3.02,0 5.04,-1.06 6.53,-1.73 0.82,-0.29 1.15,-0.19 1.44,0.53 l 0.43,1.06 c 0.24,0.62 0.1,0.86 -0.72,1.3 -1.49,0.77 -4.18,2.06 -8.07,2.06 -6.53,0 -11.76,-3.17 -11.76,-13.44 0,-10.27 5.09,-12.82 10.95,-12.82 5.86,0 10.18,2.45 10.18,11.91 0,1.49 -0.67,2.45 -2.4,2.45 h -14.45 z m -0.05,-2.83 h 13.11 c -0.05,-6.86 -2.88,-8.35 -6.38,-8.35 -3.5,0 -6.38,1.63 -6.72,8.35 z"
       id="path170" />
    <path
       class="cls-2"
       d="m 169.21,518.5 c -1.68,0 -1.82,-0.14 -1.82,-2.5 v -13.97 c 0,-3.41 -1.06,-5.33 -4.27,-5.33 -3.89,0 -7.44,2.93 -7.97,9.7 v 9.6 c 0,2.35 -0.19,2.5 -2.35,2.5 -1.68,0 -1.82,-0.14 -1.82,-2.5 v -5.52 c 0,-3.41 -0.14,-14.02 -0.14,-15.79 0,-1.39 0.1,-1.49 2.4,-1.49 1.92,0 2.02,0.05 2.02,2.11 0,1.54 0,3.17 -0.05,4.9 1.54,-5.09 5.81,-7.49 9.89,-7.49 4.08,0 6.53,2.26 6.53,8.54 0,3.41 -0.1,6.91 -0.1,10.32 V 516 c 0,2.35 -0.14,2.5 -2.3,2.5 z"
       id="path172" />
    <path
       class="cls-2"
       d="m 177.46,516.39 c 0,-2.35 0.86,-2.59 2.54,-2.59 2.11,0 2.35,0.24 2.35,1.68 v 0.62 c 0,2.35 -0.91,2.54 -2.59,2.54 -2.06,0 -2.3,-0.19 -2.3,-1.68 v -0.58 z"
       id="path174" />
  </g>
  <g
     id="g190">
    <path
       class="cls-2"
       d="m 60.83,660.03 -0.07,0.28 v 1.22 l 0.07,0.49 c 0.04,0.21 0.07,0.35 0.04,0.56 l -0.04,0.07 -0.14,0.7 -0.03,0.42 0.07,0.88 0.04,0.42 -0.04,0.81 0.04,0.31 v 0.95 c 0.07,0.25 0.11,0.49 0.07,0.7 l -0.04,0.38 0.04,0.14 c 0.07,0.28 0.07,0.46 0.04,0.73 l -0.11,0.46 -0.14,0.98 v 0.32 l 0.04,0.84 v 0.42 l 0.14,0.91 v 1.58 l 0.1,0.74 v 0.95 c 0,0.1 -0.03,0.28 -0.07,0.38 l -0.04,0.17 v 0.04 c 0.04,0.25 0,0.53 -0.07,0.77 l -0.04,0.42 v 0.42 c 0,0.28 -0.03,0.52 -0.14,0.77 l -0.17,0.91 v 0.17 c 0,0.11 -0.07,0.21 -0.11,0.32 l -0.25,0.74 -0.04,0.17 c -0.03,0.17 -0.1,0.28 -0.17,0.42 l -0.35,0.56 -0.14,0.14 c -0.07,0.11 -0.14,0.17 -0.21,0.25 l -0.46,0.35 -0.35,0.25 -0.28,0.28 c -0.14,0.14 -0.31,0.32 -0.49,0.38 l -0.1,0.04 -0.53,0.25 c -0.21,0.11 -0.42,0.17 -0.67,0.17 h -0.04 l -0.8,0.14 -0.04,0.03 c -0.21,0.11 -0.46,0.14 -0.67,0.14 H 54.3 l -0.49,-0.04 -0.35,0.04 h -0.18 c -0.14,0 -0.28,-0.04 -0.42,-0.11 l -0.21,-0.07 -0.8,-0.07 h -0.04 c -0.21,0 -0.42,-0.04 -0.63,-0.11 l -0.46,-0.17 c 0,0 -0.63,-0.59 -0.74,-0.95 -0.04,-0.1 -0.04,-0.21 -0.04,-0.28 v -0.7 l -0.1,-0.32 v -0.56 l 0.07,-0.7 -0.03,-0.38 c 0,0 0.38,-0.35 0.7,-0.42 0.18,-0.03 0.32,0.04 0.46,0.07 l 0.63,0.14 0.35,-0.07 0.42,-0.04 h 0.53 l 0.31,-0.04 0.88,-0.25 0.6,-0.49 0.28,-0.38 0.31,-0.7 -0.07,-0.31 0.04,-0.32 c 0,-0.11 0.04,-0.14 0.07,-0.25 l 0.07,-0.17 -0.07,-0.46 0.04,-0.77 -0.04,-0.46 -0.04,-0.52 c 0,-0.14 0.04,-0.32 0.07,-0.49 l 0.04,-0.17 v -0.6 c -0.04,-0.17 -0.07,-0.42 -0.04,-0.59 l 0.04,-0.14 -0.11,-0.77 0.04,-0.38 -0.04,-0.84 v -0.46 l -0.1,-0.77 v -0.32 l 0.03,-0.74 -0.07,-0.35 c -0.04,-0.17 0,-0.32 0,-0.46 l 0.1,-0.7 0.04,-1.01 v -0.42 l -0.07,-0.95 0.04,-1.02 v -0.49 l 0.07,-0.91 -0.04,-0.84 c 0,-0.14 -0.04,-0.17 0,-0.31 l 0.07,-0.39 -0.04,-0.8 v -0.17 c 0.07,-0.38 0.42,-0.56 0.7,-0.7 0.17,-0.04 0.35,-0.07 0.49,-0.07 h 0.56 l 1.33,0.04 h 0.35 l 0.84,0.14 0.46,-0.03 c 0.17,-0.07 0.35,-0.04 0.46,0.07 0.1,0.14 0.17,0.32 0.25,0.56 z"
       id="path178" />
    <path
       class="cls-2"
       d="m 78.82,676.52 -0.25,-0.21 -0.1,-0.07 c -0.14,-0.11 -0.32,-0.21 -0.42,-0.35 l -0.35,-0.42 -0.63,-0.88 -0.35,-0.28 -0.49,-0.63 -0.88,-0.91 -0.7,-0.67 -0.28,-0.31 -0.46,-0.6 -0.77,-0.42 -0.42,0.21 -0.04,0.38 0.04,0.28 0.04,0.84 -0.04,0.46 0.07,0.74 0.07,0.32 0.07,0.8 v 1.16 l -0.1,0.46 -0.07,0.8 c 0.11,0.25 0.14,0.56 0.11,0.84 l -0.04,0.35 -0.11,0.49 v 0.84 l 0.04,0.35 -0.04,0.84 0.14,0.52 -0.04,0.88 -0.07,0.49 0.07,0.84 c 0,0 -0.42,0.59 -0.77,0.73 -0.1,0.04 -0.21,0 -0.31,0 l -0.77,-0.04 -0.42,-0.03 -0.84,0.1 c -0.07,0 -0.21,0.04 -0.28,0.04 l -0.7,-0.04 -0.1,0.04 c -0.14,0.04 -0.32,0.04 -0.46,0 l -0.21,-0.04 c -0.21,-0.28 -0.32,-0.56 -0.25,-0.77 L 67.6,682.7 v -0.46 l 0.04,-0.84 0.07,-0.42 -0.04,-0.94 v -0.35 l -0.04,-0.7 v -0.52 l 0.07,-0.84 0.04,-0.38 -0.04,-0.74 v -0.42 l -0.07,-0.59 c -0.04,-0.17 0,-0.32 0,-0.46 v -0.21 l -0.04,-0.56 c 0,-0.17 0,-0.28 0.04,-0.42 l 0.04,-0.25 0.07,-0.91 v -0.35 l -0.04,-0.95 v -0.35 l 0.1,-0.88 -0.07,-0.49 -0.07,-0.88 -0.04,-0.14 c -0.04,-0.17 -0.04,-0.25 -0.04,-0.42 l 0.04,-0.56 -0.04,-0.18 c -0.04,-0.25 0,-0.38 0.04,-0.63 l 0.07,-0.52 0.07,-0.39 v -0.8 l -0.03,-0.49 v -0.84 l 0.03,-0.42 -0.07,-0.88 v -0.39 l 0.07,-0.84 0.04,-0.35 -0.04,-0.6 v -0.28 l 0.07,-0.35 c 0.04,-0.21 0.14,-0.38 0.28,-0.42 l 0.35,0.21 0.14,0.07 c 0.1,0.07 0.21,0.17 0.28,0.25 l 0.28,0.28 c 0.11,0.11 0.21,0.21 0.28,0.35 l 0.17,0.25 0.46,0.63 0.28,0.28 0.52,0.59 0.39,0.38 0.42,0.32 c 0.21,0.17 0.38,0.35 0.49,0.56 l 0.59,0.53 0.59,0.59 0.39,0.35 0.25,0.28 0.59,0.59 0.25,0.35 0.52,0.53 0.32,0.25 0.53,0.49 c 0.1,0.1 0.17,0.25 0.25,0.35 l 0.07,0.11 0.88,0.77 0.63,0.63 0.24,0.28 0.63,0.63 0.28,0.21 0.32,0.39 0.63,-0.11 0.35,-0.21 0.7,-0.67 0.31,-0.35 0.59,-0.53 0.25,-0.32 0.35,-0.49 c 0.14,-0.18 0.28,-0.35 0.46,-0.49 l 0.07,-0.04 0.28,-0.46 c 0.11,-0.17 0.25,-0.32 0.38,-0.46 l 0.11,-0.07 0.63,-0.59 0.28,-0.35 0.63,-0.56 0.42,-0.28 0.46,-0.42 c 0.07,-0.07 0.14,-0.1 0.21,-0.17 l 0.25,-0.14 0.32,-0.46 c 0.1,-0.18 0.28,-0.32 0.42,-0.42 h 0.04 l 0.59,-0.67 0.38,-0.35 0.63,-0.63 0.14,-0.21 0.59,-0.74 0.25,-0.21 c 0.07,-0.07 0.14,-0.11 0.21,-0.17 l 0.67,-0.49 c 0.25,-0.25 0.49,-0.28 0.7,-0.21 l -0.1,0.46 0.07,0.7 c 0,0.14 0.04,0.25 0,0.42 l -0.04,0.28 0.07,0.88 v 0.28 l -0.07,0.84 0.04,0.38 0.04,0.95 0.04,0.49 0.04,0.38 c 0.04,0.31 0.04,0.56 -0.07,0.84 v 0.88 l 0.07,0.38 v 1.19 l 0.07,0.81 v 0.35 l -0.04,0.25 -0.11,0.88 V 672 c 0,0.14 0,0.18 -0.04,0.32 l -0.04,0.25 0.14,0.8 0.04,0.39 0.07,0.77 v 0.46 c 0,0.17 0,0.35 -0.03,0.53 l -0.14,0.53 0.04,0.38 -0.04,0.8 -0.04,0.46 -0.04,0.77 0.07,0.46 0.14,0.84 0.03,0.46 -0.03,0.91 -0.07,1.12 0.07,0.46 -0.07,0.98 c 0,0.14 -0.04,0.25 -0.11,0.39 -0.1,0.17 -0.21,0.28 -0.35,0.35 -0.25,0.14 -0.53,0.17 -0.77,0.14 l -0.59,-0.07 -0.38,0.07 H 89 l -0.49,-0.04 -0.67,-0.04 h -0.42 c 0,0 -0.28,-0.21 -0.49,-0.38 -0.21,-0.25 -0.17,-0.49 -0.21,-0.74 l 0.07,-0.88 -0.14,-0.91 v -0.53 l -0.07,-0.8 -0.03,-0.35 c 0,-0.07 0.03,-0.17 0.03,-0.25 l 0.07,-0.7 v -1.19 l -0.04,-0.42 0.11,-0.88 0.04,-0.53 -0.04,-0.53 c 0,-0.14 0,-0.35 0.04,-0.49 l 0.03,-0.17 -0.03,-0.88 -0.07,-0.38 -0.04,-0.49 c -0.04,-0.28 0,-0.46 0.11,-0.7 l -0.07,-0.84 -0.11,-0.42 -0.24,-0.35 -0.63,0.53 -0.7,0.7 -0.31,0.28 -0.04,0.04 c -0.11,0.17 -0.28,0.35 -0.46,0.49 l -0.56,0.67 -0.39,0.39 -0.49,0.67 c -0.07,0.1 -0.14,0.17 -0.21,0.25 l -0.52,0.49 -0.28,0.21 -0.56,0.49 -0.11,0.14 c -0.11,0.14 -0.21,0.21 -0.35,0.31 l -0.46,0.35 c -0.18,0.21 -0.39,0.31 -0.63,0.31 -0.21,0 -0.52,-0.17 -0.84,-0.49 z"
       id="path180" />
    <path
       class="cls-2"
       d="m 114.7,684.53 -0.32,-0.14 h -0.88 l -0.32,0.07 -0.94,-0.04 -0.42,0.07 -0.74,-0.11 -0.49,0.07 h -0.42 c -0.21,0.04 -0.46,0.04 -0.67,0 h -0.17 l -0.49,0.07 c -0.21,0.04 -0.46,0.04 -0.67,0 h -0.04 l -0.46,0.07 c -0.25,0.04 -0.53,0 -0.74,-0.07 v -0.04 l -0.84,0.04 -0.38,0.04 -0.88,0.03 -0.56,-0.07 -0.77,-0.07 -0.39,0.11 h -0.8 l -0.53,0.03 -0.59,0.04 c -0.11,0 -0.25,0 -0.35,-0.04 l -0.21,-0.07 h -1.05 c -0.42,-0.04 -0.67,-0.32 -0.77,-0.56 -0.11,-0.21 -0.07,-0.38 -0.04,-0.63 l 0.07,-0.59 -0.03,-0.53 -0.07,-0.95 0.04,-0.98 -0.07,-0.39 c -0.04,-0.1 -0.04,-0.28 -0.04,-0.38 l 0.04,-0.59 0.04,-0.46 -0.04,-0.81 -0.04,-0.04 c -0.04,-0.21 -0.04,-0.38 -0.04,-0.56 l 0.04,-0.46 0.07,-0.46 v -1.37 l -0.07,-0.74 v -0.28 l 0.04,-0.28 0.07,-0.81 v -1.15 l 0.07,-0.42 -0.07,-0.77 c 0,-0.11 0,-0.28 0.04,-0.39 v -0.17 l 0.03,-0.88 -0.03,-0.46 0.03,-0.91 -0.07,-1.01 -0.07,-0.39 v -1.33 L 98.67,664 98.63,663.65 v -0.28 l 0.11,-0.74 -0.04,-0.49 0.04,-0.88 -0.11,-0.77 c -0.04,-0.14 -0.04,-0.35 0,-0.49 l 0.04,-0.21 0.04,-0.07 c 0.32,-0.32 0.59,-0.46 0.91,-0.49 l 0.8,-0.04 0.53,-0.04 0.8,0.07 h 1.12 c 0.07,0 0.21,0.04 0.28,0.04 l 0.32,0.04 0.42,-0.07 c 0.21,-0.04 0.42,0 0.63,0.07 l 0.84,0.07 0.49,-0.07 0.84,0.04 0.28,-0.18 0.84,-0.03 0.28,-0.07 0.95,0.07 0.38,0.07 0.98,0.14 0.31,-0.04 0.95,-0.07 1.02,-0.04 0.38,-0.04 0.8,0.07 0.32,0.07 c 0.07,0 0.1,0 0.17,0.04 0.46,0.14 0.59,0.52 0.63,0.8 0.04,0.11 0,0.17 0,0.28 l -0.14,0.88 0.04,0.42 -0.14,0.95 0.07,0.35 c 0,0 -0.35,0.42 -0.63,0.6 -0.17,0.1 -0.35,0.1 -0.53,0.1 h -0.42 l -0.31,0.07 -0.84,0.04 -0.56,-0.07 -0.84,-0.07 -0.91,0.04 -0.18,0.04 c -0.17,0.04 -0.31,0.04 -0.46,0 l -0.49,-0.07 -0.39,0.07 -0.84,0.04 -0.42,0.04 h -0.88 l -0.35,-0.04 h -0.84 l -0.46,0.04 -0.35,0.52 -0.04,0.56 v 0.8 l 0.07,0.42 -0.04,0.77 -0.04,0.49 0.07,0.88 -0.04,0.49 0.04,0.35 0.46,0.42 h 1.36 l 0.35,0.04 0.67,-0.14 c 0.1,-0.04 0.17,0 0.25,0 l 0.25,-0.04 0.8,0.04 0.56,0.03 0.73,0.04 0.42,0.04 h 0.7 c 0.11,0 0.25,-0.04 0.35,0 l 0.14,0.04 0.38,-0.11 0.84,0.07 c 0,0 0.25,0.14 0.49,0.32 0.28,0.17 0.35,0.46 0.31,0.67 v 0.84 l 0.14,0.35 v 0.52 l -0.1,0.6 c 0.04,0.17 0,0.42 -0.14,0.67 -0.28,0.25 -0.53,0.35 -0.77,0.35 l -0.84,-0.04 -0.49,0.07 -0.91,-0.04 -0.46,-0.04 h -0.77 l -0.52,0.07 -0.59,0.04 c -0.11,0 -0.21,-0.04 -0.32,-0.04 l -0.38,-0.04 -0.84,0.04 h -1.01 c -0.25,0.07 -0.49,0.07 -0.7,0 l -0.42,0.38 0.1,0.46 -0.07,0.7 0.1,0.42 -0.04,0.49 c 0,0.21 -0.03,0.38 -0.1,0.53 l -0.04,0.07 0.04,0.95 v 0.35 l 0.04,0.88 v 0.46 l 0.46,0.42 0.56,-0.04 0.42,-0.04 c 0.25,0 0.49,0 0.7,0.11 h 0.77 l 0.46,0.07 0.88,-0.1 0.38,-0.07 0.56,-0.04 c 0.14,0 0.28,0 0.42,0.04 l 0.1,0.04 0.88,0.04 0.53,0.04 0.74,0.07 h 0.38 l 0.77,-0.03 0.42,0.03 0.98,-0.07 c 0,0 0.42,0.28 0.7,0.52 0.17,0.18 0.21,0.42 0.28,0.67 v 0.88 l -0.07,0.42 -0.04,0.73 v 0.42 c -0.03,0.35 -0.07,0.56 -0.17,0.67 -0.07,0.11 -0.28,0.14 -0.56,0.18 z m -10.19,-28.28 0.38,-0.77 0.11,-0.31 0.25,-0.77 0.25,-0.53 0.21,-0.52 c 0.07,-0.18 0.17,-0.35 0.28,-0.49 l 0.07,-0.11 0.28,-0.63 0.14,-0.46 0.32,-0.77 c 0.17,-0.28 0.42,-0.46 0.74,-0.63 0.14,-0.07 0.35,-0.1 0.56,-0.14 l 0.84,0.04 0.42,-0.07 0.84,-0.07 h 0.42 l 0.53,-0.04 c 0.21,-0.04 0.31,0 0.49,0.04 h 0.07 l 0.88,0.07 c 0.25,0 0.49,0.11 0.7,0.28 l -0.17,0.28 -0.11,0.31 c -0.03,0.11 -0.1,0.21 -0.17,0.28 l -0.31,0.49 -0.32,0.38 -0.49,0.63 -0.21,0.25 -0.59,0.67 -0.28,0.32 -0.25,0.35 -0.35,0.39 -0.46,0.8 -0.21,0.35 -0.42,0.6 c -0.14,0.25 -0.45,0.38 -0.88,0.52 l -0.03,0.04 -0.42,0.04 -0.31,0.04 h -0.84 l -0.42,0.07 -0.73,-0.07 c -0.32,-0.04 -0.53,-0.11 -0.67,-0.25 -0.11,-0.14 -0.14,-0.35 -0.11,-0.59 z"
       id="path182" />
    <path
       class="cls-2"
       d="m 140.81,684.29 -0.52,-0.63 -0.35,-0.21 -0.63,-0.77 -0.63,-0.63 -0.28,-0.17 -0.63,-0.6 -0.28,-0.28 -0.53,-0.52 -0.42,-0.25 -0.38,-0.32 c -0.1,-0.07 -0.17,-0.21 -0.25,-0.31 l -0.17,-0.21 -0.49,-0.56 -0.42,-0.38 -0.56,-0.49 -0.38,-0.32 -0.49,-0.56 -0.31,-0.21 -0.56,-0.74 -0.28,-0.21 -0.53,-0.35 c -0.14,-0.11 -0.25,-0.18 -0.32,-0.28 l -0.1,-0.14 -0.49,-0.56 -0.25,-0.25 -0.46,-0.46 c -0.07,-0.07 -0.14,-0.21 -0.21,-0.28 l -0.11,-0.14 -0.63,-0.49 -0.46,-0.28 -0.52,-0.35 c -0.07,-0.07 -0.18,-0.14 -0.25,-0.21 l -0.14,-0.14 -0.31,-0.39 -0.21,-0.17 -0.63,-0.63 -0.39,-0.25 -0.21,0.28 v 0.42 l 0.04,1.01 0.04,0.21 c 0.04,0.18 0,0.25 0,0.42 l -0.04,0.38 c 0,0.17 -0.04,0.28 -0.07,0.42 l -0.03,0.14 0.03,0.81 -0.07,0.46 0.1,0.7 c 0.04,0.14 0.04,0.31 0,0.46 v 0.94 l 0.07,0.46 -0.04,0.81 v 1.26 l -0.04,0.46 0.04,1.05 -0.07,0.84 -0.07,0.46 -0.04,0.88 c 0,0 -0.32,0.56 -0.6,0.84 -0.14,0.14 -0.38,0.14 -0.56,0.14 l -0.46,0.04 h -0.42 l -0.35,0.04 c -0.1,0 -0.24,0.04 -0.35,0.04 l -0.25,-0.04 -0.49,-0.07 -0.8,0.11 c 0,0 -0.42,-0.28 -0.67,-0.56 -0.17,-0.17 -0.17,-0.42 -0.21,-0.63 l -0.04,-0.46 -0.07,-0.49 -0.07,-0.59 c 0,-0.17 0,-0.32 0.03,-0.53 l 0.04,-0.17 0.04,-0.56 v -0.28 l 0.07,-0.38 v -0.7 c -0.11,-0.25 -0.14,-0.56 -0.11,-0.84 l 0.04,-0.28 0.04,-0.46 0.04,-0.7 c 0,-0.14 0,-0.17 0.04,-0.28 l 0.1,-0.35 -0.07,-0.46 c -0.03,-0.25 -0.03,-0.42 0,-0.63 l 0.04,-0.07 -0.1,-0.74 v -0.35 l 0.1,-0.74 -0.1,-0.49 -0.04,-0.63 v -0.32 l 0.04,-0.35 0.04,-0.67 c 0,-0.11 0,-0.28 0.03,-0.39 l 0.04,-0.21 -0.04,-0.7 -0.07,-0.42 -0.07,-0.56 c 0,-0.14 -0.04,-0.25 0,-0.42 l 0.04,-0.14 v -0.73 c 0,-0.07 0.04,-0.14 0.04,-0.25 l 0.07,-0.32 -0.07,-0.8 -0.14,-0.28 -0.03,-0.95 v -0.77 l 0.07,-0.49 -0.04,-0.42 0.07,-0.7 -0.04,-0.04 c -0.04,-0.21 -0.04,-0.46 0,-0.67 l 0.07,-0.46 -0.04,-0.38 -0.04,-0.77 v -0.28 l 0.04,-0.35 0.07,-0.11 c 0.1,-0.17 0.14,-0.28 0.21,-0.35 l 0.38,0.25 0.21,0.17 c 0.07,0.07 0.14,0.14 0.17,0.21 l 0.42,0.53 1.08,1.05 0.59,0.53 0.28,0.35 0.56,0.53 0.42,0.35 0.49,0.49 0.35,0.35 0.49,0.59 0.21,0.28 0.59,0.59 0.31,0.17 0.49,0.53 0.28,0.35 0.59,0.42 0.32,0.28 0.59,0.49 0.25,0.17 c 0.14,0.11 0.25,0.21 0.35,0.32 l 0.46,0.56 0.56,0.49 c 0.11,0.11 0.14,0.17 0.21,0.28 l 0.17,0.21 0.56,0.46 c 0.14,0.1 0.21,0.25 0.32,0.38 l 0.1,0.14 0.28,0.38 0.42,0.28 0.56,0.59 0.32,0.28 0.25,0.25 0.42,0.31 0.59,0.49 0.35,0.35 0.35,-0.25 v -0.32 l 0.04,-0.42 v -0.91 l 0.07,-0.46 -0.07,-0.8 -0.04,-0.39 -0.04,-0.84 -0.03,-0.42 0.07,-0.81 0.04,-0.46 -0.04,-0.84 V 666 l -0.1,-0.77 v -0.52 l 0.07,-0.67 0.11,-0.53 0.04,-0.84 v -0.42 l -0.17,-0.74 -0.07,-0.42 v -0.11 l -0.04,-0.77 c 0.04,-0.28 0.21,-0.63 0.49,-0.91 l 0.04,-0.04 0.59,-0.04 0.63,-0.07 c 0.14,0 0.28,0 0.42,0.04 h 0.67 c 0.21,0 0.39,0 0.6,0.07 l 0.17,0.04 0.98,0.07 c 0,0 0.52,0.35 0.73,0.67 0.07,0.1 0.07,0.21 0.07,0.35 l 0.11,0.84 -0.04,0.91 0.04,0.42 0.03,0.88 0.04,0.11 c 0.04,0.14 0.04,0.35 0.04,0.49 l -0.04,0.59 -0.04,0.46 0.04,0.53 c 0,0.14 -0.04,0.25 -0.04,0.35 l -0.03,0.35 0.03,0.49 c 0,0.14 0,0.35 -0.03,0.49 l -0.04,0.17 v 0.74 l 0.07,0.49 0.04,0.46 c 0.04,0.25 0,0.53 -0.07,0.8 V 670 l 0.03,0.88 -0.07,0.95 0.07,0.49 -0.1,0.8 v 0.42 l 0.07,0.88 0.03,0.42 0.04,0.98 -0.07,0.91 -0.07,0.46 0.07,0.63 c 0,0.14 0,0.28 -0.04,0.42 v 1.47 l 0.1,0.67 c 0,0.11 0.04,0.21 0.04,0.32 v 0.17 l -0.07,0.8 v 0.35 l 0.04,0.74 -0.04,0.45 v 0.63 c 0,0.1 0,0.28 -0.03,0.38 l -0.07,0.25 -0.21,0.04 c -0.14,0.04 -0.35,-0.04 -0.56,-0.25 z"
       id="path184" />
    <path
       class="cls-2"
       d="m 146.96,670.04 c 0,-0.14 0.04,-0.28 0.07,-0.42 l 0.24,-0.67 0.04,-0.35 0.25,-0.74 0.11,-0.38 0.31,-0.7 0.18,-0.42 0.38,-0.84 0.21,-0.42 0.42,-0.67 0.17,-0.25 0.56,-0.67 0.56,-0.67 c 0.07,-0.1 0.11,-0.14 0.17,-0.21 l 0.21,-0.21 0.84,-0.8 c 0.07,-0.07 0.17,-0.18 0.28,-0.25 l 1.33,-0.81 0.49,-0.21 0.74,-0.38 0.38,-0.21 0.77,-0.35 0.07,-0.03 c 0.17,-0.07 0.38,-0.14 0.56,-0.14 l 0.42,-0.04 0.39,-0.07 0.84,-0.11 c 0.07,0 0.21,-0.04 0.28,-0.04 h 0.28 l 1.16,-0.1 c 0.17,-0.04 0.32,-0.04 0.46,0 l 0.17,0.04 h 0.39 l 0.94,0.04 h 0.14 c 0.17,-0.04 0.38,0 0.56,0.03 l 0.49,0.11 0.49,0.07 0.77,0.17 1.09,0.38 0.46,0.14 0.49,0.18 c 0.14,0.07 0.32,0.14 0.46,0.25 l 0.18,0.14 1.12,0.67 0.52,0.38 0.35,0.35 0.56,0.59 0.28,0.32 0.7,0.67 0.17,0.21 0.32,0.35 c 0.17,0.21 0.28,0.46 0.35,0.67 l 0.49,0.7 0.14,0.25 0.42,0.7 0.11,0.25 c 0.04,0.07 0.07,0.21 0.1,0.28 l 0.18,0.67 0.1,0.28 0.14,0.81 0.17,0.38 0.17,0.8 0.07,0.46 0.03,0.67 c 0,0.14 -0.03,0.25 -0.03,0.35 l -0.04,0.21 0.04,0.07 c 0.07,0.28 0.03,0.49 0,0.77 v 0.11 l 0.03,0.35 0.04,0.39 c 0,0.28 -0.04,0.56 -0.17,0.77 l -0.14,0.81 -0.07,0.38 -0.17,0.84 -0.07,0.32 c 0,0.07 -0.04,0.14 -0.07,0.21 l -0.28,0.7 -0.17,0.31 c 0,0 -0.07,0.04 -0.07,0.07 l -0.42,0.63 -0.14,0.35 -0.28,0.52 c -0.07,0.11 -0.18,0.25 -0.25,0.35 l -0.04,0.07 -0.6,0.77 -0.21,0.28 -0.56,0.56 -0.38,0.38 -0.35,0.42 c -0.14,0.17 -0.31,0.31 -0.49,0.42 l -0.56,0.28 -0.38,0.21 -0.63,0.35 c -0.07,0.04 -0.17,0.07 -0.28,0.1 l -0.21,0.07 -0.35,0.25 -0.38,0.17 -0.35,0.17 -0.63,0.28 -0.49,0.17 -1.08,0.39 -0.8,0.21 -0.14,0.04 c -0.14,0.04 -0.31,0.04 -0.45,0.04 h -1.61 l -0.21,-0.04 c -0.11,0 -0.21,-0.04 -0.28,-0.07 l -0.38,-0.07 -0.74,-0.07 h -0.38 l -0.98,-0.18 c -0.11,-0.03 -0.25,-0.07 -0.38,-0.14 l -0.56,-0.21 -0.31,-0.11 -0.74,-0.21 -0.46,-0.14 -0.35,-0.11 c -0.21,-0.07 -0.42,-0.14 -0.63,-0.31 l -0.07,-0.04 -0.63,-0.28 c -0.07,-0.04 -0.1,-0.07 -0.21,-0.14 l -0.28,-0.17 -0.63,-0.46 -0.35,-0.32 c 0,0 -0.07,-0.07 -0.11,-0.1 l -0.52,-0.6 c -0.17,-0.1 -0.38,-0.21 -0.53,-0.42 l -0.28,-0.42 -0.28,-0.28 -0.39,-0.7 c -0.21,-0.14 -0.38,-0.31 -0.52,-0.59 l -0.14,-0.28 -0.07,-0.1 c -0.14,-0.17 -0.25,-0.32 -0.32,-0.56 l -0.14,-0.52 -0.25,-0.35 -0.25,-0.77 -0.17,-0.35 -0.28,-0.77 c -0.07,-0.18 -0.14,-0.39 -0.14,-0.63 v -0.56 l -0.04,-0.42 v -0.77 l -0.07,-0.35 v -0.53 l -0.04,-0.31 -0.04,-0.28 v -0.42 l 0.07,-0.67 0.04,-0.17 z m 5.64,4.1 0.25,0.77 0.07,0.42 0.28,0.7 0.17,0.28 0.49,0.53 c 0.07,0.07 0.14,0.17 0.21,0.25 l 0.14,0.21 0.35,0.32 c 0.17,0.14 0.35,0.28 0.46,0.49 v 0.04 l 0.63,0.6 0.42,0.25 0.7,0.42 0.49,0.14 0.17,0.04 c 0.14,0.04 0.32,0.07 0.46,0.14 l 0.07,0.04 h 0.46 l 0.8,0.17 0.42,0.04 0.84,0.04 0.52,-0.07 1.19,-0.17 0.59,-0.28 c 0.11,-0.07 0.25,-0.07 0.35,-0.1 l 0.1,-0.04 0.88,-0.49 0.35,-0.21 0.59,-0.49 0.25,-0.21 0.67,-0.46 0.28,-0.38 0.38,-0.56 0.25,-0.42 0.1,-0.35 0.39,-0.63 v -0.35 l 0.17,-0.73 0.07,-0.35 0.07,-0.95 v -1.08 c 0,-0.17 0.04,-0.25 0.07,-0.42 l 0.07,-0.17 -0.17,-0.84 -0.04,-0.46 -0.28,-0.84 -0.21,-0.31 -0.32,-0.81 -0.21,-0.25 -0.35,-0.7 -0.32,-0.38 -0.67,-0.56 -0.28,-0.25 -0.7,-0.49 -1.01,-0.81 -0.46,-0.17 -0.7,-0.28 -0.49,0.04 -0.77,-0.07 h -0.14 c -0.14,0 -0.31,0.03 -0.46,0 l -0.14,-0.04 -0.25,0.04 c -0.14,0.03 -0.28,0.03 -0.42,0.03 h -0.17 l -0.77,0.04 -0.46,0.11 -0.59,0.21 c -0.11,0.04 -0.21,0.07 -0.32,0.1 l -0.25,0.04 -0.91,0.53 -0.28,0.17 -0.7,0.53 -0.32,0.21 -0.46,0.59 -0.31,0.49 -0.21,0.49 c -0.07,0.17 -0.18,0.31 -0.28,0.46 l -0.07,0.07 -0.35,0.7 -0.11,0.32 -0.25,0.84 -0.1,0.46 -0.04,0.81 -0.11,0.46 0.11,0.49 -0.04,0.35 c 0,0 -0.04,0.14 -0.04,0.17 l -0.04,0.32 v 0.77 l 0.18,0.53 z"
       id="path186" />
    <path
       class="cls-2"
       d="m 177.66,680.58 0.14,-0.14 0.42,-0.46 c 0.07,-0.07 0.14,-0.14 0.21,-0.17 l 0.28,-0.25 0.46,-0.11 c 0.14,-0.04 0.32,-0.04 0.49,-0.04 h 0.32 c 0.17,0 0.35,0.04 0.52,0.11 l 0.07,0.04 h 0.46 l 0.63,0.21 0.14,0.04 c 0.21,0.1 0.35,0.17 0.52,0.35 0.17,0.14 0.28,0.39 0.32,0.63 l 0.17,0.53 c 0.07,0.21 0.11,0.42 0.11,0.63 l 0.03,0.17 c 0.04,0.25 0.04,0.39 0,0.63 l -0.03,0.14 -0.11,0.35 c -0.07,0.25 -0.17,0.39 -0.32,0.6 l -0.03,0.07 -0.6,0.49 -0.21,0.14 c -0.14,0.1 -0.31,0.17 -0.49,0.21 l -0.25,0.07 c -0.07,0.04 -0.21,0.04 -0.31,0.04 l -0.32,0.04 h -0.59 l -0.38,-0.07 -0.56,-0.17 c -0.21,-0.07 -0.38,-0.14 -0.56,-0.28 l -0.11,-0.07 c -0.21,-0.14 -0.38,-0.39 -0.49,-0.6 l -0.14,-0.35 c -0.07,-0.21 -0.11,-0.38 -0.11,-0.56 v -0.11 l -0.07,-0.35 0.04,-0.42 c -0.04,-0.31 0,-0.59 0.1,-0.91 l 0.04,-0.03 c 0.07,-0.18 0.11,-0.28 0.21,-0.39 z m 0.1,-12.92 0.1,-0.14 0.59,-0.46 c 0.11,-0.17 0.42,-0.28 0.88,-0.38 0.07,-0.04 0.24,-0.04 0.56,0.04 l 0.14,0.04 0.35,-0.07 0.35,0.07 c 0.07,0 0.17,0 0.25,0.04 l 0.46,0.14 c 0.25,0.07 0.49,0.17 0.7,0.38 l 0.25,0.25 c 0.07,0.07 0.14,0.17 0.21,0.28 l 0.11,0.14 0.17,0.56 c 0.04,0.07 0.07,0.21 0.07,0.28 l 0.04,0.31 -0.1,0.63 c 0,0.07 0,0.25 -0.04,0.32 l -0.07,0.25 c -0.07,0.21 -0.21,0.42 -0.38,0.63 -0.04,0.07 -0.07,0.07 -0.14,0.14 l -0.49,0.46 c -0.14,0.21 -0.46,0.38 -0.91,0.46 h -0.04 l -0.53,0.1 h -0.38 l -0.42,-0.04 -0.56,-0.25 c -0.14,-0.07 -0.25,-0.1 -0.35,-0.17 l -0.14,-0.07 -0.35,-0.42 c -0.14,-0.17 -0.31,-0.38 -0.38,-0.59 l -0.14,-0.38 c -0.07,-0.18 -0.11,-0.32 -0.11,-0.46 v -0.11 l 0.04,-0.42 v -0.11 c -0.04,-0.21 -0.04,-0.49 0.04,-0.7 l 0.07,-0.28 c 0.04,-0.14 0.11,-0.32 0.18,-0.46 z"
       id="path188" />
  </g>
  <g
     id="g236"
     transform="matrix(1.2631997,0,0,1.2631997,-13.065302,-252.07618)">
    <g
       aria-label="modlitbyzaulice.cz"
       transform="matrix(1.4906832,0,0,1.4906832,-15.552879,-402.74651)"
       id="text632"
       style="font-size:18.6667px;font-family:Eigerdals;-inkscape-font-specification:'Eigerdals, Normal';white-space:pre;shape-inside:url(#rect634);fill:#516ba8;stroke-width:35.3;stroke-linecap:round;stroke-miterlimit:16.7;paint-order:markers fill stroke">
      <path
         d="m 43.788414,910.82489 q 0,-0.73828 -0.02734,-3.3086 -0.02734,-2.57031 -0.02734,-2.83464 0,-0.41015 0.136719,-0.49219 0.136719,-0.082 0.8112,-0.082 0.55599,0 0.656251,0.11849 0.109375,0.10938 0.109375,0.70183 v 1.71354 q 0.35547,-1.32161 1.257815,-2.02344 0.91146,-0.70182 1.968754,-0.70182 2.169274,0 2.333337,2.67057 0.23698,-0.86588 0.765627,-1.48568 0.537761,-0.61979 1.166668,-0.90234 0.638022,-0.28255 1.321617,-0.28255 2.351567,0 2.351567,3.13542 0,0.61068 -0.01823,2.11459 -0.01823,1.49479 -0.01823,2.46094 v 1.34896 q 0,0.68359 -0.136719,0.82943 -0.136719,0.13672 -0.765627,0.13672 -0.492188,0 -0.601563,-0.14584 -0.109376,-0.14583 -0.109376,-0.82031 v -5.6784 q 0,-1.86849 -1.412763,-1.86849 -1.020835,0 -1.731773,0.94792 -0.701825,0.94792 -0.8112,2.73438 -0.01823,0.76562 -0.01823,2.51563 v 1.34896 q 0,0.67448 -0.136719,0.82031 -0.127604,0.14584 -0.756512,0.14584 -0.501303,0 -0.619793,-0.15495 -0.109375,-0.15495 -0.109375,-0.8112 v -5.6784 q 0,-0.91146 -0.364584,-1.38542 -0.364584,-0.48307 -1.057293,-0.48307 -0.984377,0 -1.695316,0.92969 -0.710939,0.92969 -0.838543,2.67058 v 3.94662 q 0,0.67448 -0.136719,0.82031 -0.127605,0.14584 -0.756512,0.14584 -0.501303,0 -0.619793,-0.15495 -0.109375,-0.15495 -0.109375,-0.8112 z"
         id="path7166" />
      <path
         d="m 63.330116,914.12438 q -0.738282,0 -1.376304,-0.16406 -0.638022,-0.16407 -1.203127,-0.54688 -0.565106,-0.39193 -0.966148,-0.97526 -0.391928,-0.59245 -0.619793,-1.47657 -0.227865,-0.89323 -0.227865,-2.02344 0,-1.44011 0.337241,-2.45183 0.346354,-1.01172 0.975262,-1.55859 0.628907,-0.54688 1.376304,-0.77474 0.747397,-0.23698 1.70443,-0.23698 0.765627,0 1.38542,0.13672 0.628907,0.13671 1.203127,0.49218 0.57422,0.34636 0.957033,0.90235 0.391928,0.55599 0.619793,1.44922 0.236979,0.88412 0.236979,2.04167 0,1.13021 -0.227865,2.02344 -0.227865,0.88412 -0.628907,1.47657 -0.391928,0.58333 -0.957033,0.97526 -0.565105,0.38281 -1.203127,0.54688 -0.638022,0.16406 -1.38542,0.16406 z m 0,-1.23047 q 0.583335,0 1.048179,-0.20052 0.47396,-0.20052 0.847658,-0.62891 0.382813,-0.4375 0.583335,-1.21224 0.209635,-0.77474 0.209635,-1.84115 0,-0.88412 -0.145833,-1.54948 -0.136719,-0.66537 -0.373699,-1.08464 -0.227865,-0.41927 -0.583334,-0.67448 -0.346355,-0.25521 -0.729168,-0.35547 -0.382813,-0.10026 -0.856773,-0.10026 -0.592449,0 -1.048179,0.17318 -0.45573,0.16406 -0.847657,0.5651 -0.382814,0.40104 -0.592449,1.16667 -0.200522,0.76563 -0.200522,1.85938 0,2.0599 0.729168,2.97136 0.738283,0.91146 1.959639,0.91146 z"
         id="path7168" />
      <path
         d="m 69.646534,909.02932 q 0,-1.35808 0.282553,-2.36068 0.291667,-1.00261 0.811199,-1.59506 0.519533,-0.59245 1.184898,-0.875 0.674481,-0.28255 1.494795,-0.28255 2.406254,0 3.208339,2.38802 -0.05469,-4.86719 -0.05469,-5.68751 0,-0.41016 0.136719,-0.49219 0.145834,-0.0911 0.820314,-0.0911 0.555991,0 0.656251,0.11849 0.109376,0.10937 0.109376,0.70182 0,0.92969 -0.01823,2.94402 -0.01823,2.00521 -0.01823,2.96224 v 6.21616 q 0,0.67448 -0.145833,0.82031 -0.136719,0.14584 -0.756512,0.14584 -0.510418,0 -0.619793,-0.13672 -0.109375,-0.14584 -0.109375,-0.82943 v -1.29427 q -0.829429,2.44271 -3.208339,2.44271 -0.838543,0 -1.513024,-0.28255 -0.665366,-0.28256 -1.184898,-0.86589 -0.510417,-0.59245 -0.79297,-1.59506 -0.282553,-1.0026 -0.282553,-2.35156 z m 4.183602,3.82813 q 1.230471,0 2.005212,-1.03907 0.774741,-1.04817 0.774741,-2.7526 0,-1.85938 -0.765627,-2.8073 -0.756512,-0.95703 -2.014326,-0.95703 -1.157554,0 -1.832035,0.94791 -0.665366,0.94792 -0.665366,2.84376 0,1.88672 0.674481,2.82553 0.67448,0.9388 1.82292,0.9388 z"
         id="path7170" />
      <path
         d="m 82.808016,900.85352 q 0,0.92969 -0.01823,2.94402 -0.01823,2.00521 -0.01823,2.96224 v 6.21616 q 0,0.67448 -0.136719,0.82031 -0.136719,0.14584 -0.774741,0.14584 -0.492188,0 -0.601563,-0.14584 -0.109375,-0.14583 -0.109375,-0.82031 v -6.21616 q 0,-0.73828 -0.02734,-3.3086 -0.02734,-2.57032 -0.02734,-2.83464 0,-0.41016 0.136719,-0.49219 0.136719,-0.0911 0.811199,-0.0911 0.555991,0 0.656252,0.11849 0.109375,0.10937 0.109375,0.70182 z"
         id="path7172" />
      <path
         d="m 85.679114,910.82489 q 0,-0.73828 -0.02734,-3.3086 -0.02734,-2.57031 -0.02734,-2.83464 0,-0.41015 0.136719,-0.49219 0.136719,-0.082 0.811199,-0.082 0.555991,0 0.656251,0.11849 0.109375,0.10938 0.109375,0.70183 0,0.92969 -0.01823,2.9349 -0.01823,2.00521 -0.01823,2.96224 v 2.15105 q 0,0.67448 -0.136719,0.82031 -0.136719,0.14584 -0.756512,0.14584 -0.510417,0 -0.619793,-0.13672 -0.109375,-0.14584 -0.109375,-0.82943 z m -0.109375,-8.24871 v -0.22786 q 0,-0.63803 0.21875,-0.82032 0.218751,-0.18229 0.765627,-0.18229 0.610678,0 0.756512,0.11849 0.154948,0.10937 0.154948,0.52865 v 0.24609 q 0,0.63802 -0.227865,0.8112 -0.218751,0.17318 -0.774741,0.17318 -0.601564,0 -0.747397,-0.10938 -0.145834,-0.10937 -0.145834,-0.53776 z"
         id="path7174" />
      <path
         d="m 89.571049,904.10743 h 0.875001 v -0.95703 q 0,-0.57422 0.100261,-0.94792 0.100261,-0.38281 0.282553,-0.53776 0.191406,-0.16406 0.364584,-0.20964 0.173177,-0.0547 0.428386,-0.0547 0.355469,0 0.410157,0.13672 0.05469,0.1276 0.05469,0.86588 v 1.70443 h 2.29688 q 0.164062,0 0.273438,0.0273 0.109375,0.0273 0.200521,0.15495 0.09115,0.11849 0.09115,0.33724 v 0.31901 q 0,0.5013 -0.565105,0.5013 h -2.315109 v 5.76954 q 0,1.60417 1.294273,1.60417 0.136719,0 0.273438,-0.0182 0.145834,-0.0273 0.23698,-0.0456 0.100261,-0.0274 0.23698,-0.0729 0.145833,-0.0547 0.200521,-0.0729 0.05469,-0.0273 0.182292,-0.0911 l 0.136719,-0.0547 q 0.173177,-0.0729 0.300782,-0.0182 0.136719,0.0547 0.236979,0.30078 l 0.100261,0.3737 q 0.08203,0.2461 0.01823,0.35547 -0.0638,0.10026 -0.319011,0.20052 -0.975262,0.44662 -1.959639,0.44662 -1.294273,0 -1.914066,-0.65625 -0.610678,-0.65625 -0.610678,-1.95053 0,-1.21224 -0.01823,-3.20834 -0.01823,-1.99609 -0.01823,-2.86198 h -0.875001 q -0.264324,0 -0.410157,-0.10026 -0.145834,-0.10026 -0.145834,-0.40104 V 904.627 q 0,-0.31902 0.136719,-0.41928 0.145834,-0.10026 0.419272,-0.10026 z"
         id="path7176" />
      <path
         d="m 96.844502,906.75978 q 0,-0.73828 -0.02734,-3.3086 -0.02734,-2.57032 -0.02734,-2.83464 0,-0.41016 0.136719,-0.49219 0.136719,-0.0911 0.811199,-0.0911 0.555991,0 0.656252,0.11849 0.109375,0.10937 0.109375,0.70182 0,0.82943 -0.01823,2.62501 -0.01823,1.78646 -0.01823,2.66146 0.856773,-2.22396 3.208343,-2.22396 0.82031,0 1.48568,0.28255 0.67448,0.28255 1.19401,0.875 0.51953,0.59245 0.80209,1.59506 0.29166,1.0026 0.29166,2.36068 0,1.34896 -0.28255,2.35156 -0.28255,1.00261 -0.80208,1.59506 -0.51042,0.58333 -1.1849,0.86589 -0.66537,0.28255 -1.50391,0.28255 -1.15755,0 -1.968757,-0.58334 -0.811199,-0.58333 -1.239586,-1.66797 v 1.10287 q 0,0.67448 -0.136719,0.82031 -0.136719,0.14584 -0.774741,0.14584 -0.492188,0 -0.601563,-0.15495 -0.109375,-0.15495 -0.109375,-0.8112 z m 4.420578,6.09767 q 1.14844,0 1.81381,-0.9388 0.67448,-0.93881 0.67448,-2.82553 0,-1.89584 -0.66537,-2.84376 -0.66536,-0.94791 -1.82292,-0.94791 -1.25781,0 -2.023439,0.95703 -0.756511,0.94792 -0.756511,2.8073 0,1.70443 0.774741,2.7526 0.774739,1.03907 2.005209,1.03907 z"
         id="path7178" />
      <path
         d="m 113.75208,906.60483 v -1.56771 q 0,-0.67448 0.10938,-0.80208 0.10937,-0.12761 0.67448,-0.12761 0.24609,0 0.36458,0 0.11849,0 0.22787,0.0456 0.11849,0.0365 0.15494,0.0638 0.0456,0.0273 0.0729,0.14583 0.0365,0.11849 0.0365,0.21875 0,0.0911 0,0.32813 0,3.61849 -0.26432,5.54167 -1.06641,7.63804 -6.4896,7.63804 -0.58333,0 -1.21224,-0.13672 -0.2461,-0.0456 -0.32813,-0.13672 -0.082,-0.082 -0.0456,-0.3099 l 0.0911,-0.5013 q 0.0547,-0.23698 0.15494,-0.29167 0.10026,-0.0547 0.3099,-0.0273 0.0729,0 0.39193,0.0273 0.32812,0.0273 0.5013,0.0273 2.06902,0 3.19011,-1.29427 1.13021,-1.29428 1.6862,-4.15626 -0.30078,0.875 -0.65625,1.47656 -0.34635,0.59245 -0.70182,0.875 -0.34636,0.27344 -0.63803,0.3737 -0.28255,0.10938 -0.60156,0.10938 -0.58333,0 -1.05729,-0.2461 -0.47396,-0.24609 -0.80209,-0.74739 -0.32812,-0.50131 -0.57422,-1.03907 -0.23698,-0.53776 -0.38281,-1.35807 -0.14583,-0.82032 -0.23698,-1.44011 -0.082,-0.62891 -0.11849,-1.56771 -0.0365,-0.9388 -0.0456,-1.44922 -0.009,-0.51042 -0.009,-1.34896 0,-0.23698 0,-0.33724 0,-0.10026 0.0365,-0.21875 0.0365,-0.11849 0.0729,-0.14584 0.0365,-0.0365 0.15495,-0.0729 0.11849,-0.0456 0.23698,-0.0456 0.1276,0 0.37369,0 0.56511,0 0.66537,0.12761 0.10026,0.11849 0.10026,0.80208 v 1.56771 q 0,0.51042 0.0273,1.07553 0.0365,0.55599 0.11849,1.28515 0.082,0.72917 0.23698,1.36719 0.16407,0.63803 0.39193,1.19402 0.23698,0.55599 0.60157,0.88411 0.36458,0.31901 0.81119,0.31901 0.51042,0 0.92969,-0.46484 0.42839,-0.47396 0.6836,-1.16667 0.25521,-0.70182 0.42839,-1.5586 0.18229,-0.86588 0.2552,-1.60416 0.0729,-0.73829 0.0729,-1.33074 z"
         id="path7180" />
      <path
         d="m 123.40444,906.40431 -4.39323,6.32553 q 0.77474,0.0547 1.95964,0.0547 1.76823,0 2.79818,-0.0911 0.30989,-0.0182 0.42838,0.13672 0.11849,0.15494 0.15495,0.73828 0.0273,0.20052 -0.0456,0.30989 -0.0729,0.10026 -0.32813,0.13672 -0.69271,0.10938 -3.34505,0.10938 -2.41537,0 -3.13543,-0.10938 -0.24609,-0.0365 -0.33724,-0.13672 -0.082,-0.10937 -0.0547,-0.30989 0.009,-0.2461 0.20963,-0.72917 0.20964,-0.48307 0.42839,-0.78386 l 4.64844,-6.73568 q -0.77474,-0.0547 -1.95964,-0.0547 -1.64062,0 -2.59766,0.0911 -0.34635,0.0182 -0.4375,-0.10937 -0.082,-0.13672 -0.13672,-0.76563 -0.0547,-0.40104 0.3737,-0.44661 0.90235,-0.11849 3.1172,-0.11849 2.29687,0 3.17188,0.11849 0.42838,0.0547 0.37369,0.46484 -0.0729,0.67448 -0.89323,1.90495 z"
         id="path7182" />
      <path
         d="m 125.58284,911.23505 q 0,-1.38542 0.91146,-2.17839 0.91146,-0.79297 2.42448,-0.79297 0.97526,0 1.74089,0.34636 0.77474,0.33724 1.19401,1.0026 v -1.95964 q 0,-0.58333 -0.17318,-1.02083 -0.17317,-0.44662 -0.42838,-0.69271 -0.25521,-0.2461 -0.61068,-0.39193 -0.35547,-0.15495 -0.65625,-0.20052 -0.30078,-0.0456 -0.62891,-0.0456 -0.92969,0 -2.37891,0.39192 -0.21875,0.0912 -0.3737,0.0365 -0.14583,-0.0638 -0.23698,-0.31901 l -0.1276,-0.35547 q -0.082,-0.30078 0,-0.42838 0.082,-0.13672 0.32812,-0.22787 0.49219,-0.18229 1.32162,-0.32813 0.83854,-0.15494 1.72266,-0.15494 3.84636,0 3.84636,3.56381 v 5.4961 q 0,0.68359 -0.13672,0.82943 -0.1276,0.13672 -0.75651,0.13672 -0.49219,0 -0.60156,-0.14584 -0.10938,-0.14583 -0.10938,-0.82031 v -0.11849 q -0.41016,0.64714 -1.19401,0.95703 -0.77474,0.3099 -1.77735,0.3099 -1.53125,0 -2.41537,-0.75651 -0.88411,-0.76563 -0.88411,-2.13282 z m 3.91927,-1.9961 q -1.0664,0 -1.64062,0.54688 -0.56511,0.53776 -0.56511,1.43099 0,0.875 0.56511,1.40365 0.5651,0.51953 1.62239,0.51953 1.06641,0 1.71355,-0.52865 0.65625,-0.52864 0.65625,-1.39453 0,-0.86589 -0.63802,-1.42188 -0.63802,-0.55599 -1.71355,-0.55599 z"
         id="path7184" />
      <path
         d="m 144.25865,905.05535 q 0,0.8112 -0.0182,2.97136 -0.0182,2.16016 -0.0182,3.60027 v 1.34896 q 0,0.67448 -0.13672,0.82031 -0.13672,0.14584 -0.77474,0.14584 -0.49219,0 -0.60157,-0.14584 -0.10937,-0.14583 -0.10937,-0.82031 v -1.20313 q -0.46485,1.13933 -1.45834,1.75 -0.99349,0.60157 -2.10547,0.60157 -0.49219,0 -0.88412,-0.0729 -0.38281,-0.0729 -0.77474,-0.28255 -0.38281,-0.21875 -0.63802,-0.57422 -0.25521,-0.35547 -0.41927,-0.95703 -0.15495,-0.61068 -0.15495,-1.431 0,-1.08463 0.0182,-1.64062 -0.009,-0.87501 -0.0456,-2.36069 -0.0365,-1.48567 -0.0365,-1.8776 0,-0.59245 0.11849,-0.70183 0.1276,-0.11849 0.82031,-0.11849 0.57422,0 0.66537,0.12761 0.10026,0.11849 0.10026,0.82031 v 5.69663 q 0,1.04818 0.42839,1.57682 0.42838,0.52865 1.35807,0.52865 0.56511,0 1.06641,-0.23698 0.5013,-0.24609 0.91146,-0.72005 0.41927,-0.48308 0.68359,-1.27605 0.27344,-0.79297 0.32813,-1.8138 -0.0365,-2.8073 -0.0365,-3.75522 0,-0.68359 0.12761,-0.8112 0.13671,-0.13672 0.82031,-0.13672 0.54688,0 0.65625,0.13672 0.10938,0.12761 0.10938,0.8112 z"
         id="path7186" />
      <path
         d="m 148.77038,900.85352 q 0,0.92969 -0.0182,2.94402 -0.0182,2.00521 -0.0182,2.96224 v 6.21616 q 0,0.67448 -0.13672,0.82031 -0.13672,0.14584 -0.77474,0.14584 -0.49219,0 -0.60157,-0.14584 -0.10937,-0.14583 -0.10937,-0.82031 v -6.21616 q 0,-0.73828 -0.0273,-3.3086 -0.0274,-2.57032 -0.0274,-2.83464 0,-0.41016 0.13672,-0.49219 0.13672,-0.0911 0.8112,-0.0911 0.55599,0 0.65625,0.11849 0.10938,0.10937 0.10938,0.70182 z"
         id="path7188" />
      <path
         d="m 151.64147,910.82489 q 0,-0.73828 -0.0273,-3.3086 -0.0273,-2.57031 -0.0273,-2.83464 0,-0.41015 0.13672,-0.49219 0.13671,-0.082 0.8112,-0.082 0.55599,0 0.65625,0.11849 0.10937,0.10938 0.10937,0.70183 0,0.92969 -0.0182,2.9349 -0.0182,2.00521 -0.0182,2.96224 v 2.15105 q 0,0.67448 -0.13672,0.82031 -0.13671,0.14584 -0.75651,0.14584 -0.51042,0 -0.61979,-0.13672 -0.10938,-0.14584 -0.10938,-0.82943 z m -0.10937,-8.24871 v -0.22786 q 0,-0.63803 0.21875,-0.82032 0.21875,-0.18229 0.76563,-0.18229 0.61067,0 0.75651,0.11849 0.15495,0.10937 0.15495,0.52865 v 0.24609 q 0,0.63802 -0.22787,0.8112 -0.21875,0.17318 -0.77474,0.17318 -0.60156,0 -0.7474,-0.10938 -0.14583,-0.10937 -0.14583,-0.53776 z"
         id="path7190" />
      <path
         d="m 157.31076,909.04755 q 0,1.85937 0.7474,2.82552 0.75651,0.96615 2.19662,0.96615 0.61979,0 1.83203,-0.35547 0.24609,-0.0547 0.35547,0 0.11849,0.0547 0.16406,0.24609 l 0.0911,0.44662 q 0.0638,0.19141 0,0.31901 -0.0638,0.11849 -0.29167,0.20052 -1.09375,0.42839 -2.45183,0.42839 -4.3112,0 -4.3112,-5.11329 0,-2.55209 1.10286,-3.81902 1.10287,-1.27604 3.20834,-1.27604 0.69271,0 1.35808,0.13672 0.66537,0.13671 1.05729,0.29166 0.45573,0.14584 0.34636,0.52865 l -0.10938,0.51953 q -0.0638,0.20052 -0.20052,0.2461 -0.13672,0.0456 -0.35547,-0.0182 -1.09375,-0.31901 -1.79557,-0.31901 -1.44923,0 -2.19662,0.94791 -0.7474,0.94792 -0.7474,2.79819 z"
         id="path7192" />
      <path
         d="m 171.80297,909.50328 h -5.61459 q 0.0456,0.83854 0.24609,1.45833 0.20964,0.6198 0.49219,0.98438 0.28255,0.35547 0.6836,0.57422 0.41015,0.21875 0.79297,0.29167 0.38281,0.0638 0.84766,0.0638 0.53776,0 1.08463,-0.12761 0.55599,-0.13672 0.75651,-0.22786 0.20964,-0.0911 0.69271,-0.3099 0.23698,-0.0911 0.35547,-0.0456 0.12761,0.0365 0.20964,0.24609 l 0.16406,0.41016 q 0.0638,0.18229 0.009,0.28255 -0.0547,0.0912 -0.29167,0.21875 -1.53125,0.80209 -3.13542,0.80209 -4.57553,0 -4.57553,-5.22267 0,-1.14844 0.22786,-2.03255 0.22787,-0.88412 0.61068,-1.431 0.38281,-0.55599 0.9388,-0.90234 0.556,-0.34636 1.15756,-0.48307 0.60156,-0.13672 1.32162,-0.13672 0.70182,0 1.26693,0.1276 0.5651,0.12761 1.07552,0.44662 0.51953,0.31901 0.86589,0.83854 0.34635,0.51042 0.54687,1.33073 0.20964,0.8112 0.20964,1.88672 0,0.95704 -0.93881,0.95704 z m -3.02604,-4.35678 q -0.52865,0 -0.95704,0.14583 -0.41927,0.14583 -0.79297,0.49219 -0.36458,0.34635 -0.59245,1.01172 -0.21875,0.65625 -0.26432,1.60417 h 5.09506 q -0.009,-0.96615 -0.20052,-1.6224 -0.19141,-0.66536 -0.54688,-1.01172 -0.35546,-0.34635 -0.77474,-0.48307 -0.41015,-0.13672 -0.96614,-0.13672 z"
         id="path7194" />
      <path
         d="m 174.61939,913.34052 v -0.21875 q 0,-0.63802 0.21875,-0.82031 0.22786,-0.19141 0.77474,-0.19141 0.60156,0 0.75651,0.11849 0.15495,0.10938 0.15495,0.53776 v 0.2461 q 0,0.63802 -0.22787,0.8112 -0.21875,0.17317 -0.77474,0.17317 -0.60156,0 -0.75651,-0.10937 -0.14583,-0.11849 -0.14583,-0.54688 z"
         id="path7196" />
      <path
         d="m 180.01523,909.04755 q 0,1.85937 0.74739,2.82552 0.75652,0.96615 2.19662,0.96615 0.6198,0 1.83204,-0.35547 0.24609,-0.0547 0.35547,0 0.11849,0.0547 0.16406,0.24609 l 0.0911,0.44662 q 0.0638,0.19141 0,0.31901 -0.0638,0.11849 -0.29167,0.20052 -1.09375,0.42839 -2.45183,0.42839 -4.3112,0 -4.3112,-5.11329 0,-2.55209 1.10286,-3.81902 1.10287,-1.27604 3.20834,-1.27604 0.69271,0 1.35808,0.13672 0.66536,0.13671 1.05729,0.29166 0.45573,0.14584 0.34636,0.52865 l -0.10938,0.51953 q -0.0638,0.20052 -0.20052,0.2461 -0.13672,0.0456 -0.35547,-0.0182 -1.09375,-0.31901 -1.79558,-0.31901 -1.44922,0 -2.19662,0.94791 -0.74739,0.94792 -0.74739,2.79819 z"
         id="path7198" />
      <path
         d="m 193.07645,906.40431 -4.39324,6.32553 q 0.77474,0.0547 1.95964,0.0547 1.76823,0 2.79818,-0.0911 0.3099,-0.0182 0.42839,0.13672 0.11849,0.15494 0.15495,0.73828 0.0273,0.20052 -0.0456,0.30989 -0.0729,0.10026 -0.32812,0.13672 -0.69271,0.10938 -3.34506,0.10938 -2.41537,0 -3.13542,-0.10938 -0.2461,-0.0365 -0.33724,-0.13672 -0.082,-0.10937 -0.0547,-0.30989 0.009,-0.2461 0.20964,-0.72917 0.20963,-0.48307 0.42838,-0.78386 l 4.64845,-6.73568 q -0.77474,-0.0547 -1.95964,-0.0547 -1.64063,0 -2.59766,0.0911 -0.34636,0.0182 -0.4375,-0.10937 -0.082,-0.13672 -0.13672,-0.76563 -0.0547,-0.40104 0.3737,-0.44661 0.90234,-0.11849 3.11719,-0.11849 2.29688,0 3.17188,0.11849 0.42839,0.0547 0.3737,0.46484 -0.0729,0.67448 -0.89323,1.90495 z"
         id="path7200" />
    </g>
  </g>
  <path
     id="polygon238"
     class="cls-1"
     d="M 560.21875 0 L 558.71094 752.18945 L 572.5 704.80078 L 593.94922 757.17969 L 588.15234 0 L 560.21875 0 z " />
  <path
     id="polygon240"
     class="cls-2"
     d="M 502.33789 0 L 500.83984 547.18945 L 514.63086 502.94922 L 536.07031 551.84961 L 534.56445 0 L 502.33789 0 z " />
</svg>
