<?xml version="1.0" encoding="UTF-8"?>
<svg id="Layer_1" xmlns="http://www.w3.org/2000/svg" viewBox="0 0 638 1011">
  <defs>
    <style>
      .cls-1 {
        fill: #799d3e;
      }

      .cls-2 {
        fill: #516ba8;
      }
    </style>
  </defs>
  <g>
    <path class="cls-2" d="M74.41,147.03c0,4.03-1.92,6.58-5.09,7.39,5.18.53,7.87,3.94,7.87,8.93,0,5.38-3.12,10.03-13.54,10.03-3.36,0-10.47-.48-10.47-2.54v-16.61c0-3.17-.14-12.05-.14-13.44,0-2.11,6.14-2.93,9.84-2.93,7.49,0,11.52,3.31,11.52,9.17ZM57.27,153.13h6.05c5.14,0,6.87-2.69,6.87-6.14,0-3.22-1.49-5.76-7.34-5.76-2.11,0-4.18.34-5.52.82,0,3.84-.05,7.34-.05,11.09ZM72.78,163.06c0-3.17-1.44-6.67-8.35-6.67h-7.15v12.91c1.78.43,4.61.77,6.77.77,6.67,0,8.74-3.17,8.74-7.01Z"/>
    <path class="cls-2" d="M81.85,160.04c0-10.22,5.14-12.91,11.28-12.91s11.33,2.69,11.33,12.91-5.14,13.35-11.33,13.35-11.28-3.41-11.28-13.35ZM100.04,160.23c0-7.78-3.07-9.7-6.91-9.7s-6.91,1.92-6.91,9.7,3.12,9.99,6.91,9.99,6.91-2.45,6.91-9.99Z"/>
    <path class="cls-2" d="M113.19,169.78c1.34.1,3.12.14,5.04.14,2.83,0,5.62-.1,7.2-.24,1.01-.05,1.34.14,1.49,2.26.1.62-.05,1.01-.96,1.15-1.49.24-4.66.29-8.59.29s-6.53-.05-8.06-.29c-.86-.14-1.1-.48-1.01-1.15.05-.86.91-2.88,1.63-3.89l11.95-17.33c-1.34-.1-3.17-.14-5.04-.14-2.69,0-5.18.1-6.67.24-1.2.05-1.3-.1-1.49-2.26-.1-.67.14-1.06.96-1.15,1.44-.19,5.04-.29,8.02-.29s6.77.1,8.16.29c.77.1,1.06.48.96,1.2-.05.43-.29,1.87-2.3,4.9l-11.28,16.27ZM117.7,143.24l4.22-2.59c.91-.62,1.1-.62,1.54-.1.48.58.43.86-.38,1.44l-4.94,3.98c-.19.14-.34.19-.43.19-.14,0-.29-.05-.48-.19l-4.99-3.98c-.77-.58-.82-.86-.34-1.44.38-.53.58-.48,1.54.1l4.27,2.59Z"/>
    <path class="cls-2" d="M134.98,161.48c.43,7.44,4.27,8.69,7.87,8.69,3.02,0,5.04-1.06,6.53-1.73.82-.29,1.15-.19,1.44.53l.43,1.06c.24.62.1.86-.72,1.3-1.49.77-4.18,2.06-8.07,2.06-6.53,0-11.76-3.17-11.76-13.44s5.09-12.82,10.95-12.82,10.18,2.45,10.18,11.91c0,1.49-.67,2.45-2.4,2.45h-14.45ZM134.93,158.65h13.11c-.05-6.86-2.88-8.35-6.38-8.35s-6.38,1.63-6.72,8.35Z"/>
    <path class="cls-2" d="M158.55,171.18c.58-2.21,1.01-2.88,3.26-2.88,1.2,0,1.92.29,1.92,1.06,0,.53-.38,1.34-1.15,2.4l-3.98,5.47c-.48.62-.96.77-1.49.62-.58-.19-.62-.58-.43-1.25l1.87-5.42Z"/>
    <path class="cls-2" d="M187.45,158.31c3.26,0,6.05,1.1,7.54,3.46v-5.04c0-5.28-3.98-6.05-6.43-6.05s-5.23.77-6.1,1.01c-.77.29-1.25.19-1.58-.72l-.34-.91c-.38-1.01.1-1.39.86-1.68,1.44-.53,4.51-1.25,7.83-1.25,3.74,0,9.89.91,9.89,9.17v14.11c0,2.35-.14,2.5-2.3,2.5-1.68,0-1.82-.14-1.82-2.5v-.29c-1.49,2.3-4.37,3.26-7.63,3.26-5.23,0-8.5-2.74-8.5-7.44s3.46-7.63,8.59-7.63ZM183.27,165.89c0,2.93,1.92,4.94,5.62,4.94s6.1-1.97,6.1-4.94-2.3-5.09-6.05-5.09-5.67,2.11-5.67,5.09Z"/>
    <path class="cls-2" d="M206.84,147.61v-2.45c0-4.18,1.58-4.51,3.02-4.51,1.25,0,1.2.14,1.2,2.59v4.37h5.9c.72,0,1.44.14,1.44,1.34v.82c0,1.15-.77,1.3-1.44,1.3h-5.95v14.83c0,2.74,1.06,4.13,3.31,4.13,1.44,0,2.64-.62,3.26-.91.62-.19,1.01-.19,1.39.72l.24.96c.34.82.05,1.1-.77,1.44-.82.38-2.74,1.15-5.04,1.15-4.51,0-6.48-2.35-6.48-6.72,0-5.95-.1-10.85-.1-15.6h-2.26c-.72,0-1.44-.14-1.44-1.3v-.82c0-1.2.67-1.34,1.44-1.34h2.26ZM215.57,139.59c.53-1.73.91-2.21,2.78-2.21.96,0,1.54.24,1.54.82,0,.43-.29,1.01-.96,1.82l-3.55,4.7c-.43.48-.82.62-1.3.48-.43-.1-.43-.43-.29-.96l1.78-4.66Z"/>
    <path class="cls-2" d="M247.4,141.8c-.05,4.22-.1,8.31-.1,12.63v16.18c0,2.16-.24,2.3-2.5,2.3-1.73,0-1.82-.29-1.82-2.45v-16.03c0-2.64-.1-9.17-.14-12.63h-9.31c-.67,0-1.25-.14-1.39-1.15l-.1-.86c-.1-1.15.24-1.44,1.25-1.44h23.62c1.01,0,1.39.29,1.25,1.44l-.1.86c-.14,1.01-.72,1.15-1.39,1.15h-9.26Z"/>
    <path class="cls-2" d="M270.1,149.33c0-1.68.05-1.73,1.87-1.73,2.11,0,2.3.1,2.3,1.97,0,10.46-4.46,17.91-7.73,22.13-.77,1.1-1.2,1.2-2.54,1.2-1.25,0-1.63-.1-2.4-1.15-3.26-4.27-7.73-11.71-7.73-22.18,0-1.87.19-1.97,2.02-1.97,2.02,0,2.16.05,2.16,1.73,0,11.04,5.76,19.59,6,19.59.19,0,6.05-8.59,6.05-19.59Z"/>
    <path class="cls-2" d="M287.19,158.31c3.26,0,6.05,1.1,7.54,3.46v-5.04c0-5.28-3.98-6.05-6.43-6.05s-5.23.77-6.1,1.01c-.77.29-1.25.19-1.58-.72l-.34-.91c-.38-1.01.1-1.39.86-1.68,1.44-.53,4.51-1.25,7.82-1.25,3.74,0,9.89.91,9.89,9.17v14.11c0,2.35-.14,2.5-2.3,2.5-1.68,0-1.82-.14-1.82-2.5v-.29c-1.49,2.3-4.37,3.26-7.63,3.26-5.23,0-8.5-2.74-8.5-7.44s3.46-7.63,8.59-7.63ZM283.01,165.89c0,2.93,1.92,4.94,5.62,4.94s6.1-1.97,6.1-4.94-2.3-5.09-6.05-5.09-5.66,2.11-5.66,5.09ZM292.28,139.06c.53-.72,1.44-1.01,2.26-.1.86.96.62,1.68.05,2.02l-5.14,4.22c-.91.53-1.49-.1-.91-.77l3.74-5.38Z"/>
    <path class="cls-2" d="M321.27,154.42v15.99c0,2.35-.19,2.5-2.35,2.5-1.68,0-1.82-.14-1.82-2.5v-15.99c0-3.41-.14-14.02-.14-15.79,0-1.39.1-1.49,2.45-1.49,1.87,0,1.97.05,1.97,2.11,0,4.8-.1,10.27-.1,15.17Z"/>
    <path class="cls-2" d="M335.48,158.31c3.26,0,6.05,1.1,7.54,3.46v-5.04c0-5.28-3.98-6.05-6.43-6.05s-5.23.77-6.1,1.01c-.77.29-1.25.19-1.58-.72l-.34-.91c-.38-1.01.1-1.39.86-1.68,1.44-.53,4.51-1.25,7.82-1.25,3.74,0,9.89.91,9.89,9.17v14.11c0,2.35-.14,2.5-2.3,2.5-1.68,0-1.82-.14-1.82-2.5v-.29c-1.49,2.3-4.37,3.26-7.63,3.26-5.23,0-8.5-2.74-8.5-7.44s3.46-7.63,8.59-7.63ZM331.3,165.89c0,2.93,1.92,4.94,5.62,4.94s6.1-1.97,6.1-4.94-2.3-5.09-6.05-5.09-5.66,2.11-5.66,5.09ZM340.57,139.06c.53-.72,1.44-1.01,2.26-.1.86.96.62,1.68.05,2.02l-5.14,4.22c-.91.53-1.49-.1-.91-.77l3.74-5.38Z"/>
    <path class="cls-2" d="M365.96,166.18c0-6.48-13.06-2.54-13.06-11.95,0-5.86,5.09-7.1,9.12-7.1,3.02,0,5.86.62,6.87,1.01.96.34,1.2.67.91,1.49l-.38,1.01c-.24.82-.86.72-1.63.48-1.01-.24-3.02-.82-5.57-.82-2.74,0-5.33.77-5.33,3.74,0,6.38,13.11,2.21,13.11,11.95,0,6.29-5.38,7.39-9.41,7.39-2.74,0-6.72-.53-7.63-.82-.82-.24-1.15-.53-.86-1.49l.19-.82c.24-.91.58-1.01,1.44-.86.62.1,4.03.82,6.67.82,2.98,0,5.57-.96,5.57-4.03Z"/>
    <path class="cls-2" d="M379.78,154.42v4.56l9.7-10.13c.67-1.2.91-1.25,3.84-1.25.91,0,1.34.05,1.34.43,0,.29-.29.82-.91,1.63l-10.13,9.94,9.94,11.14c.62.82.96,1.34.96,1.68,0,.38-.43.48-1.34.48-2.93,0-3.12-.05-3.89-1.34l-9.5-11.09v9.94c0,2.3-.14,2.5-2.35,2.5-1.68,0-1.82-.24-1.82-2.5v-15.99c0-3.41-.14-14.02-.14-15.79,0-1.39.1-1.49,2.45-1.49,1.87,0,1.97.05,1.97,2.11,0,4.8-.1,10.27-.1,15.17Z"/>
    <path class="cls-2" d="M406.85,158.31c3.26,0,6.05,1.1,7.54,3.46v-5.04c0-5.28-3.98-6.05-6.43-6.05s-5.23.77-6.1,1.01c-.77.29-1.25.19-1.58-.72l-.34-.91c-.38-1.01.1-1.39.86-1.68,1.44-.53,4.51-1.25,7.83-1.25,3.74,0,9.89.91,9.89,9.17v14.11c0,2.35-.14,2.5-2.3,2.5-1.68,0-1.82-.14-1.82-2.5v-.29c-1.49,2.3-4.37,3.26-7.63,3.26-5.23,0-8.5-2.74-8.5-7.44s3.46-7.63,8.59-7.63ZM402.67,165.89c0,2.93,1.92,4.94,5.62,4.94s6.1-1.97,6.1-4.94-2.3-5.09-6.05-5.09-5.67,2.11-5.67,5.09Z"/>
    <path class="cls-2" d="M426.24,171.18c.58-2.21,1.01-2.88,3.26-2.88,1.2,0,1.92.29,1.92,1.06,0,.53-.38,1.34-1.15,2.4l-3.98,5.47c-.48.62-.96.77-1.49.62-.58-.19-.62-.58-.43-1.25l1.87-5.42Z"/>
    <path class="cls-2" d="M52.95,206.69c0-1.39.1-1.49,2.45-1.49,1.87,0,1.97.05,1.97,2.11v3.36c1.34-3.84,4.08-5.95,8.16-5.95,5.47,0,9.7,3.6,9.7,13.15s-4.13,13.1-9.7,13.1c-4.22,0-6.96-2.35-8.26-6.29v13.39c0,2.3-.14,2.5-2.35,2.5-1.68,0-1.82-.24-1.82-2.5v-15.6c0-3.41-.14-14.02-.14-15.79ZM70.86,218.02c0-6.72-2.59-9.75-6.38-9.75-4.13,0-7.15,3.07-7.15,9.7,0,5.9,2.98,9.75,7.15,9.75,3.74,0,6.38-2.98,6.38-9.7Z"/>
    <path class="cls-2" d="M80.17,217.64c0-10.22,5.14-12.91,11.28-12.91s11.33,2.69,11.33,12.91-5.14,13.35-11.33,13.35-11.28-3.41-11.28-13.35ZM98.36,217.83c0-7.78-3.07-9.7-6.91-9.7s-6.91,1.92-6.91,9.7,3.12,9.98,6.91,9.98,6.91-2.45,6.91-9.98Z"/>
    <path class="cls-2" d="M113.19,212.02v4.56l9.7-10.13c.67-1.2.91-1.25,3.84-1.25.91,0,1.34.05,1.34.43,0,.29-.29.82-.91,1.63l-10.13,9.94,9.94,11.14c.62.82.96,1.34.96,1.68,0,.38-.43.48-1.34.48-2.93,0-3.12-.05-3.89-1.34l-9.5-11.09v9.94c0,2.3-.14,2.5-2.35,2.5-1.68,0-1.82-.24-1.82-2.5v-15.99c0-3.41-.14-14.02-.14-15.79,0-1.39.1-1.49,2.45-1.49,1.87,0,1.97.05,1.97,2.11,0,4.8-.1,10.27-.1,15.17Z"/>
    <path class="cls-2" d="M132.29,217.64c0-10.22,5.14-12.91,11.28-12.91s11.33,2.69,11.33,12.91-5.14,13.35-11.33,13.35-11.28-3.41-11.28-13.35ZM150.49,217.83c0-7.78-3.07-9.7-6.91-9.7s-6.91,1.92-6.91,9.7,3.12,9.98,6.91,9.98,6.91-2.45,6.91-9.98Z"/>
    <path class="cls-2" d="M165.13,222.49v7.1c0,9.07-2.06,11.76-6.86,11.76-1.68,0-3.55-.48-4.46-.86-.58-.19-.77-.62-.53-1.34l.34-1.06c.24-.77.62-.91,1.1-.77.58.19,1.63.48,2.74.48,3.22,0,3.5-2.4,3.5-8.21v-7.1c0-3.41-.14-14.02-.14-15.79,0-1.39.1-1.49,2.45-1.49,1.87,0,1.97.05,1.97,2.11,0,4.8-.1,10.27-.1,15.17ZM160.71,200.69c0-2.35.86-2.54,2.54-2.54,2.06,0,2.3.19,2.3,1.63v.62c0,2.35-.86,2.59-2.54,2.59-2.06,0-2.3-.24-2.3-1.68v-.62Z"/>
    <path class="cls-2" d="M190.37,215.91c3.26,0,6.05,1.1,7.54,3.46v-5.04c0-5.28-3.98-6.05-6.43-6.05s-5.23.77-6.1,1.01c-.77.29-1.25.19-1.58-.72l-.34-.91c-.38-1.01.1-1.39.86-1.68,1.44-.53,4.51-1.25,7.83-1.25,3.74,0,9.89.91,9.89,9.17v14.11c0,2.35-.14,2.5-2.3,2.5-1.68,0-1.82-.14-1.82-2.5v-.29c-1.49,2.3-4.37,3.26-7.63,3.26-5.23,0-8.5-2.74-8.5-7.44s3.46-7.63,8.59-7.63ZM186.2,223.5c0,2.93,1.92,4.94,5.62,4.94s6.1-1.97,6.1-4.94-2.3-5.09-6.05-5.09-5.67,2.11-5.67,5.09Z"/>
    <path class="cls-2" d="M220.13,206.69c0-1.39.1-1.49,2.45-1.49,1.87,0,1.97.05,1.97,2.11v3.36c1.34-3.84,4.08-5.95,8.16-5.95,5.47,0,9.7,3.6,9.7,13.15s-4.13,13.1-9.7,13.1c-4.22,0-6.96-2.35-8.26-6.29v13.39c0,2.3-.14,2.5-2.35,2.5-1.68,0-1.82-.24-1.82-2.5v-15.6c0-3.41-.14-14.02-.14-15.79ZM238.04,218.02c0-6.72-2.59-9.75-6.38-9.75-4.13,0-7.15,3.07-7.15,9.7,0,5.9,2.98,9.75,7.15,9.75,3.74,0,6.38-2.98,6.38-9.7Z"/>
    <path class="cls-2" d="M247.35,217.64c0-10.22,5.14-12.91,11.28-12.91s11.33,2.69,11.33,12.91-5.14,13.35-11.33,13.35-11.28-3.41-11.28-13.35ZM265.54,217.83c0-7.78-3.07-9.7-6.91-9.7s-6.91,1.92-6.91,9.7,3.12,9.98,6.91,9.98,6.91-2.45,6.91-9.98Z"/>
    <path class="cls-2" d="M278.69,227.38c1.34.1,3.12.14,5.04.14,2.83,0,5.62-.1,7.2-.24,1.01-.05,1.34.14,1.49,2.26.1.62-.05,1.01-.96,1.15-1.49.24-4.66.29-8.59.29s-6.53-.05-8.06-.29c-.86-.14-1.1-.48-1.01-1.15.05-.86.91-2.88,1.63-3.89l11.95-17.33c-1.34-.1-3.17-.14-5.04-.14-2.69,0-5.18.1-6.67.24-1.2.05-1.3-.1-1.49-2.26-.1-.67.14-1.06.96-1.15,1.44-.19,5.04-.29,8.02-.29s6.77.1,8.16.29c.77.1,1.06.48.96,1.2-.05.43-.29,1.87-2.3,4.9l-11.28,16.27ZM283.21,200.84l4.22-2.59c.91-.62,1.1-.62,1.54-.1.48.58.43.86-.38,1.44l-4.94,3.98c-.19.14-.34.19-.43.19-.14,0-.29-.05-.48-.19l-4.99-3.98c-.77-.58-.82-.86-.34-1.44.38-.53.58-.48,1.54.1l4.27,2.59Z"/>
    <path class="cls-2" d="M300.48,219.08c.43,7.44,4.27,8.69,7.87,8.69,3.02,0,5.04-1.06,6.53-1.73.82-.29,1.15-.19,1.44.53l.43,1.06c.24.62.1.86-.72,1.3-1.49.77-4.18,2.06-8.07,2.06-6.53,0-11.76-3.17-11.76-13.44s5.09-12.82,10.95-12.82,10.18,2.45,10.18,11.91c0,1.49-.67,2.45-2.4,2.45h-14.45ZM300.44,216.25h13.11c-.05-6.86-2.88-8.35-6.38-8.35s-6.38,1.63-6.72,8.35Z"/>
    <path class="cls-2" d="M335.67,208.61c-4.03,0-7.78,3.31-7.97,10.94v8.45c0,2.3-.14,2.5-2.35,2.5-1.68,0-1.82-.24-1.82-2.5v-15.99c0-3.41-.14-14.02-.14-15.79,0-1.39.1-1.49,2.45-1.49,1.87,0,1.97.05,1.97,2.11,0,4.8-.1,10.27-.1,15.17v1.3c1.15-5.86,5.66-8.59,9.98-8.59s6.53,2.26,6.53,8.54c0,3.41-.1,6.91-.1,10.32v4.42c0,2.35-.19,2.5-2.3,2.5-1.73,0-1.87-.14-1.87-2.5v-13.97c0-3.55-1.15-5.42-4.27-5.42Z"/>
    <path class="cls-2" d="M369.56,230.5c-1.68,0-1.82-.14-1.82-2.5v-13.97c0-3.41-1.06-5.33-4.27-5.33-3.89,0-7.44,2.93-7.97,9.7v9.6c0,2.35-.19,2.5-2.35,2.5-1.68,0-1.82-.14-1.82-2.5v-5.52c0-3.41-.14-14.02-.14-15.79,0-1.39.1-1.49,2.4-1.49,1.92,0,2.02.05,2.02,2.11,0,1.54,0,3.17-.05,4.9,1.54-5.09,5.81-7.49,9.89-7.49s6.53,2.26,6.53,8.54c0,3.41-.1,6.91-.1,10.32v4.42c0,2.35-.14,2.5-2.3,2.5Z"/>
    <path class="cls-2" d="M385.92,215.91c3.26,0,6.05,1.1,7.54,3.46v-5.04c0-5.28-3.98-6.05-6.43-6.05s-5.23.77-6.1,1.01c-.77.29-1.25.19-1.58-.72l-.34-.91c-.38-1.01.1-1.39.86-1.68,1.44-.53,4.51-1.25,7.82-1.25,3.74,0,9.89.91,9.89,9.17v14.11c0,2.35-.14,2.5-2.3,2.5-1.68,0-1.82-.14-1.82-2.5v-.29c-1.49,2.3-4.37,3.26-7.63,3.26-5.23,0-8.5-2.74-8.5-7.44s3.46-7.63,8.59-7.63ZM381.75,223.5c0,2.93,1.92,4.94,5.62,4.94s6.1-1.97,6.1-4.94-2.3-5.09-6.05-5.09-5.66,2.11-5.66,5.09ZM391.01,196.66c.53-.72,1.44-1.01,2.26-.1.86.96.62,1.68.05,2.02l-5.14,4.22c-.91.53-1.49-.1-.91-.77l3.74-5.38Z"/>
    <path class="cls-2" d="M423.03,230.5c-1.68,0-1.82-.14-1.82-2.5v-13.97c0-3.41-1.06-5.33-4.27-5.33-3.89,0-7.44,2.93-7.97,9.7v9.6c0,2.35-.19,2.5-2.35,2.5-1.68,0-1.82-.14-1.82-2.5v-5.52c0-3.41-.14-14.02-.14-15.79,0-1.39.1-1.49,2.4-1.49,1.92,0,2.02.05,2.02,2.11,0,1.54,0,3.17-.05,4.9,1.54-5.09,5.81-7.49,9.89-7.49s6.53,2.26,6.53,8.54c0,3.41-.1,6.91-.1,10.32v4.42c0,2.35-.14,2.5-2.3,2.5Z"/>
    <path class="cls-2" d="M436.85,222.49v5.52c0,2.35-.19,2.5-2.3,2.5-1.73,0-1.87-.14-1.87-2.5v-5.52c0-3.41-.14-14.02-.14-15.79,0-1.39.1-1.49,2.45-1.49,1.87,0,1.97.05,1.97,2.11,0,4.8-.1,10.27-.1,15.17ZM438.15,196.56c.53-.72,1.44-1.01,2.26-.1.86.96.62,1.68.05,2.02l-5.14,4.22c-.91.53-1.49-.1-.91-.77l3.74-5.38Z"/>
    <path class="cls-2" d="M444.96,228.78c.58-2.21,1.01-2.88,3.26-2.88,1.2,0,1.92.29,1.92,1.06,0,.53-.38,1.34-1.15,2.4l-3.98,5.47c-.48.62-.96.77-1.49.62-.58-.19-.62-.58-.43-1.25l1.87-5.42Z"/>
    <path class="cls-2" d="M53.62,262.81v-2.45c0-4.18,1.58-4.51,3.02-4.51,1.25,0,1.2.14,1.2,2.59v4.37h5.9c.72,0,1.44.14,1.44,1.34v.82c0,1.15-.77,1.3-1.44,1.3h-5.95v14.83c0,2.74,1.06,4.13,3.31,4.13,1.44,0,2.64-.62,3.26-.91.62-.19,1.01-.19,1.39.72l.24.96c.34.82.05,1.1-.77,1.44-.82.38-2.74,1.15-5.04,1.15-4.51,0-6.48-2.35-6.48-6.72,0-5.95-.1-10.85-.1-15.6h-2.26c-.72,0-1.44-.14-1.44-1.3v-.82c0-1.2.67-1.34,1.44-1.34h2.26Z"/>
    <path class="cls-2" d="M85.26,265.21c0-2.35.1-2.4,2.02-2.4,2.21,0,2.21.1,2.21,2.06,0,5.18-.1,9.98-.67,14.26-1.73,12.48-6.91,19.63-16.71,19.63-1.25,0-2.26-.14-3.12-.34-.77-.14-1.1-.34-.96-1.15l.24-1.3c.19-.86.58-.91,1.2-.82.48,0,1.49.14,2.3.14,7.2,0,10.66-4.37,12.53-14.02-2.21,6.34-4.8,7.3-6.67,7.3-8.26,0-8.3-15.27-8.3-23.67,0-2.02,0-2.11,2.26-2.11,1.92,0,1.97.05,1.97,2.4v4.03c0,4.51.77,15.75,5.62,15.75s6.1-11.14,6.1-15.75v-4.03Z"/>
    <path class="cls-2" d="M96.82,286.38c.58-2.21,1.01-2.88,3.26-2.88,1.2,0,1.92.29,1.92,1.06,0,.53-.38,1.34-1.15,2.4l-3.98,5.47c-.48.62-.96.77-1.49.62-.58-.19-.62-.58-.43-1.25l1.87-5.42Z"/>
    <path class="cls-2" d="M123.17,269.62v4.56l9.7-10.13c.67-1.2.91-1.25,3.84-1.25.91,0,1.34.05,1.34.43,0,.29-.29.82-.91,1.63l-10.13,9.94,9.94,11.14c.62.82.96,1.34.96,1.68,0,.38-.43.48-1.34.48-2.93,0-3.12-.05-3.89-1.34l-9.5-11.09v9.94c0,2.3-.14,2.5-2.35,2.5-1.68,0-1.82-.24-1.82-2.5v-15.99c0-3.41-.14-14.02-.14-15.79,0-1.39.1-1.49,2.45-1.49,1.87,0,1.97.05,1.97,2.11,0,4.8-.1,10.27-.1,15.17Z"/>
    <path class="cls-2" d="M151.93,262.33c4.22,0,6.91,2.16,8.26,6.14-.05-4.18-.14-13.01-.14-14.64,0-1.39.1-1.49,2.45-1.49,1.87,0,1.97.05,1.97,2.11,0,4.8-.1,10.27-.1,15.17v15.99c0,2.35-.19,2.5-2.3,2.5-1.73,0-1.87-.14-1.87-2.5v-3.31c-1.34,3.94-4.03,6.29-8.26,6.29-5.57,0-9.7-3.6-9.7-13.1s4.22-13.15,9.7-13.15ZM160.13,275.57c0-6.62-3.02-9.7-7.15-9.7-3.79,0-6.43,3.02-6.43,9.75s2.69,9.7,6.43,9.7c4.18,0,7.15-3.84,7.15-9.75Z"/>
    <path class="cls-2" d="M170.55,275.24c0-10.22,5.14-12.91,11.28-12.91s11.33,2.69,11.33,12.91-5.14,13.35-11.33,13.35-11.28-3.41-11.28-13.35ZM188.74,275.43c0-7.78-3.07-9.7-6.91-9.7s-6.91,1.92-6.91,9.7,3.12,9.99,6.91,9.99,6.91-2.45,6.91-9.99Z"/>
    <path class="cls-2" d="M212.93,284.98c1.34.1,3.12.14,5.04.14,2.83,0,5.62-.1,7.2-.24,1.01-.05,1.34.14,1.49,2.26.1.62-.05,1.01-.96,1.15-1.49.24-4.66.29-8.59.29s-6.53-.05-8.06-.29c-.86-.14-1.1-.48-1.01-1.15.05-.86.91-2.88,1.63-3.89l11.95-17.33c-1.34-.1-3.17-.14-5.04-.14-2.69,0-5.18.1-6.67.24-1.2.05-1.3-.1-1.49-2.26-.1-.67.14-1.06.96-1.15,1.44-.19,5.04-.29,8.02-.29s6.77.1,8.16.29c.77.1,1.06.48.96,1.2-.05.43-.29,1.87-2.3,4.9l-11.28,16.27Z"/>
    <path class="cls-2" d="M240.1,262.33c4.22,0,6.91,2.16,8.26,6.14-.05-4.18-.14-13.01-.14-14.64,0-1.39.1-1.49,2.45-1.49,1.87,0,1.97.05,1.97,2.11,0,4.8-.1,10.27-.1,15.17v15.99c0,2.35-.19,2.5-2.3,2.5-1.73,0-1.87-.14-1.87-2.5v-3.31c-1.34,3.94-4.03,6.29-8.26,6.29-5.57,0-9.7-3.6-9.7-13.1s4.22-13.15,9.7-13.15ZM248.31,275.57c0-6.62-3.02-9.7-7.15-9.7-3.79,0-6.43,3.02-6.43,9.75s2.69,9.7,6.43,9.7c4.18,0,7.15-3.84,7.15-9.75Z"/>
    <path class="cls-2" d="M263,276.68c.43,7.44,4.27,8.69,7.87,8.69,3.02,0,5.04-1.06,6.53-1.73.82-.29,1.15-.19,1.44.53l.43,1.06c.24.62.1.86-.72,1.3-1.49.77-4.18,2.06-8.07,2.06-6.53,0-11.76-3.17-11.76-13.44s5.09-12.82,10.95-12.82,10.18,2.45,10.18,11.91c0,1.49-.67,2.45-2.4,2.45h-14.45ZM262.95,273.85h13.11c-.05-6.86-2.88-8.35-6.38-8.35s-6.38,1.63-6.72,8.35Z"/>
    <path class="cls-2" d="M296.93,264.29c0-1.39.1-1.49,2.45-1.49,1.87,0,1.97.05,1.97,2.11v3.36c1.34-3.84,4.08-5.95,8.16-5.95,5.47,0,9.7,3.6,9.7,13.15s-4.13,13.1-9.7,13.1c-4.22,0-6.96-2.35-8.26-6.29v13.39c0,2.3-.14,2.5-2.35,2.5-1.68,0-1.82-.24-1.82-2.5v-15.6c0-3.41-.14-14.02-.14-15.79ZM314.84,275.62c0-6.72-2.59-9.75-6.38-9.75-4.13,0-7.15,3.07-7.15,9.7,0,5.9,2.98,9.75,7.15,9.75,3.74,0,6.38-2.98,6.38-9.7Z"/>
    <path class="cls-2" d="M329.48,268.66c1.54-4.27,4.9-6.34,8.26-6.34,1.01,0,1.92.14,2.35.29.62.19.82.62.62,1.3l-.29,1.44c-.19.72-.53.86-1.3.72-.48-.1-1.44-.24-2.11-.24-3.07,0-7.58,1.87-7.63,13.49v6.29c0,2.3-.14,2.5-2.3,2.5-1.73,0-1.82-.24-1.82-2.5v-5.52c0-3.41-.14-14.02-.14-15.79,0-1.39.05-1.49,2.45-1.49,1.87,0,1.92.05,1.92,2.11v3.74Z"/>
    <path class="cls-2" d="M351.84,273.51c3.26,0,6.05,1.1,7.54,3.46v-5.04c0-5.28-3.98-6.05-6.43-6.05s-5.23.77-6.1,1.01c-.77.29-1.25.19-1.58-.72l-.34-.91c-.38-1.01.1-1.39.86-1.68,1.44-.53,4.51-1.25,7.83-1.25,3.74,0,9.89.91,9.89,9.17v14.11c0,2.35-.14,2.5-2.3,2.5-1.68,0-1.82-.14-1.82-2.5v-.29c-1.49,2.3-4.37,3.26-7.63,3.26-5.23,0-8.5-2.74-8.5-7.44s3.46-7.63,8.59-7.63ZM347.67,281.1c0,2.93,1.92,4.94,5.62,4.94s6.1-1.97,6.1-4.94-2.3-5.09-6.05-5.09-5.67,2.11-5.67,5.09Z"/>
    <path class="cls-2" d="M381.12,285.27c1.73,0,3.74-.62,4.7-.91.86-.19,1.2,0,1.34.62l.24,1.15c.19.67.05,1.06-.77,1.34-1.2.48-3.65,1.1-6.29,1.1-7.25,0-11.09-4.27-11.09-13.15s3.94-13.1,11.09-13.1c2.64,0,5.14.67,6.19,1.1.86.29,1.1.67.91,1.34l-.29,1.34c-.24.72-.67.77-1.44.58-.96-.29-2.78-.82-4.61-.82-4.94,0-7.58,3.26-7.58,9.65s2.64,9.75,7.58,9.75Z"/>
    <path class="cls-2" d="M413.86,282.15v3.46c0,2.35-.19,2.5-2.35,2.5-1.68,0-1.82-.14-1.82-2.5v-3.07c-1.68,4.13-5.62,6.05-9.17,6.05-3.84,0-7.39-1.3-7.39-8.54,0-1.39,0-2.78.05-4.22-.05-4.37-.19-8.78-.19-10.9s0-2.11,2.4-2.11c2.02,0,1.97.1,1.97,2.45v14.64c0,3.5,1.34,5.42,4.61,5.42,3.74,0,7.3-3.17,7.68-10.42-.05-3.6-.1-6.72-.1-9.65,0-2.35.1-2.45,2.45-2.45,1.87,0,1.97.1,1.97,2.45,0,4.7-.1,10.03-.1,16.9Z"/>
    <path class="cls-2" d="M425.28,280.09v7.1c0,9.07-2.06,11.76-6.86,11.76-1.68,0-3.55-.48-4.46-.86-.58-.19-.77-.62-.53-1.34l.34-1.06c.24-.77.62-.91,1.1-.77.58.19,1.63.48,2.74.48,3.22,0,3.5-2.4,3.5-8.21v-7.1c0-3.41-.14-14.02-.14-15.79,0-1.39.1-1.49,2.45-1.49,1.87,0,1.97.05,1.97,2.11,0,4.8-.1,10.27-.1,15.17ZM420.87,258.29c0-2.35.86-2.54,2.54-2.54,2.06,0,2.3.19,2.3,1.63v.62c0,2.35-.86,2.59-2.54,2.59-2.06,0-2.3-.24-2.3-1.68v-.62Z"/>
    <path class="cls-2" d="M436.99,280.09v5.52c0,2.35-.19,2.5-2.3,2.5-1.73,0-1.87-.14-1.87-2.5v-5.52c0-3.41-.14-14.02-.14-15.79,0-1.39.1-1.49,2.45-1.49,1.87,0,1.97.05,1.97,2.11,0,4.8-.1,10.27-.1,15.17ZM438.29,254.16c.53-.72,1.44-1.01,2.26-.1.86.96.62,1.68.05,2.02l-5.14,4.22c-.91.53-1.49-.1-.91-.77l3.74-5.38Z"/>
    <path class="cls-2" d="M445.1,286.38c.58-2.21,1.01-2.88,3.26-2.88,1.2,0,1.92.29,1.92,1.06,0,.53-.38,1.34-1.15,2.4l-3.98,5.47c-.48.62-.96.77-1.49.62-.58-.19-.62-.58-.43-1.25l1.87-5.42Z"/>
    <path class="cls-2" d="M55.59,342.58c1.34.1,3.12.14,5.04.14,2.83,0,5.62-.1,7.2-.24,1.01-.05,1.34.14,1.49,2.26.1.62-.05,1.01-.96,1.15-1.49.24-4.66.29-8.59.29s-6.53-.05-8.06-.29c-.86-.14-1.1-.48-1.01-1.15.05-.86.91-2.88,1.63-3.89l11.95-17.33c-1.34-.1-3.17-.14-5.04-.14-2.69,0-5.18.1-6.67.24-1.2.05-1.3-.1-1.49-2.26-.1-.67.14-1.06.96-1.15,1.44-.19,5.04-.29,8.02-.29s6.77.1,8.16.29c.77.1,1.06.48.96,1.2-.05.43-.29,1.87-2.3,4.9l-11.28,16.27ZM60.1,316.04l4.22-2.59c.91-.62,1.1-.62,1.54-.1.48.58.43.86-.38,1.44l-4.94,3.98c-.19.14-.34.19-.43.19-.14,0-.29-.05-.48-.19l-4.99-3.98c-.77-.58-.82-.86-.34-1.44.38-.53.58-.48,1.54.1l4.27,2.59Z"/>
    <path class="cls-2" d="M74.12,315.89c0-2.35.86-2.59,2.54-2.59,2.11,0,2.35.24,2.35,1.68v.62c0,2.35-.91,2.54-2.59,2.54-2.06,0-2.3-.19-2.3-1.68v-.58ZM74.26,321.89c0-1.39.1-1.49,2.45-1.49,1.87,0,1.97.05,1.97,2.11,0,4.8-.1,10.27-.1,15.17v5.52c0,2.35-.19,2.5-2.3,2.5-1.73,0-1.87-.14-1.87-2.5v-5.52c0-3.41-.14-14.02-.14-15.79Z"/>
    <path class="cls-2" d="M90.15,337.69v7.1c0,9.07-2.06,11.76-6.86,11.76-1.68,0-3.55-.48-4.46-.86-.58-.19-.77-.62-.53-1.34l.34-1.06c.24-.77.62-.91,1.1-.77.58.19,1.63.48,2.74.48,3.22,0,3.5-2.4,3.5-8.21v-7.1c0-3.41-.14-14.02-.14-15.79,0-1.39.1-1.49,2.45-1.49,1.87,0,1.97.05,1.97,2.11,0,4.8-.1,10.27-.1,15.17ZM85.73,315.89c0-2.35.86-2.54,2.54-2.54,2.06,0,2.3.19,2.3,1.63v.62c0,2.35-.86,2.59-2.54,2.59-2.06,0-2.3-.24-2.3-1.68v-.62Z"/>
    <path class="cls-2" d="M101.86,337.69v5.52c0,2.35-.19,2.5-2.3,2.5-1.73,0-1.87-.14-1.87-2.5v-5.52c0-3.41-.14-14.02-.14-15.79,0-1.39.1-1.49,2.45-1.49,1.87,0,1.97.05,1.97,2.11,0,4.8-.1,10.27-.1,15.17ZM103.16,311.76c.53-.72,1.44-1.01,2.26-.1.86.96.62,1.68.05,2.02l-5.14,4.22c-.91.53-1.49-.1-.91-.77l3.74-5.38Z"/>
    <path class="cls-2" d="M127.21,331.11c3.26,0,6.05,1.1,7.54,3.46v-5.04c0-5.28-3.98-6.05-6.43-6.05s-5.23.77-6.1,1.01c-.77.29-1.25.19-1.58-.72l-.34-.91c-.38-1.01.1-1.39.86-1.68,1.44-.53,4.51-1.25,7.83-1.25,3.74,0,9.89.91,9.89,9.17v14.11c0,2.35-.14,2.5-2.3,2.5-1.68,0-1.82-.14-1.82-2.5v-.29c-1.49,2.3-4.37,3.26-7.63,3.26-5.23,0-8.5-2.74-8.5-7.44s3.46-7.63,8.59-7.63ZM123.03,338.69c0,2.93,1.92,4.94,5.62,4.94s6.1-1.97,6.1-4.94-2.3-5.09-6.05-5.09-5.67,2.11-5.67,5.09Z"/>
    <path class="cls-2" d="M157.64,320.41v-2.45c0-4.18,1.58-4.51,3.02-4.51,1.25,0,1.2.14,1.2,2.59v4.37h5.9c.72,0,1.44.14,1.44,1.34v.82c0,1.15-.77,1.3-1.44,1.3h-5.95v14.83c0,2.74,1.06,4.13,3.31,4.13,1.44,0,2.64-.62,3.26-.91.62-.19,1.01-.19,1.39.72l.24.96c.34.82.05,1.1-.77,1.44-.82.38-2.74,1.15-5.04,1.15-4.51,0-6.48-2.35-6.48-6.72,0-5.95-.1-10.85-.1-15.6h-2.26c-.72,0-1.44-.14-1.44-1.3v-.82c0-1.2.67-1.34,1.44-1.34h2.26Z"/>
    <path class="cls-2" d="M194.6,339.75v3.46c0,2.35-.19,2.5-2.35,2.5-1.68,0-1.82-.14-1.82-2.5v-3.07c-1.68,4.13-5.62,6.05-9.17,6.05-3.84,0-7.39-1.3-7.39-8.54,0-1.39,0-2.78.05-4.22-.05-4.37-.19-8.78-.19-10.9s0-2.11,2.4-2.11c2.02,0,1.97.1,1.97,2.45v14.64c0,3.5,1.34,5.42,4.61,5.42,3.74,0,7.3-3.17,7.68-10.42-.05-3.6-.1-6.72-.1-9.65,0-2.35.1-2.45,2.45-2.45,1.87,0,1.97.1,1.97,2.45,0,4.7-.1,10.03-.1,16.9Z"/>
    <path class="cls-2" d="M210.44,319.93c4.22,0,6.91,2.16,8.26,6.14-.05-4.18-.14-13.01-.14-14.64,0-1.39.1-1.49,2.45-1.49,1.87,0,1.97.05,1.97,2.11,0,4.8-.1,10.27-.1,15.17v15.99c0,2.35-.19,2.5-2.3,2.5-1.73,0-1.87-.14-1.87-2.5v-3.31c-1.34,3.94-4.03,6.29-8.26,6.29-5.57,0-9.7-3.6-9.7-13.1s4.22-13.15,9.7-13.15ZM218.65,333.17c0-6.62-3.02-9.7-7.15-9.7-3.79,0-6.43,3.02-6.43,9.75s2.69,9.7,6.43,9.7c4.18,0,7.15-3.84,7.15-9.75Z"/>
    <path class="cls-2" d="M245.48,322.81c0-2.35.1-2.4,2.02-2.4,2.21,0,2.21.1,2.21,2.06,0,5.18-.1,9.98-.67,14.26-1.73,12.48-6.91,19.63-16.71,19.63-1.25,0-2.26-.14-3.12-.34-.77-.14-1.1-.34-.96-1.15l.24-1.3c.19-.86.58-.91,1.2-.82.48,0,1.49.14,2.3.14,7.2,0,10.66-4.37,12.53-14.02-2.21,6.34-4.8,7.3-6.67,7.3-8.26,0-8.3-15.27-8.3-23.67,0-2.02,0-2.11,2.26-2.11,1.92,0,1.97.05,1.97,2.4v4.03c0,4.51.77,15.75,5.62,15.75s6.1-11.14,6.1-15.75v-4.03Z"/>
    <path class="cls-2" d="M267.41,321.89c0-1.39.1-1.49,2.45-1.49,1.87,0,1.97.05,1.97,2.11v3.36c1.34-3.84,4.08-5.95,8.16-5.95,5.47,0,9.7,3.6,9.7,13.15s-4.13,13.1-9.7,13.1c-4.22,0-6.96-2.35-8.26-6.29v13.39c0,2.3-.14,2.5-2.35,2.5-1.68,0-1.82-.24-1.82-2.5v-15.6c0-3.41-.14-14.02-.14-15.79ZM285.32,333.22c0-6.72-2.59-9.75-6.38-9.75-4.13,0-7.15,3.07-7.15,9.7,0,5.9,2.98,9.75,7.15,9.75,3.74,0,6.38-2.98,6.38-9.7Z"/>
    <path class="cls-2" d="M316.37,339.75v3.46c0,2.35-.19,2.5-2.35,2.5-1.68,0-1.82-.14-1.82-2.5v-3.07c-1.68,4.13-5.62,6.05-9.17,6.05-3.84,0-7.39-1.3-7.39-8.54,0-1.39,0-2.78.05-4.22-.05-4.37-.19-8.78-.19-10.9s0-2.11,2.4-2.11c2.02,0,1.97.1,1.97,2.45v14.64c0,3.5,1.34,5.42,4.61,5.42,3.74,0,7.3-3.17,7.68-10.42-.05-3.6-.1-6.72-.1-9.65,0-2.35.1-2.45,2.45-2.45,1.87,0,1.97.1,1.97,2.45,0,4.7-.1,10.03-.1,16.9ZM300.72,314.21c0-2.54,2.02-4.46,5.14-4.46s5.18,1.92,5.18,4.51-2.02,4.27-5.18,4.27-5.14-1.78-5.14-4.32ZM308.21,314.21c0-1.34-.91-2.35-2.3-2.35s-2.35,1.01-2.35,2.35.91,2.21,2.35,2.21,2.3-.91,2.3-2.21Z"/>
    <path class="cls-2" d="M327.79,337.69v7.1c0,9.07-2.06,11.76-6.86,11.76-1.68,0-3.55-.48-4.46-.86-.58-.19-.77-.62-.53-1.34l.34-1.06c.24-.77.62-.91,1.1-.77.58.19,1.63.48,2.74.48,3.22,0,3.5-2.4,3.5-8.21v-7.1c0-3.41-.14-14.02-.14-15.79,0-1.39.1-1.49,2.45-1.49,1.87,0,1.97.05,1.97,2.11,0,4.8-.1,10.27-.1,15.17ZM323.38,315.89c0-2.35.86-2.54,2.54-2.54,2.06,0,2.3.19,2.3,1.63v.62c0,2.35-.86,2.59-2.54,2.59-2.06,0-2.3-.24-2.3-1.68v-.62Z"/>
    <path class="cls-2" d="M343.68,319.93c4.22,0,6.91,2.16,8.26,6.14-.05-4.18-.14-13.01-.14-14.64,0-1.39.1-1.49,2.45-1.49,1.87,0,1.97.05,1.97,2.11,0,4.8-.1,10.27-.1,15.17v15.99c0,2.35-.19,2.5-2.3,2.5-1.73,0-1.87-.14-1.87-2.5v-3.31c-1.34,3.94-4.03,6.29-8.26,6.29-5.57,0-9.7-3.6-9.7-13.1s4.22-13.15,9.7-13.15ZM351.89,333.17c0-6.62-3.02-9.7-7.15-9.7-3.79,0-6.43,3.02-6.43,9.75s2.69,9.7,6.43,9.7c4.18,0,7.15-3.84,7.15-9.75Z"/>
    <path class="cls-2" d="M362.3,332.84c0-10.22,5.14-12.91,11.28-12.91s11.33,2.69,11.33,12.91-5.14,13.35-11.33,13.35-11.28-3.41-11.28-13.35ZM380.5,333.03c0-7.78-3.07-9.7-6.91-9.7s-6.91,1.92-6.91,9.7,3.12,9.99,6.91,9.99,6.91-2.45,6.91-9.99Z"/>
    <path class="cls-2" d="M411.65,339.75v3.46c0,2.35-.19,2.5-2.35,2.5-1.68,0-1.82-.14-1.82-2.5v-3.07c-1.68,4.13-5.62,6.05-9.17,6.05-3.84,0-7.39-1.3-7.39-8.54,0-1.39,0-2.78.05-4.22-.05-4.37-.19-8.78-.19-10.9s0-2.11,2.4-2.11c2.02,0,1.97.1,1.97,2.45v14.64c0,3.5,1.34,5.42,4.61,5.42,3.74,0,7.3-3.17,7.68-10.42-.05-3.6-.1-6.72-.1-9.65,0-2.35.1-2.45,2.45-2.45,1.87,0,1.97.1,1.97,2.45,0,4.7-.1,10.03-.1,16.9Z"/>
    <path class="cls-2" d="M419.62,343.98c.58-2.21,1.01-2.88,3.26-2.88,1.2,0,1.92.29,1.92,1.06,0,.53-.38,1.34-1.15,2.4l-3.98,5.47c-.48.62-.96.77-1.49.62-.58-.19-.62-.58-.43-1.25l1.87-5.42Z"/>
    <path class="cls-2" d="M52.95,379.49c0-1.39.1-1.49,2.45-1.49,1.87,0,1.97.05,1.97,2.11v3.36c1.34-3.84,4.08-5.95,8.16-5.95,5.47,0,9.7,3.6,9.7,13.15s-4.13,13.1-9.7,13.1c-4.22,0-6.96-2.35-8.26-6.29v13.39c0,2.3-.14,2.5-2.35,2.5-1.68,0-1.82-.24-1.82-2.5v-15.6c0-3.41-.14-14.02-.14-15.79ZM70.86,390.82c0-6.72-2.59-9.75-6.38-9.75-4.13,0-7.15,3.07-7.15,9.7,0,5.9,2.98,9.75,7.15,9.75,3.74,0,6.38-2.98,6.38-9.7Z"/>
    <path class="cls-2" d="M85.5,383.86c1.54-4.27,4.9-6.34,8.26-6.34,1.01,0,1.92.14,2.35.29.62.19.82.62.62,1.3l-.29,1.44c-.19.72-.53.86-1.3.72-.48-.1-1.44-.24-2.11-.24-3.07,0-7.58,1.87-7.63,13.49v6.29c0,2.3-.14,2.5-2.3,2.5-1.73,0-1.82-.24-1.82-2.5v-5.52c0-3.41-.14-14.02-.14-15.79,0-1.39.05-1.49,2.45-1.49,1.87,0,1.92.05,1.92,2.11v3.74Z"/>
    <path class="cls-2" d="M99.89,390.44c0-10.22,5.14-12.91,11.28-12.91s11.33,2.69,11.33,12.91-5.14,13.35-11.33,13.35-11.28-3.41-11.28-13.35ZM118.09,390.63c0-7.78-3.07-9.7-6.91-9.7s-6.91,1.92-6.91,9.7,3.12,9.98,6.91,9.98,6.91-2.45,6.91-9.98Z"/>
    <path class="cls-2" d="M128.6,379.49c0-1.39.1-1.49,2.45-1.49,1.87,0,1.97.05,1.97,2.11v4.42c1.3-4.75,4.9-7.01,8.3-7.01,2.98,0,5.67,1.44,6,6.86,1.3-4.66,4.94-6.86,8.35-6.86,3.22,0,6.05,1.63,6.05,8.06,0,3.46-.1,7.1-.1,11.76v3.46c0,2.35-.14,2.5-2.3,2.5-1.68,0-1.82-.14-1.82-2.5v-14.59c0-3.02-1.1-4.8-3.65-4.8-3.31,0-6.14,3.07-6.53,9.46-.05,1.97-.05,4.08-.05,6.48v3.46c0,2.3-.14,2.5-2.3,2.5-1.73,0-1.87-.24-1.87-2.5v-14.59c0-3.12-1.25-4.8-3.65-4.8-3.22,0-6.05,3.02-6.53,9.26v10.13c0,2.3-.14,2.5-2.3,2.5-1.73,0-1.87-.24-1.87-2.5v-5.52c0-3.41-.14-14.02-.14-15.79Z"/>
    <path class="cls-2" d="M172.23,391.88c.43,7.44,4.27,8.69,7.87,8.69,3.02,0,5.04-1.06,6.53-1.73.82-.29,1.15-.19,1.44.53l.43,1.06c.24.62.1.86-.72,1.3-1.49.77-4.18,2.06-8.06,2.06-6.53,0-11.76-3.17-11.76-13.44s5.09-12.82,10.95-12.82,10.18,2.45,10.18,11.91c0,1.49-.67,2.45-2.4,2.45h-14.45ZM172.18,389.05h13.1c-.05-6.86-2.88-8.35-6.38-8.35s-6.38,1.63-6.72,8.35ZM178.52,372.96l4.22-2.59c.91-.62,1.1-.62,1.54-.1.48.58.43.86-.38,1.44l-4.94,3.98c-.19.14-.34.19-.43.19-.14,0-.29-.05-.48-.19l-4.99-3.98c-.77-.58-.82-.86-.34-1.44.38-.53.58-.48,1.54.1l4.27,2.59Z"/>
    <path class="cls-2" d="M212.74,403.3c-1.68,0-1.82-.14-1.82-2.5v-13.97c0-3.41-1.06-5.33-4.27-5.33-3.89,0-7.44,2.93-7.97,9.7v9.6c0,2.35-.19,2.5-2.35,2.5-1.68,0-1.82-.14-1.82-2.5v-5.52c0-3.41-.14-14.02-.14-15.79,0-1.39.1-1.49,2.4-1.49,1.92,0,2.02.05,2.02,2.11,0,1.54,0,3.17-.05,4.9,1.54-5.09,5.81-7.49,9.89-7.49s6.53,2.26,6.53,8.54c0,3.41-.1,6.91-.1,10.32v4.42c0,2.35-.14,2.5-2.3,2.5Z"/>
    <path class="cls-2" d="M226.57,395.29v5.52c0,2.35-.19,2.5-2.3,2.5-1.73,0-1.87-.14-1.87-2.5v-5.52c0-3.41-.14-14.02-.14-15.79,0-1.39.1-1.49,2.45-1.49,1.87,0,1.97.05,1.97,2.11,0,4.8-.1,10.27-.1,15.17ZM227.86,369.36c.53-.72,1.44-1.01,2.26-.1.86.96.62,1.68.05,2.02l-5.14,4.22c-.91.53-1.49-.1-.91-.77l3.74-5.38Z"/>
    <path class="cls-2" d="M251.91,388.71c3.26,0,6.05,1.1,7.54,3.46v-5.04c0-5.28-3.98-6.05-6.43-6.05s-5.23.77-6.1,1.01c-.77.29-1.25.19-1.58-.72l-.34-.91c-.38-1.01.1-1.39.86-1.68,1.44-.53,4.51-1.25,7.83-1.25,3.74,0,9.89.91,9.89,9.17v14.11c0,2.35-.14,2.5-2.3,2.5-1.68,0-1.82-.14-1.82-2.5v-.29c-1.49,2.3-4.37,3.26-7.63,3.26-5.23,0-8.5-2.74-8.5-7.44s3.46-7.63,8.59-7.63ZM247.73,396.29c0,2.93,1.92,4.94,5.62,4.94s6.1-1.97,6.1-4.94-2.3-5.09-6.05-5.09-5.67,2.11-5.67,5.09Z"/>
    <path class="cls-2" d="M292.23,400.47c1.73,0,3.74-.62,4.7-.91.86-.19,1.2,0,1.34.62l.24,1.15c.19.67.05,1.06-.77,1.34-1.2.48-3.65,1.1-6.29,1.1-7.25,0-11.09-4.27-11.09-13.15s3.94-13.11,11.09-13.11c2.64,0,5.14.67,6.19,1.1.86.29,1.1.67.91,1.34l-.29,1.34c-.24.72-.67.77-1.44.58-.96-.29-2.78-.82-4.61-.82-4.94,0-7.58,3.26-7.58,9.65s2.64,9.75,7.58,9.75Z"/>
    <path class="cls-2" d="M316.61,381.41c-4.03,0-7.78,3.31-7.97,10.94v8.45c0,2.3-.14,2.5-2.35,2.5-1.68,0-1.82-.24-1.82-2.5v-15.99c0-3.41-.14-14.02-.14-15.79,0-1.39.1-1.49,2.45-1.49,1.87,0,1.97.05,1.97,2.11,0,4.8-.1,10.27-.1,15.17v1.3c1.15-5.86,5.66-8.59,9.98-8.59s6.53,2.26,6.53,8.54c0,3.41-.1,6.91-.1,10.32v4.42c0,2.35-.19,2.5-2.3,2.5-1.73,0-1.87-.14-1.87-2.5v-13.97c0-3.55-1.15-5.42-4.27-5.42Z"/>
    <path class="cls-2" d="M336.34,383.86c1.54-4.27,4.9-6.34,8.26-6.34,1.01,0,1.92.14,2.35.29.62.19.82.62.62,1.3l-.29,1.44c-.19.72-.53.86-1.3.72-.48-.1-1.44-.24-2.11-.24-3.07,0-7.58,1.87-7.63,13.49v6.29c0,2.3-.14,2.5-2.3,2.5-1.73,0-1.82-.24-1.82-2.5v-5.52c0-3.41-.14-14.02-.14-15.79,0-1.39.05-1.49,2.45-1.49,1.87,0,1.92.05,1.92,2.11v3.74Z"/>
    <path class="cls-2" d="M358.76,388.71c3.26,0,6.05,1.1,7.54,3.46v-5.04c0-5.28-3.98-6.05-6.43-6.05s-5.23.77-6.1,1.01c-.77.29-1.25.19-1.58-.72l-.34-.91c-.38-1.01.1-1.39.86-1.68,1.44-.53,4.51-1.25,7.82-1.25,3.74,0,9.89.91,9.89,9.17v14.11c0,2.35-.14,2.5-2.3,2.5-1.68,0-1.82-.14-1.82-2.5v-.29c-1.49,2.3-4.37,3.26-7.63,3.26-5.23,0-8.5-2.74-8.5-7.44s3.46-7.63,8.59-7.63ZM354.58,396.29c0,2.93,1.92,4.94,5.62,4.94s6.1-1.97,6.1-4.94-2.3-5.09-6.05-5.09-5.66,2.11-5.66,5.09ZM363.84,369.46c.53-.72,1.44-1.01,2.26-.1.86.96.62,1.68.05,2.02l-5.14,4.22c-.91.53-1.49-.1-.91-.77l3.74-5.38Z"/>
    <path class="cls-2" d="M395.86,403.3c-1.68,0-1.82-.14-1.82-2.5v-13.97c0-3.41-1.06-5.33-4.27-5.33-3.89,0-7.44,2.93-7.97,9.7v9.6c0,2.35-.19,2.5-2.35,2.5-1.68,0-1.82-.14-1.82-2.5v-5.52c0-3.41-.14-14.02-.14-15.79,0-1.39.1-1.49,2.4-1.49,1.92,0,2.02.05,2.02,2.11,0,1.54,0,3.17-.05,4.9,1.54-5.09,5.81-7.49,9.89-7.49s6.53,2.26,6.53,8.54c0,3.41-.1,6.91-.1,10.32v4.42c0,2.35-.14,2.5-2.3,2.5Z"/>
    <path class="cls-2" d="M409.68,395.29v5.52c0,2.35-.19,2.5-2.3,2.5-1.73,0-1.87-.14-1.87-2.5v-5.52c0-3.41-.14-14.02-.14-15.79,0-1.39.1-1.49,2.45-1.49,1.87,0,1.97.05,1.97,2.11,0,4.8-.1,10.27-.1,15.17ZM410.98,369.36c.53-.72,1.44-1.01,2.26-.1.86.96.62,1.68.05,2.02l-5.14,4.22c-.91.53-1.49-.1-.91-.77l3.74-5.38Z"/>
    <path class="cls-2" d="M415.92,401.19c0-2.35.86-2.59,2.54-2.59,2.11,0,2.35.24,2.35,1.68v.62c0,2.35-.91,2.54-2.59,2.54-2.06,0-2.3-.19-2.3-1.68v-.58Z"/>
    <path class="cls-2" d="M72.97,507.94h-16.18c-.48,2.64-.72,5.42-.72,8.4,0,2.02-.1,2.16-2.26,2.16-1.82,0-2.06-.1-2.06-2.26,0-15.02,5.95-25.25,10.56-31.15.86-1.01,1.25-1.15,2.54-1.15s1.73.1,2.59,1.2c4.61,5.9,10.61,16.13,10.61,31.11,0,2.16-.24,2.26-2.35,2.26-1.92,0-1.92-.1-1.97-2.16,0-2.98-.29-5.76-.77-8.4ZM57.51,504.58h14.79c-2.45-9.94-7.1-16.22-7.39-16.22s-4.99,6.24-7.39,16.22Z"/>
    <path class="cls-2" d="M84.54,494.69c0-1.39.1-1.49,2.45-1.49,1.87,0,1.97.05,1.97,2.11v4.42c1.3-4.75,4.9-7.01,8.3-7.01,2.98,0,5.67,1.44,6,6.86,1.3-4.66,4.94-6.86,8.35-6.86,3.22,0,6.05,1.63,6.05,8.06,0,3.46-.1,7.1-.1,11.76v3.46c0,2.35-.14,2.5-2.3,2.5-1.68,0-1.82-.14-1.82-2.5v-14.59c0-3.02-1.1-4.8-3.65-4.8-3.31,0-6.14,3.07-6.53,9.46-.05,1.97-.05,4.08-.05,6.48v3.46c0,2.3-.14,2.5-2.3,2.5-1.73,0-1.87-.24-1.87-2.5v-14.59c0-3.12-1.25-4.8-3.65-4.8-3.22,0-6.05,3.02-6.53,9.26v10.13c0,2.3-.14,2.5-2.3,2.5-1.73,0-1.87-.24-1.87-2.5v-5.52c0-3.41-.14-14.02-.14-15.79Z"/>
    <path class="cls-2" d="M127.93,507.08c.43,7.44,4.27,8.69,7.87,8.69,3.02,0,5.04-1.06,6.53-1.73.82-.29,1.15-.19,1.44.53l.43,1.06c.24.62.1.86-.72,1.3-1.49.77-4.18,2.06-8.07,2.06-6.53,0-11.76-3.17-11.76-13.44s5.09-12.82,10.95-12.82,10.18,2.45,10.18,11.91c0,1.49-.67,2.45-2.4,2.45h-14.45ZM127.88,504.25h13.11c-.05-6.86-2.88-8.35-6.38-8.35s-6.38,1.63-6.72,8.35Z"/>
    <path class="cls-2" d="M169.21,518.5c-1.68,0-1.82-.14-1.82-2.5v-13.97c0-3.41-1.06-5.33-4.27-5.33-3.89,0-7.44,2.93-7.97,9.7v9.6c0,2.35-.19,2.5-2.35,2.5-1.68,0-1.82-.14-1.82-2.5v-5.52c0-3.41-.14-14.02-.14-15.79,0-1.39.1-1.49,2.4-1.49,1.92,0,2.02.05,2.02,2.11,0,1.54,0,3.17-.05,4.9,1.54-5.09,5.81-7.49,9.89-7.49s6.53,2.26,6.53,8.54c0,3.41-.1,6.91-.1,10.32v4.42c0,2.35-.14,2.5-2.3,2.5Z"/>
    <path class="cls-2" d="M177.46,516.39c0-2.35.86-2.59,2.54-2.59,2.11,0,2.35.24,2.35,1.68v.62c0,2.35-.91,2.54-2.59,2.54-2.06,0-2.3-.19-2.3-1.68v-.58Z"/>
  </g>
  <g>
    <path class="cls-2" d="M60.83,660.03l-.07.28v1.22l.07.49c.04.21.07.35.04.56l-.04.07-.14.7-.03.42.07.88.04.42-.04.81.04.31v.95c.07.25.11.49.07.7l-.04.38.04.14c.07.28.07.46.04.73l-.11.46-.14.98v.32l.04.84v.42l.14.91v1.58l.1.74v.95c0,.1-.03.28-.07.38l-.04.17v.04c.04.25,0,.53-.07.77l-.04.42v.42c0,.28-.03.52-.14.77l-.17.91v.17c0,.11-.07.21-.11.32l-.25.74-.04.17c-.03.17-.1.28-.17.42l-.35.56-.14.14c-.07.11-.14.17-.21.25l-.46.35-.35.25-.28.28c-.14.14-.31.32-.49.38l-.1.04-.53.25c-.21.11-.42.17-.67.17h-.04l-.8.14-.04.03c-.21.11-.46.14-.67.14h-.38l-.49-.04-.35.04h-.18c-.14,0-.28-.04-.42-.11l-.21-.07-.8-.07h-.04c-.21,0-.42-.04-.63-.11l-.46-.17s-.63-.59-.74-.95c-.04-.1-.04-.21-.04-.28v-.7l-.1-.32v-.56l.07-.7-.03-.38s.38-.35.7-.42c.18-.03.32.04.46.07l.63.14.35-.07.42-.04h.53l.31-.04.88-.25.6-.49.28-.38.31-.7-.07-.31.04-.32c0-.11.04-.14.07-.25l.07-.17-.07-.46.04-.77-.04-.46-.04-.52c0-.14.04-.32.07-.49l.04-.17v-.6c-.04-.17-.07-.42-.04-.59l.04-.14-.11-.77.04-.38-.04-.84v-.46l-.1-.77v-.32l.03-.74-.07-.35c-.04-.17,0-.32,0-.46l.1-.7.04-1.01v-.42l-.07-.95.04-1.02v-.49l.07-.91-.04-.84c0-.14-.04-.17,0-.31l.07-.39-.04-.8v-.17c.07-.38.42-.56.7-.7.17-.04.35-.07.49-.07h.56l1.33.04h.35l.84.14.46-.03c.17-.07.35-.04.46.07.1.14.17.32.25.56Z"/>
    <path class="cls-2" d="M78.82,676.52l-.25-.21-.1-.07c-.14-.11-.32-.21-.42-.35l-.35-.42-.63-.88-.35-.28-.49-.63-.88-.91-.7-.67-.28-.31-.46-.6-.77-.42-.42.21-.04.38.04.28.04.84-.04.46.07.74.07.32.07.8v1.16l-.1.46-.07.8c.11.25.14.56.11.84l-.04.35-.11.49v.84l.04.35-.04.84.14.52-.04.88-.07.49.07.84s-.42.59-.77.73c-.1.04-.21,0-.31,0l-.77-.04-.42-.03-.84.1c-.07,0-.21.04-.28.04l-.7-.04-.1.04c-.14.04-.32.04-.46,0l-.21-.04c-.21-.28-.32-.56-.25-.77l-.11-.95v-.46l.04-.84.07-.42-.04-.94v-.35l-.04-.7v-.52l.07-.84.04-.38-.04-.74v-.42l-.07-.59c-.04-.17,0-.32,0-.46v-.21l-.04-.56c0-.17,0-.28.04-.42l.04-.25.07-.91v-.35l-.04-.95v-.35l.1-.88-.07-.49-.07-.88-.04-.14c-.04-.17-.04-.25-.04-.42l.04-.56-.04-.18c-.04-.25,0-.38.04-.63l.07-.52.07-.39v-.8l-.03-.49v-.84l.03-.42-.07-.88v-.39l.07-.84.04-.35-.04-.6v-.28l.07-.35c.04-.21.14-.38.28-.42l.35.21.14.07c.1.07.21.17.28.25l.28.28c.11.11.21.21.28.35l.17.25.46.63.28.28.52.59.39.38.42.32c.21.17.38.35.49.56l.59.53.59.59.39.35.25.28.59.59.25.35.52.53.32.25.53.49c.1.1.17.25.25.35l.07.11.88.77.63.63.24.28.63.63.28.21.32.39.63-.11.35-.21.7-.67.31-.35.59-.53.25-.32.35-.49c.14-.18.28-.35.46-.49l.07-.04.28-.46c.11-.17.25-.32.38-.46l.11-.07.63-.59.28-.35.63-.56.42-.28.46-.42c.07-.07.14-.1.21-.17l.25-.14.32-.46c.1-.18.28-.32.42-.42h.04l.59-.67.38-.35.63-.63.14-.21.59-.74.25-.21c.07-.07.14-.11.21-.17l.67-.49c.25-.25.49-.28.7-.21l-.1.46.07.7c0,.14.04.25,0,.42l-.04.28.07.88v.28l-.07.84.04.38.04.95.04.49.04.38c.04.31.04.56-.07.84v.88l.07.38v1.19l.07.81v.35l-.04.25-.11.88v.84c0,.14,0,.18-.04.32l-.04.25.14.8.04.39.07.77v.46c0,.17,0,.35-.03.53l-.14.53.04.38-.04.8-.04.46-.04.77.07.46.14.84.03.46-.03.91-.07,1.12.07.46-.07.98c0,.14-.04.25-.11.39-.1.17-.21.28-.35.35-.25.14-.53.17-.77.14l-.59-.07-.38.07h-.67l-.49-.04-.67-.04h-.42s-.28-.21-.49-.38c-.21-.25-.17-.49-.21-.74l.07-.88-.14-.91v-.53l-.07-.8-.03-.35c0-.07.03-.17.03-.25l.07-.7v-1.19l-.04-.42.11-.88.04-.53-.04-.53c0-.14,0-.35.04-.49l.03-.17-.03-.88-.07-.38-.04-.49c-.04-.28,0-.46.11-.7l-.07-.84-.11-.42-.24-.35-.63.53-.7.7-.31.28-.04.04c-.11.17-.28.35-.46.49l-.56.67-.39.39-.49.67c-.07.1-.14.17-.21.25l-.52.49-.28.21-.56.49-.11.14c-.11.14-.21.21-.35.31l-.46.35c-.18.21-.39.31-.63.31-.21,0-.52-.17-.84-.49Z"/>
    <path class="cls-2" d="M114.7,684.53l-.32-.14h-.88l-.32.07-.94-.04-.42.07-.74-.11-.49.07h-.42c-.21.04-.46.04-.67,0h-.17l-.49.07c-.21.04-.46.04-.67,0h-.04l-.46.07c-.25.04-.53,0-.74-.07v-.04l-.84.04-.38.04-.88.03-.56-.07-.77-.07-.39.11h-.8l-.53.03-.59.04c-.11,0-.25,0-.35-.04l-.21-.07h-1.05c-.42-.04-.67-.32-.77-.56-.11-.21-.07-.38-.04-.63l.07-.59-.03-.53-.07-.95.04-.98-.07-.39c-.04-.1-.04-.28-.04-.38l.04-.59.04-.46-.04-.81-.04-.04c-.04-.21-.04-.38-.04-.56l.04-.46.07-.46v-1.37l-.07-.74v-.28l.04-.28.07-.81v-1.15l.07-.42-.07-.77c0-.11,0-.28.04-.39v-.17l.03-.88-.03-.46.03-.91-.07-1.01-.07-.39v-1.33l-.04-.77-.04-.35v-.28l.11-.74-.04-.49.04-.88-.11-.77c-.04-.14-.04-.35,0-.49l.04-.21.04-.07c.32-.32.59-.46.91-.49l.8-.04.53-.04.8.07h1.12c.07,0,.21.04.28.04l.32.04.42-.07c.21-.04.42,0,.63.07l.84.07.49-.07.84.04.28-.18.84-.03.28-.07.95.07.38.07.98.14.31-.04.95-.07,1.02-.04.38-.04.8.07.32.07c.07,0,.1,0,.17.04.46.14.59.52.63.8.04.11,0,.17,0,.28l-.14.88.04.42-.14.95.07.35s-.35.42-.63.6c-.17.1-.35.1-.53.1h-.42l-.31.07-.84.04-.56-.07-.84-.07-.91.04-.18.04c-.17.04-.31.04-.46,0l-.49-.07-.39.07-.84.04-.42.04h-.88l-.35-.04h-.84l-.46.04-.35.52-.04.56v.8l.07.42-.04.77-.04.49.07.88-.04.49.04.35.46.42h1.36l.35.04.67-.14c.1-.04.17,0,.25,0l.25-.04.8.04.56.03.73.04.42.04h.7c.11,0,.25-.04.35,0l.14.04.38-.11.84.07s.25.14.49.32c.28.17.35.46.31.67v.84l.14.35v.52l-.1.6c.04.17,0,.42-.14.67-.28.25-.53.35-.77.35l-.84-.04-.49.07-.91-.04-.46-.04h-.77l-.52.07-.59.04c-.11,0-.21-.04-.32-.04l-.38-.04-.84.04h-1.01c-.25.07-.49.07-.7,0l-.42.38.1.46-.07.7.1.42-.04.49c0,.21-.03.38-.1.53l-.04.07.04.95v.35l.04.88v.46l.46.42.56-.04.42-.04c.25,0,.49,0,.7.11h.77l.46.07.88-.1.38-.07.56-.04c.14,0,.28,0,.42.04l.1.04.88.04.53.04.74.07h.38l.77-.03.42.03.98-.07s.42.28.7.52c.17.18.21.42.28.67v.88l-.07.42-.04.73v.42c-.03.35-.07.56-.17.67-.07.11-.28.14-.56.18ZM104.51,656.25l.38-.77.11-.31.25-.77.25-.53.21-.52c.07-.18.17-.35.28-.49l.07-.11.28-.63.14-.46.32-.77c.17-.28.42-.46.74-.63.14-.07.35-.1.56-.14l.84.04.42-.07.84-.07h.42l.53-.04c.21-.04.31,0,.49.04h.07l.88.07c.25,0,.49.11.7.28l-.17.28-.11.31c-.03.11-.1.21-.17.28l-.31.49-.32.38-.49.63-.21.25-.59.67-.28.32-.25.35-.35.39-.46.8-.21.35-.42.6c-.14.25-.45.38-.88.52l-.03.04-.42.04-.31.04h-.84l-.42.07-.73-.07c-.32-.04-.53-.11-.67-.25-.11-.14-.14-.35-.11-.59Z"/>
    <path class="cls-2" d="M140.81,684.29l-.52-.63-.35-.21-.63-.77-.63-.63-.28-.17-.63-.6-.28-.28-.53-.52-.42-.25-.38-.32c-.1-.07-.17-.21-.25-.31l-.17-.21-.49-.56-.42-.38-.56-.49-.38-.32-.49-.56-.31-.21-.56-.74-.28-.21-.53-.35c-.14-.11-.25-.18-.32-.28l-.1-.14-.49-.56-.25-.25-.46-.46c-.07-.07-.14-.21-.21-.28l-.11-.14-.63-.49-.46-.28-.52-.35c-.07-.07-.18-.14-.25-.21l-.14-.14-.31-.39-.21-.17-.63-.63-.39-.25-.21.28v.42l.04,1.01.04.21c.04.18,0,.25,0,.42l-.04.38c0,.17-.04.28-.07.42l-.03.14.03.81-.07.46.1.7c.04.14.04.31,0,.46v.94l.07.46-.04.81v1.26l-.04.46.04,1.05-.07.84-.07.46-.04.88s-.32.56-.6.84c-.14.14-.38.14-.56.14l-.46.04h-.42l-.35.04c-.1,0-.24.04-.35.04l-.25-.04-.49-.07-.8.11s-.42-.28-.67-.56c-.17-.17-.17-.42-.21-.63l-.04-.46-.07-.49-.07-.59c0-.17,0-.32.03-.53l.04-.17.04-.56v-.28l.07-.38v-.7c-.11-.25-.14-.56-.11-.84l.04-.28.04-.46.04-.7c0-.14,0-.17.04-.28l.1-.35-.07-.46c-.03-.25-.03-.42,0-.63l.04-.07-.1-.74v-.35l.1-.74-.1-.49-.04-.63v-.32l.04-.35.04-.67c0-.11,0-.28.03-.39l.04-.21-.04-.7-.07-.42-.07-.56c0-.14-.04-.25,0-.42l.04-.14v-.73c0-.07.04-.14.04-.25l.07-.32-.07-.8-.14-.28-.03-.95v-.77l.07-.49-.04-.42.07-.7-.04-.04c-.04-.21-.04-.46,0-.67l.07-.46-.04-.38-.04-.77v-.28l.04-.35.07-.11c.1-.17.14-.28.21-.35l.38.25.21.17c.07.07.14.14.17.21l.42.53,1.08,1.05.59.53.28.35.56.53.42.35.49.49.35.35.49.59.21.28.59.59.31.17.49.53.28.35.59.42.32.28.59.49.25.17c.14.11.25.21.35.32l.46.56.56.49c.11.11.14.17.21.28l.17.21.56.46c.14.1.21.25.32.38l.1.14.28.38.42.28.56.59.32.28.25.25.42.31.59.49.35.35.35-.25v-.32l.04-.42v-.91l.07-.46-.07-.8-.04-.39-.04-.84-.03-.42.07-.81.04-.46-.04-.84v-.38l-.1-.77v-.52l.07-.67.11-.53.04-.84v-.42l-.17-.74-.07-.42v-.11l-.04-.77c.04-.28.21-.63.49-.91l.04-.04.59-.04.63-.07c.14,0,.28,0,.42.04h.67c.21,0,.39,0,.6.07l.17.04.98.07s.52.35.73.67c.07.1.07.21.07.35l.11.84-.04.91.04.42.03.88.04.11c.04.14.04.35.04.49l-.04.59-.04.46.04.53c0,.14-.04.25-.04.35l-.03.35.03.49c0,.14,0,.35-.03.49l-.04.17v.74l.07.49.04.46c.04.25,0,.53-.07.8v.04l.03.88-.07.95.07.49-.1.8v.42l.07.88.03.42.04.98-.07.91-.07.46.07.63c0,.14,0,.28-.04.42v1.47l.1.67c0,.11.04.21.04.32v.17l-.07.8v.35l.04.74-.04.45v.63c0,.1,0,.28-.03.38l-.07.25-.21.04c-.14.04-.35-.04-.56-.25Z"/>
    <path class="cls-2" d="M146.96,670.04c0-.14.04-.28.07-.42l.24-.67.04-.35.25-.74.11-.38.31-.7.18-.42.38-.84.21-.42.42-.67.17-.25.56-.67.56-.67c.07-.1.11-.14.17-.21l.21-.21.84-.8c.07-.07.17-.18.28-.25l1.33-.81.49-.21.74-.38.38-.21.77-.35.07-.03c.17-.07.38-.14.56-.14l.42-.04.39-.07.84-.11c.07,0,.21-.04.28-.04h.28l1.16-.1c.17-.04.32-.04.46,0l.17.04h.39l.94.04h.14c.17-.04.38,0,.56.03l.49.11.49.07.77.17,1.09.38.46.14.49.18c.14.07.32.14.46.25l.18.14,1.12.67.52.38.35.35.56.59.28.32.7.67.17.21.32.35c.17.21.28.46.35.67l.49.7.14.25.42.7.11.25c.04.07.07.21.1.28l.18.67.1.28.14.81.17.38.17.8.07.46.03.67c0,.14-.03.25-.03.35l-.04.21.04.07c.07.28.03.49,0,.77v.11l.03.35.04.39c0,.28-.04.56-.17.77l-.14.81-.07.38-.17.84-.07.32c0,.07-.04.14-.07.21l-.28.7-.17.31s-.07.04-.07.07l-.42.63-.14.35-.28.52c-.07.11-.18.25-.25.35l-.04.07-.6.77-.21.28-.56.56-.38.38-.35.42c-.14.17-.31.31-.49.42l-.56.28-.38.21-.63.35c-.07.04-.17.07-.28.1l-.21.07-.35.25-.38.17-.35.17-.63.28-.49.17-1.08.39-.8.21-.14.04c-.14.04-.31.04-.45.04h-1.61l-.21-.04c-.11,0-.21-.04-.28-.07l-.38-.07-.74-.07h-.38l-.98-.18c-.11-.03-.25-.07-.38-.14l-.56-.21-.31-.11-.74-.21-.46-.14-.35-.11c-.21-.07-.42-.14-.63-.31l-.07-.04-.63-.28c-.07-.04-.1-.07-.21-.14l-.28-.17-.63-.46-.35-.32s-.07-.07-.11-.1l-.52-.6c-.17-.1-.38-.21-.53-.42l-.28-.42-.28-.28-.39-.7c-.21-.14-.38-.31-.52-.59l-.14-.28-.07-.1c-.14-.17-.25-.32-.32-.56l-.14-.52-.25-.35-.25-.77-.17-.35-.28-.77c-.07-.18-.14-.39-.14-.63v-.56l-.04-.42v-.77l-.07-.35v-.53l-.04-.31-.04-.28v-.42l.07-.67.04-.17ZM152.6,674.14l.25.77.07.42.28.7.17.28.49.53c.07.07.14.17.21.25l.14.21.35.32c.17.14.35.28.46.49v.04l.63.6.42.25.7.42.49.14.17.04c.14.04.32.07.46.14l.07.04h.46l.8.17.42.04.84.04.52-.07,1.19-.17.59-.28c.11-.07.25-.07.35-.1l.1-.04.88-.49.35-.21.59-.49.25-.21.67-.46.28-.38.38-.56.25-.42.1-.35.39-.63v-.35l.17-.73.07-.35.07-.95v-1.08c0-.17.04-.25.07-.42l.07-.17-.17-.84-.04-.46-.28-.84-.21-.31-.32-.81-.21-.25-.35-.7-.32-.38-.67-.56-.28-.25-.7-.49-1.01-.81-.46-.17-.7-.28-.49.04-.77-.07h-.14c-.14,0-.31.03-.46,0l-.14-.04-.25.04c-.14.03-.28.03-.42.03h-.17l-.77.04-.46.11-.59.21c-.11.04-.21.07-.32.1l-.25.04-.91.53-.28.17-.7.53-.32.21-.46.59-.31.49-.21.49c-.07.17-.18.31-.28.46l-.07.07-.35.7-.11.32-.25.84-.1.46-.04.81-.11.46.11.49-.04.35s-.04.14-.04.17l-.04.32v.77l.18.53Z"/>
    <path class="cls-2" d="M177.66,680.58l.14-.14.42-.46c.07-.07.14-.14.21-.17l.28-.25.46-.11c.14-.04.32-.04.49-.04h.32c.17,0,.35.04.52.11l.07.04h.46l.63.21.14.04c.21.1.35.17.52.35.17.14.28.39.32.63l.17.53c.07.21.11.42.11.63l.03.17c.04.25.04.39,0,.63l-.03.14-.11.35c-.07.25-.17.39-.32.6l-.03.07-.6.49-.21.14c-.14.1-.31.17-.49.21l-.25.07c-.07.04-.21.04-.31.04l-.32.04h-.59l-.38-.07-.56-.17c-.21-.07-.38-.14-.56-.28l-.11-.07c-.21-.14-.38-.39-.49-.6l-.14-.35c-.07-.21-.11-.38-.11-.56v-.11l-.07-.35.04-.42c-.04-.31,0-.59.1-.91l.04-.03c.07-.18.11-.28.21-.39ZM177.76,667.66l.1-.14.59-.46c.11-.17.42-.28.88-.38.07-.04.24-.04.56.04l.14.04.35-.07.35.07c.07,0,.17,0,.25.04l.46.14c.25.07.49.17.7.38l.25.25c.07.07.14.17.21.28l.11.14.17.56c.04.07.07.21.07.28l.04.31-.1.63c0,.07,0,.25-.04.32l-.07.25c-.07.21-.21.42-.38.63-.04.07-.07.07-.14.14l-.49.46c-.14.21-.46.38-.91.46h-.04l-.53.1h-.38l-.42-.04-.56-.25c-.14-.07-.25-.1-.35-.17l-.14-.07-.35-.42c-.14-.17-.31-.38-.38-.59l-.14-.38c-.07-.18-.11-.32-.11-.46v-.11l.04-.42v-.11c-.04-.21-.04-.49.04-.7l.07-.28c.04-.14.11-.32.18-.46Z"/>
  </g>
  <g>
    <path class="cls-2" d="M52.48,945.33l.7.05.24-.03c.19.03.4.11.59.24l.08.05.03.35.03.73v.27l-.03.3.11.49.24-.19.08-.3.32-.35c.08-.08.14-.13.24-.22l.22-.13.41-.32.24-.22.38-.27c.13-.11.24-.14.38-.19l.73-.22.24-.05.43-.11c.11-.03.24-.03.35-.03l.19.03.3.03.4-.05h.14c.11,0,.27-.03.38,0l.41.08h.05c.11.03.24.05.35.11l.08.03.59.3c.13.05.3.13.43.27l.32.3.05.05c.16.14.27.24.35.41l.16.32.16.32.08.22.3.03.19-.16.16-.24.41-.49.22-.22s.08-.05.11-.08l.4-.3.35-.22.22-.19.22-.11c.05-.03.13-.08.19-.11l.78-.27c.08-.03.16-.05.27-.08l.51-.05.35-.05h.3l.27-.03c.11-.03.22-.03.32,0l.51.05.38.08.41.08c.11.03.22.05.3.11l.13.08.4.32c.05.03.11.08.14.13l.11.11.41.43.19.24.35.4.05.08c.08.11.16.22.22.38l.13.35.08.4.11.65v.16c0,.05.03.16.03.22l-.05.57.05.24v.11c.03.13.05.3.03.43v.35l.03.7v.73l.03.43v.54l.03.24v.59l-.03.35v.81l-.03.13v.7l.08.3v.46c0,.11-.03.24-.05.35l-.03.14.03.65c-.03.22-.11.41-.27.62l-.05.05h-.3l-.35-.03-.73.08c-.11.03-.24,0-.35-.03l-.14-.03c-.16-.22-.27-.43-.3-.7v-.03l-.03-.67-.03-.41-.03-.49v-.24l.03-.24.05-.65.05-.32-.05-.46c0-.08-.03-.19-.03-.27l.03-.16-.08-.54c0-.11-.03-.22,0-.35l.03-.16.08-.73.03-.27.05-.54-.03-.11c-.05-.19-.08-.41-.03-.59l.03-.03-.11-.35.08-.3-.08-.7-.13-.22-.24-.62-.16-.24-.46-.51-.27-.19-.54-.24h-.32l-.35-.08-.27-.03-.43.05-.54.05-.4.13-.43.3-.3.27-.38.43-.16.27-.38.51-.19.24-.27.57-.08.32-.11.54-.05.3.03.43v.24l-.03.22-.05.32v.57l-.05.65-.03.4-.03.73v.3l.03.7.08.38-.03.67v.3l.05.59v.19c0,.11,0,.16-.03.27l-.05.14c-.22.22-.43.32-.59.32l-.24.03c-.11.03-.22.03-.32.03l-.49-.03-.32.05s-.3-.27-.46-.51c-.08-.13-.08-.3-.05-.46l.03-.4-.08-.32-.03-.67v-.32l.03-.67v-.32l.05-.7.05-.27-.03-.73v-.03c-.05-.16-.08-.35-.08-.51l.03-.4-.03-.41-.05-.59v-.38l.08-.38.05-.3.03-.41-.11-.43c-.03-.11-.03-.22-.03-.32v-.24l-.38-.54-.11-.27-.51-.41-.19-.16-.51-.22-.35.03h-.32l-.27-.03h-.27l-.67.08-.32.19-.62.24-.27.11-.46.38-.11.24-.3.49-.16.22-.11.24-.24.67-.19.62-.03.43-.13.65-.03.35-.03.27-.03.32.03.35-.05.65v.14c0,.16.03.32-.03.46l-.03.05.08.35v.38l.03.67.05.32-.03.57c0,.11,0,.16-.03.27l-.05.13-.03.76s-.03.08-.08.19c-.19.43-.54.59-.76.57h-.03l-.62-.03h-.11c-.08,0-.16,0-.24-.03l-.27-.05c-.16-.19-.22-.41-.22-.65l-.05-.62-.05-.32-.03-.67-.03-.05c-.03-.13,0-.24,0-.35l.05-.46.05-.32.03-.7-.03-.3-.05-.65c0-.08.03-.22.03-.3l.08-.59.03-.32-.13-.62-.05-.35c0-.08-.03-.08-.03-.16v-.38c0-.11.03-.22.05-.35l.03-.11.03-.62.03-.38-.08-.59-.03-.3v-.57l.03-.27v-.67l.03-.3v-.76c0-.16.05-.35.19-.46.11-.11.3-.19.51-.22Z"/>
    <path class="cls-2" d="M84.12,945.15c.16-.03.32-.03.51.03l.08.03c.13.03.27.08.38.16l.11.05.62.24.27.11.54.27.11.05c.08.05.22.11.3.19l.38.3c.13.11.27.24.35.41l.19.3.22.24.32.38c.05.05.11.13.13.22l.08.16.38.54.11.22s.05.11.08.14l.19.49.05.22c0,.05.05.11.05.16l.08.59v.05c.03.08.03.22.03.3v.81l.03.3v1.13c0,.08,0,.16-.03.24l-.05.19-.13.65-.05.24-.19.51c-.03.08-.05.11-.08.19l-.08.16-.35.49-.13.32-.49.59-.46.51-.11.11c-.11.11-.22.22-.35.3l-.38.22-.05.05c-.11.11-.22.19-.35.24l-.35.19-.81.35-.22.08-.38.13c-.11.03-.22.05-.32.05h-.43l-.7.08h-.3l-.27.03h-.03c-.16.03-.32,0-.49-.03l-.49-.08-.32-.08-.65-.16c-.13.03-.38-.05-.62-.19l-.22-.11-.32-.16-.49-.32-.22-.19-.46-.38-.3-.22-.49-.49-.27-.3c-.11-.14-.24-.24-.3-.41l-.03-.08-.13-.19c-.11-.19-.19-.38-.22-.62v-.08l-.22-.57-.11-.3-.16-.51c-.03-.11-.05-.22-.05-.32l-.03-.57-.03-.3-.03-.35-.05-.35-.03-.22v-.22l.05-.49.03-.16c0-.05.03-.08.05-.16l.22-.59.11-.35.22-.54.08-.19c.03-.11.08-.19.13-.3l.19-.3.22-.3.19-.35c.05-.11.13-.19.22-.27l.08-.11.46-.41.11-.13c.05-.08.16-.16.24-.24l.43-.3.38-.27c.11-.08.22-.11.38-.16l.19-.05.51-.27.08-.03c.13-.08.3-.11.46-.14l.73-.08.73-.03.32.03.3-.05h.41l.59.03.11-.03ZM84.37,956.67l.54-.22.38-.11.32-.32c.08-.08.19-.16.27-.22l.19-.08.38-.54.24-.57c.03-.08.08-.16.14-.24l.16-.19.19-.65v-.3l.16-.57-.03-.24v-.11c-.03-.16,0-.3.03-.46l.03-.08v-.27l-.03-.62-.05-.3-.3-.51-.13-.19c-.03-.05-.05-.13-.08-.19l-.22-.54-.24-.3-.35-.43-.35-.16-.38-.3c-.05-.05-.11-.11-.16-.16l-.11-.11-.62-.19-.32-.11-.59-.03-.35.03-.3-.03h-.19l-.27-.05-.62.11-.35.13-.54.24-.19.13-.76.57-.43.41-.22.32-.27.62-.24.67-.08.32-.13.7-.03.24-.08.35-.03.32.05.24.05.67.08.27.32.65.08.19.27.49.24.38.4.41.24.22.62.4.46.16c.08.03.16.05.24.08l.24.13.59.08h.3l.3.05h.14c.11,0,.24,0,.35.03l.13.03.65-.13.24-.16Z"/>
    <path class="cls-2" d="M105.99,940.18l.05.65v1.08l-.03.19v.43c0,.11-.03.22-.05.35l-.05.24.03.67.11.32v.43c0,.11,0,.24-.03.32l-.05.19-.03.65.03.35-.03.57.05.3v.41c0,.16,0,.32-.05.46l-.03.05.03.51c0,.14,0,.22-.03.35l-.03.13.11.57.08.43.03.51v.27l-.03.19-.08.57.03.22-.05.65v.32l.08.59-.03.38.08.51c.03.08.03.22.03.3l-.03.19-.08.62.08.35-.13.92-.03.7.08.3-.03.59c0,.11-.03.16-.05.27l-.05.22c-.27.24-.46.35-.62.35l-.62-.03-.3.05s-.59-.35-.7-.54c-.03-.05-.03-.11-.03-.13v-.78l.05-.57-.32-.03-.19.3-.54.49-.22.22-.4.3c-.08.08-.19.14-.3.19l-.57.24-.03.03c-.14.11-.3.16-.46.22l-.35.11c-.08.03-.16.05-.24.05l-.57.05h-.32c-.19.08-.38.11-.59.08l-.27.05-.59-.03c-.05,0-.16-.03-.22-.03l-.22-.03-.62-.3-.84-.46c-.24-.05-.49-.22-.67-.43l-.13-.14-.24-.22-.46-.54-.41-.4c-.05-.05-.11-.13-.16-.22l-.14-.19-.27-.51c-.03-.08-.08-.13-.11-.24l-.05-.16-.24-.65-.03-.05c-.03-.08-.05-.16-.08-.27l-.08-.32c-.03-.14-.05-.32-.03-.46v-.13l-.05-.41c-.03-.22-.03-.38.03-.59v-.03l-.03-.4c0-.11-.03-.22,0-.32l.05-.22v-.59l.03-.19c0-.11.03-.27.05-.38l.13-.43.03-.11c0-.16.03-.27.08-.4l.16-.35.11-.38.35-.62.3-.46c.05-.11.13-.19.22-.27l.19-.16.38-.35c.05-.05.11-.05.19-.11l.19-.13.51-.41.16-.11s.11-.05.16-.08l.38-.19.05-.05c.14-.11.27-.16.41-.19l.49-.13.35-.05.54-.11c.08-.03.13-.03.22-.03h.62l.35-.05.57.05c.08,0,.19.03.27.05l.08.03.3.08.59.19.11.05c.08.03.16.05.22.11l.43.3.08.03c.19.05.35.19.49.32l.24.24.13.08c.11.05.22.16.3.24l.08.11.16-.08.05-.51-.03-.41v-.08c0-.11-.03-.22,0-.35l.08-.49v-.38l.03-.54-.03-.38-.03-.49v-.24l.03-.19v-.57l.05-.3v-.27l-.05-.4v-.43l.03-.73c.03-.24.16-.43.35-.65l.03-.05.24.03h.35l.54-.03h.3c.22,0,.38.05.49.16.11.11.16.32.16.59ZM97.84,947.47l-.54.19-.3.22-.43.3-.16.24-.46.54-.13.24-.22.51-.11.27-.27.59-.13.41-.03.67.03.13c.03.16,0,.24-.03.4v.14l.03.35.08.41c.03.08.03.22.03.3l.03.11.16.57.11.32.03.05c.11.13.22.32.27.49l.19.27.32.46.19.27.35.19c.11.05.22.11.3.19l.11.08.41.19c.05.03.11.03.19.08l.16.11.59.11.35.03.27.05h.05c.16-.03.32-.03.49.03l.19.03.54-.16.24-.14.46-.35c.05-.03.11-.08.16-.11l.51-.3.27-.19.38-.46.22-.32.24-.62.16-.27.11-.54.08-.24.11-.67-.05-.32v-.46l.05-.24-.11-.62-.05-.35-.22-.49-.08-.32-.38-.59-.13-.24-.35-.67-.54-.49-.32-.14-.54-.22c-.05-.03-.13-.05-.19-.08l-.08-.05-.62-.11-.38.03-.38.05h-.32l-.67.05-.22.11Z"/>
    <path class="cls-2" d="M110.99,953.84l.03-.57-.11-.32-.03-.35c-.03-.16-.03-.38.03-.54l.03-.05v-.95l.05-.7-.03-.22.03-.67v-.3l-.03-.7-.05-.7v-.38l-.03-.57-.03-.32-.03-.49c0-.08,0-.22.03-.3l.05-.16-.03-.43c0-.16.03-.35.08-.51v-.03l-.05-.51v-.24l.03-.22.03-.57-.03-.38.05-.65.03-.32-.05-.54-.05-.24-.03-.65v-.08c0-.11-.03-.22,0-.32l.03-.22.08-.05c.22-.11.41-.16.57-.16l.32.03h.73l.22.05s.46.35.59.59c.08.14.05.27.05.38l.03.54-.03.73.05.3-.05.59-.03.38.05.49v.32l-.05.3.03.65v1.3l.08.62-.05.78-.05.46.03.65v.13c0,.13,0,.27-.03.43l-.03.11v.27l.05.32v.78c0,.11.03.24,0,.38l-.08.43.03.3.03.65-.03.32.03.59.03.24v.67l.03.35-.05.27.03.35.03.3.22.57c.03.08.05.16.05.22l.05.24.59.35.32.03.41-.05c.08,0,.16.03.22.03.49.08.67.46.7.73l.08.46c.03.16.05.24.03.41l-.03.05c-.13.24-.35.43-.59.43h-.05l-.41.08c-.08.03-.16.03-.24.03l-.24.03-.22-.03h-.08c-.19.03-.38.03-.57-.03l-.57-.08c-.22,0-.49-.08-.7-.22l-.19-.13-.22-.16c-.08-.08-.16-.13-.22-.22l-.32-.4-.03-.05c-.11-.13-.19-.24-.24-.4l-.08-.19c-.03-.11-.05-.19-.05-.32l-.03-.19v-.67l-.03-.38-.03-.19c0-.11-.03-.19,0-.32l.03-.13v-.7l-.08-.41Z"/>
    <path class="cls-2" d="M119.5,940.34l.03-.03.4-.16c.11-.05.24-.08.35-.08h.11l.3.11h.03c.19-.03.38,0,.57.08.16.05.35.3.54.62l.03.03.05.35.03.27v.05c0,.19-.05.32-.11.49-.08.19-.16.35-.3.46l-.4.13c-.08.03-.22.05-.3.05h-.16l-.24.08c-.11.03-.22.03-.32.03h-.13l-.16-.08c-.16-.08-.32-.19-.43-.32l-.08-.08-.08-.51-.03-.24c0-.14,0-.27.03-.43l.03-.05.13-.43c.03-.13.08-.22.13-.32ZM119.87,945.33l.3.03.67.05.3-.03s.3.24.49.46c.13.16.13.32.16.54l.03.35.03.27-.03.7-.05.32-.03.65.03.24.08.41c.03.16.03.24,0,.4l-.03.16.03.46c0,.13,0,.3-.03.43l-.05.13-.05.54v.27l.05.57v.43l.03.46c0,.13.03.27,0,.38l-.03.08.08.59c0,.08.03.16.03.24l-.03.13.05.46c0,.11,0,.22-.03.32l-.03.16.05.35v.13c0,.13.03.19,0,.32l-.03.19-.03.67-.03.35.03.65c0,.22-.08.41-.22.59l-.05.11-.4-.08h-.38l-.67.03s-.43-.24-.62-.43c-.11-.11-.13-.24-.19-.35l-.03-.11.03-.65.03-.27.03-.78v-.54c0-.11,0-.13.03-.24l.03-.24-.11-.65v-.35l.03-.57-.05-.3-.03-.67v-.38l-.03-.38c0-.16.03-.35.08-.51l.03-.05v-.43c0-.14,0-.27.05-.41l-.08-.7v-.4l.05-.49-.03-.4-.05-.65-.03-.3-.03-.57-.03-.16c0-.08.03-.16.03-.27l.05-.4v-.13c.03-.32.05-.49.13-.59.08-.11.24-.14.46-.16Z"/>
    <path class="cls-2" d="M125.44,945.36l.49-.05c.14-.03.3-.03.46,0l.32-.05.27-.35v-.27l.03-.65v-.32l.03-.62.03-.4-.05-.65s.57-.57,1-.59l.35-.03c.16-.03.32,0,.46.03h.05l.32.03c.16.22.24.4.24.57l-.05.73.03.32.05.7.03.16c.03.11.05.27.05.38l-.03.35-.03.38.32.24.4.13.65-.03.32-.08h.57l.32.05.38.03.3.05s.54.35.65.57c.03.05.03.08.03.16v.57s-.38.54-.65.62h-.13l-.38.05c-.11.03-.24.03-.35,0l-.08-.03-.65.03-.32-.03-.67.08-.3.05-.32.3-.13.24.03.35-.13.51.08.35.03.67.03.3.08.62-.03.3-.03.51v.22l-.05.24-.08.65.05.38v.7l-.03.22.03.4c.05.19.03.35,0,.57v.08l.13.57.22.27.32.46.27.27.51.22.27-.03.24.03.32.03h.3l.62-.14.62-.19s.32.16.51.32c.13.13.13.32.13.51v.3l.11.24v.24c-.05.24-.22.43-.38.54-.11.05-.22.08-.3.11l-.11.03-.51.11c-.05.03-.16.03-.22.03l-1.16.08-.38.05h-.54l-.43-.05c-.14,0-.3-.03-.43-.08v-.03l-.57-.27-.08-.03c-.16-.05-.3-.11-.46-.24l-.13-.08c-.08-.08-.16-.19-.24-.27l-.13-.16-.3-.43c-.05-.08-.13-.16-.16-.27l-.19-.46-.05-.13c-.05-.11-.08-.22-.11-.35l-.08-.51v-.16c0-.11-.03-.19-.03-.3l.03-.24-.05-.24v-.46l.05-.59-.03-.24.03-.65-.03-.32.05-.62-.03-.27-.05-.3c-.03-.13-.03-.3,0-.43l.03-.13v-.67l-.03-.35-.05-.65v-.22l.03-.16v-.59l-.08-.35-.24-.35-.3.05-.67-.11c-.16,0-.35-.03-.54-.11-.22-.16-.35-.38-.32-.62v-.59c-.03-.24.03-.38.13-.49s.27-.19.51-.24Z"/>
    <path class="cls-2" d="M136.86,958.13l.03-.73-.08-.32v-.54l-.03-.35v-.94l-.05-.51v-.24l.03-.19v-.46c0-.13,0-.22.03-.35l.03-.11-.03-.65v-.38l-.03-.7-.03-.24v-.54c0-.11.03-.27.05-.38l.03-.11.03-.67.03-.35-.03-.65-.05-.3-.03-.54v-1.86l-.11-.41.03-.41c0-.16.03-.27.08-.4l.05-.13.08-.67-.05-.27-.05-.54v-.43l-.08-.4c-.03-.16-.05-.3-.03-.43l.03-.11.05-.67.03-.24.05-.67s.32-.49.54-.65c.08-.08.22-.11.3-.14l.11-.05.54.05.32-.05c.08-.03.19.03.32.08.16.11.27.27.32.43.05.13.05.27.05.38v.22c0,.16-.03.32-.08.51l-.05.32.05.35v.43l.05.62-.03.16v.08l-.03.32-.03.57.05.27-.03.67-.03.24.03.59.05.4.05.16v.78h.27l.22-.22.22-.19.27-.27c.08-.11.16-.16.27-.24l.13-.08.49-.27.32-.14.24-.16.49-.19.27-.08s.11-.03.13-.03l.3-.05c.22-.03.41-.03.57.03l.41-.03.24.03c.08,0,.16,0,.24.03l.19.05.41.05c.11.03.22.05.32.08l.11.05.59.11.22.08c.05.03.03,0,.08.03l.49.19c.08.03.13.08.22.13l.24.16.32.16c.13.08.27.19.38.32l.03.05.4.4.16.16c.08.08.11.16.16.22l.35.46v.03c.11.16.19.27.24.46l.11.4.11.3.22.54.05.08c.08.16.11.3.13.43l.05.41.05.13c.03.13.03.24.03.41v.27c0,.11,0,.16-.03.27l-.05.16.05.38-.03.27v.11l-.03.27-.03.65v.16s-.03.11-.03.13l-.11.57-.03.11c0,.19-.03.32-.11.46l-.19.41-.03.08c-.03.13-.08.27-.13.4l-.11.19c-.08.19-.19.3-.32.43l-.05.05-.4.51-.16.24-.41.46-.05.05c-.08.14-.19.27-.32.35l-.22.13-.3.22-.57.27-.32.13-.62.19-.16.08c-.16.08-.35.08-.51.08h-.4l-.3-.03h-.41l-.35.03-.41-.05c-.08,0-.19-.03-.27-.05l-.16-.03-.67-.19-.11-.03c-.08-.03-.19-.08-.27-.13l-.46-.27-.11-.08c-.11-.08-.22-.13-.3-.22l-.3-.32-.19-.13-.35-.32c-.11-.11-.19-.22-.27-.35l-.19-.27-.22.13v.54l-.05.38v.13c-.03.35-.13.62-.35.86l-.05.05-.35.11h-.67c-.22-.03-.4-.08-.57-.22-.13-.11-.22-.3-.22-.54ZM142.04,947.55l-.57.27-.62.43-.22.27-.38.46-.16.3-.27.51-.05.3-.22.59v.32l-.11.59-.03.38.03.13c.03.19.03.38,0,.57l-.03.05.08.65.11.27.08.38c.03.11.03.13.03.24l.03.24.24.54.19.27.46.49.67.46.3.19.49.24.27.14.54.16h.32l.24.03.38-.08h.27l.59-.08.32-.11.51-.35.27-.19.43-.32.24-.22.35-.46.22-.24.22-.57.22-.7.13-.38.08-.65-.03-.32-.03-.22v-.65l-.03-.59-.05-.19-.16-.67-.11-.24-.32-.54-.24-.3-.35-.46-.22-.27-.46-.38-.19-.13-.7-.27-.54-.03c-.08,0-.22-.03-.3-.05l-.08-.03-.3.05-.35-.08-.32-.03-.54.13-.35.13Z"/>
    <path class="cls-2" d="M151.41,964.28v-.19l.05-.57s.05-.08.13-.19c.24-.32.62-.43,1.03-.38l.3-.03.27-.08.38-.08.57-.11.27-.03.49-.3.16-.22.27-.38c.08-.08.19-.19.27-.24l.16-.11.38-.59.13-.19.08-.22c.08-.22.19-.38.32-.49l.24-.46c.03-.08.08-.13.13-.19l.11-.16-.08-.54-.11-.32-.16-.19-.22-.49c-.03-.05-.05-.16-.08-.22l-.03-.16-.19-.62-.16-.27-.19-.51-.19-.24-.19-.38c-.08-.16-.13-.32-.13-.49l.03-.08-.22-.59-.16-.3-.24-.62-.08-.27-.19-.4c-.03-.08-.08-.22-.11-.32v-.11l-.35-.62-.11-.14c-.05-.08-.11-.19-.13-.3l-.19-.46-.11-.3-.22-.59-.14-.35-.19-.49-.11-.27-.3-.49c-.03-.05-.08-.11-.11-.19l-.08-.24-.32-.73-.24-.62-.08-.19c-.11-.22-.08-.43.08-.57h.41l.65-.08.57-.05h.27l.24.03.08.05c.16.11.3.22.4.35.05.11.11.19.14.32l.05.13.24.57.11.32.22.65.16.24.19.57c.05.11.08.24.08.38l.03.16.24.59.13.27.08.3.13.38.05.22.32.67.14.35.3.65.16.3.14.38c.03.11.08.16.08.24l.03.16.11.32c.05.16.11.3.11.49h.03l.08.32.19.35c.05.11.14.24.16.38v.05l.19.22h.22l.16-.3.11-.22.19-.62.13-.27.13-.49c.03-.08.08-.16.13-.27l.11-.13.22-.67.11-.38.27-.57.13-.4.24-.67.03-.13c.03-.14.08-.22.16-.35l.08-.11.03-.11c.03-.16.05-.3.13-.4l.05-.08.27-.62.13-.27.27-.62.16-.43.11-.35c.05-.16.13-.3.22-.4l.08-.08.19-.7c0-.19.16-.41.38-.62l.05-.03.27-.14.65.08h.32l.54-.03s.11.08.24.22c.24.27.19.62.05.92l-.08.13-.13.3-.16.49c-.03.11-.08.19-.11.27l-.05.11-.27.62-.13.22-.3.54-.03.3-.27.65-.14.24-.19.59-.03.13c-.03.16-.05.3-.13.46l-.08.14c-.05.11-.11.19-.19.3l-.08.08-.22.46-.08.35-.05.27-.08.27-.13.3-.13.35c-.05.19-.16.35-.3.49l-.22.59-.16.35-.24.7-.24.62-.08.38-.27.57-.05.11c-.03.08-.08.19-.13.27l-.11.13-.11.27-.11.3-.24.59-.13.3-.35.65-.03.08c-.05.16-.11.24-.19.38l-.24.35-.05.24-.51.86-.24.38c-.08.14-.19.27-.3.35h-.03l-.43.46-.22.24-.22.22c-.19.19-.38.32-.59.38l-.19.11c-.24.16-.43.22-.65.22l-.46.24-.11.05c-.11.05-.24.08-.35.11l-.65.11h-.86c-.11.03-.24.05-.35.03l-.27-.03c-.11-.03-.22-.08-.3-.11l-.22-.08-.16-.32c-.05-.11-.08-.19-.11-.32Z"/>
    <path class="cls-2" d="M177.41,957.32l.05.16.03.57c0,.22-.11.43-.24.65l-.03.03-.3.05-.05.03c-.13.05-.3.05-.43.05h-.65l-.67-.03-.67.05c-.08,0-.19.03-.3,0l-.19-.03-.65-.05h-.27l-.3.05c-.16.03-.35,0-.49-.03h-.67l-.3.03-.65.05-.32-.03-.51.05c-.05,0-.13.03-.19.03l-.19-.03-.57-.03h-.94l-.3-.05h-.57c-.08,0-.16,0-.24-.03l-.13-.03-.19-.24.16-.32s.03-.05.03-.08l.19-.35c.03-.08.08-.14.13-.22l.19-.22.32-.57.19-.27.35-.54.13-.19.27-.51.08-.32.22-.4c.05-.08.11-.22.16-.3l.13-.13.19-.35c.05-.11.16-.19.27-.3l.05-.08.27-.46.24-.35.38-.49.08-.27.38-.54.03-.08c.05-.16.16-.35.27-.49l.16-.16.22-.27.46-.49.08-.19.27-.57.19-.38.27-.54.16-.24-.16-.3h-.32l-.7-.11h-.22l-.65-.03h-.27l-.7-.03-.78-.05h-.3l-.65.08c-.08,0-.16.03-.24.03l-.59-.05c-.27-.03-.51-.14-.75-.35h-.03l-.03-.4.05-.62s.16-.3.32-.49c.11-.13.3-.19.46-.22h.81c.11,0,.22,0,.32.03l.49.08.24-.03.54-.05h.49l.65.03.24-.03h.86l.62.03h.32l.67-.03.32-.03.41-.05c.11,0,.24,0,.35.03h.59c.11,0,.24.03.35.05l.13.03.51-.05c.11,0,.22,0,.32.03h.13l.16.27c-.03.27-.11.51-.27.73l-.16.19-.16.19-.38.59-.08.32-.38.59-.11.16-.4.49-.11.22-.35.59-.11.27-.38.51-.19.22-.35.46-.19.3-.32.51-.03.05c-.05.16-.11.3-.22.46l-.22.27-.19.4-.32.51-.13.24-.27.51-.22.32-.27.46c-.05.11-.13.19-.19.24l-.11.13-.35.51-.24.38.19.27.35.05.27-.05h.54c.08,0,.16,0,.24.03l.16.03.43-.08c.08-.03.19,0,.27,0h.27l.59-.03.27-.05c.11-.03.24-.03.35,0l.46.05.32-.03h.46c.13,0,.27.03.41.08l.08.03.62.03.3-.03c.19-.05.32.03.41.13.05.13.08.24.11.38Z"/>
    <path class="cls-2" d="M180.78,947.74l-.03-.32-.03-.49v-.22l.05-.27.08-.13c.13-.19.27-.35.49-.49.03,0,.05-.03.08-.05l.32-.13c.11-.05.27-.08.41-.11l.08-.03.38-.11.11-.03c.14-.05.3-.08.43-.08h.13l.49-.16c.08-.03.19-.05.27-.05h.19l.62.03.67.03.03-.03c.13-.03.32-.03.46,0l.13.03h.65l.27.03c.05,0,.16.03.22.05l.59.16.13.03c.11.03.24.08.35.13l.41.24.22.16.46.27c.11.05.22.11.3.22l.22.24c.11.11.24.27.3.43l.03.05.35.59.08.11c.08.11.13.22.16.32.08.27.11.43.08.57l.05.35.08.38c.03.13.05.32.03.46v.43l.05.24v.94l.08.38v.65l-.05.7v.92c0,.08,0,.16-.03.27l-.05.16v.62c.05.16.11.32.08.54l-.03.32v.38l-.03.62v.35l.03.73v.03c-.03.22-.38.54-.57.62-.05,0-.11.03-.14.03l-.22.03h-.51c-.05,0-.16-.03-.22-.03l-.24-.03c-.24-.19-.38-.38-.4-.54l-.05-.65v-.27l-.08-.57-.22-.03-.32.27-.38.46-.19.3-.35.35c-.05.05-.13.08-.19.13l-.51.35c-.08.05-.13.08-.24.13l-.11.05-.35.13c-.13.05-.27.08-.4.08h-.16l-.7.08-.38.03-.3.05h-.11c-.16.03-.35,0-.51-.05l-.35-.11-.32-.13-.49-.16c-.05-.03-.13-.05-.19-.08l-.3-.16-.38-.27c-.11-.08-.19-.11-.27-.22l-.35-.41-.13-.19c-.05-.08-.14-.19-.16-.3l-.16-.41-.05-.16c-.03-.11-.08-.19-.08-.32l-.03-.41-.03-.27v-.4l-.03-.24-.03-.11c-.03-.22-.03-.38.03-.59l.08-.27c.03-.19.11-.32.22-.46l.19-.3c.05-.16.19-.38.41-.54l.08-.05.19-.27.46-.32.05-.05c.05-.05.16-.11.24-.14l.51-.22.24-.11.35-.13.13-.08c.13-.08.27-.11.4-.14l.51-.08.35-.03.54-.16c.08-.03.16-.03.24-.03l.19-.03.89.08h.49c.08,0,.22,0,.3.03l.13.05.76-.03.38-.03.3-.08-.03-.54v-.27l.05-.27-.08-.62-.13-.24-.3-.54-.27-.16-.41-.3c-.05-.05-.13-.11-.19-.19l-.08-.11-.49-.3h-.3l-.65-.13-.38.08-.35-.03-.41.05-.57-.05-.35.05-.57.11-.38.11-.54.19-.3.14-.57.24c-.16.05-.32.08-.43.03-.11-.03-.19-.16-.16-.35ZM186.08,956.75l.59-.24.22-.19.41-.38.22-.24.32-.54.11-.16.16-.35c.05-.14.16-.24.27-.38l.05-.05.08-.54.03-.32.08-.35-.3-.3-.43.05h-.49c-.13,0-.27,0-.4-.05l-.11-.03-.89-.11-.62.11-.32.08-.62.08-.35.05-.51.24-.27.16-.51.49-.08.3-.22.62.08.32-.05.27.08.38.16.67.43.41.24.13.7.08.05-.03c.19-.03.38,0,.54.05h.4l.65-.13.3-.11Z"/>
    <path class="cls-2" d="M195.63,964.23l-.03-.24-.05-.62-.03-.14c0-.08.03-.11.03-.19l.05-.51-.03-.35v-.65l.03-.43-.03-.51c0-.08,0-.19.03-.27l.03-.13v-.46c0-.13,0-.22.03-.32l.05-.13-.08-.67-.03-.32-.03-.65-.03-.3-.05-.59.03-.32.03-.73.03-.35.05-.65v-.3l-.03-.59v-.89l-.03-.27-.03-.73-.03-.32.03-.7.08-.38.05-.57-.08-.24.08-.62v-.3l-.03-.67-.08-.35.03-.7-.03-.11c-.03-.13-.03-.32,0-.46l.05-.38v-.11c.11-.51.62-.65.81-.62l.76.03s.7.57.76,1.03l.03.3.03.54h.27l.19-.3.35-.35c.11-.11.24-.22.38-.27l.05-.03.19-.16.27-.24.13-.11c.08-.05.13-.08.24-.14l.43-.16.24-.08.54-.19.14-.05c.08-.03.19-.05.3-.05l.43-.05h.35l.32-.03.08-.03c.13,0,.3.03.43.05l.11.03.86.11.35.08c.16.05.3.11.4.19l.08.05.62.27.19.08c.08.03.16.05.27.13l.43.3.11.11c.08.08.16.16.22.27l.16.24c.05.11.11.16.14.24l.08.19.32.49.19.16.24.43c.08.16.13.32.16.49l.03.03.3.62.05.16c.03.05.05.11.05.16l.13.62.03.35.03.62v.11c.03.16-.03.32-.05.46v.05l.08.32-.05.32v.62l-.03.27c0,.11,0,.13-.03.24l-.11.51-.08.32-.19.54-.11.24-.3.57-.54.76c-.05.08-.13.16-.22.24l-.54.49-.19.19-.43.35-.35.22-.62.32-.16.05c-.05.03-.11.05-.16.08l-.35.11c-.08.03-.19.05-.27.05l-.19.03-.19.05c-.27.05-.51.05-.65,0h-.32l-.32-.03-.11.03c-.13.03-.3.03-.43,0l-.35-.05c-.05,0-.13-.05-.19-.08l-.32-.11-.62-.19-.27-.05c-.08-.03-.22-.03-.3-.08l-.24-.11c-.11-.05-.24-.16-.32-.24l-.11-.11-.27-.24c-.11-.08-.19-.22-.24-.32l-.08-.16-.24-.19-.19-.08-.08.67-.03.32.03.19c.03.13.03.3,0,.43l-.05.43.03.27-.05.7.03.3v.51c0,.11,0,.14-.03.24l-.03.3.03.65.08.24.03.59c0,.08.03.22,0,.3l-.03.24v.65s-.08.16-.19.32c-.22.38-.54.49-.76.43l-.38.05c-.13.03-.24,0-.38-.03l-.16-.03c-.22.03-.41,0-.54-.08-.13-.11-.19-.27-.13-.49ZM203.84,956.67l.54-.24.24-.05.41-.38.24-.27.38-.49.22-.24.32-.73.3-.59.05-.3-.03-.67v-.11c0-.11,0-.19.03-.3l.03-.22-.08-.22-.03-.38-.11-.59-.05-.32-.19-.57-.05-.35-.19-.49-.27-.19-.27-.27c-.11-.11-.22-.24-.27-.38l-.03-.05-.32-.22c-.08-.05-.16-.13-.22-.19l-.11-.11-.49-.27-.27-.08-.57-.16-.38.08-.22-.03-.38.03-.3-.03-.62.11-.24.11-.59.27-.27.13-.51.51-.32.43c-.08.08-.16.19-.24.27l-.11.05-.16.41c-.05.13-.13.24-.22.35l-.08.08-.11.59-.03.3-.13.65v.22l.03.11c.03.16,0,.32-.05.49v.41l.05.54.08.38.22.62.35.67.3.19.38.54.13.22.54.41.3.11.4.16c.05.03.11.05.19.11l.19.13h.51l.3.03h.7l.27.03.54-.14.27-.11Z"/>
    <path class="cls-2" d="M212.43,947.74l-.03-.32-.03-.49v-.22l.05-.27.08-.13c.13-.19.27-.35.49-.49.03,0,.05-.03.08-.05l.32-.13c.11-.05.27-.08.41-.11l.08-.03.38-.11.11-.03c.14-.05.3-.08.43-.08h.13l.49-.16c.08-.03.19-.05.27-.05h.19l.62.03.67.03.03-.03c.13-.03.32-.03.46,0l.13.03h.65l.27.03c.05,0,.16.03.22.05l.59.16.13.03c.11.03.24.08.35.13l.41.24.22.16.46.27c.11.05.22.11.3.22l.22.24c.11.11.24.27.3.43l.03.05.35.59.08.11c.08.11.13.22.16.32.08.27.11.43.08.57l.05.35.08.38c.03.13.05.32.03.46v.43l.05.24v.94l.08.38v.65l-.05.7v.92c0,.08,0,.16-.03.27l-.05.16v.62c.05.16.11.32.08.54l-.03.32v.38l-.03.62v.35l.03.73v.03c-.03.22-.38.54-.57.62-.05,0-.11.03-.14.03l-.22.03h-.51c-.05,0-.16-.03-.22-.03l-.24-.03c-.24-.19-.38-.38-.4-.54l-.05-.65v-.27l-.08-.57-.22-.03-.32.27-.38.46-.19.3-.35.35c-.05.05-.13.08-.19.13l-.51.35c-.08.05-.13.08-.24.13l-.11.05-.35.13c-.13.05-.27.08-.4.08h-.16l-.7.08-.38.03-.3.05h-.11c-.16.03-.35,0-.51-.05l-.35-.11-.32-.13-.49-.16c-.05-.03-.13-.05-.19-.08l-.3-.16-.38-.27c-.11-.08-.19-.11-.27-.22l-.35-.41-.13-.19c-.05-.08-.14-.19-.16-.3l-.16-.41-.05-.16c-.03-.11-.08-.19-.08-.32l-.03-.41-.03-.27v-.4l-.03-.24-.03-.11c-.03-.22-.03-.38.03-.59l.08-.27c.03-.19.11-.32.22-.46l.19-.3c.05-.16.19-.38.41-.54l.08-.05.19-.27.46-.32.05-.05c.05-.05.16-.11.24-.14l.51-.22.24-.11.35-.13.14-.08c.13-.08.27-.11.4-.14l.51-.08.35-.03.54-.16c.08-.03.16-.03.24-.03l.19-.03.89.08h.49c.08,0,.22,0,.3.03l.13.05.76-.03.38-.03.3-.08-.03-.54v-.27l.05-.27-.08-.62-.13-.24-.3-.54-.27-.16-.41-.3c-.05-.05-.13-.11-.19-.19l-.08-.11-.49-.3h-.3l-.65-.13-.38.08-.35-.03-.41.05-.57-.05-.35.05-.57.11-.38.11-.54.19-.3.14-.57.24c-.16.05-.32.08-.43.03-.11-.03-.19-.16-.16-.35ZM217.72,956.75l.59-.24.22-.19.41-.38.22-.24.32-.54.11-.16.16-.35c.05-.14.16-.24.27-.38l.05-.05.08-.54.03-.32.08-.35-.3-.3-.43.05h-.49c-.13,0-.27,0-.4-.05l-.11-.03-.89-.11-.62.11-.32.08-.62.08-.35.05-.51.24-.27.16-.51.49-.08.3-.22.62.08.32-.05.27.08.38.16.67.43.41.24.13.7.08.05-.03c.19-.03.38,0,.54.05h.4l.65-.13.3-.11Z"/>
    <path class="cls-2" d="M227.14,958.1l-.05-.65-.05-.3-.03-.35c0-.11,0-.24.03-.35l.03-.11.03-.62v-.08c0-.19,0-.32.05-.49l.03-.05-.11-.54v-.38l.03-.57.03-.19-.08-.7.03-.27.03-.65-.05-.35v-.67l.03-.27-.08-.35c-.03-.19-.03-.32,0-.51l.03-.08-.03-.59c0-.13,0-.22.03-.32l.13-.59v-.38l-.08-.65-.05-.24-.03-.54v-.13c0-.13.03-.27.08-.43v-.03l.08-.05c.19-.16.4-.24.65-.27h.7c.13-.05.3-.05.51,0,.19.19.3.4.3.65l.05.38c.03.16.03.35-.03.51l-.03.08.03.3.05.57.22-.14c.05-.19.16-.38.32-.57l.05-.08c.05-.05.16-.11.22-.16l.16-.11.3-.41c.05-.08.16-.19.24-.27l.22-.19c.11-.11.24-.16.38-.22h.03l.62-.3.03-.03c.13-.08.3-.13.46-.16l.51-.08h.32c.24-.03.43.05.59.19.16.16.22.35.27.54l.03.78v.3c-.03.16-.08.32-.13.46l-.08.19-.46-.08-.32.05-.86.11-.32.16-.49.35-.22.22-.4.38-.22.16-.19.24-.27.46-.05.32-.24.57-.22.32-.27.59v1.86l-.03.32.03.62v1l.03.22c0,.05-.03.16-.03.22l-.08.59.03.24v.94l.03.43c0,.13,0,.32-.05.46l-.05.11-.22.19c-.16.13-.32.22-.49.27l-.67-.03h-.27c-.05,0-.11,0-.19-.03l-.13-.03-.19-.16c-.11-.11-.19-.32-.16-.57Z"/>
    <path class="cls-2" d="M249.74,940.18l.05.65v1.08l-.03.19v.43c0,.11-.03.22-.05.35l-.05.24.03.67.11.32v.43c0,.11,0,.24-.03.32l-.05.19-.03.65.03.35-.03.57.05.3v.41c0,.16,0,.32-.05.46l-.03.05.03.51c0,.14,0,.22-.03.35l-.03.13.11.57.08.43.03.51v.27l-.03.19-.08.57.03.22-.05.65v.32l.08.59-.03.38.08.51c.03.08.03.22.03.3l-.03.19-.08.62.08.35-.13.92-.03.7.08.3-.03.59c0,.11-.03.16-.05.27l-.05.22c-.27.24-.46.35-.62.35l-.62-.03-.3.05s-.59-.35-.7-.54c-.03-.05-.03-.11-.03-.13v-.78l.05-.57-.32-.03-.19.3-.54.49-.22.22-.4.3c-.08.08-.19.14-.3.19l-.57.24-.03.03c-.14.11-.3.16-.46.22l-.35.11c-.08.03-.16.05-.24.05l-.57.05h-.32c-.19.08-.38.11-.59.08l-.27.05-.59-.03c-.05,0-.16-.03-.22-.03l-.22-.03-.62-.3-.84-.46c-.24-.05-.49-.22-.67-.43l-.13-.14-.24-.22-.46-.54-.41-.4c-.05-.05-.11-.13-.16-.22l-.14-.19-.27-.51c-.03-.08-.08-.13-.11-.24l-.05-.16-.24-.65-.03-.05c-.03-.08-.05-.16-.08-.27l-.08-.32c-.03-.14-.05-.32-.03-.46v-.13l-.05-.41c-.03-.22-.03-.38.03-.59v-.03l-.03-.4c0-.11-.03-.22,0-.32l.05-.22v-.59l.03-.19c0-.11.03-.27.05-.38l.13-.43.03-.11c0-.16.03-.27.08-.4l.16-.35.11-.38.35-.62.3-.46c.05-.11.13-.19.22-.27l.19-.16.38-.35c.05-.05.11-.05.19-.11l.19-.13.51-.41.16-.11s.11-.05.16-.08l.38-.19.05-.05c.14-.11.27-.16.41-.19l.49-.13.35-.05.54-.11c.08-.03.13-.03.22-.03h.62l.35-.05.57.05c.08,0,.19.03.27.05l.08.03.3.08.59.19.11.05c.08.03.16.05.22.11l.43.3.08.03c.19.05.35.19.49.32l.24.24.13.08c.11.05.22.16.3.24l.08.11.16-.08.05-.51-.03-.41v-.08c0-.11-.03-.22,0-.35l.08-.49v-.38l.03-.54-.03-.38-.03-.49v-.24l.03-.19v-.57l.05-.3v-.27l-.05-.4v-.43l.03-.73c.03-.24.16-.43.35-.65l.03-.05.24.03h.35l.54-.03h.3c.22,0,.38.05.49.16.11.11.16.32.16.59ZM241.59,947.47l-.54.19-.3.22-.43.3-.16.24-.46.54-.13.24-.22.51-.11.27-.27.59-.13.41-.03.67.03.13c.03.16,0,.24-.03.4v.14l.03.35.08.41c.03.08.03.22.03.3l.03.11.16.57.11.32.03.05c.11.13.22.32.27.49l.19.27.32.46.19.27.35.19c.11.05.22.11.3.19l.11.08.41.19c.05.03.11.03.19.08l.16.11.59.11.35.03.27.05h.05c.16-.03.32-.03.49.03l.19.03.54-.16.24-.14.46-.35c.05-.03.11-.08.16-.11l.51-.3.27-.19.38-.46.22-.32.24-.62.16-.27.11-.54.08-.24.11-.67-.05-.32v-.46l.05-.24-.11-.62-.05-.35-.22-.49-.08-.32-.38-.59-.13-.24-.35-.67-.54-.49-.32-.14-.54-.22c-.05-.03-.13-.05-.19-.08l-.08-.05-.62-.11-.38.03-.38.05h-.32l-.67.05-.22.11Z"/>
    <path class="cls-2" d="M265.29,958.83l-.62.03s-.46-.22-.65-.38c-.11-.11-.11-.24-.13-.38l-.03-.3c-.03-.14,0-.27.03-.43v-.05l-.05-.32.11-.57-.19-.05-.24.35-.24.24-.38.57c-.08.13-.19.27-.35.41l-.03.03c-.16.14-.32.19-.49.24l-.11.03-.65.32-.22.13-.62.22-.19.08c-.11.05-.22.08-.32.11l-.22.03c-.13.03-.24.05-.38.03h-.08l-.59.03h-.22l-.19-.03-.38-.05c-.08,0-.19-.05-.27-.08l-.19-.05-.59-.16-.11-.05c-.13-.05-.3-.08-.41-.16l-.24-.16c-.11-.08-.16-.13-.22-.22l-.38-.46-.08-.11c-.05-.08-.11-.13-.16-.24l-.27-.51-.27-.62-.08-.22-.16-.54c-.03-.05-.03-.16-.03-.22l-.03-.3-.08-.62-.03-.19v-.24l.03-.22-.03-.03c-.05-.16-.08-.3-.08-.49v-.3c0-.24.05-.46.13-.62v-.67l-.11-.3-.03-.51v-.27l.03-.16.03-.59-.03-.27.05-.59-.03-.35v-.49c0-.11,0-.22.03-.32l.05-.19.03-.62c-.05-.16-.08-.3-.05-.54l.05-.32s.13-.22.27-.43c.22-.24.46-.27.59-.22l.62.03.32-.03s.51.38.59.62v.11l.03.59-.03.38.08.51v.46l-.03.62-.03.27.03.62.03.05c.03.13.03.24,0,.35l-.03.19-.03.54-.03.3.03.65v.35l.03.67-.03.27v.65l.03.3.03.54.13.3.08.35.22.54.13.27.3.32.3.19.59.22.35-.03.3.08.43-.08h.27l.62.03.3-.08.38-.24c.08-.05.14-.08.19-.11l.16-.05.49-.4.22-.27.62-.59.38-.54.13-.38.13-.54.08-.27v-.51c0-.05.03-.16.03-.22l.05-.19-.03-.35v-.22l.03-.35v-.41c0-.11,0-.27.03-.38l.03-.05.05-.67-.03-.27-.05-.67v-.92l.05-.32.05-.62.03-.35-.03-.54s.22-.43.43-.62c.08-.08.22-.08.32-.08l.16-.03.62-.08h.38l.05.05c.22.24.38.49.38.7t.03.05l.03.7v.81l-.03.27-.03.62-.03.43.05.7v.35l.03.54.03.13c.03.13.03.27.03.41l-.05.4.11.35-.03.49c0,.08-.03.16-.05.27l-.03.11-.03.65.05.3v.43c.03.19,0,.35-.05.51l.05.43c.03.19,0,.32-.03.49v.05l.03.38c0,.19,0,.32-.05.49l-.08.7v.32l.08.65c0,.16-.05.35-.16.49s-.38.22-.78.22Z"/>
    <path class="cls-2" d="M271.26,958.13l.03-.73-.08-.32v-.54l-.03-.35v-.94l-.05-.51v-.24l.03-.19v-.46c0-.13,0-.22.03-.35l.03-.11-.03-.65v-.38l-.03-.7-.03-.24v-.54c0-.11.03-.27.05-.38l.03-.11.03-.67.03-.35-.03-.65-.05-.3-.03-.54v-1.86l-.11-.41.03-.41c0-.16.03-.27.08-.4l.05-.13.08-.67-.05-.27-.05-.54v-.43l-.08-.4c-.03-.16-.05-.3-.03-.43l.03-.11.05-.67.03-.24.05-.67s.32-.49.54-.65c.08-.08.22-.11.3-.14l.11-.05.54.05.32-.05c.08-.03.19.03.32.08.16.11.27.27.32.43.05.13.05.27.05.38v.22c0,.16-.03.32-.08.51l-.05.32.05.35v.43l.05.62-.03.16v.08l-.03.32-.03.57.05.27-.03.67-.03.24.03.59.05.4.05.16v.78h.27l.22-.22.22-.19.27-.27c.08-.11.16-.16.27-.24l.13-.08.49-.27.32-.14.24-.16.49-.19.27-.08s.11-.03.13-.03l.3-.05c.22-.03.41-.03.57.03l.41-.03.24.03c.08,0,.16,0,.24.03l.19.05.41.05c.11.03.22.05.32.08l.11.05.59.11.22.08c.05.03.03,0,.08.03l.49.19c.08.03.13.08.22.13l.24.16.32.16c.13.08.27.19.38.32l.03.05.4.4.16.16c.08.08.11.16.16.22l.35.46v.03c.11.16.19.27.24.46l.11.4.11.3.22.54.05.08c.08.16.11.3.13.43l.05.41.05.13c.03.13.03.24.03.41v.27c0,.11,0,.16-.03.27l-.05.16.05.38-.03.27v.11l-.03.27-.03.65v.16s-.03.11-.03.13l-.11.57-.03.11c0,.19-.03.32-.11.46l-.19.41-.03.08c-.03.13-.08.27-.13.4l-.11.19c-.08.19-.19.3-.32.43l-.05.05-.4.51-.16.24-.41.46-.05.05c-.08.14-.19.27-.32.35l-.22.13-.3.22-.57.27-.32.13-.62.19-.16.08c-.16.08-.35.08-.51.08h-.4l-.3-.03h-.41l-.35.03-.41-.05c-.08,0-.19-.03-.27-.05l-.16-.03-.67-.19-.11-.03c-.08-.03-.19-.08-.27-.13l-.46-.27-.11-.08c-.11-.08-.22-.13-.3-.22l-.3-.32-.19-.13-.35-.32c-.11-.11-.19-.22-.27-.35l-.19-.27-.22.13v.54l-.05.38v.13c-.03.35-.13.62-.35.86l-.05.05-.35.11h-.67c-.22-.03-.4-.08-.57-.22-.13-.11-.22-.3-.22-.54ZM276.44,947.55l-.57.27-.62.43-.22.27-.38.46-.16.3-.27.51-.05.3-.22.59v.32l-.11.59-.03.38.03.13c.03.19.03.38,0,.57l-.03.05.08.65.11.27.08.38c.03.11.03.13.03.24l.03.24.24.54.19.27.46.49.67.46.3.19.49.24.27.14.54.16h.32l.24.03.38-.08h.27l.59-.08.32-.11.51-.35.27-.19.43-.32.24-.22.35-.46.22-.24.22-.57.22-.7.13-.38.08-.65-.03-.32-.03-.22v-.65l-.03-.59-.05-.19-.16-.67-.11-.24-.32-.54-.24-.3-.35-.46-.22-.27-.46-.38-.19-.13-.7-.27-.54-.03c-.08,0-.22-.03-.3-.05l-.08-.03-.3.05-.35-.08-.32-.03-.54.13-.35.13Z"/>
    <path class="cls-2" d="M288.54,940.34l.03-.03.4-.16c.11-.05.24-.08.35-.08h.11l.3.11h.03c.19-.03.38,0,.57.08.16.05.35.3.54.62l.03.03.05.35.03.27v.05c0,.19-.05.32-.11.49-.08.19-.16.35-.3.46l-.4.13c-.08.03-.22.05-.3.05h-.16l-.24.08c-.11.03-.22.03-.32.03h-.13l-.16-.08c-.16-.08-.32-.19-.43-.32l-.08-.08-.08-.51-.03-.24c0-.14,0-.27.03-.43l.03-.05.13-.43c.03-.13.08-.22.13-.32ZM288.92,945.33l.3.03.67.05.3-.03s.3.24.49.46c.13.16.13.32.16.54l.03.35.03.27-.03.7-.05.32-.03.65.03.24.08.41c.03.16.03.24,0,.4l-.03.16.03.46c0,.13,0,.3-.03.43l-.05.13-.05.54v.27l.05.57v.43l.03.46c0,.13.03.27,0,.38l-.03.08.08.59c0,.08.03.16.03.24l-.03.13.05.46c0,.11,0,.22-.03.32l-.03.16.05.35v.13c0,.13.03.19,0,.32l-.03.19-.03.67-.03.35.03.65c0,.22-.08.41-.22.59l-.05.11-.4-.08h-.38l-.67.03s-.43-.24-.62-.43c-.11-.11-.13-.24-.19-.35l-.03-.11.03-.65.03-.27.03-.78v-.54c0-.11,0-.13.03-.24l.03-.24-.11-.65v-.35l.03-.57-.05-.3-.03-.67v-.38l-.03-.38c0-.16.03-.35.08-.51l.03-.05v-.43c0-.14,0-.27.05-.41l-.08-.7v-.4l.05-.49-.03-.4-.05-.65-.03-.3-.03-.57-.03-.16c0-.08.03-.16.03-.27l.05-.4v-.13c.03-.32.05-.49.13-.59.08-.11.24-.14.46-.16Z"/>
    <path class="cls-2" d="M297.15,953.65l.27.65.19.24.3.57.14.19.51.46.13.13.43.27c.11.08.22.16.3.27l.08.08.62.24.32.03.59.14.35-.08.41-.03h.62l.65-.03.27-.05.59-.19.27-.11.32-.11.27-.11.19-.11c.14-.08.24-.11.38-.13l.11-.03c.19.14.3.32.3.51v.35l.05.62c0,.22-.08.49-.19.67l-.08.13-.16.11c-.11.08-.24.14-.38.16l-.46.11-.57.19c-.08.03-.14.05-.22.05l-.24.03-.49.16-.19.05c-.11.05-.24.08-.35.08l-.22.03c-.16.03-.3,0-.43-.03l-.13-.05-.32.03h-.4l-.59-.08c-.05,0-.13-.03-.19-.05l-.24-.05-.46-.03c-.11,0-.27-.03-.38-.08h-.03l-.51-.27c-.05-.03-.11-.03-.16-.08l-.19-.16-.38-.16c-.08-.05-.16-.08-.22-.14l-.19-.16-.49-.32-.13-.11c-.05-.05-.13-.08-.19-.16l-.3-.35-.03-.03c-.16-.11-.3-.19-.41-.35l-.19-.24-.19-.3-.27-.4c-.05-.08-.11-.16-.14-.27l-.08-.19-.14-.49-.08-.19c-.05-.13-.11-.22-.13-.38l-.05-.43c-.05-.14-.11-.27-.11-.46v-.27c0-.05.03-.16.03-.22l.03-.24v-.03c-.03-.13,0-.32.03-.46l.03-.11-.03-.38.03-.57.08-.32.03-.43c.03-.13.05-.27.11-.41l.03-.05.22-.7.05-.11c.03-.08.05-.13.08-.19l.32-.54.19-.22.3-.51.13-.16c.03-.05.05-.08.11-.13l.41-.38.24-.19.46-.35.14-.11c.05-.05.13-.08.22-.13l.51-.24.3-.11.67-.24.59-.19c.11-.03.22-.08.32-.08h.22l.65-.03.05-.03c.11-.03.24-.03.35,0l.22.03c.19-.05.4-.05.59-.03h.59c.16-.03.35,0,.59.08l.27.11.62.22.27.11c.05.03.08.05.16.11l.16.11.32.16c.08.03.16.08.24.16.22.22.24.49.24.73l-.05.65c.03.13,0,.32-.08.54-.19.11-.38.11-.51.03l-.22-.05-.59-.32-.19-.13-.7-.05-.13-.03c-.11,0-.22,0-.35-.05l-.11-.05h-.43l-.3-.03-.32.03-.22.03c-.08,0-.19.03-.3,0l-.19-.03-.57.03-.27.13-.62.19-.24.16-.51.27-.3.3-.3.46-.19.24-.35.54-.08.19-.24.57-.08.38-.11.67v.46c0,.08,0,.22-.03.3l-.05.22v.24l.03.65.05.27Z"/>
    <path class="cls-2" d="M317.1,945.33l.19.08c.08.03.16.08.22.11l.43.27.11.05c.14.05.3.13.41.22l.43.32.24.16.35.35c.05.05.11.11.16.19l.13.19.38.7.05.11c.03.05.08.16.11.24l.16.46.13.32.19.49c.03.05.05.13.05.22l.05.19-.05.67c.05.16.05.35,0,.59v.05l.05.22-.05.62s-.08.13-.19.24c-.16.19-.4.22-.65.24h-.67c-.16.05-.35.08-.51.08l-.43-.05-.32.03-.67-.14-.32.08-.54-.08-.27.05h-.49c-.08,0-.19-.03-.27-.05l-.16-.03-.7.11-.24.05c-.11.03-.22.03-.32.03l-.43-.03h-.3l-.59.08h-.43l-.59-.11h-.4l-.3.27-.03.32v.3l.08.62.16.24.24.67.16.3.49.43.32.13.57.43.27.11.62.22.35.08.65.05.3.03h.03c.19-.05.35-.05.51-.03h.03l.32.08.73-.05.35-.11.65-.05.43-.05.67-.16.62-.3.22-.11s.3.11.46.24c.11.08.16.19.16.35l.03.57c0,.22-.05.46-.16.65-.11.19-.27.35-.51.46-.05.03-.05,0-.11.03l-.54.16-.3.08-.46.16c-.08.03-.16.03-.27.05l-.16.03-.67.13-.13.03c-.08.03-.13.03-.19.03h-.27l-.54.03h-.05c-.19.03-.38.05-.57,0h-.05l-.4-.03-.24.03-.67-.08-.27-.05-.38-.08c-.08-.03-.19-.03-.27-.08l-.13-.08-.62-.13-.3-.08-.59-.24-.24-.14c-.05-.03-.08-.03-.13-.08l-.43-.3c-.05-.05-.11-.08-.16-.13l-.16-.16-.43-.46-.11-.11c-.05-.08-.11-.13-.16-.19l-.19-.27c-.05-.08-.08-.16-.11-.27l-.05-.11-.32-.54-.13-.27-.24-.54c-.03-.08-.05-.19-.08-.32l-.03-.13-.22-.65-.03-.24c0-.08-.03-.13-.03-.19v-.49l-.03-.3.03-.32-.05-.35v-.03c-.03-.16-.03-.32,0-.49l.11-.43.13-.32.16-.59.03-.08c0-.19.03-.35.11-.51l.16-.35c.03-.19.11-.35.19-.49l.19-.3.08-.16c.05-.13.16-.24.24-.35l.3-.3.86-.78.22-.16.32-.32c.08-.08.19-.16.3-.22l.11-.05.57-.22.27-.05.67-.19.3-.08.46-.11c.19-.05.35-.05.51-.03l.08.03.3-.03h.67l.97.13.57.11ZM318.34,950.11l-.16-.57-.08-.3-.27-.57-.13-.27-.38-.41-.32-.27-.59-.3-.3-.11-.57-.05h-.08c-.19,0-.38-.03-.51-.08l-.41.03h-.27l-.62.05-.32.13-.57.27-.35.19-.49.51-.13.19-.35.51-.05.38-.11.24-.08.27-.11.38-.08.24.3.32h.38l.62.03.27-.03h.59c.19-.11.38-.13.59-.13h.32l1.13.11.51-.08c.11,0,.24,0,.35.03h.75l.08-.03c.14-.03.3,0,.43.03l.13.03.24-.08.4.03.27-.27-.05-.43Z"/>
    <path class="cls-2" d="M324.07,956.43l.24-.11c.22-.08.41-.11.57-.08l.27-.03h.13c.14,0,.3.05.43.11l.22.08c.05.03.16.08.22.14l.05.03.13.27c.08.19.14.35.14.54v.05l-.08.35c0,.16-.03.32-.08.51-.08.19-.22.35-.41.46l-.32.13c-.13.05-.24.08-.4.11h-.03l-.32-.05c-.22.05-.49,0-.81-.19-.05-.03-.13-.19-.27-.43-.08-.16-.11-.32-.11-.54l.03-.41c-.05-.13-.03-.32.05-.51.08-.16.19-.32.35-.43Z"/>
    <path class="cls-2" d="M331.74,953.65l.27.65.19.24.3.57.14.19.51.46.13.13.43.27c.11.08.22.16.3.27l.08.08.62.24.32.03.59.14.35-.08.41-.03h.62l.65-.03.27-.05.59-.19.27-.11.32-.11.27-.11.19-.11c.14-.08.24-.11.38-.13l.11-.03c.19.14.3.32.3.51v.35l.05.62c0,.22-.08.49-.19.67l-.08.13-.16.11c-.11.08-.24.14-.38.16l-.46.11-.57.19c-.08.03-.14.05-.22.05l-.24.03-.49.16-.19.05c-.11.05-.24.08-.35.08l-.22.03c-.16.03-.3,0-.43-.03l-.13-.05-.32.03h-.4l-.59-.08c-.05,0-.13-.03-.19-.05l-.24-.05-.46-.03c-.11,0-.27-.03-.38-.08h-.03l-.51-.27c-.05-.03-.11-.03-.16-.08l-.19-.16-.38-.16c-.08-.05-.16-.08-.22-.14l-.19-.16-.49-.32-.13-.11c-.05-.05-.13-.08-.19-.16l-.3-.35-.03-.03c-.16-.11-.3-.19-.41-.35l-.19-.24-.19-.3-.27-.4c-.05-.08-.11-.16-.14-.27l-.08-.19-.14-.49-.08-.19c-.05-.13-.11-.22-.13-.38l-.05-.43c-.05-.14-.11-.27-.11-.46v-.27c0-.05.03-.16.03-.22l.03-.24v-.03c-.03-.13,0-.32.03-.46l.03-.11-.03-.38.03-.57.08-.32.03-.43c.03-.13.05-.27.11-.41l.03-.05.22-.7.05-.11c.03-.08.05-.13.08-.19l.32-.54.19-.22.3-.51.13-.16c.03-.05.05-.08.11-.13l.41-.38.24-.19.46-.35.14-.11c.05-.05.13-.08.22-.13l.51-.24.3-.11.67-.24.59-.19c.11-.03.22-.08.32-.08h.22l.65-.03.05-.03c.11-.03.24-.03.35,0l.22.03c.19-.05.4-.05.59-.03h.59c.16-.03.35,0,.59.08l.27.11.62.22.27.11c.05.03.08.05.16.11l.16.11.32.16c.08.03.16.08.24.16.22.22.24.49.24.73l-.05.65c.03.13,0,.32-.08.54-.19.11-.38.11-.51.03l-.22-.05-.59-.32-.19-.13-.7-.05-.13-.03c-.11,0-.22,0-.35-.05l-.11-.05h-.43l-.3-.03-.32.03-.22.03c-.08,0-.19.03-.3,0l-.19-.03-.57.03-.27.13-.62.19-.24.16-.51.27-.3.3-.3.46-.19.24-.35.54-.08.19-.24.57-.08.38-.11.67v.46c0,.08,0,.22-.03.3l-.05.22v.24l.03.65.05.27Z"/>
    <path class="cls-2" d="M353.44,957.32l.05.16.03.57c0,.22-.11.43-.24.65l-.03.03-.3.05-.05.03c-.13.05-.3.05-.43.05h-.65l-.67-.03-.67.05c-.08,0-.19.03-.3,0l-.19-.03-.65-.05h-.27l-.3.05c-.16.03-.35,0-.49-.03h-.67l-.3.03-.65.05-.32-.03-.51.05c-.05,0-.13.03-.19.03l-.19-.03-.57-.03h-.94l-.3-.05h-.57c-.08,0-.16,0-.24-.03l-.13-.03-.19-.24.16-.32s.03-.05.03-.08l.19-.35c.03-.08.08-.14.13-.22l.19-.22.32-.57.19-.27.35-.54.13-.19.27-.51.08-.32.22-.4c.05-.08.11-.22.16-.3l.13-.13.19-.35c.05-.11.16-.19.27-.3l.05-.08.27-.46.24-.35.38-.49.08-.27.38-.54.03-.08c.05-.16.16-.35.27-.49l.16-.16.22-.27.46-.49.08-.19.27-.57.19-.38.27-.54.16-.24-.16-.3h-.32l-.7-.11h-.22l-.65-.03h-.27l-.7-.03-.78-.05h-.3l-.65.08c-.08,0-.16.03-.24.03l-.59-.05c-.27-.03-.51-.14-.75-.35h-.03l-.03-.4.05-.62s.16-.3.32-.49c.11-.13.3-.19.46-.22h.81c.11,0,.22,0,.32.03l.49.08.24-.03.54-.05h.49l.65.03.24-.03h.86l.62.03h.32l.67-.03.32-.03.41-.05c.11,0,.24,0,.35.03h.59c.11,0,.24.03.35.05l.13.03.51-.05c.11,0,.22,0,.32.03h.13l.16.27c-.03.27-.11.51-.27.73l-.16.19-.16.19-.38.59-.08.32-.38.59-.11.16-.4.49-.11.22-.35.59-.11.27-.38.51-.19.22-.35.46-.19.3-.32.51-.03.05c-.05.16-.11.3-.22.46l-.22.27-.19.4-.32.51-.13.24-.27.51-.22.32-.27.46c-.05.11-.13.19-.19.24l-.11.13-.35.51-.24.38.19.27.35.05.27-.05h.54c.08,0,.16,0,.24.03l.16.03.43-.08c.08-.03.19,0,.27,0h.27l.59-.03.27-.05c.11-.03.24-.03.35,0l.46.05.32-.03h.46c.13,0,.27.03.41.08l.08.03.62.03.3-.03c.19-.05.32.03.41.13.05.13.08.24.11.38Z"/>
  </g>
  <polygon class="cls-1" points="560.24 -11.07 558.71 752.19 572.5 704.8 593.95 757.18 588.07 -10.76 560.24 -11.07"/>
  <polygon class="cls-2" points="502.37 -11.59 500.84 547.19 514.63 502.95 536.07 551.85 534.54 -9.26 502.37 -11.59"/>
</svg>