<?xml version="1.0" encoding="UTF-8" standalone="no"?>
<svg
   id="Layer_1"
   viewBox="0 0 638 1011"
   version="1.1"
   sodipodi:docname="ulice_karticky_V1-02.svg"
   inkscape:version="1.2.2 (732a01da63, 2022-12-09)"
   xmlns:inkscape="http://www.inkscape.org/namespaces/inkscape"
   xmlns:sodipodi="http://sodipodi.sourceforge.net/DTD/sodipodi-0.dtd"
   xmlns="http://www.w3.org/2000/svg"
   xmlns:svg="http://www.w3.org/2000/svg">
  <sodipodi:namedview
     id="namedview243"
     pagecolor="#ffffff"
     bordercolor="#000000"
     borderopacity="0.25"
     inkscape:showpageshadow="2"
     inkscape:pageopacity="0.0"
     inkscape:pagecheckerboard="0"
     inkscape:deskcolor="#d1d1d1"
     showgrid="false"
     inkscape:zoom="2.0316518"
     inkscape:cx="47.252191"
     inkscape:cy="766.37147"
     inkscape:window-width="2560"
     inkscape:window-height="1369"
     inkscape:window-x="-8"
     inkscape:window-y="-8"
     inkscape:window-maximized="1"
     inkscape:current-layer="text632" />
  <defs
     id="defs4">
    <rect
       x="42.330088"
       y="897.79163"
       width="319.93671"
       height="27.563778"
       id="rect634" />
    <style
       id="style2">
      .cls-1 {
        fill: #799d3e;
      }

      .cls-2 {
        fill: #516ba8;
      }
    </style>
  </defs>
  <g
     id="g176">
    <path
       class="cls-2"
       d="M74.41,147.03c0,4.03-1.92,6.58-5.09,7.39,5.18.53,7.87,3.94,7.87,8.93,0,5.38-3.12,10.03-13.54,10.03-3.36,0-10.47-.48-10.47-2.54v-16.61c0-3.17-.14-12.05-.14-13.44,0-2.11,6.14-2.93,9.84-2.93,7.49,0,11.52,3.31,11.52,9.17ZM57.27,153.13h6.05c5.14,0,6.87-2.69,6.87-6.14,0-3.22-1.49-5.76-7.34-5.76-2.11,0-4.18.34-5.52.82,0,3.84-.05,7.34-.05,11.09ZM72.78,163.06c0-3.17-1.44-6.67-8.35-6.67h-7.15v12.91c1.78.43,4.61.77,6.77.77,6.67,0,8.74-3.17,8.74-7.01Z"
       id="path6" />
    <path
       class="cls-2"
       d="M81.85,160.04c0-10.22,5.14-12.91,11.28-12.91s11.33,2.69,11.33,12.91-5.14,13.35-11.33,13.35-11.28-3.41-11.28-13.35ZM100.04,160.23c0-7.78-3.07-9.7-6.91-9.7s-6.91,1.92-6.91,9.7,3.12,9.99,6.91,9.99,6.91-2.45,6.91-9.99Z"
       id="path8" />
    <path
       class="cls-2"
       d="M113.19,169.78c1.34.1,3.12.14,5.04.14,2.83,0,5.62-.1,7.2-.24,1.01-.05,1.34.14,1.49,2.26.1.62-.05,1.01-.96,1.15-1.49.24-4.66.29-8.59.29s-6.53-.05-8.06-.29c-.86-.14-1.1-.48-1.01-1.15.05-.86.91-2.88,1.63-3.89l11.95-17.33c-1.34-.1-3.17-.14-5.04-.14-2.69,0-5.18.1-6.67.24-1.2.05-1.3-.1-1.49-2.26-.1-.67.14-1.06.96-1.15,1.44-.19,5.04-.29,8.02-.29s6.77.1,8.16.29c.77.1,1.06.48.96,1.2-.05.43-.29,1.87-2.3,4.9l-11.28,16.27ZM117.7,143.24l4.22-2.59c.91-.62,1.1-.62,1.54-.1.48.58.43.86-.38,1.44l-4.94,3.98c-.19.14-.34.19-.43.19-.14,0-.29-.05-.48-.19l-4.99-3.98c-.77-.58-.82-.86-.34-1.44.38-.53.58-.48,1.54.1l4.27,2.59Z"
       id="path10" />
    <path
       class="cls-2"
       d="M134.98,161.48c.43,7.44,4.27,8.69,7.87,8.69,3.02,0,5.04-1.06,6.53-1.73.82-.29,1.15-.19,1.44.53l.43,1.06c.24.62.1.86-.72,1.3-1.49.77-4.18,2.06-8.07,2.06-6.53,0-11.76-3.17-11.76-13.44s5.09-12.82,10.95-12.82,10.18,2.45,10.18,11.91c0,1.49-.67,2.45-2.4,2.45h-14.45ZM134.93,158.65h13.11c-.05-6.86-2.88-8.35-6.38-8.35s-6.38,1.63-6.72,8.35Z"
       id="path12" />
    <path
       class="cls-2"
       d="M158.55,171.18c.58-2.21,1.01-2.88,3.26-2.88,1.2,0,1.92.29,1.92,1.06,0,.53-.38,1.34-1.15,2.4l-3.98,5.47c-.48.62-.96.77-1.49.62-.58-.19-.62-.58-.43-1.25l1.87-5.42Z"
       id="path14" />
    <path
       class="cls-2"
       d="M187.45,158.31c3.26,0,6.05,1.1,7.54,3.46v-5.04c0-5.28-3.98-6.05-6.43-6.05s-5.23.77-6.1,1.01c-.77.29-1.25.19-1.58-.72l-.34-.91c-.38-1.01.1-1.39.86-1.68,1.44-.53,4.51-1.25,7.83-1.25,3.74,0,9.89.91,9.89,9.17v14.11c0,2.35-.14,2.5-2.3,2.5-1.68,0-1.82-.14-1.82-2.5v-.29c-1.49,2.3-4.37,3.26-7.63,3.26-5.23,0-8.5-2.74-8.5-7.44s3.46-7.63,8.59-7.63ZM183.27,165.89c0,2.93,1.92,4.94,5.62,4.94s6.1-1.97,6.1-4.94-2.3-5.09-6.05-5.09-5.67,2.11-5.67,5.09Z"
       id="path16" />
    <path
       class="cls-2"
       d="M206.84,147.61v-2.45c0-4.18,1.58-4.51,3.02-4.51,1.25,0,1.2.14,1.2,2.59v4.37h5.9c.72,0,1.44.14,1.44,1.34v.82c0,1.15-.77,1.3-1.44,1.3h-5.95v14.83c0,2.74,1.06,4.13,3.31,4.13,1.44,0,2.64-.62,3.26-.91.62-.19,1.01-.19,1.39.72l.24.96c.34.82.05,1.1-.77,1.44-.82.38-2.74,1.15-5.04,1.15-4.51,0-6.48-2.35-6.48-6.72,0-5.95-.1-10.85-.1-15.6h-2.26c-.72,0-1.44-.14-1.44-1.3v-.82c0-1.2.67-1.34,1.44-1.34h2.26ZM215.57,139.59c.53-1.73.91-2.21,2.78-2.21.96,0,1.54.24,1.54.82,0,.43-.29,1.01-.96,1.82l-3.55,4.7c-.43.48-.82.62-1.3.48-.43-.1-.43-.43-.29-.96l1.78-4.66Z"
       id="path18" />
    <path
       class="cls-2"
       d="M247.4,141.8c-.05,4.22-.1,8.31-.1,12.63v16.18c0,2.16-.24,2.3-2.5,2.3-1.73,0-1.82-.29-1.82-2.45v-16.03c0-2.64-.1-9.17-.14-12.63h-9.31c-.67,0-1.25-.14-1.39-1.15l-.1-.86c-.1-1.15.24-1.44,1.25-1.44h23.62c1.01,0,1.39.29,1.25,1.44l-.1.86c-.14,1.01-.72,1.15-1.39,1.15h-9.26Z"
       id="path20" />
    <path
       class="cls-2"
       d="M270.1,149.33c0-1.68.05-1.73,1.87-1.73,2.11,0,2.3.1,2.3,1.97,0,10.46-4.46,17.91-7.73,22.13-.77,1.1-1.2,1.2-2.54,1.2-1.25,0-1.63-.1-2.4-1.15-3.26-4.27-7.73-11.71-7.73-22.18,0-1.87.19-1.97,2.02-1.97,2.02,0,2.16.05,2.16,1.73,0,11.04,5.76,19.59,6,19.59.19,0,6.05-8.59,6.05-19.59Z"
       id="path22" />
    <path
       class="cls-2"
       d="M287.19,158.31c3.26,0,6.05,1.1,7.54,3.46v-5.04c0-5.28-3.98-6.05-6.43-6.05s-5.23.77-6.1,1.01c-.77.29-1.25.19-1.58-.72l-.34-.91c-.38-1.01.1-1.39.86-1.68,1.44-.53,4.51-1.25,7.82-1.25,3.74,0,9.89.91,9.89,9.17v14.11c0,2.35-.14,2.5-2.3,2.5-1.68,0-1.82-.14-1.82-2.5v-.29c-1.49,2.3-4.37,3.26-7.63,3.26-5.23,0-8.5-2.74-8.5-7.44s3.46-7.63,8.59-7.63ZM283.01,165.89c0,2.93,1.92,4.94,5.62,4.94s6.1-1.97,6.1-4.94-2.3-5.09-6.05-5.09-5.66,2.11-5.66,5.09ZM292.28,139.06c.53-.72,1.44-1.01,2.26-.1.86.96.62,1.68.05,2.02l-5.14,4.22c-.91.53-1.49-.1-.91-.77l3.74-5.38Z"
       id="path24" />
    <path
       class="cls-2"
       d="M321.27,154.42v15.99c0,2.35-.19,2.5-2.35,2.5-1.68,0-1.82-.14-1.82-2.5v-15.99c0-3.41-.14-14.02-.14-15.79,0-1.39.1-1.49,2.45-1.49,1.87,0,1.97.05,1.97,2.11,0,4.8-.1,10.27-.1,15.17Z"
       id="path26" />
    <path
       class="cls-2"
       d="M335.48,158.31c3.26,0,6.05,1.1,7.54,3.46v-5.04c0-5.28-3.98-6.05-6.43-6.05s-5.23.77-6.1,1.01c-.77.29-1.25.19-1.58-.72l-.34-.91c-.38-1.01.1-1.39.86-1.68,1.44-.53,4.51-1.25,7.82-1.25,3.74,0,9.89.91,9.89,9.17v14.11c0,2.35-.14,2.5-2.3,2.5-1.68,0-1.82-.14-1.82-2.5v-.29c-1.49,2.3-4.37,3.26-7.63,3.26-5.23,0-8.5-2.74-8.5-7.44s3.46-7.63,8.59-7.63ZM331.3,165.89c0,2.93,1.92,4.94,5.62,4.94s6.1-1.97,6.1-4.94-2.3-5.09-6.05-5.09-5.66,2.11-5.66,5.09ZM340.57,139.06c.53-.72,1.44-1.01,2.26-.1.86.96.62,1.68.05,2.02l-5.14,4.22c-.91.53-1.49-.1-.91-.77l3.74-5.38Z"
       id="path28" />
    <path
       class="cls-2"
       d="M365.96,166.18c0-6.48-13.06-2.54-13.06-11.95,0-5.86,5.09-7.1,9.12-7.1,3.02,0,5.86.62,6.87,1.01.96.34,1.2.67.91,1.49l-.38,1.01c-.24.82-.86.72-1.63.48-1.01-.24-3.02-.82-5.57-.82-2.74,0-5.33.77-5.33,3.74,0,6.38,13.11,2.21,13.11,11.95,0,6.29-5.38,7.39-9.41,7.39-2.74,0-6.72-.53-7.63-.82-.82-.24-1.15-.53-.86-1.49l.19-.82c.24-.91.58-1.01,1.44-.86.62.1,4.03.82,6.67.82,2.98,0,5.57-.96,5.57-4.03Z"
       id="path30" />
    <path
       class="cls-2"
       d="M379.78,154.42v4.56l9.7-10.13c.67-1.2.91-1.25,3.84-1.25.91,0,1.34.05,1.34.43,0,.29-.29.82-.91,1.63l-10.13,9.94,9.94,11.14c.62.82.96,1.34.96,1.68,0,.38-.43.48-1.34.48-2.93,0-3.12-.05-3.89-1.34l-9.5-11.09v9.94c0,2.3-.14,2.5-2.35,2.5-1.68,0-1.82-.24-1.82-2.5v-15.99c0-3.41-.14-14.02-.14-15.79,0-1.39.1-1.49,2.45-1.49,1.87,0,1.97.05,1.97,2.11,0,4.8-.1,10.27-.1,15.17Z"
       id="path32" />
    <path
       class="cls-2"
       d="M406.85,158.31c3.26,0,6.05,1.1,7.54,3.46v-5.04c0-5.28-3.98-6.05-6.43-6.05s-5.23.77-6.1,1.01c-.77.29-1.25.19-1.58-.72l-.34-.91c-.38-1.01.1-1.39.86-1.68,1.44-.53,4.51-1.25,7.83-1.25,3.74,0,9.89.91,9.89,9.17v14.11c0,2.35-.14,2.5-2.3,2.5-1.68,0-1.82-.14-1.82-2.5v-.29c-1.49,2.3-4.37,3.26-7.63,3.26-5.23,0-8.5-2.74-8.5-7.44s3.46-7.63,8.59-7.63ZM402.67,165.89c0,2.93,1.92,4.94,5.62,4.94s6.1-1.97,6.1-4.94-2.3-5.09-6.05-5.09-5.67,2.11-5.67,5.09Z"
       id="path34" />
    <path
       class="cls-2"
       d="M426.24,171.18c.58-2.21,1.01-2.88,3.26-2.88,1.2,0,1.92.29,1.92,1.06,0,.53-.38,1.34-1.15,2.4l-3.98,5.47c-.48.62-.96.77-1.49.62-.58-.19-.62-.58-.43-1.25l1.87-5.42Z"
       id="path36" />
    <path
       class="cls-2"
       d="M52.95,206.69c0-1.39.1-1.49,2.45-1.49,1.87,0,1.97.05,1.97,2.11v3.36c1.34-3.84,4.08-5.95,8.16-5.95,5.47,0,9.7,3.6,9.7,13.15s-4.13,13.1-9.7,13.1c-4.22,0-6.96-2.35-8.26-6.29v13.39c0,2.3-.14,2.5-2.35,2.5-1.68,0-1.82-.24-1.82-2.5v-15.6c0-3.41-.14-14.02-.14-15.79ZM70.86,218.02c0-6.72-2.59-9.75-6.38-9.75-4.13,0-7.15,3.07-7.15,9.7,0,5.9,2.98,9.75,7.15,9.75,3.74,0,6.38-2.98,6.38-9.7Z"
       id="path38" />
    <path
       class="cls-2"
       d="M80.17,217.64c0-10.22,5.14-12.91,11.28-12.91s11.33,2.69,11.33,12.91-5.14,13.35-11.33,13.35-11.28-3.41-11.28-13.35ZM98.36,217.83c0-7.78-3.07-9.7-6.91-9.7s-6.91,1.92-6.91,9.7,3.12,9.98,6.91,9.98,6.91-2.45,6.91-9.98Z"
       id="path40" />
    <path
       class="cls-2"
       d="M113.19,212.02v4.56l9.7-10.13c.67-1.2.91-1.25,3.84-1.25.91,0,1.34.05,1.34.43,0,.29-.29.82-.91,1.63l-10.13,9.94,9.94,11.14c.62.82.96,1.34.96,1.68,0,.38-.43.48-1.34.48-2.93,0-3.12-.05-3.89-1.34l-9.5-11.09v9.94c0,2.3-.14,2.5-2.35,2.5-1.68,0-1.82-.24-1.82-2.5v-15.99c0-3.41-.14-14.02-.14-15.79,0-1.39.1-1.49,2.45-1.49,1.87,0,1.97.05,1.97,2.11,0,4.8-.1,10.27-.1,15.17Z"
       id="path42" />
    <path
       class="cls-2"
       d="M132.29,217.64c0-10.22,5.14-12.91,11.28-12.91s11.33,2.69,11.33,12.91-5.14,13.35-11.33,13.35-11.28-3.41-11.28-13.35ZM150.49,217.83c0-7.78-3.07-9.7-6.91-9.7s-6.91,1.92-6.91,9.7,3.12,9.98,6.91,9.98,6.91-2.45,6.91-9.98Z"
       id="path44" />
    <path
       class="cls-2"
       d="M165.13,222.49v7.1c0,9.07-2.06,11.76-6.86,11.76-1.68,0-3.55-.48-4.46-.86-.58-.19-.77-.62-.53-1.34l.34-1.06c.24-.77.62-.91,1.1-.77.58.19,1.63.48,2.74.48,3.22,0,3.5-2.4,3.5-8.21v-7.1c0-3.41-.14-14.02-.14-15.79,0-1.39.1-1.49,2.45-1.49,1.87,0,1.97.05,1.97,2.11,0,4.8-.1,10.27-.1,15.17ZM160.71,200.69c0-2.35.86-2.54,2.54-2.54,2.06,0,2.3.19,2.3,1.63v.62c0,2.35-.86,2.59-2.54,2.59-2.06,0-2.3-.24-2.3-1.68v-.62Z"
       id="path46" />
    <path
       class="cls-2"
       d="M190.37,215.91c3.26,0,6.05,1.1,7.54,3.46v-5.04c0-5.28-3.98-6.05-6.43-6.05s-5.23.77-6.1,1.01c-.77.29-1.25.19-1.58-.72l-.34-.91c-.38-1.01.1-1.39.86-1.68,1.44-.53,4.51-1.25,7.83-1.25,3.74,0,9.89.91,9.89,9.17v14.11c0,2.35-.14,2.5-2.3,2.5-1.68,0-1.82-.14-1.82-2.5v-.29c-1.49,2.3-4.37,3.26-7.63,3.26-5.23,0-8.5-2.74-8.5-7.44s3.46-7.63,8.59-7.63ZM186.2,223.5c0,2.93,1.92,4.94,5.62,4.94s6.1-1.97,6.1-4.94-2.3-5.09-6.05-5.09-5.67,2.11-5.67,5.09Z"
       id="path48" />
    <path
       class="cls-2"
       d="M220.13,206.69c0-1.39.1-1.49,2.45-1.49,1.87,0,1.97.05,1.97,2.11v3.36c1.34-3.84,4.08-5.95,8.16-5.95,5.47,0,9.7,3.6,9.7,13.15s-4.13,13.1-9.7,13.1c-4.22,0-6.96-2.35-8.26-6.29v13.39c0,2.3-.14,2.5-2.35,2.5-1.68,0-1.82-.24-1.82-2.5v-15.6c0-3.41-.14-14.02-.14-15.79ZM238.04,218.02c0-6.72-2.59-9.75-6.38-9.75-4.13,0-7.15,3.07-7.15,9.7,0,5.9,2.98,9.75,7.15,9.75,3.74,0,6.38-2.98,6.38-9.7Z"
       id="path50" />
    <path
       class="cls-2"
       d="M247.35,217.64c0-10.22,5.14-12.91,11.28-12.91s11.33,2.69,11.33,12.91-5.14,13.35-11.33,13.35-11.28-3.41-11.28-13.35ZM265.54,217.83c0-7.78-3.07-9.7-6.91-9.7s-6.91,1.92-6.91,9.7,3.12,9.98,6.91,9.98,6.91-2.45,6.91-9.98Z"
       id="path52" />
    <path
       class="cls-2"
       d="M278.69,227.38c1.34.1,3.12.14,5.04.14,2.83,0,5.62-.1,7.2-.24,1.01-.05,1.34.14,1.49,2.26.1.62-.05,1.01-.96,1.15-1.49.24-4.66.29-8.59.29s-6.53-.05-8.06-.29c-.86-.14-1.1-.48-1.01-1.15.05-.86.91-2.88,1.63-3.89l11.95-17.33c-1.34-.1-3.17-.14-5.04-.14-2.69,0-5.18.1-6.67.24-1.2.05-1.3-.1-1.49-2.26-.1-.67.14-1.06.96-1.15,1.44-.19,5.04-.29,8.02-.29s6.77.1,8.16.29c.77.1,1.06.48.96,1.2-.05.43-.29,1.87-2.3,4.9l-11.28,16.27ZM283.21,200.84l4.22-2.59c.91-.62,1.1-.62,1.54-.1.48.58.43.86-.38,1.44l-4.94,3.98c-.19.14-.34.19-.43.19-.14,0-.29-.05-.48-.19l-4.99-3.98c-.77-.58-.82-.86-.34-1.44.38-.53.58-.48,1.54.1l4.27,2.59Z"
       id="path54" />
    <path
       class="cls-2"
       d="M300.48,219.08c.43,7.44,4.27,8.69,7.87,8.69,3.02,0,5.04-1.06,6.53-1.73.82-.29,1.15-.19,1.44.53l.43,1.06c.24.62.1.86-.72,1.3-1.49.77-4.18,2.06-8.07,2.06-6.53,0-11.76-3.17-11.76-13.44s5.09-12.82,10.95-12.82,10.18,2.45,10.18,11.91c0,1.49-.67,2.45-2.4,2.45h-14.45ZM300.44,216.25h13.11c-.05-6.86-2.88-8.35-6.38-8.35s-6.38,1.63-6.72,8.35Z"
       id="path56" />
    <path
       class="cls-2"
       d="M335.67,208.61c-4.03,0-7.78,3.31-7.97,10.94v8.45c0,2.3-.14,2.5-2.35,2.5-1.68,0-1.82-.24-1.82-2.5v-15.99c0-3.41-.14-14.02-.14-15.79,0-1.39.1-1.49,2.45-1.49,1.87,0,1.97.05,1.97,2.11,0,4.8-.1,10.27-.1,15.17v1.3c1.15-5.86,5.66-8.59,9.98-8.59s6.53,2.26,6.53,8.54c0,3.41-.1,6.91-.1,10.32v4.42c0,2.35-.19,2.5-2.3,2.5-1.73,0-1.87-.14-1.87-2.5v-13.97c0-3.55-1.15-5.42-4.27-5.42Z"
       id="path58" />
    <path
       class="cls-2"
       d="M369.56,230.5c-1.68,0-1.82-.14-1.82-2.5v-13.97c0-3.41-1.06-5.33-4.27-5.33-3.89,0-7.44,2.93-7.97,9.7v9.6c0,2.35-.19,2.5-2.35,2.5-1.68,0-1.82-.14-1.82-2.5v-5.52c0-3.41-.14-14.02-.14-15.79,0-1.39.1-1.49,2.4-1.49,1.92,0,2.02.05,2.02,2.11,0,1.54,0,3.17-.05,4.9,1.54-5.09,5.81-7.49,9.89-7.49s6.53,2.26,6.53,8.54c0,3.41-.1,6.91-.1,10.32v4.42c0,2.35-.14,2.5-2.3,2.5Z"
       id="path60" />
    <path
       class="cls-2"
       d="M385.92,215.91c3.26,0,6.05,1.1,7.54,3.46v-5.04c0-5.28-3.98-6.05-6.43-6.05s-5.23.77-6.1,1.01c-.77.29-1.25.19-1.58-.72l-.34-.91c-.38-1.01.1-1.39.86-1.68,1.44-.53,4.51-1.25,7.82-1.25,3.74,0,9.89.91,9.89,9.17v14.11c0,2.35-.14,2.5-2.3,2.5-1.68,0-1.82-.14-1.82-2.5v-.29c-1.49,2.3-4.37,3.26-7.63,3.26-5.23,0-8.5-2.74-8.5-7.44s3.46-7.63,8.59-7.63ZM381.75,223.5c0,2.93,1.92,4.94,5.62,4.94s6.1-1.97,6.1-4.94-2.3-5.09-6.05-5.09-5.66,2.11-5.66,5.09ZM391.01,196.66c.53-.72,1.44-1.01,2.26-.1.86.96.62,1.68.05,2.02l-5.14,4.22c-.91.53-1.49-.1-.91-.77l3.74-5.38Z"
       id="path62" />
    <path
       class="cls-2"
       d="M423.03,230.5c-1.68,0-1.82-.14-1.82-2.5v-13.97c0-3.41-1.06-5.33-4.27-5.33-3.89,0-7.44,2.93-7.97,9.7v9.6c0,2.35-.19,2.5-2.35,2.5-1.68,0-1.82-.14-1.82-2.5v-5.52c0-3.41-.14-14.02-.14-15.79,0-1.39.1-1.49,2.4-1.49,1.92,0,2.02.05,2.02,2.11,0,1.54,0,3.17-.05,4.9,1.54-5.09,5.81-7.49,9.89-7.49s6.53,2.26,6.53,8.54c0,3.41-.1,6.91-.1,10.32v4.42c0,2.35-.14,2.5-2.3,2.5Z"
       id="path64" />
    <path
       class="cls-2"
       d="M436.85,222.49v5.52c0,2.35-.19,2.5-2.3,2.5-1.73,0-1.87-.14-1.87-2.5v-5.52c0-3.41-.14-14.02-.14-15.79,0-1.39.1-1.49,2.45-1.49,1.87,0,1.97.05,1.97,2.11,0,4.8-.1,10.27-.1,15.17ZM438.15,196.56c.53-.72,1.44-1.01,2.26-.1.86.96.62,1.68.05,2.02l-5.14,4.22c-.91.53-1.49-.1-.91-.77l3.74-5.38Z"
       id="path66" />
    <path
       class="cls-2"
       d="M444.96,228.78c.58-2.21,1.01-2.88,3.26-2.88,1.2,0,1.92.29,1.92,1.06,0,.53-.38,1.34-1.15,2.4l-3.98,5.47c-.48.62-.96.77-1.49.62-.58-.19-.62-.58-.43-1.25l1.87-5.42Z"
       id="path68" />
    <path
       class="cls-2"
       d="M53.62,262.81v-2.45c0-4.18,1.58-4.51,3.02-4.51,1.25,0,1.2.14,1.2,2.59v4.37h5.9c.72,0,1.44.14,1.44,1.34v.82c0,1.15-.77,1.3-1.44,1.3h-5.95v14.83c0,2.74,1.06,4.13,3.31,4.13,1.44,0,2.64-.62,3.26-.91.62-.19,1.01-.19,1.39.72l.24.96c.34.82.05,1.1-.77,1.44-.82.38-2.74,1.15-5.04,1.15-4.51,0-6.48-2.35-6.48-6.72,0-5.95-.1-10.85-.1-15.6h-2.26c-.72,0-1.44-.14-1.44-1.3v-.82c0-1.2.67-1.34,1.44-1.34h2.26Z"
       id="path70" />
    <path
       class="cls-2"
       d="M85.26,265.21c0-2.35.1-2.4,2.02-2.4,2.21,0,2.21.1,2.21,2.06,0,5.18-.1,9.98-.67,14.26-1.73,12.48-6.91,19.63-16.71,19.63-1.25,0-2.26-.14-3.12-.34-.77-.14-1.1-.34-.96-1.15l.24-1.3c.19-.86.58-.91,1.2-.82.48,0,1.49.14,2.3.14,7.2,0,10.66-4.37,12.53-14.02-2.21,6.34-4.8,7.3-6.67,7.3-8.26,0-8.3-15.27-8.3-23.67,0-2.02,0-2.11,2.26-2.11,1.92,0,1.97.05,1.97,2.4v4.03c0,4.51.77,15.75,5.62,15.75s6.1-11.14,6.1-15.75v-4.03Z"
       id="path72" />
    <path
       class="cls-2"
       d="M96.82,286.38c.58-2.21,1.01-2.88,3.26-2.88,1.2,0,1.92.29,1.92,1.06,0,.53-.38,1.34-1.15,2.4l-3.98,5.47c-.48.62-.96.77-1.49.62-.58-.19-.62-.58-.43-1.25l1.87-5.42Z"
       id="path74" />
    <path
       class="cls-2"
       d="M123.17,269.62v4.56l9.7-10.13c.67-1.2.91-1.25,3.84-1.25.91,0,1.34.05,1.34.43,0,.29-.29.82-.91,1.63l-10.13,9.94,9.94,11.14c.62.82.96,1.34.96,1.68,0,.38-.43.48-1.34.48-2.93,0-3.12-.05-3.89-1.34l-9.5-11.09v9.94c0,2.3-.14,2.5-2.35,2.5-1.68,0-1.82-.24-1.82-2.5v-15.99c0-3.41-.14-14.02-.14-15.79,0-1.39.1-1.49,2.45-1.49,1.87,0,1.97.05,1.97,2.11,0,4.8-.1,10.27-.1,15.17Z"
       id="path76" />
    <path
       class="cls-2"
       d="M151.93,262.33c4.22,0,6.91,2.16,8.26,6.14-.05-4.18-.14-13.01-.14-14.64,0-1.39.1-1.49,2.45-1.49,1.87,0,1.97.05,1.97,2.11,0,4.8-.1,10.27-.1,15.17v15.99c0,2.35-.19,2.5-2.3,2.5-1.73,0-1.87-.14-1.87-2.5v-3.31c-1.34,3.94-4.03,6.29-8.26,6.29-5.57,0-9.7-3.6-9.7-13.1s4.22-13.15,9.7-13.15ZM160.13,275.57c0-6.62-3.02-9.7-7.15-9.7-3.79,0-6.43,3.02-6.43,9.75s2.69,9.7,6.43,9.7c4.18,0,7.15-3.84,7.15-9.75Z"
       id="path78" />
    <path
       class="cls-2"
       d="M170.55,275.24c0-10.22,5.14-12.91,11.28-12.91s11.33,2.69,11.33,12.91-5.14,13.35-11.33,13.35-11.28-3.41-11.28-13.35ZM188.74,275.43c0-7.78-3.07-9.7-6.91-9.7s-6.91,1.92-6.91,9.7,3.12,9.99,6.91,9.99,6.91-2.45,6.91-9.99Z"
       id="path80" />
    <path
       class="cls-2"
       d="M212.93,284.98c1.34.1,3.12.14,5.04.14,2.83,0,5.62-.1,7.2-.24,1.01-.05,1.34.14,1.49,2.26.1.62-.05,1.01-.96,1.15-1.49.24-4.66.29-8.59.29s-6.53-.05-8.06-.29c-.86-.14-1.1-.48-1.01-1.15.05-.86.91-2.88,1.63-3.89l11.95-17.33c-1.34-.1-3.17-.14-5.04-.14-2.69,0-5.18.1-6.67.24-1.2.05-1.3-.1-1.49-2.26-.1-.67.14-1.06.96-1.15,1.44-.19,5.04-.29,8.02-.29s6.77.1,8.16.29c.77.1,1.06.48.96,1.2-.05.43-.29,1.87-2.3,4.9l-11.28,16.27Z"
       id="path82" />
    <path
       class="cls-2"
       d="M240.1,262.33c4.22,0,6.91,2.16,8.26,6.14-.05-4.18-.14-13.01-.14-14.64,0-1.39.1-1.49,2.45-1.49,1.87,0,1.97.05,1.97,2.11,0,4.8-.1,10.27-.1,15.17v15.99c0,2.35-.19,2.5-2.3,2.5-1.73,0-1.87-.14-1.87-2.5v-3.31c-1.34,3.94-4.03,6.29-8.26,6.29-5.57,0-9.7-3.6-9.7-13.1s4.22-13.15,9.7-13.15ZM248.31,275.57c0-6.62-3.02-9.7-7.15-9.7-3.79,0-6.43,3.02-6.43,9.75s2.69,9.7,6.43,9.7c4.18,0,7.15-3.84,7.15-9.75Z"
       id="path84" />
    <path
       class="cls-2"
       d="M263,276.68c.43,7.44,4.27,8.69,7.87,8.69,3.02,0,5.04-1.06,6.53-1.73.82-.29,1.15-.19,1.44.53l.43,1.06c.24.62.1.86-.72,1.3-1.49.77-4.18,2.06-8.07,2.06-6.53,0-11.76-3.17-11.76-13.44s5.09-12.82,10.95-12.82,10.18,2.45,10.18,11.91c0,1.49-.67,2.45-2.4,2.45h-14.45ZM262.95,273.85h13.11c-.05-6.86-2.88-8.35-6.38-8.35s-6.38,1.63-6.72,8.35Z"
       id="path86" />
    <path
       class="cls-2"
       d="M296.93,264.29c0-1.39.1-1.49,2.45-1.49,1.87,0,1.97.05,1.97,2.11v3.36c1.34-3.84,4.08-5.95,8.16-5.95,5.47,0,9.7,3.6,9.7,13.15s-4.13,13.1-9.7,13.1c-4.22,0-6.96-2.35-8.26-6.29v13.39c0,2.3-.14,2.5-2.35,2.5-1.68,0-1.82-.24-1.82-2.5v-15.6c0-3.41-.14-14.02-.14-15.79ZM314.84,275.62c0-6.72-2.59-9.75-6.38-9.75-4.13,0-7.15,3.07-7.15,9.7,0,5.9,2.98,9.75,7.15,9.75,3.74,0,6.38-2.98,6.38-9.7Z"
       id="path88" />
    <path
       class="cls-2"
       d="M329.48,268.66c1.54-4.27,4.9-6.34,8.26-6.34,1.01,0,1.92.14,2.35.29.62.19.82.62.62,1.3l-.29,1.44c-.19.72-.53.86-1.3.72-.48-.1-1.44-.24-2.11-.24-3.07,0-7.58,1.87-7.63,13.49v6.29c0,2.3-.14,2.5-2.3,2.5-1.73,0-1.82-.24-1.82-2.5v-5.52c0-3.41-.14-14.02-.14-15.79,0-1.39.05-1.49,2.45-1.49,1.87,0,1.92.05,1.92,2.11v3.74Z"
       id="path90" />
    <path
       class="cls-2"
       d="M351.84,273.51c3.26,0,6.05,1.1,7.54,3.46v-5.04c0-5.28-3.98-6.05-6.43-6.05s-5.23.77-6.1,1.01c-.77.29-1.25.19-1.58-.72l-.34-.91c-.38-1.01.1-1.39.86-1.68,1.44-.53,4.51-1.25,7.83-1.25,3.74,0,9.89.91,9.89,9.17v14.11c0,2.35-.14,2.5-2.3,2.5-1.68,0-1.82-.14-1.82-2.5v-.29c-1.49,2.3-4.37,3.26-7.63,3.26-5.23,0-8.5-2.74-8.5-7.44s3.46-7.63,8.59-7.63ZM347.67,281.1c0,2.93,1.92,4.94,5.62,4.94s6.1-1.97,6.1-4.94-2.3-5.09-6.05-5.09-5.67,2.11-5.67,5.09Z"
       id="path92" />
    <path
       class="cls-2"
       d="M381.12,285.27c1.73,0,3.74-.62,4.7-.91.86-.19,1.2,0,1.34.62l.24,1.15c.19.67.05,1.06-.77,1.34-1.2.48-3.65,1.1-6.29,1.1-7.25,0-11.09-4.27-11.09-13.15s3.94-13.1,11.09-13.1c2.64,0,5.14.67,6.19,1.1.86.29,1.1.67.91,1.34l-.29,1.34c-.24.72-.67.77-1.44.58-.96-.29-2.78-.82-4.61-.82-4.94,0-7.58,3.26-7.58,9.65s2.64,9.75,7.58,9.75Z"
       id="path94" />
    <path
       class="cls-2"
       d="M413.86,282.15v3.46c0,2.35-.19,2.5-2.35,2.5-1.68,0-1.82-.14-1.82-2.5v-3.07c-1.68,4.13-5.62,6.05-9.17,6.05-3.84,0-7.39-1.3-7.39-8.54,0-1.39,0-2.78.05-4.22-.05-4.37-.19-8.78-.19-10.9s0-2.11,2.4-2.11c2.02,0,1.97.1,1.97,2.45v14.64c0,3.5,1.34,5.42,4.61,5.42,3.74,0,7.3-3.17,7.68-10.42-.05-3.6-.1-6.72-.1-9.65,0-2.35.1-2.45,2.45-2.45,1.87,0,1.97.1,1.97,2.45,0,4.7-.1,10.03-.1,16.9Z"
       id="path96" />
    <path
       class="cls-2"
       d="M425.28,280.09v7.1c0,9.07-2.06,11.76-6.86,11.76-1.68,0-3.55-.48-4.46-.86-.58-.19-.77-.62-.53-1.34l.34-1.06c.24-.77.62-.91,1.1-.77.58.19,1.63.48,2.74.48,3.22,0,3.5-2.4,3.5-8.21v-7.1c0-3.41-.14-14.02-.14-15.79,0-1.39.1-1.49,2.45-1.49,1.87,0,1.97.05,1.97,2.11,0,4.8-.1,10.27-.1,15.17ZM420.87,258.29c0-2.35.86-2.54,2.54-2.54,2.06,0,2.3.19,2.3,1.63v.62c0,2.35-.86,2.59-2.54,2.59-2.06,0-2.3-.24-2.3-1.68v-.62Z"
       id="path98" />
    <path
       class="cls-2"
       d="M436.99,280.09v5.52c0,2.35-.19,2.5-2.3,2.5-1.73,0-1.87-.14-1.87-2.5v-5.52c0-3.41-.14-14.02-.14-15.79,0-1.39.1-1.49,2.45-1.49,1.87,0,1.97.05,1.97,2.11,0,4.8-.1,10.27-.1,15.17ZM438.29,254.16c.53-.72,1.44-1.01,2.26-.1.86.96.62,1.68.05,2.02l-5.14,4.22c-.91.53-1.49-.1-.91-.77l3.74-5.38Z"
       id="path100" />
    <path
       class="cls-2"
       d="M445.1,286.38c.58-2.21,1.01-2.88,3.26-2.88,1.2,0,1.92.29,1.92,1.06,0,.53-.38,1.34-1.15,2.4l-3.98,5.47c-.48.62-.96.77-1.49.62-.58-.19-.62-.58-.43-1.25l1.87-5.42Z"
       id="path102" />
    <path
       class="cls-2"
       d="M55.59,342.58c1.34.1,3.12.14,5.04.14,2.83,0,5.62-.1,7.2-.24,1.01-.05,1.34.14,1.49,2.26.1.62-.05,1.01-.96,1.15-1.49.24-4.66.29-8.59.29s-6.53-.05-8.06-.29c-.86-.14-1.1-.48-1.01-1.15.05-.86.91-2.88,1.63-3.89l11.95-17.33c-1.34-.1-3.17-.14-5.04-.14-2.69,0-5.18.1-6.67.24-1.2.05-1.3-.1-1.49-2.26-.1-.67.14-1.06.96-1.15,1.44-.19,5.04-.29,8.02-.29s6.77.1,8.16.29c.77.1,1.06.48.96,1.2-.05.43-.29,1.87-2.3,4.9l-11.28,16.27ZM60.1,316.04l4.22-2.59c.91-.62,1.1-.62,1.54-.1.48.58.43.86-.38,1.44l-4.94,3.98c-.19.14-.34.19-.43.19-.14,0-.29-.05-.48-.19l-4.99-3.98c-.77-.58-.82-.86-.34-1.44.38-.53.58-.48,1.54.1l4.27,2.59Z"
       id="path104" />
    <path
       class="cls-2"
       d="M74.12,315.89c0-2.35.86-2.59,2.54-2.59,2.11,0,2.35.24,2.35,1.68v.62c0,2.35-.91,2.54-2.59,2.54-2.06,0-2.3-.19-2.3-1.68v-.58ZM74.26,321.89c0-1.39.1-1.49,2.45-1.49,1.87,0,1.97.05,1.97,2.11,0,4.8-.1,10.27-.1,15.17v5.52c0,2.35-.19,2.5-2.3,2.5-1.73,0-1.87-.14-1.87-2.5v-5.52c0-3.41-.14-14.02-.14-15.79Z"
       id="path106" />
    <path
       class="cls-2"
       d="M90.15,337.69v7.1c0,9.07-2.06,11.76-6.86,11.76-1.68,0-3.55-.48-4.46-.86-.58-.19-.77-.62-.53-1.34l.34-1.06c.24-.77.62-.91,1.1-.77.58.19,1.63.48,2.74.48,3.22,0,3.5-2.4,3.5-8.21v-7.1c0-3.41-.14-14.02-.14-15.79,0-1.39.1-1.49,2.45-1.49,1.87,0,1.97.05,1.97,2.11,0,4.8-.1,10.27-.1,15.17ZM85.73,315.89c0-2.35.86-2.54,2.54-2.54,2.06,0,2.3.19,2.3,1.63v.62c0,2.35-.86,2.59-2.54,2.59-2.06,0-2.3-.24-2.3-1.68v-.62Z"
       id="path108" />
    <path
       class="cls-2"
       d="M101.86,337.69v5.52c0,2.35-.19,2.5-2.3,2.5-1.73,0-1.87-.14-1.87-2.5v-5.52c0-3.41-.14-14.02-.14-15.79,0-1.39.1-1.49,2.45-1.49,1.87,0,1.97.05,1.97,2.11,0,4.8-.1,10.27-.1,15.17ZM103.16,311.76c.53-.72,1.44-1.01,2.26-.1.86.96.62,1.68.05,2.02l-5.14,4.22c-.91.53-1.49-.1-.91-.77l3.74-5.38Z"
       id="path110" />
    <path
       class="cls-2"
       d="M127.21,331.11c3.26,0,6.05,1.1,7.54,3.46v-5.04c0-5.28-3.98-6.05-6.43-6.05s-5.23.77-6.1,1.01c-.77.29-1.25.19-1.58-.72l-.34-.91c-.38-1.01.1-1.39.86-1.68,1.44-.53,4.51-1.25,7.83-1.25,3.74,0,9.89.91,9.89,9.17v14.11c0,2.35-.14,2.5-2.3,2.5-1.68,0-1.82-.14-1.82-2.5v-.29c-1.49,2.3-4.37,3.26-7.63,3.26-5.23,0-8.5-2.74-8.5-7.44s3.46-7.63,8.59-7.63ZM123.03,338.69c0,2.93,1.92,4.94,5.62,4.94s6.1-1.97,6.1-4.94-2.3-5.09-6.05-5.09-5.67,2.11-5.67,5.09Z"
       id="path112" />
    <path
       class="cls-2"
       d="M157.64,320.41v-2.45c0-4.18,1.58-4.51,3.02-4.51,1.25,0,1.2.14,1.2,2.59v4.37h5.9c.72,0,1.44.14,1.44,1.34v.82c0,1.15-.77,1.3-1.44,1.3h-5.95v14.83c0,2.74,1.06,4.13,3.31,4.13,1.44,0,2.64-.62,3.26-.91.62-.19,1.01-.19,1.39.72l.24.96c.34.82.05,1.1-.77,1.44-.82.38-2.74,1.15-5.04,1.15-4.51,0-6.48-2.35-6.48-6.72,0-5.95-.1-10.85-.1-15.6h-2.26c-.72,0-1.44-.14-1.44-1.3v-.82c0-1.2.67-1.34,1.44-1.34h2.26Z"
       id="path114" />
    <path
       class="cls-2"
       d="M194.6,339.75v3.46c0,2.35-.19,2.5-2.35,2.5-1.68,0-1.82-.14-1.82-2.5v-3.07c-1.68,4.13-5.62,6.05-9.17,6.05-3.84,0-7.39-1.3-7.39-8.54,0-1.39,0-2.78.05-4.22-.05-4.37-.19-8.78-.19-10.9s0-2.11,2.4-2.11c2.02,0,1.97.1,1.97,2.45v14.64c0,3.5,1.34,5.42,4.61,5.42,3.74,0,7.3-3.17,7.68-10.42-.05-3.6-.1-6.72-.1-9.65,0-2.35.1-2.45,2.45-2.45,1.87,0,1.97.1,1.97,2.45,0,4.7-.1,10.03-.1,16.9Z"
       id="path116" />
    <path
       class="cls-2"
       d="M210.44,319.93c4.22,0,6.91,2.16,8.26,6.14-.05-4.18-.14-13.01-.14-14.64,0-1.39.1-1.49,2.45-1.49,1.87,0,1.97.05,1.97,2.11,0,4.8-.1,10.27-.1,15.17v15.99c0,2.35-.19,2.5-2.3,2.5-1.73,0-1.87-.14-1.87-2.5v-3.31c-1.34,3.94-4.03,6.29-8.26,6.29-5.57,0-9.7-3.6-9.7-13.1s4.22-13.15,9.7-13.15ZM218.65,333.17c0-6.62-3.02-9.7-7.15-9.7-3.79,0-6.43,3.02-6.43,9.75s2.69,9.7,6.43,9.7c4.18,0,7.15-3.84,7.15-9.75Z"
       id="path118" />
    <path
       class="cls-2"
       d="M245.48,322.81c0-2.35.1-2.4,2.02-2.4,2.21,0,2.21.1,2.21,2.06,0,5.18-.1,9.98-.67,14.26-1.73,12.48-6.91,19.63-16.71,19.63-1.25,0-2.26-.14-3.12-.34-.77-.14-1.1-.34-.96-1.15l.24-1.3c.19-.86.58-.91,1.2-.82.48,0,1.49.14,2.3.14,7.2,0,10.66-4.37,12.53-14.02-2.21,6.34-4.8,7.3-6.67,7.3-8.26,0-8.3-15.27-8.3-23.67,0-2.02,0-2.11,2.26-2.11,1.92,0,1.97.05,1.97,2.4v4.03c0,4.51.77,15.75,5.62,15.75s6.1-11.14,6.1-15.75v-4.03Z"
       id="path120" />
    <path
       class="cls-2"
       d="M267.41,321.89c0-1.39.1-1.49,2.45-1.49,1.87,0,1.97.05,1.97,2.11v3.36c1.34-3.84,4.08-5.95,8.16-5.95,5.47,0,9.7,3.6,9.7,13.15s-4.13,13.1-9.7,13.1c-4.22,0-6.96-2.35-8.26-6.29v13.39c0,2.3-.14,2.5-2.35,2.5-1.68,0-1.82-.24-1.82-2.5v-15.6c0-3.41-.14-14.02-.14-15.79ZM285.32,333.22c0-6.72-2.59-9.75-6.38-9.75-4.13,0-7.15,3.07-7.15,9.7,0,5.9,2.98,9.75,7.15,9.75,3.74,0,6.38-2.98,6.38-9.7Z"
       id="path122" />
    <path
       class="cls-2"
       d="M316.37,339.75v3.46c0,2.35-.19,2.5-2.35,2.5-1.68,0-1.82-.14-1.82-2.5v-3.07c-1.68,4.13-5.62,6.05-9.17,6.05-3.84,0-7.39-1.3-7.39-8.54,0-1.39,0-2.78.05-4.22-.05-4.37-.19-8.78-.19-10.9s0-2.11,2.4-2.11c2.02,0,1.97.1,1.97,2.45v14.64c0,3.5,1.34,5.42,4.61,5.42,3.74,0,7.3-3.17,7.68-10.42-.05-3.6-.1-6.72-.1-9.65,0-2.35.1-2.45,2.45-2.45,1.87,0,1.97.1,1.97,2.45,0,4.7-.1,10.03-.1,16.9ZM300.72,314.21c0-2.54,2.02-4.46,5.14-4.46s5.18,1.92,5.18,4.51-2.02,4.27-5.18,4.27-5.14-1.78-5.14-4.32ZM308.21,314.21c0-1.34-.91-2.35-2.3-2.35s-2.35,1.01-2.35,2.35.91,2.21,2.35,2.21,2.3-.91,2.3-2.21Z"
       id="path124" />
    <path
       class="cls-2"
       d="M327.79,337.69v7.1c0,9.07-2.06,11.76-6.86,11.76-1.68,0-3.55-.48-4.46-.86-.58-.19-.77-.62-.53-1.34l.34-1.06c.24-.77.62-.91,1.1-.77.58.19,1.63.48,2.74.48,3.22,0,3.5-2.4,3.5-8.21v-7.1c0-3.41-.14-14.02-.14-15.79,0-1.39.1-1.49,2.45-1.49,1.87,0,1.97.05,1.97,2.11,0,4.8-.1,10.27-.1,15.17ZM323.38,315.89c0-2.35.86-2.54,2.54-2.54,2.06,0,2.3.19,2.3,1.63v.62c0,2.35-.86,2.59-2.54,2.59-2.06,0-2.3-.24-2.3-1.68v-.62Z"
       id="path126" />
    <path
       class="cls-2"
       d="M343.68,319.93c4.22,0,6.91,2.16,8.26,6.14-.05-4.18-.14-13.01-.14-14.64,0-1.39.1-1.49,2.45-1.49,1.87,0,1.97.05,1.97,2.11,0,4.8-.1,10.27-.1,15.17v15.99c0,2.35-.19,2.5-2.3,2.5-1.73,0-1.87-.14-1.87-2.5v-3.31c-1.34,3.94-4.03,6.29-8.26,6.29-5.57,0-9.7-3.6-9.7-13.1s4.22-13.15,9.7-13.15ZM351.89,333.17c0-6.62-3.02-9.7-7.15-9.7-3.79,0-6.43,3.02-6.43,9.75s2.69,9.7,6.43,9.7c4.18,0,7.15-3.84,7.15-9.75Z"
       id="path128" />
    <path
       class="cls-2"
       d="M362.3,332.84c0-10.22,5.14-12.91,11.28-12.91s11.33,2.69,11.33,12.91-5.14,13.35-11.33,13.35-11.28-3.41-11.28-13.35ZM380.5,333.03c0-7.78-3.07-9.7-6.91-9.7s-6.91,1.92-6.91,9.7,3.12,9.99,6.91,9.99,6.91-2.45,6.91-9.99Z"
       id="path130" />
    <path
       class="cls-2"
       d="M411.65,339.75v3.46c0,2.35-.19,2.5-2.35,2.5-1.68,0-1.82-.14-1.82-2.5v-3.07c-1.68,4.13-5.62,6.05-9.17,6.05-3.84,0-7.39-1.3-7.39-8.54,0-1.39,0-2.78.05-4.22-.05-4.37-.19-8.78-.19-10.9s0-2.11,2.4-2.11c2.02,0,1.97.1,1.97,2.45v14.64c0,3.5,1.34,5.42,4.61,5.42,3.74,0,7.3-3.17,7.68-10.42-.05-3.6-.1-6.72-.1-9.65,0-2.35.1-2.45,2.45-2.45,1.87,0,1.97.1,1.97,2.45,0,4.7-.1,10.03-.1,16.9Z"
       id="path132" />
    <path
       class="cls-2"
       d="M419.62,343.98c.58-2.21,1.01-2.88,3.26-2.88,1.2,0,1.92.29,1.92,1.06,0,.53-.38,1.34-1.15,2.4l-3.98,5.47c-.48.62-.96.77-1.49.62-.58-.19-.62-.58-.43-1.25l1.87-5.42Z"
       id="path134" />
    <path
       class="cls-2"
       d="M52.95,379.49c0-1.39.1-1.49,2.45-1.49,1.87,0,1.97.05,1.97,2.11v3.36c1.34-3.84,4.08-5.95,8.16-5.95,5.47,0,9.7,3.6,9.7,13.15s-4.13,13.1-9.7,13.1c-4.22,0-6.96-2.35-8.26-6.29v13.39c0,2.3-.14,2.5-2.35,2.5-1.68,0-1.82-.24-1.82-2.5v-15.6c0-3.41-.14-14.02-.14-15.79ZM70.86,390.82c0-6.72-2.59-9.75-6.38-9.75-4.13,0-7.15,3.07-7.15,9.7,0,5.9,2.98,9.75,7.15,9.75,3.74,0,6.38-2.98,6.38-9.7Z"
       id="path136" />
    <path
       class="cls-2"
       d="M85.5,383.86c1.54-4.27,4.9-6.34,8.26-6.34,1.01,0,1.92.14,2.35.29.62.19.82.62.62,1.3l-.29,1.44c-.19.72-.53.86-1.3.72-.48-.1-1.44-.24-2.11-.24-3.07,0-7.58,1.87-7.63,13.49v6.29c0,2.3-.14,2.5-2.3,2.5-1.73,0-1.82-.24-1.82-2.5v-5.52c0-3.41-.14-14.02-.14-15.79,0-1.39.05-1.49,2.45-1.49,1.87,0,1.92.05,1.92,2.11v3.74Z"
       id="path138" />
    <path
       class="cls-2"
       d="M99.89,390.44c0-10.22,5.14-12.91,11.28-12.91s11.33,2.69,11.33,12.91-5.14,13.35-11.33,13.35-11.28-3.41-11.28-13.35ZM118.09,390.63c0-7.78-3.07-9.7-6.91-9.7s-6.91,1.92-6.91,9.7,3.12,9.98,6.91,9.98,6.91-2.45,6.91-9.98Z"
       id="path140" />
    <path
       class="cls-2"
       d="M128.6,379.49c0-1.39.1-1.49,2.45-1.49,1.87,0,1.97.05,1.97,2.11v4.42c1.3-4.75,4.9-7.01,8.3-7.01,2.98,0,5.67,1.44,6,6.86,1.3-4.66,4.94-6.86,8.35-6.86,3.22,0,6.05,1.63,6.05,8.06,0,3.46-.1,7.1-.1,11.76v3.46c0,2.35-.14,2.5-2.3,2.5-1.68,0-1.82-.14-1.82-2.5v-14.59c0-3.02-1.1-4.8-3.65-4.8-3.31,0-6.14,3.07-6.53,9.46-.05,1.97-.05,4.08-.05,6.48v3.46c0,2.3-.14,2.5-2.3,2.5-1.73,0-1.87-.24-1.87-2.5v-14.59c0-3.12-1.25-4.8-3.65-4.8-3.22,0-6.05,3.02-6.53,9.26v10.13c0,2.3-.14,2.5-2.3,2.5-1.73,0-1.87-.24-1.87-2.5v-5.52c0-3.41-.14-14.02-.14-15.79Z"
       id="path142" />
    <path
       class="cls-2"
       d="M172.23,391.88c.43,7.44,4.27,8.69,7.87,8.69,3.02,0,5.04-1.06,6.53-1.73.82-.29,1.15-.19,1.44.53l.43,1.06c.24.62.1.86-.72,1.3-1.49.77-4.18,2.06-8.06,2.06-6.53,0-11.76-3.17-11.76-13.44s5.09-12.82,10.95-12.82,10.18,2.45,10.18,11.91c0,1.49-.67,2.45-2.4,2.45h-14.45ZM172.18,389.05h13.1c-.05-6.86-2.88-8.35-6.38-8.35s-6.38,1.63-6.72,8.35ZM178.52,372.96l4.22-2.59c.91-.62,1.1-.62,1.54-.1.48.58.43.86-.38,1.44l-4.94,3.98c-.19.14-.34.19-.43.19-.14,0-.29-.05-.48-.19l-4.99-3.98c-.77-.58-.82-.86-.34-1.44.38-.53.58-.48,1.54.1l4.27,2.59Z"
       id="path144" />
    <path
       class="cls-2"
       d="M212.74,403.3c-1.68,0-1.82-.14-1.82-2.5v-13.97c0-3.41-1.06-5.33-4.27-5.33-3.89,0-7.44,2.93-7.97,9.7v9.6c0,2.35-.19,2.5-2.35,2.5-1.68,0-1.82-.14-1.82-2.5v-5.52c0-3.41-.14-14.02-.14-15.79,0-1.39.1-1.49,2.4-1.49,1.92,0,2.02.05,2.02,2.11,0,1.54,0,3.17-.05,4.9,1.54-5.09,5.81-7.49,9.89-7.49s6.53,2.26,6.53,8.54c0,3.41-.1,6.91-.1,10.32v4.42c0,2.35-.14,2.5-2.3,2.5Z"
       id="path146" />
    <path
       class="cls-2"
       d="M226.57,395.29v5.52c0,2.35-.19,2.5-2.3,2.5-1.73,0-1.87-.14-1.87-2.5v-5.52c0-3.41-.14-14.02-.14-15.79,0-1.39.1-1.49,2.45-1.49,1.87,0,1.97.05,1.97,2.11,0,4.8-.1,10.27-.1,15.17ZM227.86,369.36c.53-.72,1.44-1.01,2.26-.1.86.96.62,1.68.05,2.02l-5.14,4.22c-.91.53-1.49-.1-.91-.77l3.74-5.38Z"
       id="path148" />
    <path
       class="cls-2"
       d="M251.91,388.71c3.26,0,6.05,1.1,7.54,3.46v-5.04c0-5.28-3.98-6.05-6.43-6.05s-5.23.77-6.1,1.01c-.77.29-1.25.19-1.58-.72l-.34-.91c-.38-1.01.1-1.39.86-1.68,1.44-.53,4.51-1.25,7.83-1.25,3.74,0,9.89.91,9.89,9.17v14.11c0,2.35-.14,2.5-2.3,2.5-1.68,0-1.82-.14-1.82-2.5v-.29c-1.49,2.3-4.37,3.26-7.63,3.26-5.23,0-8.5-2.74-8.5-7.44s3.46-7.63,8.59-7.63ZM247.73,396.29c0,2.93,1.92,4.94,5.62,4.94s6.1-1.97,6.1-4.94-2.3-5.09-6.05-5.09-5.67,2.11-5.67,5.09Z"
       id="path150" />
    <path
       class="cls-2"
       d="M292.23,400.47c1.73,0,3.74-.62,4.7-.91.86-.19,1.2,0,1.34.62l.24,1.15c.19.67.05,1.06-.77,1.34-1.2.48-3.65,1.1-6.29,1.1-7.25,0-11.09-4.27-11.09-13.15s3.94-13.11,11.09-13.11c2.64,0,5.14.67,6.19,1.1.86.29,1.1.67.91,1.34l-.29,1.34c-.24.72-.67.77-1.44.58-.96-.29-2.78-.82-4.61-.82-4.94,0-7.58,3.26-7.58,9.65s2.64,9.75,7.58,9.75Z"
       id="path152" />
    <path
       class="cls-2"
       d="M316.61,381.41c-4.03,0-7.78,3.31-7.97,10.94v8.45c0,2.3-.14,2.5-2.35,2.5-1.68,0-1.82-.24-1.82-2.5v-15.99c0-3.41-.14-14.02-.14-15.79,0-1.39.1-1.49,2.45-1.49,1.87,0,1.97.05,1.97,2.11,0,4.8-.1,10.27-.1,15.17v1.3c1.15-5.86,5.66-8.59,9.98-8.59s6.53,2.26,6.53,8.54c0,3.41-.1,6.91-.1,10.32v4.42c0,2.35-.19,2.5-2.3,2.5-1.73,0-1.87-.14-1.87-2.5v-13.97c0-3.55-1.15-5.42-4.27-5.42Z"
       id="path154" />
    <path
       class="cls-2"
       d="M336.34,383.86c1.54-4.27,4.9-6.34,8.26-6.34,1.01,0,1.92.14,2.35.29.62.19.82.62.62,1.3l-.29,1.44c-.19.72-.53.86-1.3.72-.48-.1-1.44-.24-2.11-.24-3.07,0-7.58,1.87-7.63,13.49v6.29c0,2.3-.14,2.5-2.3,2.5-1.73,0-1.82-.24-1.82-2.5v-5.52c0-3.41-.14-14.02-.14-15.79,0-1.39.05-1.49,2.45-1.49,1.87,0,1.92.05,1.92,2.11v3.74Z"
       id="path156" />
    <path
       class="cls-2"
       d="M358.76,388.71c3.26,0,6.05,1.1,7.54,3.46v-5.04c0-5.28-3.98-6.05-6.43-6.05s-5.23.77-6.1,1.01c-.77.29-1.25.19-1.58-.72l-.34-.91c-.38-1.01.1-1.39.86-1.68,1.44-.53,4.51-1.25,7.82-1.25,3.74,0,9.89.91,9.89,9.17v14.11c0,2.35-.14,2.5-2.3,2.5-1.68,0-1.82-.14-1.82-2.5v-.29c-1.49,2.3-4.37,3.26-7.63,3.26-5.23,0-8.5-2.74-8.5-7.44s3.46-7.63,8.59-7.63ZM354.58,396.29c0,2.93,1.92,4.94,5.62,4.94s6.1-1.97,6.1-4.94-2.3-5.09-6.05-5.09-5.66,2.11-5.66,5.09ZM363.84,369.46c.53-.72,1.44-1.01,2.26-.1.86.96.62,1.68.05,2.02l-5.14,4.22c-.91.53-1.49-.1-.91-.77l3.74-5.38Z"
       id="path158" />
    <path
       class="cls-2"
       d="M395.86,403.3c-1.68,0-1.82-.14-1.82-2.5v-13.97c0-3.41-1.06-5.33-4.27-5.33-3.89,0-7.44,2.93-7.97,9.7v9.6c0,2.35-.19,2.5-2.35,2.5-1.68,0-1.82-.14-1.82-2.5v-5.52c0-3.41-.14-14.02-.14-15.79,0-1.39.1-1.49,2.4-1.49,1.92,0,2.02.05,2.02,2.11,0,1.54,0,3.17-.05,4.9,1.54-5.09,5.81-7.49,9.89-7.49s6.53,2.26,6.53,8.54c0,3.41-.1,6.91-.1,10.32v4.42c0,2.35-.14,2.5-2.3,2.5Z"
       id="path160" />
    <path
       class="cls-2"
       d="M409.68,395.29v5.52c0,2.35-.19,2.5-2.3,2.5-1.73,0-1.87-.14-1.87-2.5v-5.52c0-3.41-.14-14.02-.14-15.79,0-1.39.1-1.49,2.45-1.49,1.87,0,1.97.05,1.97,2.11,0,4.8-.1,10.27-.1,15.17ZM410.98,369.36c.53-.72,1.44-1.01,2.26-.1.86.96.62,1.68.05,2.02l-5.14,4.22c-.91.53-1.49-.1-.91-.77l3.74-5.38Z"
       id="path162" />
    <path
       class="cls-2"
       d="M415.92,401.19c0-2.35.86-2.59,2.54-2.59,2.11,0,2.35.24,2.35,1.68v.62c0,2.35-.91,2.54-2.59,2.54-2.06,0-2.3-.19-2.3-1.68v-.58Z"
       id="path164" />
    <path
       class="cls-2"
       d="M72.97,507.94h-16.18c-.48,2.64-.72,5.42-.72,8.4,0,2.02-.1,2.16-2.26,2.16-1.82,0-2.06-.1-2.06-2.26,0-15.02,5.95-25.25,10.56-31.15.86-1.01,1.25-1.15,2.54-1.15s1.73.1,2.59,1.2c4.61,5.9,10.61,16.13,10.61,31.11,0,2.16-.24,2.26-2.35,2.26-1.92,0-1.92-.1-1.97-2.16,0-2.98-.29-5.76-.77-8.4ZM57.51,504.58h14.79c-2.45-9.94-7.1-16.22-7.39-16.22s-4.99,6.24-7.39,16.22Z"
       id="path166" />
    <path
       class="cls-2"
       d="M84.54,494.69c0-1.39.1-1.49,2.45-1.49,1.87,0,1.97.05,1.97,2.11v4.42c1.3-4.75,4.9-7.01,8.3-7.01,2.98,0,5.67,1.44,6,6.86,1.3-4.66,4.94-6.86,8.35-6.86,3.22,0,6.05,1.63,6.05,8.06,0,3.46-.1,7.1-.1,11.76v3.46c0,2.35-.14,2.5-2.3,2.5-1.68,0-1.82-.14-1.82-2.5v-14.59c0-3.02-1.1-4.8-3.65-4.8-3.31,0-6.14,3.07-6.53,9.46-.05,1.97-.05,4.08-.05,6.48v3.46c0,2.3-.14,2.5-2.3,2.5-1.73,0-1.87-.24-1.87-2.5v-14.59c0-3.12-1.25-4.8-3.65-4.8-3.22,0-6.05,3.02-6.53,9.26v10.13c0,2.3-.14,2.5-2.3,2.5-1.73,0-1.87-.24-1.87-2.5v-5.52c0-3.41-.14-14.02-.14-15.79Z"
       id="path168" />
    <path
       class="cls-2"
       d="M127.93,507.08c.43,7.44,4.27,8.69,7.87,8.69,3.02,0,5.04-1.06,6.53-1.73.82-.29,1.15-.19,1.44.53l.43,1.06c.24.62.1.86-.72,1.3-1.49.77-4.18,2.06-8.07,2.06-6.53,0-11.76-3.17-11.76-13.44s5.09-12.82,10.95-12.82,10.18,2.45,10.18,11.91c0,1.49-.67,2.45-2.4,2.45h-14.45ZM127.88,504.25h13.11c-.05-6.86-2.88-8.35-6.38-8.35s-6.38,1.63-6.72,8.35Z"
       id="path170" />
    <path
       class="cls-2"
       d="M169.21,518.5c-1.68,0-1.82-.14-1.82-2.5v-13.97c0-3.41-1.06-5.33-4.27-5.33-3.89,0-7.44,2.93-7.97,9.7v9.6c0,2.35-.19,2.5-2.35,2.5-1.68,0-1.82-.14-1.82-2.5v-5.52c0-3.41-.14-14.02-.14-15.79,0-1.39.1-1.49,2.4-1.49,1.92,0,2.02.05,2.02,2.11,0,1.54,0,3.17-.05,4.9,1.54-5.09,5.81-7.49,9.89-7.49s6.53,2.26,6.53,8.54c0,3.41-.1,6.91-.1,10.32v4.42c0,2.35-.14,2.5-2.3,2.5Z"
       id="path172" />
    <path
       class="cls-2"
       d="M177.46,516.39c0-2.35.86-2.59,2.54-2.59,2.11,0,2.35.24,2.35,1.68v.62c0,2.35-.91,2.54-2.59,2.54-2.06,0-2.3-.19-2.3-1.68v-.58Z"
       id="path174" />
  </g>
  <g
     id="g190">
    <path
       class="cls-2"
       d="M60.83,660.03l-.07.28v1.22l.07.49c.04.21.07.35.04.56l-.04.07-.14.7-.03.42.07.88.04.42-.04.81.04.31v.95c.07.25.11.49.07.7l-.04.38.04.14c.07.28.07.46.04.73l-.11.46-.14.98v.32l.04.84v.42l.14.91v1.58l.1.74v.95c0,.1-.03.28-.07.38l-.04.17v.04c.04.25,0,.53-.07.77l-.04.42v.42c0,.28-.03.52-.14.77l-.17.91v.17c0,.11-.07.21-.11.32l-.25.74-.04.17c-.03.17-.1.28-.17.42l-.35.56-.14.14c-.07.11-.14.17-.21.25l-.46.35-.35.25-.28.28c-.14.14-.31.32-.49.38l-.1.04-.53.25c-.21.11-.42.17-.67.17h-.04l-.8.14-.04.03c-.21.11-.46.14-.67.14h-.38l-.49-.04-.35.04h-.18c-.14,0-.28-.04-.42-.11l-.21-.07-.8-.07h-.04c-.21,0-.42-.04-.63-.11l-.46-.17s-.63-.59-.74-.95c-.04-.1-.04-.21-.04-.28v-.7l-.1-.32v-.56l.07-.7-.03-.38s.38-.35.7-.42c.18-.03.32.04.46.07l.63.14.35-.07.42-.04h.53l.31-.04.88-.25.6-.49.28-.38.31-.7-.07-.31.04-.32c0-.11.04-.14.07-.25l.07-.17-.07-.46.04-.77-.04-.46-.04-.52c0-.14.04-.32.07-.49l.04-.17v-.6c-.04-.17-.07-.42-.04-.59l.04-.14-.11-.77.04-.38-.04-.84v-.46l-.1-.77v-.32l.03-.74-.07-.35c-.04-.17,0-.32,0-.46l.1-.7.04-1.01v-.42l-.07-.95.04-1.02v-.49l.07-.91-.04-.84c0-.14-.04-.17,0-.31l.07-.39-.04-.8v-.17c.07-.38.42-.56.7-.7.17-.04.35-.07.49-.07h.56l1.33.04h.35l.84.14.46-.03c.17-.07.35-.04.46.07.1.14.17.32.25.56Z"
       id="path178" />
    <path
       class="cls-2"
       d="M78.82,676.52l-.25-.21-.1-.07c-.14-.11-.32-.21-.42-.35l-.35-.42-.63-.88-.35-.28-.49-.63-.88-.91-.7-.67-.28-.31-.46-.6-.77-.42-.42.21-.04.38.04.28.04.84-.04.46.07.74.07.32.07.8v1.16l-.1.46-.07.8c.11.25.14.56.11.84l-.04.35-.11.49v.84l.04.35-.04.84.14.52-.04.88-.07.49.07.84s-.42.59-.77.73c-.1.04-.21,0-.31,0l-.77-.04-.42-.03-.84.1c-.07,0-.21.04-.28.04l-.7-.04-.1.04c-.14.04-.32.04-.46,0l-.21-.04c-.21-.28-.32-.56-.25-.77l-.11-.95v-.46l.04-.84.07-.42-.04-.94v-.35l-.04-.7v-.52l.07-.84.04-.38-.04-.74v-.42l-.07-.59c-.04-.17,0-.32,0-.46v-.21l-.04-.56c0-.17,0-.28.04-.42l.04-.25.07-.91v-.35l-.04-.95v-.35l.1-.88-.07-.49-.07-.88-.04-.14c-.04-.17-.04-.25-.04-.42l.04-.56-.04-.18c-.04-.25,0-.38.04-.63l.07-.52.07-.39v-.8l-.03-.49v-.84l.03-.42-.07-.88v-.39l.07-.84.04-.35-.04-.6v-.28l.07-.35c.04-.21.14-.38.28-.42l.35.21.14.07c.1.07.21.17.28.25l.28.28c.11.11.21.21.28.35l.17.25.46.63.28.28.52.59.39.38.42.32c.21.17.38.35.49.56l.59.53.59.59.39.35.25.28.59.59.25.35.52.53.32.25.53.49c.1.1.17.25.25.35l.07.11.88.77.63.63.24.28.63.63.28.21.32.39.63-.11.35-.21.7-.67.31-.35.59-.53.25-.32.35-.49c.14-.18.28-.35.46-.49l.07-.04.28-.46c.11-.17.25-.32.38-.46l.11-.07.63-.59.28-.35.63-.56.42-.28.46-.42c.07-.07.14-.1.21-.17l.25-.14.32-.46c.1-.18.28-.32.42-.42h.04l.59-.67.38-.35.63-.63.14-.21.59-.74.25-.21c.07-.07.14-.11.21-.17l.67-.49c.25-.25.49-.28.7-.21l-.1.46.07.7c0,.14.04.25,0,.42l-.04.28.07.88v.28l-.07.84.04.38.04.95.04.49.04.38c.04.31.04.56-.07.84v.88l.07.38v1.19l.07.81v.35l-.04.25-.11.88v.84c0,.14,0,.18-.04.32l-.04.25.14.8.04.39.07.77v.46c0,.17,0,.35-.03.53l-.14.53.04.38-.04.8-.04.46-.04.77.07.46.14.84.03.46-.03.91-.07,1.12.07.46-.07.98c0,.14-.04.25-.11.39-.1.17-.21.28-.35.35-.25.14-.53.17-.77.14l-.59-.07-.38.07h-.67l-.49-.04-.67-.04h-.42s-.28-.21-.49-.38c-.21-.25-.17-.49-.21-.74l.07-.88-.14-.91v-.53l-.07-.8-.03-.35c0-.07.03-.17.03-.25l.07-.7v-1.19l-.04-.42.11-.88.04-.53-.04-.53c0-.14,0-.35.04-.49l.03-.17-.03-.88-.07-.38-.04-.49c-.04-.28,0-.46.11-.7l-.07-.84-.11-.42-.24-.35-.63.53-.7.7-.31.28-.04.04c-.11.17-.28.35-.46.49l-.56.67-.39.39-.49.67c-.07.1-.14.17-.21.25l-.52.49-.28.21-.56.49-.11.14c-.11.14-.21.21-.35.31l-.46.35c-.18.21-.39.31-.63.31-.21,0-.52-.17-.84-.49Z"
       id="path180" />
    <path
       class="cls-2"
       d="M114.7,684.53l-.32-.14h-.88l-.32.07-.94-.04-.42.07-.74-.11-.49.07h-.42c-.21.04-.46.04-.67,0h-.17l-.49.07c-.21.04-.46.04-.67,0h-.04l-.46.07c-.25.04-.53,0-.74-.07v-.04l-.84.04-.38.04-.88.03-.56-.07-.77-.07-.39.11h-.8l-.53.03-.59.04c-.11,0-.25,0-.35-.04l-.21-.07h-1.05c-.42-.04-.67-.32-.77-.56-.11-.21-.07-.38-.04-.63l.07-.59-.03-.53-.07-.95.04-.98-.07-.39c-.04-.1-.04-.28-.04-.38l.04-.59.04-.46-.04-.81-.04-.04c-.04-.21-.04-.38-.04-.56l.04-.46.07-.46v-1.37l-.07-.74v-.28l.04-.28.07-.81v-1.15l.07-.42-.07-.77c0-.11,0-.28.04-.39v-.17l.03-.88-.03-.46.03-.91-.07-1.01-.07-.39v-1.33l-.04-.77-.04-.35v-.28l.11-.74-.04-.49.04-.88-.11-.77c-.04-.14-.04-.35,0-.49l.04-.21.04-.07c.32-.32.59-.46.91-.49l.8-.04.53-.04.8.07h1.12c.07,0,.21.04.28.04l.32.04.42-.07c.21-.04.42,0,.63.07l.84.07.49-.07.84.04.28-.18.84-.03.28-.07.95.07.38.07.98.14.31-.04.95-.07,1.02-.04.38-.04.8.07.32.07c.07,0,.1,0,.17.04.46.14.59.52.63.8.04.11,0,.17,0,.28l-.14.88.04.42-.14.95.07.35s-.35.42-.63.6c-.17.1-.35.1-.53.1h-.42l-.31.07-.84.04-.56-.07-.84-.07-.91.04-.18.04c-.17.04-.31.04-.46,0l-.49-.07-.39.07-.84.04-.42.04h-.88l-.35-.04h-.84l-.46.04-.35.52-.04.56v.8l.07.42-.04.77-.04.49.07.88-.04.49.04.35.46.42h1.36l.35.04.67-.14c.1-.04.17,0,.25,0l.25-.04.8.04.56.03.73.04.42.04h.7c.11,0,.25-.04.35,0l.14.04.38-.11.84.07s.25.14.49.32c.28.17.35.46.31.67v.84l.14.35v.52l-.1.6c.04.17,0,.42-.14.67-.28.25-.53.35-.77.35l-.84-.04-.49.07-.91-.04-.46-.04h-.77l-.52.07-.59.04c-.11,0-.21-.04-.32-.04l-.38-.04-.84.04h-1.01c-.25.07-.49.07-.7,0l-.42.38.1.46-.07.7.1.42-.04.49c0,.21-.03.38-.1.53l-.04.07.04.95v.35l.04.88v.46l.46.42.56-.04.42-.04c.25,0,.49,0,.7.11h.77l.46.07.88-.1.38-.07.56-.04c.14,0,.28,0,.42.04l.1.04.88.04.53.04.74.07h.38l.77-.03.42.03.98-.07s.42.28.7.52c.17.18.21.42.28.67v.88l-.07.42-.04.73v.42c-.03.35-.07.56-.17.67-.07.11-.28.14-.56.18ZM104.51,656.25l.38-.77.11-.31.25-.77.25-.53.21-.52c.07-.18.17-.35.28-.49l.07-.11.28-.63.14-.46.32-.77c.17-.28.42-.46.74-.63.14-.07.35-.1.56-.14l.84.04.42-.07.84-.07h.42l.53-.04c.21-.04.31,0,.49.04h.07l.88.07c.25,0,.49.11.7.28l-.17.28-.11.31c-.03.11-.1.21-.17.28l-.31.49-.32.38-.49.63-.21.25-.59.67-.28.32-.25.35-.35.39-.46.8-.21.35-.42.6c-.14.25-.45.38-.88.52l-.03.04-.42.04-.31.04h-.84l-.42.07-.73-.07c-.32-.04-.53-.11-.67-.25-.11-.14-.14-.35-.11-.59Z"
       id="path182" />
    <path
       class="cls-2"
       d="M140.81,684.29l-.52-.63-.35-.21-.63-.77-.63-.63-.28-.17-.63-.6-.28-.28-.53-.52-.42-.25-.38-.32c-.1-.07-.17-.21-.25-.31l-.17-.21-.49-.56-.42-.38-.56-.49-.38-.32-.49-.56-.31-.21-.56-.74-.28-.21-.53-.35c-.14-.11-.25-.18-.32-.28l-.1-.14-.49-.56-.25-.25-.46-.46c-.07-.07-.14-.21-.21-.28l-.11-.14-.63-.49-.46-.28-.52-.35c-.07-.07-.18-.14-.25-.21l-.14-.14-.31-.39-.21-.17-.63-.63-.39-.25-.21.28v.42l.04,1.01.04.21c.04.18,0,.25,0,.42l-.04.38c0,.17-.04.28-.07.42l-.03.14.03.81-.07.46.1.7c.04.14.04.31,0,.46v.94l.07.46-.04.81v1.26l-.04.46.04,1.05-.07.84-.07.46-.04.88s-.32.56-.6.84c-.14.14-.38.14-.56.14l-.46.04h-.42l-.35.04c-.1,0-.24.04-.35.04l-.25-.04-.49-.07-.8.11s-.42-.28-.67-.56c-.17-.17-.17-.42-.21-.63l-.04-.46-.07-.49-.07-.59c0-.17,0-.32.03-.53l.04-.17.04-.56v-.28l.07-.38v-.7c-.11-.25-.14-.56-.11-.84l.04-.28.04-.46.04-.7c0-.14,0-.17.04-.28l.1-.35-.07-.46c-.03-.25-.03-.42,0-.63l.04-.07-.1-.74v-.35l.1-.74-.1-.49-.04-.63v-.32l.04-.35.04-.67c0-.11,0-.28.03-.39l.04-.21-.04-.7-.07-.42-.07-.56c0-.14-.04-.25,0-.42l.04-.14v-.73c0-.07.04-.14.04-.25l.07-.32-.07-.8-.14-.28-.03-.95v-.77l.07-.49-.04-.42.07-.7-.04-.04c-.04-.21-.04-.46,0-.67l.07-.46-.04-.38-.04-.77v-.28l.04-.35.07-.11c.1-.17.14-.28.21-.35l.38.25.21.17c.07.07.14.14.17.21l.42.53,1.08,1.05.59.53.28.35.56.53.42.35.49.49.35.35.49.59.21.28.59.59.31.17.49.53.28.35.59.42.32.28.59.49.25.17c.14.11.25.21.35.32l.46.56.56.49c.11.11.14.17.21.28l.17.21.56.46c.14.1.21.25.32.38l.1.14.28.38.42.28.56.59.32.28.25.25.42.31.59.49.35.35.35-.25v-.32l.04-.42v-.91l.07-.46-.07-.8-.04-.39-.04-.84-.03-.42.07-.81.04-.46-.04-.84v-.38l-.1-.77v-.52l.07-.67.11-.53.04-.84v-.42l-.17-.74-.07-.42v-.11l-.04-.77c.04-.28.21-.63.49-.91l.04-.04.59-.04.63-.07c.14,0,.28,0,.42.04h.67c.21,0,.39,0,.6.07l.17.04.98.07s.52.35.73.67c.07.1.07.21.07.35l.11.84-.04.91.04.42.03.88.04.11c.04.14.04.35.04.49l-.04.59-.04.46.04.53c0,.14-.04.25-.04.35l-.03.35.03.49c0,.14,0,.35-.03.49l-.04.17v.74l.07.49.04.46c.04.25,0,.53-.07.8v.04l.03.88-.07.95.07.49-.1.8v.42l.07.88.03.42.04.98-.07.91-.07.46.07.63c0,.14,0,.28-.04.42v1.47l.1.67c0,.11.04.21.04.32v.17l-.07.8v.35l.04.74-.04.45v.63c0,.1,0,.28-.03.38l-.07.25-.21.04c-.14.04-.35-.04-.56-.25Z"
       id="path184" />
    <path
       class="cls-2"
       d="M146.96,670.04c0-.14.04-.28.07-.42l.24-.67.04-.35.25-.74.11-.38.31-.7.18-.42.38-.84.21-.42.42-.67.17-.25.56-.67.56-.67c.07-.1.11-.14.17-.21l.21-.21.84-.8c.07-.07.17-.18.28-.25l1.33-.81.49-.21.74-.38.38-.21.77-.35.07-.03c.17-.07.38-.14.56-.14l.42-.04.39-.07.84-.11c.07,0,.21-.04.28-.04h.28l1.16-.1c.17-.04.32-.04.46,0l.17.04h.39l.94.04h.14c.17-.04.38,0,.56.03l.49.11.49.07.77.17,1.09.38.46.14.49.18c.14.07.32.14.46.25l.18.14,1.12.67.52.38.35.35.56.59.28.32.7.67.17.21.32.35c.17.21.28.46.35.67l.49.7.14.25.42.7.11.25c.04.07.07.21.1.28l.18.67.1.28.14.81.17.38.17.8.07.46.03.67c0,.14-.03.25-.03.35l-.04.21.04.07c.07.28.03.49,0,.77v.11l.03.35.04.39c0,.28-.04.56-.17.77l-.14.81-.07.38-.17.84-.07.32c0,.07-.04.14-.07.21l-.28.7-.17.31s-.07.04-.07.07l-.42.63-.14.35-.28.52c-.07.11-.18.25-.25.35l-.04.07-.6.77-.21.28-.56.56-.38.38-.35.42c-.14.17-.31.31-.49.42l-.56.28-.38.21-.63.35c-.07.04-.17.07-.28.1l-.21.07-.35.25-.38.17-.35.17-.63.28-.49.17-1.08.39-.8.21-.14.04c-.14.04-.31.04-.45.04h-1.61l-.21-.04c-.11,0-.21-.04-.28-.07l-.38-.07-.74-.07h-.38l-.98-.18c-.11-.03-.25-.07-.38-.14l-.56-.21-.31-.11-.74-.21-.46-.14-.35-.11c-.21-.07-.42-.14-.63-.31l-.07-.04-.63-.28c-.07-.04-.1-.07-.21-.14l-.28-.17-.63-.46-.35-.32s-.07-.07-.11-.1l-.52-.6c-.17-.1-.38-.21-.53-.42l-.28-.42-.28-.28-.39-.7c-.21-.14-.38-.31-.52-.59l-.14-.28-.07-.1c-.14-.17-.25-.32-.32-.56l-.14-.52-.25-.35-.25-.77-.17-.35-.28-.77c-.07-.18-.14-.39-.14-.63v-.56l-.04-.42v-.77l-.07-.35v-.53l-.04-.31-.04-.28v-.42l.07-.67.04-.17ZM152.6,674.14l.25.77.07.42.28.7.17.28.49.53c.07.07.14.17.21.25l.14.21.35.32c.17.14.35.28.46.49v.04l.63.6.42.25.7.42.49.14.17.04c.14.04.32.07.46.14l.07.04h.46l.8.17.42.04.84.04.52-.07,1.19-.17.59-.28c.11-.07.25-.07.35-.1l.1-.04.88-.49.35-.21.59-.49.25-.21.67-.46.28-.38.38-.56.25-.42.1-.35.39-.63v-.35l.17-.73.07-.35.07-.95v-1.08c0-.17.04-.25.07-.42l.07-.17-.17-.84-.04-.46-.28-.84-.21-.31-.32-.81-.21-.25-.35-.7-.32-.38-.67-.56-.28-.25-.7-.49-1.01-.81-.46-.17-.7-.28-.49.04-.77-.07h-.14c-.14,0-.31.03-.46,0l-.14-.04-.25.04c-.14.03-.28.03-.42.03h-.17l-.77.04-.46.11-.59.21c-.11.04-.21.07-.32.1l-.25.04-.91.53-.28.17-.7.53-.32.21-.46.59-.31.49-.21.49c-.07.17-.18.31-.28.46l-.07.07-.35.7-.11.32-.25.84-.1.46-.04.81-.11.46.11.49-.04.35s-.04.14-.04.17l-.04.32v.77l.18.53Z"
       id="path186" />
    <path
       class="cls-2"
       d="M177.66,680.58l.14-.14.42-.46c.07-.07.14-.14.21-.17l.28-.25.46-.11c.14-.04.32-.04.49-.04h.32c.17,0,.35.04.52.11l.07.04h.46l.63.21.14.04c.21.1.35.17.52.35.17.14.28.39.32.63l.17.53c.07.21.11.42.11.63l.03.17c.04.25.04.39,0,.63l-.03.14-.11.35c-.07.25-.17.39-.32.6l-.03.07-.6.49-.21.14c-.14.1-.31.17-.49.21l-.25.07c-.07.04-.21.04-.31.04l-.32.04h-.59l-.38-.07-.56-.17c-.21-.07-.38-.14-.56-.28l-.11-.07c-.21-.14-.38-.39-.49-.6l-.14-.35c-.07-.21-.11-.38-.11-.56v-.11l-.07-.35.04-.42c-.04-.31,0-.59.1-.91l.04-.03c.07-.18.11-.28.21-.39ZM177.76,667.66l.1-.14.59-.46c.11-.17.42-.28.88-.38.07-.04.24-.04.56.04l.14.04.35-.07.35.07c.07,0,.17,0,.25.04l.46.14c.25.07.49.17.7.38l.25.25c.07.07.14.17.21.28l.11.14.17.56c.04.07.07.21.07.28l.04.31-.1.63c0,.07,0,.25-.04.32l-.07.25c-.07.21-.21.42-.38.63-.04.07-.07.07-.14.14l-.49.46c-.14.21-.46.38-.91.46h-.04l-.53.1h-.38l-.42-.04-.56-.25c-.14-.07-.25-.1-.35-.17l-.14-.07-.35-.42c-.14-.17-.31-.38-.38-.59l-.14-.38c-.07-.18-.11-.32-.11-.46v-.11l.04-.42v-.11c-.04-.21-.04-.49.04-.7l.07-.28c.04-.14.11-.32.18-.46Z"
       id="path188" />
  </g>
  <g
     id="g236">
    <g
       aria-label="modlitbyzaulice.cz"
       transform="matrix(1.4906832,0,0,1.4906832,-15.552879,-402.74651)"
       id="text632"
       style="font-size:18.6667px;font-family:Eigerdals;-inkscape-font-specification:'Eigerdals, Normal';white-space:pre;shape-inside:url(#rect634);fill:#516ba8;stroke-width:35.3;stroke-linecap:round;stroke-miterlimit:16.7;paint-order:markers fill stroke">
      <path
         d="m 43.788414,910.82489 q 0,-0.73828 -0.02734,-3.3086 -0.02734,-2.57031 -0.02734,-2.83464 0,-0.41015 0.136719,-0.49219 0.136719,-0.082 0.8112,-0.082 0.55599,0 0.656251,0.11849 0.109375,0.10938 0.109375,0.70183 v 1.71354 q 0.35547,-1.32161 1.257815,-2.02344 0.91146,-0.70182 1.968754,-0.70182 2.169274,0 2.333337,2.67057 0.23698,-0.86588 0.765627,-1.48568 0.537761,-0.61979 1.166668,-0.90234 0.638022,-0.28255 1.321617,-0.28255 2.351567,0 2.351567,3.13542 0,0.61068 -0.01823,2.11459 -0.01823,1.49479 -0.01823,2.46094 v 1.34896 q 0,0.68359 -0.136719,0.82943 -0.136719,0.13672 -0.765627,0.13672 -0.492188,0 -0.601563,-0.14584 -0.109376,-0.14583 -0.109376,-0.82031 v -5.6784 q 0,-1.86849 -1.412763,-1.86849 -1.020835,0 -1.731773,0.94792 -0.701825,0.94792 -0.8112,2.73438 -0.01823,0.76562 -0.01823,2.51563 v 1.34896 q 0,0.67448 -0.136719,0.82031 -0.127604,0.14584 -0.756512,0.14584 -0.501303,0 -0.619793,-0.15495 -0.109375,-0.15495 -0.109375,-0.8112 v -5.6784 q 0,-0.91146 -0.364584,-1.38542 -0.364584,-0.48307 -1.057293,-0.48307 -0.984377,0 -1.695316,0.92969 -0.710939,0.92969 -0.838543,2.67058 v 3.94662 q 0,0.67448 -0.136719,0.82031 -0.127605,0.14584 -0.756512,0.14584 -0.501303,0 -0.619793,-0.15495 -0.109375,-0.15495 -0.109375,-0.8112 z"
         id="path7166" />
      <path
         d="m 63.330116,914.12438 q -0.738282,0 -1.376304,-0.16406 -0.638022,-0.16407 -1.203127,-0.54688 -0.565106,-0.39193 -0.966148,-0.97526 -0.391928,-0.59245 -0.619793,-1.47657 -0.227865,-0.89323 -0.227865,-2.02344 0,-1.44011 0.337241,-2.45183 0.346354,-1.01172 0.975262,-1.55859 0.628907,-0.54688 1.376304,-0.77474 0.747397,-0.23698 1.70443,-0.23698 0.765627,0 1.38542,0.13672 0.628907,0.13671 1.203127,0.49218 0.57422,0.34636 0.957033,0.90235 0.391928,0.55599 0.619793,1.44922 0.236979,0.88412 0.236979,2.04167 0,1.13021 -0.227865,2.02344 -0.227865,0.88412 -0.628907,1.47657 -0.391928,0.58333 -0.957033,0.97526 -0.565105,0.38281 -1.203127,0.54688 -0.638022,0.16406 -1.38542,0.16406 z m 0,-1.23047 q 0.583335,0 1.048179,-0.20052 0.47396,-0.20052 0.847658,-0.62891 0.382813,-0.4375 0.583335,-1.21224 0.209635,-0.77474 0.209635,-1.84115 0,-0.88412 -0.145833,-1.54948 -0.136719,-0.66537 -0.373699,-1.08464 -0.227865,-0.41927 -0.583334,-0.67448 -0.346355,-0.25521 -0.729168,-0.35547 -0.382813,-0.10026 -0.856773,-0.10026 -0.592449,0 -1.048179,0.17318 -0.45573,0.16406 -0.847657,0.5651 -0.382814,0.40104 -0.592449,1.16667 -0.200522,0.76563 -0.200522,1.85938 0,2.0599 0.729168,2.97136 0.738283,0.91146 1.959639,0.91146 z"
         id="path7168" />
      <path
         d="m 69.646534,909.02932 q 0,-1.35808 0.282553,-2.36068 0.291667,-1.00261 0.811199,-1.59506 0.519533,-0.59245 1.184898,-0.875 0.674481,-0.28255 1.494795,-0.28255 2.406254,0 3.208339,2.38802 -0.05469,-4.86719 -0.05469,-5.68751 0,-0.41016 0.136719,-0.49219 0.145834,-0.0911 0.820314,-0.0911 0.555991,0 0.656251,0.11849 0.109376,0.10937 0.109376,0.70182 0,0.92969 -0.01823,2.94402 -0.01823,2.00521 -0.01823,2.96224 v 6.21616 q 0,0.67448 -0.145833,0.82031 -0.136719,0.14584 -0.756512,0.14584 -0.510418,0 -0.619793,-0.13672 -0.109375,-0.14584 -0.109375,-0.82943 v -1.29427 q -0.829429,2.44271 -3.208339,2.44271 -0.838543,0 -1.513024,-0.28255 -0.665366,-0.28256 -1.184898,-0.86589 -0.510417,-0.59245 -0.79297,-1.59506 -0.282553,-1.0026 -0.282553,-2.35156 z m 4.183602,3.82813 q 1.230471,0 2.005212,-1.03907 0.774741,-1.04817 0.774741,-2.7526 0,-1.85938 -0.765627,-2.8073 -0.756512,-0.95703 -2.014326,-0.95703 -1.157554,0 -1.832035,0.94791 -0.665366,0.94792 -0.665366,2.84376 0,1.88672 0.674481,2.82553 0.67448,0.9388 1.82292,0.9388 z"
         id="path7170" />
      <path
         d="m 82.808016,900.85352 q 0,0.92969 -0.01823,2.94402 -0.01823,2.00521 -0.01823,2.96224 v 6.21616 q 0,0.67448 -0.136719,0.82031 -0.136719,0.14584 -0.774741,0.14584 -0.492188,0 -0.601563,-0.14584 -0.109375,-0.14583 -0.109375,-0.82031 v -6.21616 q 0,-0.73828 -0.02734,-3.3086 -0.02734,-2.57032 -0.02734,-2.83464 0,-0.41016 0.136719,-0.49219 0.136719,-0.0911 0.811199,-0.0911 0.555991,0 0.656252,0.11849 0.109375,0.10937 0.109375,0.70182 z"
         id="path7172" />
      <path
         d="m 85.679114,910.82489 q 0,-0.73828 -0.02734,-3.3086 -0.02734,-2.57031 -0.02734,-2.83464 0,-0.41015 0.136719,-0.49219 0.136719,-0.082 0.811199,-0.082 0.555991,0 0.656251,0.11849 0.109375,0.10938 0.109375,0.70183 0,0.92969 -0.01823,2.9349 -0.01823,2.00521 -0.01823,2.96224 v 2.15105 q 0,0.67448 -0.136719,0.82031 -0.136719,0.14584 -0.756512,0.14584 -0.510417,0 -0.619793,-0.13672 -0.109375,-0.14584 -0.109375,-0.82943 z m -0.109375,-8.24871 v -0.22786 q 0,-0.63803 0.21875,-0.82032 0.218751,-0.18229 0.765627,-0.18229 0.610678,0 0.756512,0.11849 0.154948,0.10937 0.154948,0.52865 v 0.24609 q 0,0.63802 -0.227865,0.8112 -0.218751,0.17318 -0.774741,0.17318 -0.601564,0 -0.747397,-0.10938 -0.145834,-0.10937 -0.145834,-0.53776 z"
         id="path7174" />
      <path
         d="m 89.571049,904.10743 h 0.875001 v -0.95703 q 0,-0.57422 0.100261,-0.94792 0.100261,-0.38281 0.282553,-0.53776 0.191406,-0.16406 0.364584,-0.20964 0.173177,-0.0547 0.428386,-0.0547 0.355469,0 0.410157,0.13672 0.05469,0.1276 0.05469,0.86588 v 1.70443 h 2.29688 q 0.164062,0 0.273438,0.0273 0.109375,0.0273 0.200521,0.15495 0.09115,0.11849 0.09115,0.33724 v 0.31901 q 0,0.5013 -0.565105,0.5013 h -2.315109 v 5.76954 q 0,1.60417 1.294273,1.60417 0.136719,0 0.273438,-0.0182 0.145834,-0.0273 0.23698,-0.0456 0.100261,-0.0274 0.23698,-0.0729 0.145833,-0.0547 0.200521,-0.0729 0.05469,-0.0273 0.182292,-0.0911 l 0.136719,-0.0547 q 0.173177,-0.0729 0.300782,-0.0182 0.136719,0.0547 0.236979,0.30078 l 0.100261,0.3737 q 0.08203,0.2461 0.01823,0.35547 -0.0638,0.10026 -0.319011,0.20052 -0.975262,0.44662 -1.959639,0.44662 -1.294273,0 -1.914066,-0.65625 -0.610678,-0.65625 -0.610678,-1.95053 0,-1.21224 -0.01823,-3.20834 -0.01823,-1.99609 -0.01823,-2.86198 h -0.875001 q -0.264324,0 -0.410157,-0.10026 -0.145834,-0.10026 -0.145834,-0.40104 v -0.31901 q 0,-0.31902 0.136719,-0.41928 0.145834,-0.10026 0.419272,-0.10026 z"
         id="path7176" />
      <path
         d="m 96.844502,906.75978 q 0,-0.73828 -0.02734,-3.3086 -0.02734,-2.57032 -0.02734,-2.83464 0,-0.41016 0.136719,-0.49219 0.136719,-0.0911 0.811199,-0.0911 0.555991,0 0.656252,0.11849 0.109375,0.10937 0.109375,0.70182 0,0.82943 -0.01823,2.62501 -0.01823,1.78646 -0.01823,2.66146 0.856773,-2.22396 3.20834,-2.22396 0.82031,0 1.48568,0.28255 0.67448,0.28255 1.19401,0.875 0.51953,0.59245 0.80209,1.59506 0.29166,1.0026 0.29166,2.36068 0,1.34896 -0.28255,2.35156 -0.28255,1.00261 -0.80208,1.59506 -0.51042,0.58333 -1.1849,0.86589 -0.66537,0.28255 -1.50391,0.28255 -1.15755,0 -1.968754,-0.58334 -0.811199,-0.58333 -1.239586,-1.66797 v 1.10287 q 0,0.67448 -0.136719,0.82031 -0.136719,0.14584 -0.774741,0.14584 -0.492188,0 -0.601563,-0.15495 -0.109375,-0.15495 -0.109375,-0.8112 z m 4.420578,6.09767 q 1.14844,0 1.81381,-0.9388 0.67448,-0.93881 0.67448,-2.82553 0,-1.89584 -0.66537,-2.84376 -0.66536,-0.94791 -1.82292,-0.94791 -1.25781,0 -2.023439,0.95703 -0.756511,0.94792 -0.756511,2.8073 0,1.70443 0.774741,2.7526 0.774739,1.03907 2.005209,1.03907 z"
         id="path7178" />
      <path
         d="m 113.75208,906.60483 v -1.56771 q 0,-0.67448 0.10938,-0.80208 0.10937,-0.12761 0.67448,-0.12761 0.24609,0 0.36458,0 0.11849,0 0.22787,0.0456 0.11849,0.0365 0.15494,0.0638 0.0456,0.0273 0.0729,0.14583 0.0365,0.11849 0.0365,0.21875 0,0.0911 0,0.32813 0,3.61849 -0.26432,5.54167 -1.06641,7.63804 -6.4896,7.63804 -0.58333,0 -1.21224,-0.13672 -0.2461,-0.0456 -0.32813,-0.13672 -0.082,-0.082 -0.0456,-0.3099 l 0.0911,-0.5013 q 0.0547,-0.23698 0.15494,-0.29167 0.10026,-0.0547 0.3099,-0.0273 0.0729,0 0.39193,0.0273 0.32812,0.0273 0.5013,0.0273 2.06902,0 3.19011,-1.29427 1.13021,-1.29428 1.6862,-4.15626 -0.30078,0.875 -0.65625,1.47656 -0.34635,0.59245 -0.70182,0.875 -0.34636,0.27344 -0.63803,0.3737 -0.28255,0.10938 -0.60156,0.10938 -0.58333,0 -1.05729,-0.2461 -0.47396,-0.24609 -0.80209,-0.74739 -0.32812,-0.50131 -0.57422,-1.03907 -0.23698,-0.53776 -0.38281,-1.35807 -0.14583,-0.82032 -0.23698,-1.44011 -0.082,-0.62891 -0.11849,-1.56771 -0.0365,-0.9388 -0.0456,-1.44922 -0.009,-0.51042 -0.009,-1.34896 0,-0.23698 0,-0.33724 0,-0.10026 0.0365,-0.21875 0.0365,-0.11849 0.0729,-0.14584 0.0365,-0.0365 0.15495,-0.0729 0.11849,-0.0456 0.23698,-0.0456 0.1276,0 0.37369,0 0.56511,0 0.66537,0.12761 0.10026,0.11849 0.10026,0.80208 v 1.56771 q 0,0.51042 0.0273,1.07553 0.0365,0.55599 0.11849,1.28515 0.082,0.72917 0.23698,1.36719 0.16407,0.63803 0.39193,1.19402 0.23698,0.55599 0.60157,0.88411 0.36458,0.31901 0.81119,0.31901 0.51042,0 0.92969,-0.46484 0.42839,-0.47396 0.6836,-1.16667 0.25521,-0.70182 0.42839,-1.5586 0.18229,-0.86588 0.2552,-1.60416 0.0729,-0.73829 0.0729,-1.33074 z"
         id="path7180" />
      <path
         d="m 123.40444,906.40431 -4.39323,6.32553 q 0.77474,0.0547 1.95964,0.0547 1.76823,0 2.79818,-0.0911 0.30989,-0.0182 0.42838,0.13672 0.11849,0.15494 0.15495,0.73828 0.0273,0.20052 -0.0456,0.30989 -0.0729,0.10026 -0.32813,0.13672 -0.69271,0.10938 -3.34505,0.10938 -2.41537,0 -3.13543,-0.10938 -0.24609,-0.0365 -0.33724,-0.13672 -0.082,-0.10937 -0.0547,-0.30989 0.009,-0.2461 0.20963,-0.72917 0.20964,-0.48307 0.42839,-0.78386 l 4.64844,-6.73568 q -0.77474,-0.0547 -1.95964,-0.0547 -1.64062,0 -2.59766,0.0911 -0.34635,0.0182 -0.4375,-0.10937 -0.082,-0.13672 -0.13672,-0.76563 -0.0547,-0.40104 0.3737,-0.44661 0.90235,-0.11849 3.1172,-0.11849 2.29687,0 3.17188,0.11849 0.42838,0.0547 0.37369,0.46484 -0.0729,0.67448 -0.89323,1.90495 z"
         id="path7182" />
      <path
         d="m 125.58284,911.23505 q 0,-1.38542 0.91146,-2.17839 0.91146,-0.79297 2.42448,-0.79297 0.97526,0 1.74089,0.34636 0.77474,0.33724 1.19401,1.0026 v -1.95964 q 0,-0.58333 -0.17318,-1.02083 -0.17317,-0.44662 -0.42838,-0.69271 -0.25521,-0.2461 -0.61068,-0.39193 -0.35547,-0.15495 -0.65625,-0.20052 -0.30078,-0.0456 -0.62891,-0.0456 -0.92969,0 -2.37891,0.39192 -0.21875,0.0912 -0.3737,0.0365 -0.14583,-0.0638 -0.23698,-0.31901 l -0.1276,-0.35547 q -0.082,-0.30078 0,-0.42838 0.082,-0.13672 0.32812,-0.22787 0.49219,-0.18229 1.32162,-0.32813 0.83854,-0.15494 1.72266,-0.15494 3.84636,0 3.84636,3.56381 v 5.4961 q 0,0.68359 -0.13672,0.82943 -0.1276,0.13672 -0.75651,0.13672 -0.49219,0 -0.60156,-0.14584 -0.10938,-0.14583 -0.10938,-0.82031 v -0.11849 q -0.41016,0.64714 -1.19401,0.95703 -0.77474,0.3099 -1.77735,0.3099 -1.53125,0 -2.41537,-0.75651 -0.88411,-0.76563 -0.88411,-2.13282 z m 3.91927,-1.9961 q -1.0664,0 -1.64062,0.54688 -0.56511,0.53776 -0.56511,1.43099 0,0.875 0.56511,1.40365 0.5651,0.51953 1.62239,0.51953 1.06641,0 1.71355,-0.52865 0.65625,-0.52864 0.65625,-1.39453 0,-0.86589 -0.63802,-1.42188 -0.63802,-0.55599 -1.71355,-0.55599 z"
         id="path7184" />
      <path
         d="m 144.25865,905.05535 q 0,0.8112 -0.0182,2.97136 -0.0182,2.16016 -0.0182,3.60027 v 1.34896 q 0,0.67448 -0.13672,0.82031 -0.13672,0.14584 -0.77474,0.14584 -0.49219,0 -0.60157,-0.14584 -0.10937,-0.14583 -0.10937,-0.82031 v -1.20313 q -0.46485,1.13933 -1.45834,1.75 -0.99349,0.60157 -2.10547,0.60157 -0.49219,0 -0.88412,-0.0729 -0.38281,-0.0729 -0.77474,-0.28255 -0.38281,-0.21875 -0.63802,-0.57422 -0.25521,-0.35547 -0.41927,-0.95703 -0.15495,-0.61068 -0.15495,-1.431 0,-1.08463 0.0182,-1.64062 -0.009,-0.87501 -0.0456,-2.36069 -0.0365,-1.48567 -0.0365,-1.8776 0,-0.59245 0.11849,-0.70183 0.1276,-0.11849 0.82031,-0.11849 0.57422,0 0.66537,0.12761 0.10026,0.11849 0.10026,0.82031 v 5.69663 q 0,1.04818 0.42839,1.57682 0.42838,0.52865 1.35807,0.52865 0.56511,0 1.06641,-0.23698 0.5013,-0.24609 0.91146,-0.72005 0.41927,-0.48308 0.68359,-1.27605 0.27344,-0.79297 0.32813,-1.8138 -0.0365,-2.8073 -0.0365,-3.75522 0,-0.68359 0.12761,-0.8112 0.13671,-0.13672 0.82031,-0.13672 0.54688,0 0.65625,0.13672 0.10938,0.12761 0.10938,0.8112 z"
         id="path7186" />
      <path
         d="m 148.77038,900.85352 q 0,0.92969 -0.0182,2.94402 -0.0182,2.00521 -0.0182,2.96224 v 6.21616 q 0,0.67448 -0.13672,0.82031 -0.13672,0.14584 -0.77474,0.14584 -0.49219,0 -0.60157,-0.14584 -0.10937,-0.14583 -0.10937,-0.82031 v -6.21616 q 0,-0.73828 -0.0273,-3.3086 -0.0274,-2.57032 -0.0274,-2.83464 0,-0.41016 0.13672,-0.49219 0.13672,-0.0911 0.8112,-0.0911 0.55599,0 0.65625,0.11849 0.10938,0.10937 0.10938,0.70182 z"
         id="path7188" />
      <path
         d="m 151.64147,910.82489 q 0,-0.73828 -0.0273,-3.3086 -0.0273,-2.57031 -0.0273,-2.83464 0,-0.41015 0.13672,-0.49219 0.13671,-0.082 0.8112,-0.082 0.55599,0 0.65625,0.11849 0.10937,0.10938 0.10937,0.70183 0,0.92969 -0.0182,2.9349 -0.0182,2.00521 -0.0182,2.96224 v 2.15105 q 0,0.67448 -0.13672,0.82031 -0.13671,0.14584 -0.75651,0.14584 -0.51042,0 -0.61979,-0.13672 -0.10938,-0.14584 -0.10938,-0.82943 z m -0.10937,-8.24871 v -0.22786 q 0,-0.63803 0.21875,-0.82032 0.21875,-0.18229 0.76563,-0.18229 0.61067,0 0.75651,0.11849 0.15495,0.10937 0.15495,0.52865 v 0.24609 q 0,0.63802 -0.22787,0.8112 -0.21875,0.17318 -0.77474,0.17318 -0.60156,0 -0.7474,-0.10938 -0.14583,-0.10937 -0.14583,-0.53776 z"
         id="path7190" />
      <path
         d="m 157.31076,909.04755 q 0,1.85937 0.7474,2.82552 0.75651,0.96615 2.19662,0.96615 0.61979,0 1.83203,-0.35547 0.24609,-0.0547 0.35547,0 0.11849,0.0547 0.16406,0.24609 l 0.0911,0.44662 q 0.0638,0.19141 0,0.31901 -0.0638,0.11849 -0.29167,0.20052 -1.09375,0.42839 -2.45183,0.42839 -4.3112,0 -4.3112,-5.11329 0,-2.55209 1.10286,-3.81902 1.10287,-1.27604 3.20834,-1.27604 0.69271,0 1.35808,0.13672 0.66537,0.13671 1.05729,0.29166 0.45573,0.14584 0.34636,0.52865 l -0.10938,0.51953 q -0.0638,0.20052 -0.20052,0.2461 -0.13672,0.0456 -0.35547,-0.0182 -1.09375,-0.31901 -1.79557,-0.31901 -1.44923,0 -2.19662,0.94791 -0.7474,0.94792 -0.7474,2.79819 z"
         id="path7192" />
      <path
         d="m 171.80297,909.50328 h -5.61459 q 0.0456,0.83854 0.24609,1.45833 0.20964,0.6198 0.49219,0.98438 0.28255,0.35547 0.6836,0.57422 0.41015,0.21875 0.79297,0.29167 0.38281,0.0638 0.84766,0.0638 0.53776,0 1.08463,-0.12761 0.55599,-0.13672 0.75651,-0.22786 0.20964,-0.0911 0.69271,-0.3099 0.23698,-0.0911 0.35547,-0.0456 0.12761,0.0365 0.20964,0.24609 l 0.16406,0.41016 q 0.0638,0.18229 0.009,0.28255 -0.0547,0.0912 -0.29167,0.21875 -1.53125,0.80209 -3.13542,0.80209 -4.57553,0 -4.57553,-5.22267 0,-1.14844 0.22786,-2.03255 0.22787,-0.88412 0.61068,-1.431 0.38281,-0.55599 0.9388,-0.90234 0.556,-0.34636 1.15756,-0.48307 0.60156,-0.13672 1.32162,-0.13672 0.70182,0 1.26693,0.1276 0.5651,0.12761 1.07552,0.44662 0.51953,0.31901 0.86589,0.83854 0.34635,0.51042 0.54687,1.33073 0.20964,0.8112 0.20964,1.88672 0,0.95704 -0.93881,0.95704 z m -3.02604,-4.35678 q -0.52865,0 -0.95704,0.14583 -0.41927,0.14583 -0.79297,0.49219 -0.36458,0.34635 -0.59245,1.01172 -0.21875,0.65625 -0.26432,1.60417 h 5.09506 q -0.009,-0.96615 -0.20052,-1.6224 -0.19141,-0.66536 -0.54688,-1.01172 -0.35546,-0.34635 -0.77474,-0.48307 -0.41015,-0.13672 -0.96614,-0.13672 z"
         id="path7194" />
      <path
         d="m 174.61939,913.34052 v -0.21875 q 0,-0.63802 0.21875,-0.82031 0.22786,-0.19141 0.77474,-0.19141 0.60156,0 0.75651,0.11849 0.15495,0.10938 0.15495,0.53776 v 0.2461 q 0,0.63802 -0.22787,0.8112 -0.21875,0.17317 -0.77474,0.17317 -0.60156,0 -0.75651,-0.10937 -0.14583,-0.11849 -0.14583,-0.54688 z"
         id="path7196" />
      <path
         d="m 180.01523,909.04755 q 0,1.85937 0.74739,2.82552 0.75652,0.96615 2.19662,0.96615 0.6198,0 1.83204,-0.35547 0.24609,-0.0547 0.35547,0 0.11849,0.0547 0.16406,0.24609 l 0.0911,0.44662 q 0.0638,0.19141 0,0.31901 -0.0638,0.11849 -0.29167,0.20052 -1.09375,0.42839 -2.45183,0.42839 -4.3112,0 -4.3112,-5.11329 0,-2.55209 1.10286,-3.81902 1.10287,-1.27604 3.20834,-1.27604 0.69271,0 1.35808,0.13672 0.66536,0.13671 1.05729,0.29166 0.45573,0.14584 0.34636,0.52865 l -0.10938,0.51953 q -0.0638,0.20052 -0.20052,0.2461 -0.13672,0.0456 -0.35547,-0.0182 -1.09375,-0.31901 -1.79558,-0.31901 -1.44922,0 -2.19662,0.94791 -0.74739,0.94792 -0.74739,2.79819 z"
         id="path7198" />
      <path
         d="m 193.07645,906.40431 -4.39324,6.32553 q 0.77474,0.0547 1.95964,0.0547 1.76823,0 2.79818,-0.0911 0.3099,-0.0182 0.42839,0.13672 0.11849,0.15494 0.15495,0.73828 0.0273,0.20052 -0.0456,0.30989 -0.0729,0.10026 -0.32812,0.13672 -0.69271,0.10938 -3.34506,0.10938 -2.41537,0 -3.13542,-0.10938 -0.2461,-0.0365 -0.33724,-0.13672 -0.082,-0.10937 -0.0547,-0.30989 0.009,-0.2461 0.20964,-0.72917 0.20963,-0.48307 0.42838,-0.78386 l 4.64845,-6.73568 q -0.77474,-0.0547 -1.95964,-0.0547 -1.64063,0 -2.59766,0.0911 -0.34636,0.0182 -0.4375,-0.10937 -0.082,-0.13672 -0.13672,-0.76563 -0.0547,-0.40104 0.3737,-0.44661 0.90234,-0.11849 3.11719,-0.11849 2.29688,0 3.17188,0.11849 0.42839,0.0547 0.3737,0.46484 -0.0729,0.67448 -0.89323,1.90495 z"
         id="path7200" />
    </g>
  </g>
  <polygon
     class="cls-1"
     points="560.24 -11.07 558.71 752.19 572.5 704.8 593.95 757.18 588.07 -10.76 560.24 -11.07"
     id="polygon238" />
  <polygon
     class="cls-2"
     points="502.37 -11.59 500.84 547.19 514.63 502.95 536.07 551.85 534.54 -9.26 502.37 -11.59"
     id="polygon240" />
</svg>
